<?xml version="1.0" encoding="UTF-8"?>
<svg id="Calque_2" data-name="Calque 2" xmlns="http://www.w3.org/2000/svg" viewBox="0 0 106.78 105.22">
  <defs>
    <style>
      .cls-1 {
        fill: none;
        stroke: #1a1d21;
        stroke-miterlimit: 10;
      }
    </style>
  </defs>
  <path class="cls-1" d="M96.98,20.87v62.7c-.2,4.5-2.5,7.8-6.1,10.4-2.3,1.6-5,1.8-7.6,1.8-19.9.1-39.7,0-59.6.1-4.6,0-8.2-1.5-11.2-5-2.2-2.6-2.8-5.6-2.8-8.8V22.17c0-4.7,1.8-8.3,5.4-11.2,2-1.7,4.5-1.8,6.8-2.3h63.1c4.6.2,7.9,2.6,10.4,6.3,1.3,1.7,1.2,3.8,1.6,5.9Z"/>
  <path class="cls-1" d="M33.58,27.37h26.3c2.2,0,4.2.5,6.2,1.3,4.5,1.8,6.9,5.2,7.3,10,.3,5-1.5,8.9-5.9,11.5-.2.1-.4.2-.5.3-.2.1-.3.2-.5.3,0,.1.1.2.1.3,5.8,1.4,8.9,5.9,9.1,12.3.3,6.3-2.8,10.9-8.6,13.2-2.5,1-5.1,1.6-7.7,1.6h-25.7c-.4-.5-.2-1-.2-1.5V28.97c-.1-.6-.3-1.1.1-1.6Z"/>
  <path class="cls-1" d="M51.78,70.87h-7.7c-1.1,0-1.6-.1-1.6-1.4.1-4.3,0-8.6,0-13,0-.9,0-1.5,1.2-1.5,5.5.1,11-.3,16.4.2,4.4.4,6.9,3.4,6.7,7.9-.2,4.5-2.9,7.5-7.3,7.7-2.6.1-5.2,0-7.7.1,0-.1,0,0,0,0Z"/>
  <path class="cls-1" d="M51.18,34.67c2.3,0,4.6-.1,7,0,4,.2,5.9,2,6.3,5.9.4,3.9-1.6,6.9-5.2,7.7-2.2.5-4.5.3-6.7.3h-8.7c-1.1,0-1.4-.3-1.4-1.4.1-3.7.1-7.5,0-11.2,0-1.1.3-1.4,1.4-1.4,2.4.1,4.9.1,7.3.1h0Z"/>
</svg>