<svg xmlns="http://www.w3.org/2000/svg" width="148.7" height="97.4" viewBox="0 0 148.7 97.4"><path d="M.6,54.6C.5,53.3.4,52,.3,50.5S0,48,0,46.7V43.8c0-1.2-.1-2.3,0-3.5v-.9c.2-2,.6-3.7.9-5.4a54.1,54.1,0,0,1,1.2-5.8l9.5-5.3a1.7,1.7,0,0,1,2.1,0l14.7,8.5a1.9,1.9,0,0,1,1.1,1.8V56c0,1.4-.4,1.4-1.5.7-2.8-1.7-5.7-3.3-8.7-4.9a1.9,1.9,0,0,1-1.2-1.9c.1-3.5,0-7,0-10.5A1.8,1.8,0,0,0,17,37.5c-1.5-.8-2.9-2.4-4.5-2.3s-3,1.5-4.5,2.3-1.1.9-1.1,1.9c.1,3.6,0,7.2,0,10.8a1.5,1.5,0,0,1-1,1.6A54.8,54.8,0,0,0,.6,54.6Z" style="fill:#333"/><path d="M148.4,37.5c.1,1.3.2,2.3.3,3.7a34.8,34.8,0,0,1-5.5,3.3c-.8.5-.8-.1-.8-.6V39.2a1.5,1.5,0,0,0-.9-1.6c-1.4-.8-2.8-1.5-4.1-2.4s-1.1-.5-1.5,0h-.2c-1.6,1-3.8,1.5-4.6,2.9s-.2,3.6-.3,5.5a1.7,1.7,0,0,0,1,1.8l14.3,8.3c.4.2.9.3,1.2,1l-10.2,5.9c-.5.3-.8.1-1.2-.1l-15.4-8.9a1.3,1.3,0,0,1-.8-1.3V32.7a1.3,1.3,0,0,1,.8-1.3l15.3-8.9a1.3,1.3,0,0,1,1.5.2c2.9,1.7,6,3.3,8.9,5.1,1,1.8,1,4,1.4,6.1A15.5,15.5,0,0,1,148.4,37.5Z" style="fill:#333"/><path d="M70.6,50.8c.1.6-.4.7-.7.9L54.7,60.6a1,1,0,0,1-1.5-.3c-2.8-5.2-5.9-10.3-8.8-15.4a25.2,25.2,0,0,1-1.5-2.7c-1.4-2.8-3.1-5.3-4.5-8l-1-2.1c-.1-.4.3-.5.6-.7l15.5-9.1a.9.9,0,0,1,.7-.1c2.6,3.7,4.6,7.8,7,11.7s2.7,5,4.3,7.3,2.9,5,4.4,7.5A8.6,8.6,0,0,0,70.6,50.8Z" style="fill:#6da65d"/><path d="M66.9,93.3c1.5-1.2,3.1-1.4,4.6-.1a5.4,5.4,0,0,0,1.6,1,1.2,1.2,0,0,0,1.4,0l13.3-7.7a1.3,1.3,0,0,0,.8-1.4V69.7a1.3,1.3,0,0,0-.8-1.3L74.4,60.7c-.5-.4-.9-.3-1.4.1L59.8,68.4a1.5,1.5,0,0,0-.8,1.5V85.2c0,.3-.1.8.3,1.1a21.4,21.4,0,0,0,4.5,2.4,2.3,2.3,0,0,0,2.8-2.5V71.8c0-1.2.3-1.5,1.4-1.4s1,.2,1,.9c0,5.4,0,10.8-.1,16.2a4.2,4.2,0,0,1-5.8,3.7c-2.1-.9-3.9-2.2-6-3.3-.4-.2-.4-.7-.4-1.1V68.6a1.5,1.5,0,0,1,.7-1.4c5.3-2.9,10.4-6,15.6-9,.7-.5,1.1-.3,1.8.1,5.1,2.9,10.2,6,15.4,8.9a1.3,1.3,0,0,1,.8,1.4v18a1.4,1.4,0,0,1-.9,1.5L74.7,97c-.5.3-.9.6-1.5.3C71.1,95.7,69,94.7,66.9,93.3Z" style="fill:#669f60"/><path d="M77.1,85.4c-2.3.2-4.5-.3-5.8-2.7l-.5-1.1c-.1-.6-.5-1.3.3-1.4s1.8-.8,2.3.6a2.2,2.2,0,0,0,1.5,1.7,12.9,12.9,0,0,0,5.5.4c1.1-.2,2-.8,1.9-2.1s-1-1.4-1.8-1.5l-6.1-1.2c-2.1-.4-2.9-1.1-3.1-2.6s.3-3.9,2.2-4.8a9.6,9.6,0,0,1,8.6.1,4.7,4.7,0,0,1,2.3,3c.1.5.5,1.2-.4,1.4s-1.5.5-2-.4a5.8,5.8,0,0,0-7.5-1.7c-.5.3-.9.7-.8,1.3A1.3,1.3,0,0,0,75,75.6l6.1,1.2c2.6.5,4.1,1.9,4.1,3.9s-1.5,4-4.2,4.6Z" style="fill:#669f60"/><path d="M65.1,41.5c-2.4-3.4-4.2-7.1-6.3-10.6s-2.8-4.5-4.1-6.8a5.6,5.6,0,0,1-.7-1.8l15.4,8.9c.5.2,1.1.2,1.1.9-.9,2.8-2.6,4.9-3.9,7.3S66.1,41.2,65.1,41.5Z" style="fill:#639c57"/><path d="M43,42l8.3,14.5c.6,1,1.1,2.1,1.8,3.1s.4.5,0,.8L37.8,51.6c-.3-.2-.7-.3-.6-.8a95.4,95.4,0,0,1,4.9-8.3A.9.9,0,0,1,43,42Z" style="fill:#3b8739"/><path d="M43,42a75.4,75.4,0,0,0-4.5,7,7.5,7.5,0,0,1-1.3,1.8V32.1c1.6,1.9,2.5,4.2,3.8,6.2A22.4,22.4,0,0,1,43,42Z" style="fill:#55a244"/><path d="M65.1,41.5l5.5-9.3V50.8c-1.5-2-2.5-4.3-3.9-6.5A18.7,18.7,0,0,1,65.1,41.5Z" style="fill:#3b8639"/><path d="M139.8,41.6c-.2.7.3,1.5-.3,2.1s-2,1.5-2.9,1.5-1.9-.9-2.8-1.5-.3-1.5-.3-2.3,1.8-3.5,3.2-3.3a7.7,7.7,0,0,1,3,1.5C140.1,40,139.7,41,139.8,41.6Z" style="fill:#669f60"/><path d="M111.8,46.7V7.1c0-.6.2-1.2-.4-1.5L100.9,0a3.3,3.3,0,0,0-.2,1.6V24c0,1.1-.1,1.6-1.3.7L96,22.8a1.5,1.5,0,0,0-2,0L79.2,31.4a1.6,1.6,0,0,0-.9,1.7V50.2a1.6,1.6,0,0,0,.8,1.6L94,60.4a1.4,1.4,0,0,0,1.9,0l11.9-6.8c1.3-.8,3-1.2,3.7-2.4S111.8,48.3,111.8,46.7Zm-13.9-.2c-2.1,1.3-3.6,1.2-5.7,0a4.8,4.8,0,0,1-2.8-4.9,4.8,4.8,0,0,1,2.8-4.9c2.1-1.2,3.6-1.3,5.7,0a5.1,5.1,0,0,1,2.8,4.9C100.5,44.1,99.9,45.2,97.9,46.5Z" style="fill:#333"/></svg>