<?xml version="1.0" encoding="UTF-8"?>
<svg id="Calque_1" data-name="Calque 1" xmlns="http://www.w3.org/2000/svg" viewBox="0 0 499.18 499.18">
  <defs>
    <style>
      .cls-1 {
        fill: none;
        stroke: #b6ccda;
        stroke-miterlimit: 10;
      }
    </style>
  </defs>
  <path class="cls-1" d="M108.95,239.85c0-35.15.08-70.31-.09-105.46-.02-4.91,1.25-6.61,6.43-6.63,22.15-.08,44.31-.9,66.46-.91,16.1,0,31.88,2.52,46.6,9.51,26.06,12.37,39.53,33.34,41.15,61.87,1.32,23.31-4.41,44.27-22.23,60.69-13.54,12.47-29.98,18.58-47.88,20.35-12.88,1.27-25.92,1.14-38.88,1.14-4.65,0-5.95,1.35-5.9,5.91.21,19.66.1,39.32.09,58.98,0,6.83-.03,6.84-7.06,6.85-10.83.01-21.66-.17-32.49.08-4.83.11-6.3-1.62-6.28-6.41.17-35.32.09-70.64.09-105.96ZM155.12,240.65c14.79,1.15,28.79,1.24,42.59-2.77,18.25-5.3,26.28-16.22,26.05-35.67-.19-16.17-9.49-28.41-26.98-31.61-12.6-2.3-25.76-1.63-38.68-1.96-.96-.02-2.78,2.5-2.84,3.9-.29,7.14-.14,14.3-.14,21.46,0,15.29,0,30.58,0,46.65Z"/>
  <path class="cls-1" d="M293.33,306.9c17.79,9.02,42.31,12.54,62.21,10.75,3.09-.28,6.27-1.11,9.12-2.35,6.87-2.99,8.6-10.87,3.08-15.89-3.72-3.38-8.46-5.8-13.05-8.03-11.79-5.74-24.17-10.4-35.56-16.83-18.28-10.32-27.67-26.35-25.17-47.7,2.48-21.09,15.12-34.6,34.48-42.1,14.97-5.8,30.68-5.99,46.32-4.44,9.37.93,18.59,3.35,27.87,5.1,4.02.76,5.2,3.31,5.13,7.22-.18,9.99-.02,19.99-.08,29.98-.03,5.1-1.4,6.04-6.02,3.86-14.3-6.74-29.43-9.28-45.1-9.07-3.14.04-6.29.53-9.39,1.11-4.75.9-8.39,3.36-9.47,8.39-1.07,4.96,1.52,8.69,5.37,10.92,6.45,3.74,13.27,6.85,20.01,10.06,9.59,4.58,19.52,8.54,28.83,13.62,17.82,9.73,26.16,25.09,24.48,45.43-1.59,19.27-11.67,32.99-28.83,41.34-16.84,8.19-34.96,9.12-53.24,7.76-12.47-.93-24.85-2.82-36.33-8.13-2.01-.93-4.48-3.6-4.55-5.54-.4-11.81-.17-23.64-.11-35.47Z"/>
  <rect class="cls-1" x=".5" y=".5" width="498.18" height="498.18" rx="90.13" ry="90.13"/>
</svg>