<svg xmlns="http://www.w3.org/2000/svg" width="363.6" height="363.6" viewBox="0 0 363.6 363.6"><path d="M283.7,72.6c-8.2.2-15.2,2.2-21,7.4a27.9,27.9,0,0,0-9.5,21.3c-.1,3,1.2,5.6,2.9,8,4.7,6.9,9.7,13.7,14,20.8,11.7,19.2,13.7,39.9,8.9,61.5-4,17.8-11.1,34.5-16.8,51.6-2.4,7.2-5,14.2-7.7,22-4-11.1-7.7-21.6-11.4-32.1L202,116.9c-1.3-3.7-1.3-3.7,2.8-3.7s10-.1,15,0c2,.1,2.6-.6,2.5-2.6-.4-3.9,1.6-8.9-.9-11.4s-7-.6-10.7-.6c-25.7,0-51.4.1-77.1-.1-3,0-3.9.9-3.6,3.7s-1.5,8.3.8,10.4,6.6.5,10.1.6,7.1-1.1,9.5.4,2.7,5.9,3.9,9.1c6.4,17.9,12.6,35.8,19,53.8a6.3,6.3,0,0,1,.3,4.7l-28.8,82.1a12.2,12.2,0,0,1-.7,1.7c-3.6-10-6.9-19.5-10.3-29q-21-59.5-42.2-119.1c-1.3-3.7-1.3-3.7,2.8-3.7s8.8-.1,13.2,0c2.1.1,2.7-.6,2.6-2.6-.4-3.9,1.6-8.9-.9-11.4s-7.1-.5-10.8-.6H57.7C103.9,26.4,211.7,6.3,283.7,72.6Z" style="fill:#00769c"/><path d="M182,201.1c4.5,12.5,8.8,24.8,13.1,37,9.8,27.8,19.6,55.6,29.6,83.3.8,2.4.5,3.2-2,3.9a151.2,151.2,0,0,1-84.6-.7c-1.7-.5-2.8-.8-1.9-3.2q22.7-59.1,44.9-118.4Z" style="fill:#00769c"/><path d="M312.2,109.7c16.5,29.5,22.4,61.2,17,94.4-7.8,48.6-34.2,84.6-77.1,108.7,3.3-9.3,6.6-18.7,10-28,14.8-41.7,29.8-83.2,44.6-124.9A113.8,113.8,0,0,0,312.2,109.7Z" style="fill:#00769c"/><path d="M43.9,123.6c1.9,4,66.3,186.3,67,189.3C45.3,279.5,13,195.8,43.9,123.6Z" style="fill:#00769c"/><circle cx="181.8" cy="181.8" r="174.8" style="fill:none;stroke:#00769c;stroke-width:14px"/></svg>