<?xml version="1.0" encoding="utf-8"?>
<!-- Generator: Adobe Illustrator 25.3.0, SVG Export Plug-In . SVG Version: 6.00 Build 0)  -->
<svg version="1.1" xmlns="http://www.w3.org/2000/svg" xmlns:xlink="http://www.w3.org/1999/xlink" x="0px" y="0px"
	 viewBox="0 0 400 400" style="enable-background:new 0 0 400 400;" xml:space="preserve">
<style type="text/css">
	.st0{display:none;}
	.st1{display:inline;}
	.st2{fill:#FFFFFF;}
	.st3{display:inline;fill:#581C0C;}
	.st4{fill:#FDFAE9;}
	.st5{fill:#581C0C;}
	.st6{fill:none;}
	.st7{fill:none;stroke:#581C0C;stroke-width:0.75;stroke-miterlimit:10;}
	.st8{fill:#CA5116;}
	.st9{display:inline;fill:none;stroke:#CA5116;stroke-width:0.75;stroke-miterlimit:10;}
	.st10{fill:#191919;}
	.st11{fill:none;stroke:#191919;stroke-width:0.75;stroke-miterlimit:10;}
</style>
<g id="Calque_2" class="st0">
	<g class="st1">
		<g>
			<path class="st2" d="M382.7,403.8c-149.9,0-300,0-450,0c0-150,0-299.9,0-450c149.9,0,299.9,0,450,0
				C382.7,103.7,382.7,253.7,382.7,403.8z M156.8,112.1c2.3,1.4,3.6,2,4.7,2.9c14.6,12,29.6,23.7,43.8,36.2
				c15.2,13.4,29.1,28.3,46.8,38.7c18.1,10.5,37.1,17,58.5,13.3c31-5.4,45.6-33.9,30.9-60.5c-14.1-25.8-49.4-40.5-77.7-32.4
				c-2.6,0.7-4.1,0.4-6-1.6c-23.6-25-47.4-49.9-71.2-74.8c-6.2-6.5-12.7-12.9-19.1-19.3c-0.3,0.3-0.7,0.6-1,0.9
				c28.9,32.9,57.8,65.8,86.7,98.7c-17,15.7-20.7,29.4-11.6,42.9c6.9,10.1,20.5,14.5,30.3,9.6c-17.5,1.3-28.4-5.1-31.7-18.6
				c-2.9-11.9,4.7-25.6,17-30.5c2.8,2.6,5.4,5.3,8.4,7.7c1.4,1.1,3.4,1.4,5.1,2.1c-0.5-1.7-0.6-3.7-1.5-5.1
				c-1.5-2.6-3.6-4.9-5.5-7.5c1.6-0.5,2.5-0.9,3.5-1.2c25.5-6.1,59,10,70.2,33.7c9.2,19.3,2,38.6-17.7,47c-17.4,7.4-34.5,4.8-51.4-2
				C250.1,185,235,173,220.7,160c-19.7-17.9-39.8-35.3-62.4-49.5c-1.8-1.2-3.2-3.7-3.9-5.9c-9-27.7-19.8-54.7-33.3-80.5
				c-5.4-10.3-11.4-20.4-17.1-30.5c-0.3,0.2-0.7,0.4-1,0.5c10.9,34.3,21.9,68.6,33,103.6c-9.1-3.5-17-6.4-24.9-9.5
				c-1.2-0.5-2.2-1.4-3.1-2.4c-8-8.5-15.9-17-23.8-25.5c-11.6-12.5-23.2-25-34.8-37.5c-0.5,0.3-1,0.7-1.5,1
				C60.5,43.1,73.3,62.5,86,81.8c-6.6-0.5-13.2-1.3-19.8-1.5C39.6,79.5,15,85.2-6.2,102.3c-31.5,25.3-37.5,65.2-13.6,96
				c14.6,18.8,33.7,29.9,58.4,28.9c9.6-0.4,22-7.3,23.7-14.4c-8.7,10.4-19.6,13.4-32,11.6C13,222-1.1,213.6-12.4,200.7
				c-13.4-15.4-20.2-33.2-16-53.9C-24,125.3-11,109.7,7.1,98.2C31.3,82.9,58,80,85.8,84c2,0.3,4.2,1.9,5.5,3.5
				c17.8,22.4,37,43.6,57.6,63.5c1.6,1.5,2.8,3.7,3.4,5.9c3.1,11.4,6,22.8,8.7,34.3c5.9,24.7,11.6,49.4,17.5,74.4
				c-19,2.8-28.2,14.6-30.6,32.1c-1.9,13.5,1.8,26.1,8.6,37.7c5.4,9.2,13,15.8,23.5,18.9c1.5,0.4,3.3,2.6,3.6,4.2
				c1,5.9-0.3,11.5-4.8,17.2c7.5-4.1,10.1-7.9,13.3-17.4c0.6-1.6,2.4-3.6,4-4c14.2-3.9,23.1-13.1,26.4-27.2
				c3.3-14,0.6-26.8-10.7-36.7c-5.4-4.7-12.7-6.7-17.8-5.4c16.8,6.2,24.3,20.4,19.3,37.1c-3.1,10.5-9.6,17.9-20.8,19.8
				c-10.9,1.8-18.5-3.8-24.3-12.2c-6-8.8-9.3-18.7-9.8-29.4c-0.6-14.8,8.2-27.4,21.2-29.8c4.5-0.8,9.3-0.1,14-0.1
				c-9.6-8.9-12.8-20.8-14.4-33.1c-2.2-16.6-3.4-33.4-5.2-50.1c-0.5-4.7-1.5-9.4-2.5-15.2c2.1,1.7,3.4,2.7,4.6,3.7
				c13.7,10.5,27,21.6,41.2,31.4c15.2,10.4,30,20.7,36.6,39.5c1.2-1.8,2-3,2.9-4.2c6.9-8.7,17.5-11.9,27.1-8.2
				c9.9,3.9,15.3,13.9,13,24.2c-2.3,10-11.2,16.9-21.2,15.8c-9.8-1.1-14.9-7.1-16.2-17.3c-3.8,10.9,2.5,21.7,14.1,25.2
				c11.3,3.4,24.3-1.8,30.6-12.2c7.4-12.3,5.9-27-3.7-36.8c-9-9.2-23.5-11.5-33.9-5.4c-2.4,1.4-4.6,3.2-7,4.9
				c-0.9-0.7-1.7-1.2-2.4-1.9c-25-23.1-50.1-46.2-75-69.5c-8.8-8.3-19-15.6-20.3-29.4C161.3,125.4,158.8,119.3,156.8,112.1z"/>
			<path d="M156.8,112.1c2,7.2,4.6,13.3,5.2,19.6c1.4,13.8,11.5,21.1,20.3,29.4c24.9,23.3,50,46.3,75,69.5c0.7,0.7,1.5,1.2,2.4,1.9
				c2.4-1.7,4.6-3.4,7-4.9c10.5-6.2,24.9-3.8,33.9,5.4c9.6,9.8,11.1,24.5,3.7,36.8c-6.3,10.5-19.3,15.6-30.6,12.2
				c-11.6-3.5-17.9-14.3-14.1-25.2c1.3,10.1,6.5,16.2,16.2,17.3c10,1.1,18.9-5.8,21.2-15.8c2.3-10.2-3.1-20.3-13-24.2
				c-9.6-3.8-20.2-0.6-27.1,8.2c-0.9,1.2-1.7,2.4-2.9,4.2c-6.6-18.8-21.3-29.1-36.6-39.5c-14.3-9.7-27.5-20.8-41.2-31.4
				c-1.3-1-2.5-2-4.6-3.7c0.9,5.8,1.9,10.4,2.5,15.2c1.8,16.7,3,33.4,5.2,50.1c1.6,12.2,4.8,24.2,14.4,33.1c-4.8,0-9.5-0.7-14,0.1
				c-13,2.4-21.8,15-21.2,29.8c0.4,10.7,3.7,20.6,9.8,29.4c5.8,8.5,13.4,14.1,24.3,12.2c11.2-1.9,17.7-9.3,20.8-19.8
				c5-16.7-2.5-30.9-19.3-37.1c5-1.3,12.4,0.6,17.8,5.4c11.3,9.9,14,22.7,10.7,36.7c-3.3,14-12.2,23.3-26.4,27.2
				c-1.6,0.4-3.4,2.4-4,4c-3.2,9.5-5.8,13.3-13.3,17.4c4.4-5.7,5.8-11.3,4.8-17.2c-0.3-1.6-2.1-3.8-3.6-4.2
				c-10.5-3.1-18.1-9.7-23.5-18.9c-6.8-11.6-10.5-24.2-8.6-37.7c2.5-17.5,11.7-29.4,30.6-32.1c-5.9-24.9-11.6-49.7-17.5-74.4
				c-2.7-11.5-5.6-22.9-8.7-34.3c-0.6-2.1-1.8-4.3-3.4-5.9c-20.6-19.9-39.8-41.1-57.6-63.5c-1.3-1.6-3.5-3.2-5.5-3.5
				C58,80,31.3,82.9,7.1,98.2C-11,109.7-24,125.3-28.4,146.8c-4.2,20.7,2.6,38.4,16,53.9C-1.1,213.6,13,222,30.3,224.4
				c12.4,1.7,23.3-1.3,32-11.6c-1.7,7.1-14.1,14-23.7,14.4c-24.7,1-43.8-10.1-58.4-28.9c-23.9-30.8-17.9-70.7,13.6-96
				c21.2-17,45.8-22.8,72.3-21.9c6.6,0.2,13.2,1,19.8,1.5C73.3,62.5,60.5,43.1,47.8,23.8c0.5-0.3,1-0.7,1.5-1
				c11.6,12.5,23.2,25,34.8,37.5c7.9,8.5,15.8,17.1,23.8,25.5c0.9,0.9,1.9,1.9,3.1,2.4c7.9,3.1,15.8,6,24.9,9.5
				c-11.2-35-22.1-69.3-33-103.6c0.3-0.2,0.7-0.4,1-0.5C109.7,3.7,115.6,13.7,121,24c13.5,25.8,24.3,52.8,33.3,80.5
				c0.7,2.2,2.1,4.7,3.9,5.9c22.6,14.2,42.7,31.7,62.4,49.5c14.3,13,29.4,25,47.6,32.3c16.9,6.8,34,9.4,51.4,2
				c19.7-8.4,26.9-27.7,17.7-47c-11.3-23.7-44.7-39.8-70.2-33.7c-1,0.2-1.9,0.6-3.5,1.2c2,2.6,4,5,5.5,7.5c0.9,1.5,1,3.4,1.5,5.1
				c-1.7-0.7-3.7-1-5.1-2.1c-3-2.4-5.6-5.1-8.4-7.7c-12.2,4.8-19.8,18.5-17,30.5c3.2,13.5,14.2,19.9,31.7,18.6
				c-9.8,4.8-23.4,0.5-30.3-9.6c-9.2-13.5-5.5-27.2,11.6-42.9c-28.9-32.9-57.8-65.8-86.7-98.7c0.3-0.3,0.7-0.6,1-0.9
				c6.4,6.4,12.8,12.8,19.1,19.3c23.8,24.9,47.5,49.8,71.2,74.8c1.9,2,3.4,2.3,6,1.6c28.3-8.2,63.6,6.6,77.7,32.4
				c14.6,26.6,0,55.2-30.9,60.5c-21.4,3.7-40.4-2.8-58.5-13.3c-17.7-10.3-31.6-25.2-46.8-38.7c-14.2-12.5-29.1-24.2-43.8-36.2
				C160.4,114.1,159,113.5,156.8,112.1z M113.8,90.3c-0.2,0.4-0.5,0.7-0.7,1.1c9.4,9.8,18.8,19.5,28.2,29.3
				c-0.9-6.5-2.5-12.5-4.4-18.5c-0.4-1.1-1.4-2.4-2.4-2.9C127.7,96.2,120.7,93.3,113.8,90.3z"/>
			<path class="st2" d="M113.8,90.3c6.9,3,13.9,5.9,20.7,9c1,0.5,2,1.8,2.4,2.9c1.9,5.9,3.5,11.9,4.4,18.5
				c-9.4-9.8-18.8-19.5-28.2-29.3C113.4,91.1,113.6,90.7,113.8,90.3z"/>
		</g>
	</g>
</g>
<g id="Calque_1">
	<g class="st0">
		<path class="st3" d="M392,200c0,12.6-9.2,24-11.5,35.9c-2.4,12.2,1.6,26.3-3.1,37.6c-4.7,11.4-17.6,18.6-24.4,28.7
			c-6.9,10.3-8.6,24.8-17.2,33.5c-8.7,8.7-23.3,10.4-33.5,17.2c-10.2,6.8-17.3,19.7-28.7,24.4c-11.2,4.7-25.4,0.6-37.6,3.1
			C224,382.8,212.6,392,200,392c-12.6,0-24-9.2-35.9-11.5c-12.2-2.4-26.3,1.6-37.6-3.1c-11.4-4.7-18.6-17.6-28.7-24.4
			c-10.3-6.9-24.8-8.6-33.5-17.2c-8.7-8.7-10.4-23.3-17.2-33.5c-6.8-10.2-19.7-17.3-24.4-28.7c-4.7-11.2-0.6-25.4-3.1-37.6
			C17.2,224,8,212.6,8,200c0-12.6,9.2-24,11.5-35.9c2.4-12.2-1.6-26.3,3.1-37.6c4.7-11.4,17.6-18.6,24.4-28.7
			c6.9-10.3,8.6-24.8,17.2-33.5c8.7-8.7,23.3-10.4,33.5-17.2c10.2-6.8,17.3-19.7,28.7-24.4c11.2-4.7,25.4-0.6,37.6-3.1
			C176,17.2,187.4,8,200,8c12.6,0,24,9.2,35.9,11.5c12.2,2.4,26.3-1.6,37.6,3.1c11.4,4.7,18.6,17.6,28.7,24.4
			c10.3,6.9,24.8,8.6,33.5,17.2c8.7,8.7,10.4,23.3,17.2,33.5c6.8,10.2,19.7,17.3,24.4,28.7c4.7,11.2,0.6,25.4,3.1,37.6
			C382.8,176,392,187.4,392,200z"/>
	</g>
	<g>
		<circle class="st4" cx="200" cy="200" r="165"/>
	</g>
	<g>
		<polygon class="st5" points="200.6,69.5 205.3,79.1 216,80.7 208.3,88.2 210.1,98.8 200.6,93.8 191,98.8 192.8,88.2 185.1,80.7 
			195.8,79.1 		"/>
	</g>
	<g>
		<g>
			<polygon class="st5" points="69.8,173.2 60.5,200 69.8,226.8 69.8,227.2 18.8,227.2 18.8,172.8 69.8,172.8 			"/>
		</g>
	</g>
	<g>
		<g>
			<polygon class="st5" points="330.2,224.5 339.5,197.7 330.2,171 330.2,170.6 381.2,170.6 381.2,224.9 330.2,224.9 			"/>
		</g>
	</g>
	<g>
		<rect x="94.4" y="143.2" class="st6" width="210.9" height="47.7"/>
		<path class="st5" d="M160.9,166.5c-0.2,0.9-0.5,1.9-0.8,2.9c-0.3,1-0.5,2.1-0.7,3.2c-0.2,1.1-0.3,2.2-0.3,3.3
			c0,1.1,0.1,2.1,0.4,3.1c-0.3,0.2-0.6,0.3-1,0.4c-0.4,0.1-0.8,0.1-1.1,0.2c-0.4,0.1-0.8,0.1-1.2,0c-0.6,0-1-0.1-1.3-0.3
			c-0.3-0.2-0.5-0.5-0.6-0.9c-0.1-0.4-0.1-0.8-0.1-1.3c0.1-0.5,0.2-1.1,0.4-1.6c0.3-1.1,1-3.5,2.1-7c1-3.6,2.2-8.4,3.4-14.6
			c0.2-1.1,0.4-2,0.5-2.8c0.1-0.8,0.3-1.5,0.4-2.1c-0.5-0.3-0.9-0.7-1.4-1.1c-0.5-0.4-0.8-0.8-1.1-1.2c0-0.1,0.3-0.4,0.8-0.9
			c0.5-0.5,1-1.1,1.7-1.7c0.6-0.6,1.3-1.1,1.9-1.6c0.6-0.5,1.1-0.7,1.5-0.7c0.2,0,0.4,0.1,0.6,0.2c0.2,0.2,0.5,0.4,0.7,0.6
			c0.2,0.2,0.4,0.4,0.6,0.7s0.2,0.5,0.2,0.6L160.9,166.5z"/>
		<path class="st5" d="M183.6,141.3c1.3,0,2.3,0.5,3.3,1.4c0.9,0.9,1.6,2.2,2.2,3.7c0.5,1.5,0.9,3.3,1,5.3c0.1,2,0.1,4.1-0.1,6.2
			c-0.5,4.3-1.3,7.8-2.5,10.7s-2.5,5.1-3.9,6.8c-1.4,1.7-2.8,2.9-4.3,3.6s-2.7,1-3.7,1c-0.8,0-1.6-0.2-2.4-0.7
			c-0.8-0.5-1.5-1.3-2.1-2.4c-0.6-1.1-1.1-2.5-1.5-4.2c-0.4-1.7-0.6-3.8-0.6-6.2c0-1.5,0.1-3.2,0.5-5.1c0.4-1.8,0.9-3.7,1.5-5.6
			c0.6-1.9,1.4-3.7,2.3-5.4c0.9-1.7,1.9-3.3,3-4.7c1.1-1.4,2.3-2.4,3.5-3.3C180.9,141.7,182.2,141.3,183.6,141.3z M186.1,156.6
			c0-0.2,0-0.6,0.1-1.3c0.1-0.7,0.1-1.5,0.1-2.4c0-0.9,0-1.9,0-2.9s-0.2-1.9-0.4-2.8c-0.2-0.8-0.6-1.5-1-2.1s-1-0.8-1.8-0.8
			c-0.7,0-1.7,0.6-2.8,1.9c-1.1,1.3-2.2,3-3.2,5.2c-1,2.2-1.9,4.9-2.7,7.9c-0.7,3.1-1.1,6.4-1.1,10c0,0.4,0,1,0.1,1.8
			c0.1,0.8,0.2,1.6,0.4,2.5c0.2,0.8,0.5,1.6,0.9,2.2c0.4,0.6,0.9,0.9,1.5,0.9c1,0,2-0.6,3-1.9s2-2.8,2.9-4.8c0.9-2,1.7-4.1,2.4-6.5
			C185.3,161.3,185.8,158.9,186.1,156.6z"/>
		<path class="st5" d="M208.5,141.3c1.3,0,2.3,0.5,3.3,1.4s1.6,2.2,2.2,3.7c0.5,1.5,0.9,3.3,1,5.3c0.2,2,0.1,4.1-0.1,6.2
			c-0.5,4.3-1.3,7.8-2.5,10.7s-2.5,5.1-3.9,6.8c-1.4,1.7-2.8,2.9-4.3,3.6c-1.4,0.7-2.7,1-3.7,1c-0.8,0-1.6-0.2-2.4-0.7
			c-0.8-0.5-1.5-1.3-2.1-2.4c-0.6-1.1-1.1-2.5-1.5-4.2c-0.4-1.7-0.6-3.8-0.6-6.2c0-1.5,0.1-3.2,0.5-5.1c0.4-1.8,0.9-3.7,1.5-5.6
			c0.6-1.9,1.4-3.7,2.3-5.4c0.9-1.7,1.9-3.3,3-4.7c1.1-1.4,2.3-2.4,3.5-3.3C205.9,141.7,207.2,141.3,208.5,141.3z M211,156.6
			c0-0.2,0-0.6,0.1-1.3c0.1-0.7,0.1-1.5,0.1-2.4c0-0.9,0-1.9-0.1-2.9c0-1-0.2-1.9-0.4-2.8c-0.2-0.8-0.6-1.5-1-2.1
			c-0.4-0.5-1-0.8-1.8-0.8c-0.7,0-1.7,0.6-2.8,1.9c-1.1,1.3-2.2,3-3.2,5.2c-1,2.2-1.9,4.9-2.7,7.9c-0.7,3.1-1.1,6.4-1.1,10
			c0,0.4,0,1,0.1,1.8c0.1,0.8,0.2,1.6,0.4,2.5c0.2,0.8,0.5,1.6,0.9,2.2c0.4,0.6,0.9,0.9,1.5,0.9c1,0,2-0.6,3-1.9
			c1-1.2,2-2.8,2.9-4.8c0.9-2,1.7-4.1,2.4-6.5C210.3,161.3,210.7,158.9,211,156.6z"/>
		<path class="st5" d="M244.9,141.6c0.8-0.2,1.4-0.2,1.7-0.2s0.4,0.2,0.3,0.3c-0.2,0.3-0.6,0.9-1.3,1.8c-0.7,0.9-1.6,2.1-2.6,3.5
			c-1,1.4-2.1,2.9-3.4,4.6c-1.2,1.7-2.5,3.4-3.7,5.2c-1.2,1.8-2.4,3.5-3.6,5.2c-1.1,1.7-2.2,3.2-3,4.6c-1,1.6-2,3.1-2.9,4.6
			c-0.8,1.3-1.6,2.6-2.4,4c-0.8,1.4-1.5,2.6-2.1,3.6c-0.6,0.3-1.1,0.5-1.5,0.6c-0.4,0.1-0.8,0.2-1.1,0.3c-0.4,0.1-0.7,0.1-1,0.1
			c-0.7,0-1-0.1-1.1-0.2c-0.1-0.2,0-0.5,0.3-0.9c0.3-0.4,1-1.4,2.1-3.1c0.5-0.7,1.1-1.6,1.9-2.7c0.7-1.1,1.7-2.4,2.7-4
			c1.1-1.6,2.3-3.4,3.7-5.5c1.4-2.1,3-4.5,4.9-7.1l8.4-12.2c0.5-0.7,0.9-1.2,1.4-1.5C243.1,142.1,243.9,141.8,244.9,141.6z
			 M219.2,152.2c0-0.9,0.2-1.9,0.5-3.1c0.3-1.2,0.9-2.3,1.6-3.4c0.7-1.1,1.6-2,2.6-2.7c1-0.7,2.2-1.1,3.5-1.1c0.3,0,0.8,0.1,1.3,0.3
			c0.6,0.2,1.1,0.6,1.6,1.1c0.5,0.5,1,1.2,1.4,2s0.6,1.8,0.6,2.9c0,1.4-0.2,2.8-0.6,4.1c-0.4,1.4-1,2.6-1.7,3.7s-1.6,2-2.6,2.6
			c-1,0.7-2.2,1-3.4,1c-1.2,0-2.1-0.2-2.7-0.7c-0.6-0.5-1.1-1.1-1.4-1.8c-0.3-0.7-0.5-1.6-0.6-2.4
			C219.2,153.8,219.2,153,219.2,152.2z M229.1,149c0-0.5,0-1,0-1.5c-0.1-0.5-0.2-1-0.3-1.4c-0.2-0.4-0.3-0.8-0.5-1.1
			c-0.2-0.3-0.5-0.4-0.8-0.4c-0.7,0-1.4,0.3-2,0.8c-0.6,0.6-1.2,1.3-1.7,2.1c-0.5,0.8-0.8,1.8-1.1,2.8s-0.4,1.9-0.4,2.7
			c0,0.5,0,0.9,0.1,1.4c0,0.5,0.1,0.9,0.3,1.2c0.1,0.4,0.4,0.7,0.6,0.9c0.3,0.2,0.6,0.3,1,0.3c0.9,0,1.6-0.3,2.2-1
			c0.6-0.7,1.1-1.5,1.5-2.3c0.4-0.9,0.7-1.8,0.9-2.6C229,150,229.1,149.3,229.1,149z M239.2,161.9c0.4,0,0.8,0.1,1.4,0.3
			c0.6,0.2,1.1,0.6,1.7,1.1c0.5,0.5,1,1.1,1.4,1.9s0.6,1.8,0.6,2.9c0,1.4-0.2,2.8-0.6,4.2c-0.4,1.4-1,2.6-1.7,3.7s-1.6,2-2.6,2.6
			c-1,0.7-2.2,1-3.4,1c-1.2,0-2.1-0.2-2.7-0.7c-0.6-0.5-1.1-1.1-1.4-1.8c-0.3-0.7-0.5-1.5-0.6-2.4c-0.1-0.9-0.1-1.7-0.1-2.4
			c0-0.9,0.2-2,0.5-3.2c0.3-1.2,0.9-2.3,1.5-3.4c0.7-1.1,1.5-2,2.5-2.7C236.7,162.2,237.9,161.9,239.2,161.9z M241,168.9
			c0-0.5,0-1,0-1.5c0-0.5-0.1-1-0.3-1.4c-0.2-0.4-0.3-0.8-0.6-1.1c-0.2-0.3-0.5-0.4-0.8-0.4c-0.7,0-1.4,0.3-2,0.9
			c-0.6,0.6-1.2,1.3-1.6,2.1c-0.5,0.8-0.8,1.8-1.1,2.7c-0.3,1-0.4,1.9-0.4,2.7c0,0.5,0,1,0.1,1.4c0.1,0.4,0.2,0.9,0.3,1.2
			c0.2,0.4,0.4,0.7,0.6,0.9c0.3,0.2,0.6,0.3,1,0.3c0.9,0,1.6-0.3,2.2-1c0.6-0.7,1.1-1.5,1.4-2.3c0.4-0.9,0.6-1.8,0.8-2.6
			C240.9,169.9,241,169.3,241,168.9z"/>
	</g>
	<g>
		<rect x="90.6" y="218.3" class="st6" width="220.4" height="63.3"/>
		<path class="st5" d="M125.7,234.3c0.6-1.2,1.2-2.5,1.9-3.7c0.6-1.2,1.2-2.4,1.7-3.4c0.5-1.1,0.9-2,1.3-2.9c0.4-0.8,0.6-1.5,0.6-2
			c0.1-0.5,0-1-0.1-1.4c-0.1-0.4-0.4-0.7-0.7-0.9c-0.3-0.2-0.7-0.4-1.2-0.6c-0.5-0.1-1-0.2-1.5-0.2c-1-0.1-2.1,0-3.5,0.1
			c-1.3,0.1-2.6,0.3-3.9,0.6c-1.2,0.3-2.3,0.7-3.2,1.2c-0.9,0.5-1.4,1.1-1.4,1.9c0,0.4,0,0.8,0.2,1.1c0.1,0.3,0.4,0.5,0.8,0.8
			c0.4,0.2,1,0.3,1.8,0.3c0.1,0,0.3,0,0.5,0c0.2,0,0.4-0.1,0.7-0.1c0.3,0,0.6-0.1,0.9-0.2l-2.2,2.9c-0.4,0.6-0.9,0.9-1.3,1.1
			c-0.5,0.1-0.9,0.1-1.3,0.1c-0.2,0-0.6-0.1-1.2-0.3c-0.6-0.2-1.2-0.4-1.8-0.8c-0.6-0.4-1.1-0.8-1.6-1.4c-0.4-0.6-0.6-1.4-0.5-2.3
			c0.1-1.1,0.6-2,1.4-2.9s1.9-1.7,3.3-2.3c1.4-0.6,3.1-1.1,5.1-1.5c2-0.4,4.2-0.5,6.7-0.5c1.9,0,3.4,0.2,4.5,0.6
			c1.1,0.4,1.9,0.9,2.5,1.5c0.5,0.6,0.8,1.4,0.8,2.2c0,0.8-0.2,1.7-0.6,2.6c-0.2,0.4-0.4,1-0.8,1.7c-0.3,0.7-0.7,1.6-1.2,2.5
			c-0.5,1-1,2-1.5,3.2s-1.1,2.3-1.6,3.6c0.8,0.1,1.5,0.1,2.2,0.2s1.2,0.2,1.6,0.2c0.4,0.1,0.6,0.3,0.4,0.6c-0.3,0.5-0.5,0.9-0.8,1.2
			c-0.3,0.3-0.5,0.4-0.8,0.6c-0.3,0.1-0.6,0.1-1,0.1s-0.8,0-1.2-0.1c-0.3,0-0.5,0-0.8,0c-0.3,0-0.5,0-0.8-0.1
			c-0.6,1.3-1.1,2.6-1.6,3.9c-0.5,1.3-1,2.5-1.4,3.7c-0.4,1.2-0.8,2.2-1.1,3.2c-0.3,1-0.5,1.8-0.7,2.4c-0.2,0.9-0.3,1.8-0.4,2.6
			c-0.1,0.7-0.1,1.4-0.1,2.1s0.1,1.3,0.4,1.8c-0.6,0.2-1.2,0.3-1.6,0.4c-0.5,0.1-0.8,0.2-1.2,0.3c-0.4,0.1-0.6,0.2-0.9,0.2
			c-0.8,0.2-1.4,0.2-1.7-0.1c-0.3-0.3-0.4-0.8-0.3-1.8c0.1-0.6,0.2-1.4,0.3-2.2c0.1-0.8,0.3-1.7,0.6-2.7s0.6-2.2,1.1-3.4
			c0.5-1.3,1-2.6,1.7-4.2c0.4-0.9,0.9-1.9,1.4-2.9c0.5-1.1,1.1-2.2,1.7-3.5c-1.3,0-2.7,0.1-4.2,0.3c-0.8,0.1-1.6,0.3-2.4,0.4
			c-0.7,0.1-1.4,0.3-2.2,0.5c-0.8,0.2-1.5,0.4-2.2,0.6c-0.1-0.2-0.1-0.5-0.2-0.7c0-0.2,0-0.5,0-0.7c0-0.2,0.1-0.4,0.1-0.6
			c0.1-0.2,0.1-0.4,0.3-0.6c0.2-0.4,0.5-0.8,0.8-1.3c1.4-0.2,2.7-0.3,4-0.4c1.3-0.1,2.4-0.2,3.4-0.2c1.1-0.1,2.2-0.1,3.2-0.1
			c0.1,0,0.3,0,0.4,0C125.4,234.3,125.6,234.3,125.7,234.3z"/>
		<path class="st5" d="M158,241.1c-0.4,0.6-0.9,1.3-1.6,2.2c-0.6,0.9-1.3,1.7-2,2.6c-0.7,0.9-1.4,1.7-2,2.4s-1.2,1.2-1.7,1.5
			c-0.3,0.2-0.6,0.3-1,0.4c-0.4,0.1-0.8,0.2-1.2,0.2c-0.4,0-0.8,0-1.1-0.1c-0.4-0.1-0.7-0.2-0.9-0.4c-0.3-0.2-0.5-0.5-0.7-0.9
			c-0.1-0.3-0.3-0.8-0.4-1.3c-0.1-0.5-0.2-1.2-0.2-2c-0.7,1.2-1.5,2.1-2.3,2.7c-0.9,0.6-1.7,1.1-2.4,1.4c-0.9,0.3-1.8,0.5-2.7,0.6
			c-0.4,0-0.9-0.1-1.3-0.4c-0.5-0.3-0.9-0.7-1.2-1.3s-0.5-1.4-0.6-2.3c-0.1-1,0-2.1,0.4-3.4c0.4-1.8,1.1-3.4,2-4.9
			c0.9-1.5,1.9-2.7,2.9-3.8c1.1-1,2.1-1.8,3.1-2.4c1-0.5,1.9-0.8,2.6-0.7c0.8,0.1,1.4,0.4,1.9,0.7c0.4,0.3,0.7,0.7,0.8,1.3
			s-0.1,1.3-0.7,2.3c0.4-0.1,0.8-0.1,1-0.2c0.3,0,0.5,0,0.6,0c0.2,0,0.3,0,0.4,0c0,0.1,0,0.2,0,0.4c0,0.2,0,0.5-0.1,1
			c-0.1,0.5-0.2,1.2-0.4,2c-0.2,0.9-0.4,2-0.7,3.3c-0.1,0.3-0.1,0.5-0.2,0.7c0,0.2-0.1,0.4-0.1,0.7c0,0.2-0.1,0.5-0.2,0.8
			c-0.1,0.3-0.1,0.7-0.2,1.1c0,0.3,0,0.6,0,0.9c0,0.3,0.1,0.6,0.2,0.9c0.1,0.3,0.2,0.5,0.4,0.6c0.2,0.2,0.5,0.2,0.8,0.2
			c0.3,0,0.7-0.2,1.2-0.6c0.5-0.4,1-0.8,1.5-1.4c0.5-0.6,1.1-1.2,1.7-1.9c0.6-0.7,1.1-1.4,1.6-2c0.5-0.6,1-1.2,1.3-1.7
			c0.4-0.5,0.7-0.9,0.9-1.1c0.2-0.3,0.5-0.4,0.7-0.5c0.2,0,0.4,0,0.5,0.2c0.1,0.2,0.1,0.4,0.1,0.8
			C158.6,240.2,158.3,240.6,158,241.1z M145,243.1c0.1-0.6,0.3-1.3,0.5-2.1c0.2-0.8,0.4-1.6,0.5-2.3c0.1-0.7,0.3-1.3,0.3-1.8
			c0.1-0.5,0.1-0.7-0.1-0.7c-0.1,0-0.3,0.1-0.5,0.1c-0.1,0.1-0.3,0.1-0.6,0.1c-0.2,0-0.5,0.1-0.7,0.1c0.2-0.5,0.4-0.9,0.4-1.2
			c0-0.3,0.1-0.6,0-0.7c0-0.2-0.1-0.4-0.2-0.5c-0.3-0.3-0.9-0.1-1.7,0.6c-0.8,0.7-1.7,2-2.8,3.8c-0.4,0.8-0.8,1.6-1.1,2.5
			c-0.3,0.9-0.4,1.7-0.6,2.5c-0.1,0.8-0.1,1.4-0.1,2c0.1,0.6,0.2,1,0.4,1.1c0.3,0.3,0.7,0.5,1.1,0.5c0.4,0,0.8-0.1,1.3-0.4
			c0.4-0.2,0.9-0.5,1.3-0.9c0.4-0.4,0.8-0.7,1.2-1.1c0.3-0.4,0.6-0.7,0.8-1.1C144.9,243.4,145,243.2,145,243.1z"/>
		<path class="st5" d="M158.7,233.3c0.1-0.2,0.4-0.3,0.8-0.4c0.4-0.1,0.8-0.2,1.3-0.3c0.4-0.1,0.8-0.1,1.2-0.1c0.4,0,0.6,0,0.6,0
			c0,0,0,0.3-0.2,0.9c-0.2,0.6-0.4,1.3-0.7,2.1c-0.3,0.8-0.5,1.6-0.8,2.5c-0.3,0.8-0.5,1.5-0.7,2.1c-0.1,0.5-0.3,1.1-0.5,1.8
			c-0.2,0.7-0.4,1.3-0.6,1.9c-0.2,0.6-0.3,1.2-0.3,1.8c-0.1,0.6,0,1,0.1,1.3c0.1,0.4,0.3,0.6,0.5,0.7c0.2,0.1,0.4,0.2,0.6,0.2
			c0.6,0,1.3-0.3,2.2-1c0.9-0.6,1.8-1.4,2.7-2.3c0.9-0.9,1.8-1.8,2.6-2.7c0.8-0.9,1.4-1.7,1.8-2.2c0.2-0.3,0.5-0.5,0.7-0.6
			c0.3-0.1,0.5-0.1,0.6,0c0.2,0.1,0.2,0.3,0.3,0.6c0,0.3-0.1,0.6-0.3,0.9c-0.5,0.8-1.2,1.8-2.1,2.9c-0.9,1.1-1.9,2.2-2.9,3.3
			c-1,1-2,1.9-3,2.7c-1,0.7-1.8,1.1-2.4,1.2c-0.5,0-1-0.1-1.5-0.2c-0.5-0.2-0.9-0.5-1.3-0.8c-0.4-0.3-0.7-0.7-1-1.2
			c-0.3-0.5-0.4-0.9-0.4-1.4c-0.1-0.7-0.1-1.7,0-3c0.1-1.3,0.3-2.6,0.5-3.9c0.2-1.3,0.5-2.6,0.9-3.8
			C157.8,234.8,158.2,233.9,158.7,233.3z M164.8,223.9c-0.1,0.3-0.3,0.6-0.5,1c-0.3,0.3-0.5,0.6-0.8,0.8s-0.6,0.3-1,0.4
			c-0.3,0.1-0.6,0-0.8-0.2c-0.6-0.5-0.9-1-1-1.5c0-0.5,0.1-1.1,0.4-1.5c0.3-0.5,0.7-0.9,1.1-1.2s0.8-0.5,1.1-0.6
			c0.3-0.1,0.6,0,0.8,0.2c0.2,0.2,0.4,0.4,0.5,0.8c0.1,0.3,0.2,0.7,0.2,1C164.9,223.2,164.9,223.6,164.8,223.9z"/>
		<path class="st5" d="M183.8,238.7c0.1-0.2,0.3-0.3,0.5-0.3c0.2,0,0.3,0,0.5,0.1c0.1,0.1,0.2,0.2,0.2,0.4c0,0.2-0.1,0.5-0.2,0.8
			c-0.6,1.1-1.4,2.3-2.3,3.6c-1,1.3-2,2.5-3,3.7c-1.1,1.1-2.1,2.1-3.1,2.8c-1,0.7-1.8,1.1-2.5,1.1c-1,0-1.8-0.2-2.4-0.6
			c-0.6-0.4-1.2-0.9-1.5-1.4c-0.4-0.6-0.6-1.2-0.8-1.8c-0.1-0.7-0.2-1.3-0.1-1.8c0-0.5,0.1-1.3,0.3-2.5c0.2-1.2,0.4-2.6,0.7-4.2
			c0.3-1.6,0.6-3.3,1-5.2c0.4-1.8,0.8-3.6,1.2-5.3c-0.5,0.1-1,0.1-1.5,0.2c-0.5,0.1-1,0.1-1.4,0.1c-0.9,0-1.8-0.1-2.7-0.3
			c-0.8-0.2-1.5-0.4-1.9-0.6c-0.2-0.1-0.3-0.3-0.3-0.5c0-0.2,0.1-0.4,0.3-0.7c0.1-0.2,0.3-0.4,0.6-0.6c0.2-0.2,0.4-0.2,0.6-0.2
			c0.6,0.1,1.2,0.1,1.8,0.2c0.6,0,1.4,0.1,2.1,0c0.6,0,1.1-0.1,1.6-0.1c0.5-0.1,1-0.1,1.5-0.2c0.4-1.4,0.8-2.6,1.1-3.7
			c0.4-1,0.7-1.8,1-2.2c0.1-0.1,0.3-0.3,0.6-0.4c0.3-0.1,0.6-0.2,1-0.2c0.4,0,0.7,0,1,0c0.3,0,0.6,0.2,0.7,0.3
			c0.1,0.2,0.2,0.8,0.2,1.8c0,1-0.2,2.2-0.5,3.7c1.2,0,2.3,0.1,3.3,0.2c1,0.1,1.8,0.3,2.5,0.4c0.7,0.2,1.2,0.3,1.6,0.5
			c0.4,0.2,0.7,0.3,0.9,0.3c0.2,0.1,0.3,0.2,0.3,0.4c0,0.2,0,0.5-0.1,0.7c-0.1,0.3-0.3,0.5-0.5,0.6c-0.2,0.2-0.5,0.2-0.8,0.2
			c-0.3,0-0.6-0.1-1-0.2c-0.4-0.1-0.8-0.2-1.3-0.2c-0.5-0.1-1.1-0.1-1.8-0.2c-0.7-0.1-1.5-0.1-2.5-0.1c-0.2,0-0.4,0-0.6,0
			c-0.2,0-0.5,0-0.7,0c-0.1,0.5-0.2,0.9-0.3,1.4c-0.1,0.5-0.2,0.9-0.4,1.4c-0.4,1.2-0.8,2.5-1.3,3.8c-0.4,1.2-1,2.6-1.6,4.2
			c-0.6,1.6-1.3,3.2-2.1,5c-0.2,1.3-0.2,2.2,0.1,2.9c0.2,0.7,0.5,1.1,0.8,1.4c0.4,0.3,0.9,0.5,1.4,0.5c0.4,0.1,1-0.1,1.6-0.5
			c0.6-0.4,1.3-0.9,2-1.5c0.7-0.6,1.4-1.3,2.1-2c0.7-0.7,1.3-1.5,1.9-2.2c0.6-0.7,1.1-1.3,1.5-1.9
			C183.3,239.4,183.6,239,183.8,238.7z"/>
		<path class="st5" d="M207.5,258.2c-1.2,0-2.1-0.2-2.9-0.6s-1.3-1.1-1.8-1.9c-0.4-0.8-0.7-1.9-0.8-3.1c-0.1-1.2-0.1-2.5,0-3.9
			c0.1-1.1,0.4-2.2,0.8-3.4c0.3-1,0.8-2.1,1.5-3.3c0.7-1.2,1.6-2.4,2.7-3.5c0.2,0.1,0.4,0.1,0.6,0.2c0.1,0.1,0.3,0.2,0.4,0.2
			c0.1,0.1,0.1,0.2,0.2,0.3c0.1,0.3,0,0.7-0.3,1.1c-0.2,0.4-0.5,0.9-0.7,1.3c-0.6,1.4-1.1,2.6-1.5,3.8s-0.5,2.3-0.6,3.4
			c-0.1,0.9-0.1,1.7,0,2.4c0.1,0.7,0.2,1.3,0.3,1.9c0.1,0.5,0.3,0.9,0.5,1.2s0.3,0.4,0.5,0.4c0.1,0,0.3-0.1,0.5-0.3s0.3-0.5,0.5-0.8
			c0.2-0.3,0.4-0.7,0.6-1.3c0.2-0.6,0.5-1.3,0.8-2.1c0.3-0.8,0.5-1.7,0.8-2.6c0.2-0.9,0.5-1.9,0.7-2.8c0.4-1.9,0.9-4,1.3-6.4
			s1.2-4.9,2.1-7.5c0.3-1.1,0.7-2.3,1.1-3.6c0.4-1.1,0.8-2.4,1.3-3.9c0.5-1.5,1.2-3.1,1.9-4.8c0-0.1,0.1-0.3,0.4-0.4
			c0.2-0.1,0.5-0.3,0.9-0.4c0.4-0.1,0.8-0.3,1.2-0.4c0.6-0.2,1.1-0.3,1.4-0.4s0.6,0,0.8,0.1s0.3,0.3,0.4,0.5
			c0.1,0.2,0.1,0.4,0.1,0.6c0.1,1,0.1,1.9,0.1,2.7s0,1.6,0.1,2.3c0,0.8,0,1.5,0,2.1c0,0.8,0,1.9-0.1,3.3c-0.1,1.4-0.2,2.8-0.4,4.3
			c-0.1,1.5-0.3,3-0.4,4.4s-0.1,2.6-0.1,3.6c0,0.5,0,1,0.1,1.4c0,0.4,0.1,0.8,0.2,1.3c0.4-1.1,0.8-2.2,1.3-3.3s0.9-2.3,1.4-3.4
			c0.5-1.1,0.9-2.1,1.3-3c0.4-0.9,0.7-1.7,1-2.3c0.4-0.8,0.8-1.9,1.4-3.1c0.6-1.3,1.2-2.5,1.8-3.8c0.6-1.3,1.2-2.4,1.7-3.5
			c0.5-1.1,0.9-1.8,1.1-2.2c0.2-0.3,0.5-0.6,0.9-0.8s0.9-0.4,1.4-0.6c0.5-0.2,0.9-0.3,1.4-0.4s0.7-0.1,0.9,0
			c0.4,0.1,0.7,0.2,0.8,0.4c0.2,0.1,0.3,0.3,0.3,0.3c0.1,0.1,0.1,0.3,0.1,0.6c0,0.3,0,0.7,0,1.3c-0.1,0.7-0.2,1.8-0.5,3.2
			c-0.3,1.4-0.6,3.1-1,4.9c-0.4,1.8-0.8,3.8-1.3,5.9c-0.5,2.1-0.9,4.2-1.3,6.2c-0.4,2-0.8,3.9-1.1,5.7s-0.5,3.3-0.6,4.5
			c-0.1,1.4,0,2.6,0.3,3.6c0.1,0.4,0.2,0.9,0.4,1.3c0.2,0.4,0.4,0.8,0.7,1.1s0.6,0.5,1.1,0.7c0.4,0.1,0.9,0.2,1.5,0.1
			c-0.7,0.5-1.5,0.9-2.2,1.1c-0.7,0.2-1.4,0.4-2.1,0.4c-0.7,0-1.4-0.1-1.9-0.3c-0.6-0.3-1-0.6-1.4-1.1c-0.4-0.5-0.7-1-0.8-1.6
			c-0.2-0.6-0.2-1.3-0.2-2.1c0.1-0.7,0.2-1.9,0.6-3.5c0.3-1.6,0.7-3.5,1.2-5.5s1-4.2,1.5-6.4c0.5-2.2,1.1-4.3,1.5-6.3
			c0.5-2,0.9-3.6,1.3-5.1c0.4-1.4,0.6-2.3,0.7-2.8c0.1-0.4,0.1-0.7,0.2-1c0-0.3,0.1-0.6,0.2-0.8c-0.3,0.6-0.7,1.3-1.1,2.1
			c-0.4,0.8-0.9,1.7-1.3,2.7c-0.5,0.9-1,1.9-1.4,2.9s-1,2-1.4,2.9c-0.7,1.5-1.5,3.1-2.2,4.7s-1.3,3.1-1.9,4.6s-1,2.7-1.4,3.9
			s-0.6,2-0.6,2.7v0.6c0,0.2,0,0.4,0,0.6c0,0.2,0.1,0.5,0.1,0.7l-1.8,1.4c-0.3,0.1-0.5,0.2-0.7,0.2c-0.2,0.1-0.4,0.1-0.6,0.1
			c-0.7,0-1.2-0.4-1.5-1.1c-0.4-0.6-0.7-1.9-1-3.8c-0.3-1.9-0.4-4.2-0.3-6.9c0.1-1.4,0.2-2.7,0.3-4.1c0.1-1.4,0.3-2.7,0.4-4
			c0.1-1.3,0.3-2.5,0.4-3.6c0.1-1.1,0.2-2.1,0.2-2.9c0-0.6,0-1.1,0-1.6c-0.1-0.5-0.1-0.9-0.2-1.3c-0.3,0.7-0.6,1.6-0.9,2.8
			c-0.3,1.2-0.7,2.5-1,3.9c-0.4,1.4-0.7,2.9-1.1,4.5c-0.4,1.6-0.7,3.1-1.1,4.5c-0.3,1.4-0.7,2.8-1,4c-0.3,1.2-0.5,2.2-0.7,2.9
			c-0.3,1.2-0.6,2.5-0.9,4c-0.3,1.5-0.7,2.9-1.1,4.3c-0.4,1.3-1,2.5-1.7,3.4C209.6,257.7,208.7,258.2,207.5,258.2z"/>
		<path class="st5" d="M262.4,241.1c-0.4,0.6-0.9,1.3-1.6,2.2c-0.6,0.9-1.3,1.7-2,2.6c-0.7,0.9-1.4,1.7-2,2.4
			c-0.7,0.7-1.2,1.2-1.7,1.5c-0.3,0.2-0.6,0.3-1,0.4c-0.4,0.1-0.8,0.2-1.2,0.2c-0.4,0-0.8,0-1.1-0.1c-0.4-0.1-0.7-0.2-0.9-0.4
			c-0.3-0.2-0.5-0.5-0.7-0.9c-0.1-0.3-0.3-0.8-0.4-1.3c-0.1-0.5-0.2-1.2-0.2-2c-0.7,1.2-1.5,2.1-2.3,2.7c-0.9,0.6-1.7,1.1-2.4,1.4
			c-0.9,0.3-1.8,0.5-2.7,0.6c-0.4,0-0.9-0.1-1.3-0.4c-0.5-0.3-0.9-0.7-1.2-1.3s-0.5-1.4-0.6-2.3c-0.1-1,0-2.1,0.4-3.4
			c0.4-1.8,1.1-3.4,2-4.9c0.9-1.5,1.9-2.7,2.9-3.8c1.1-1,2.1-1.8,3.1-2.4c1-0.5,1.9-0.8,2.6-0.7c0.8,0.1,1.4,0.4,1.9,0.7
			c0.4,0.3,0.7,0.7,0.8,1.3c0.1,0.6-0.1,1.3-0.7,2.3c0.4-0.1,0.8-0.1,1-0.2c0.3,0,0.5,0,0.6,0c0.2,0,0.3,0,0.4,0c0,0.1,0,0.2,0,0.4
			c0,0.2,0,0.5-0.1,1c-0.1,0.5-0.2,1.2-0.4,2c-0.2,0.9-0.4,2-0.7,3.3c-0.1,0.3-0.1,0.5-0.2,0.7c0,0.2-0.1,0.4-0.1,0.7
			c0,0.2-0.1,0.5-0.2,0.8c-0.1,0.3-0.1,0.7-0.2,1.1c0,0.3,0,0.6,0,0.9c0,0.3,0.1,0.6,0.2,0.9c0.1,0.3,0.2,0.5,0.4,0.6
			c0.2,0.2,0.5,0.2,0.8,0.2c0.3,0,0.7-0.2,1.1-0.6c0.5-0.4,1-0.8,1.5-1.4c0.5-0.6,1.1-1.2,1.7-1.9c0.6-0.7,1.1-1.4,1.6-2
			c0.5-0.6,1-1.2,1.3-1.7c0.4-0.5,0.7-0.9,0.9-1.1c0.2-0.3,0.5-0.4,0.7-0.5c0.2,0,0.4,0,0.5,0.2s0.1,0.4,0.1,0.8
			C263,240.2,262.8,240.6,262.4,241.1z M249.5,243.1c0.1-0.6,0.3-1.3,0.5-2.1c0.2-0.8,0.4-1.6,0.5-2.3c0.1-0.7,0.3-1.3,0.3-1.8
			c0.1-0.5,0.1-0.7-0.1-0.7c-0.1,0-0.3,0.1-0.5,0.1c-0.1,0.1-0.3,0.1-0.6,0.1c-0.2,0-0.5,0.1-0.7,0.1c0.2-0.5,0.4-0.9,0.4-1.2
			c0-0.3,0.1-0.6,0-0.7c0-0.2-0.1-0.4-0.2-0.5c-0.3-0.3-0.9-0.1-1.7,0.6c-0.8,0.7-1.7,2-2.8,3.8c-0.4,0.8-0.8,1.6-1.1,2.5
			c-0.3,0.9-0.5,1.7-0.6,2.5c-0.1,0.8-0.1,1.4-0.1,2c0.1,0.6,0.2,1,0.4,1.1c0.3,0.3,0.7,0.5,1.1,0.5c0.4,0,0.8-0.1,1.3-0.4
			c0.4-0.2,0.9-0.5,1.3-0.9c0.4-0.4,0.8-0.7,1.1-1.1c0.3-0.4,0.6-0.7,0.8-1.1C249.3,243.4,249.5,243.2,249.5,243.1z"/>
		<path class="st5" d="M263.1,233.3c0.1-0.2,0.4-0.3,0.8-0.4s0.8-0.2,1.3-0.3c0.4-0.1,0.8-0.1,1.2-0.1c0.4,0,0.6,0,0.6,0
			c0,0,0,0.3-0.2,0.9c-0.2,0.6-0.4,1.3-0.7,2.1c-0.3,0.8-0.5,1.6-0.8,2.5c-0.3,0.8-0.5,1.5-0.7,2.1c-0.1,0.5-0.3,1.1-0.5,1.8
			c-0.2,0.7-0.4,1.3-0.6,1.9c-0.2,0.6-0.3,1.2-0.3,1.8c-0.1,0.6,0,1,0.1,1.3c0.1,0.4,0.3,0.6,0.5,0.7s0.4,0.2,0.6,0.2
			c0.6,0,1.3-0.3,2.2-1c0.9-0.6,1.8-1.4,2.7-2.3c0.9-0.9,1.8-1.8,2.6-2.7c0.8-0.9,1.4-1.7,1.8-2.2c0.2-0.3,0.5-0.5,0.7-0.6
			c0.2-0.1,0.5-0.1,0.6,0c0.2,0.1,0.3,0.3,0.3,0.6s-0.1,0.6-0.3,0.9c-0.5,0.8-1.2,1.8-2.1,2.9c-0.9,1.1-1.9,2.2-2.9,3.3
			c-1,1-2,1.9-3,2.7c-1,0.7-1.8,1.1-2.4,1.2c-0.5,0-1-0.1-1.5-0.2c-0.5-0.2-0.9-0.5-1.3-0.8c-0.4-0.3-0.7-0.7-1-1.2
			c-0.3-0.5-0.4-0.9-0.4-1.4c-0.1-0.7-0.1-1.7,0-3c0.1-1.3,0.2-2.6,0.5-3.9c0.2-1.3,0.5-2.6,0.9-3.8
			C262.2,234.8,262.6,233.9,263.1,233.3z M269.2,223.9c-0.1,0.3-0.3,0.6-0.5,1c-0.3,0.3-0.5,0.6-0.8,0.8c-0.3,0.2-0.6,0.3-1,0.4
			c-0.3,0.1-0.6,0-0.8-0.2c-0.6-0.5-0.9-1-1-1.5c0-0.5,0.1-1.1,0.4-1.5s0.7-0.9,1.1-1.2s0.8-0.5,1.2-0.6c0.3-0.1,0.6,0,0.8,0.2
			c0.2,0.2,0.4,0.4,0.5,0.8c0.1,0.3,0.2,0.7,0.2,1C269.3,223.2,269.3,223.6,269.2,223.9z"/>
		<path class="st5" d="M285,251c-0.7,0-1.3-0.1-1.7-0.4c-0.5-0.2-0.9-0.6-1.2-1c-0.3-0.4-0.5-0.9-0.6-1.4c-0.1-0.5-0.1-1.1,0.1-1.7
			c0.1-0.4,0.2-1,0.4-1.7s0.4-1.4,0.6-2.3c0.2-0.8,0.4-1.6,0.6-2.4s0.3-1.5,0.4-2.2c0.1-0.7,0-1.2-0.1-1.6c-0.1-0.4-0.4-0.6-0.8-0.6
			c-0.5,0-1,0.2-1.5,0.5c-0.5,0.3-1,0.7-1.5,1.3c-0.5,0.5-1,1.1-1.5,1.8c-0.5,0.7-1,1.4-1.5,2.1c-0.3,1-0.5,1.9-0.7,2.6
			s-0.3,1.4-0.5,2s-0.3,1.1-0.4,1.6s-0.2,0.9-0.3,1.3c-0.1,0.3-0.4,0.6-0.8,0.9c-0.4,0.3-0.9,0.5-1.4,0.7c-0.5,0.2-0.9,0.3-1.3,0.3
			s-0.5-0.1-0.5-0.4c0-0.2,0.1-0.6,0.3-1.2c0.2-0.6,0.4-1.3,0.6-2.2c0.2-0.8,0.4-1.7,0.7-2.7c0.2-0.9,0.5-1.8,0.7-2.7
			c0.1-0.7,0.3-1.4,0.5-2.3c0.1-0.7,0.3-1.5,0.6-2.5c0.2-0.9,0.5-2,0.8-3.1c0.2-0.2,0.4-0.3,0.6-0.4c0.2-0.1,0.4-0.2,0.7-0.2
			c0.2-0.1,0.5-0.1,0.8-0.2c0.2,0,0.5,0,0.7,0c0.2,0,0.4,0.1,0.6,0.2c0.2,0.1,0.4,0.2,0.6,0.3c-0.1,0.2-0.2,0.5-0.3,0.9
			c-0.1,0.4-0.2,0.8-0.4,1.2c-0.1,0.5-0.3,1-0.4,1.5c0.4-0.5,0.8-1.1,1.3-1.6c0.5-0.5,1-1,1.6-1.5c0.6-0.4,1.2-0.8,1.8-1.1
			c0.6-0.3,1.3-0.4,2-0.4c0.6,0,1.1,0.2,1.5,0.5c0.4,0.3,0.8,0.8,1,1.3c0.2,0.6,0.4,1.3,0.4,2.1c0,0.8-0.1,1.7-0.3,2.6l-0.5,1.9
			c-0.1,0.6-0.3,1.3-0.6,2.2c-0.2,0.8-0.5,1.8-0.8,2.8c-0.2,0.6-0.2,1.2-0.2,1.7c0,0.5,0.3,0.7,0.9,0.7s1.2-0.3,2-1
			c0.8-0.6,1.6-1.4,2.5-2.3c0.8-0.9,1.6-1.9,2.3-2.8c0.7-1,1.3-1.7,1.7-2.3c0.3-0.4,0.5-0.6,0.8-0.8c0.2-0.1,0.4-0.1,0.6,0
			c0.1,0.1,0.2,0.3,0.2,0.6s-0.1,0.7-0.4,1.2c-0.2,0.4-0.5,1-1,1.6c-0.4,0.7-0.9,1.4-1.5,2.2c-0.6,0.8-1.2,1.5-1.9,2.3
			c-0.7,0.8-1.4,1.5-2.1,2.1c-0.7,0.6-1.5,1.2-2.2,1.5S285.7,251,285,251z"/>
	</g>
	<path class="st7" d="M163,85.2c-18.9,0-37.7,0-56.6,0"/>
	<path class="st7" d="M293.6,85c-18.9,0-37.7,0-56.6,0"/>
	<g>
		<polygon class="st5" points="199.8,307 201.7,311 206.1,311.6 202.9,314.7 203.7,319.1 199.8,317 195.8,319.1 196.6,314.7 
			193.4,311.6 197.8,311 		"/>
	</g>
	<path class="st7" d="M183.8,314.3c-8.1,0-16.2,0-24.3,0"/>
	<path class="st7" d="M239.5,314.2c-8.1,0-16.3,0-24.4,0"/>
</g>
<g id="Calque_3" class="st0">
	<g class="st1">
		<path class="st8" d="M391.7,200c0,12.6-9.2,24-11.5,35.9c-2.4,12.2,1.6,26.3-3.1,37.6c-4.7,11.4-17.6,18.6-24.4,28.7
			c-6.9,10.3-8.6,24.8-17.2,33.5c-8.7,8.7-23.3,10.4-33.5,17.2c-10.2,6.8-17.3,19.7-28.7,24.4c-11.2,4.7-25.4,0.6-37.6,3.1
			c-11.9,2.3-23.4,11.5-35.9,11.5c-12.6,0-24-9.2-35.9-11.5c-12.2-2.4-26.3,1.6-37.6-3.1c-11.4-4.7-18.6-17.6-28.7-24.4
			c-10.3-6.9-24.8-8.6-33.5-17.2c-8.7-8.7-10.4-23.3-17.2-33.5c-6.8-10.2-19.7-17.3-24.4-28.7c-4.7-11.2-0.6-25.4-3.1-37.6
			C16.8,224,7.7,212.6,7.7,200c0-12.6,9.2-24,11.5-35.9c2.4-12.2-1.6-26.3,3.1-37.6c4.7-11.4,17.6-18.6,24.4-28.7
			c6.9-10.3,8.6-24.8,17.2-33.5c8.7-8.7,23.3-10.4,33.5-17.2c10.2-6.8,17.3-19.7,28.7-24.4c11.2-4.7,25.4-0.6,37.6-3.1
			C175.6,17.2,187.1,8,199.7,8c12.6,0,24,9.2,35.9,11.5c12.2,2.4,26.3-1.6,37.6,3.1c11.4,4.7,18.6,17.6,28.7,24.4
			c10.3,6.9,24.8,8.6,33.5,17.2c8.7,8.7,10.4,23.3,17.2,33.5c6.8,10.2,19.7,17.3,24.4,28.7c4.7,11.2,0.6,25.4,3.1,37.6
			C382.5,176,391.7,187.4,391.7,200z"/>
	</g>
	<g class="st1">
		<circle class="st4" cx="199.7" cy="200" r="165"/>
	</g>
	<g class="st1">
		<polygon class="st8" points="200.2,69.5 205,79.1 215.7,80.7 207.9,88.2 209.8,98.8 200.2,93.8 190.7,98.8 192.5,88.2 184.8,80.7 
			195.5,79.1 		"/>
	</g>
	<g class="st1">
		<g>
			<polygon class="st8" points="69.4,173.2 60.2,200 69.4,226.8 69.4,227.2 18.5,227.2 18.5,172.8 69.4,172.8 			"/>
		</g>
	</g>
	<g class="st1">
		<g>
			<polygon class="st8" points="329.9,224.5 339.2,197.7 329.9,171 329.9,170.6 380.9,170.6 380.9,224.9 329.9,224.9 			"/>
		</g>
	</g>
	<path class="st9" d="M162.6,85.2c-18.9,0-37.7,0-56.6,0"/>
	<path class="st9" d="M293.3,85c-18.9,0-37.7,0-56.6,0"/>
	<g class="st1">
		<polygon class="st8" points="199.4,307 201.4,311 205.8,311.6 202.6,314.7 203.4,319.1 199.4,317 195.5,319.1 196.3,314.7 
			193.1,311.6 197.5,311 		"/>
	</g>
	<path class="st9" d="M183.4,314.3c-8.1,0-16.2,0-24.3,0"/>
	<path class="st9" d="M239.2,314.2c-8.1,0-16.3,0-24.4,0"/>
	<g class="st1">
		<g>
			<path class="st8" d="M265.5,260c1.2-0.1,1.2-0.1,1.6-1.2c1.5-3.9,3-7.9,4.4-11.8c0.4-1.1,0.8-2.1,1.2-3.2
				c-0.2,0.1-0.2,0.2-0.3,0.3c-2.2,4.5-4.3,9-6.5,13.4c-0.2,0.4-0.4,0.6-1,0.6c-4.4-0.4-8.9-0.7-13.3-1c-4.8-0.3-9.7-0.7-14.5-1
				c-8.8-0.6-17.6-1.1-26.4-1.6c-5-0.3-10-0.6-15.1-0.8c-10.2-0.4-20.5-0.9-30.7-1.1c-12.4-0.3-24.8-0.4-37.2-0.6
				c-2.7,0-5.4-0.1-8-0.1c-1.2,0-2.4,0-3.7,0c0-0.1,0-0.1,0-0.2c0.1-0.1,0.3-0.2,0.4-0.3c7.5-4.3,15-8.6,22.6-12.8
				c0.5-0.3,1.1-0.4,1.6-0.4c2.2-0.1,4.4-0.1,6.5-0.2c0.5,0,1-0.1,1.5-0.1c-2.8-0.2-5.5-0.4-8.2-0.6c-0.5,0-0.9,0.1-1.4,0.3
				c-1.2,0.5-2.4,1.1-3.5,1.6c-9.1,4.2-18.3,8.5-27.4,12.7c-1,0.5-1.4,1.1-1.2,2c0.2,0.9,0.9,1.5,1.9,1.6c6.5,0.4,13.1,0.8,19.6,1.1
				c6.5,0.4,13,0.7,19.5,1c7.9,0.4,15.8,0.9,23.7,1.2c12.3,0.4,24.7,0.6,37,0.9c3.7,0.1,7.4,0,11,0c0,0.1,0,0.1,0,0.2 M291.9,182.7
				c0-0.2-0.1-0.4-0.1-0.6c-0.1-2.6-0.1-5.2-0.3-7.7c-0.1-2.7-0.4-5.4-0.6-8.1c-0.1-1.7-0.3-3.5-0.5-5.2c-0.1,0.2-0.1,0.3-0.1,0.5
				c0,9.4-0.3,18.7-1.4,28c-0.6,5.3-1.4,10.5-2.1,15.8c-0.3,2.8-0.5,5.6-0.7,8.4c0,0.6,0.1,1.2,0.3,1.8c0.2,0.6,0.7,0.8,1.2,0.4
				c0.3-0.3,0.6-0.6,0.9-1c1.3-2,1.9-4.3,2.3-6.7c0.7-4.9,0.9-9.8,1-14.7c0-0.5,0.1-1,0.1-1.5 M237.1,144c-0.1,0.4-0.3,0.9-0.4,1.3
				c-0.1,0.8-0.2,1.6-0.4,2.5c-0.7,5.3-1.4,10.5-2.1,15.8c-0.1,0.5,0.1,0.7,0.6,0.6c3.2-0.1,6.4-0.2,9.7-0.3c0,0,0-0.1,0-0.1
				c-3-0.2-6.1-0.4-9.1-0.6c0.2-1,0.3-1.9,0.4-2.8c0.2-1.4,0.2-1.4,1.7-1.5c2-0.1,4.1-0.3,6.1-0.4c0,0,0-0.1,0-0.1
				c-2.4-0.2-4.9-0.5-7.4-0.7c0-0.4,0.1-0.6,0.1-0.9c0.1-1.1,0-1,1.1-1c2.4-0.1,4.7-0.3,7.1-0.4c0,0,0-0.1,0-0.1
				c-2.6-0.2-5.3-0.5-7.9-0.7c0.2-1.6,0.4-3.1,0.6-4.6c2.4-0.2,4.6-0.3,7-0.5c0.6,4,1.2,8,1.8,11.9c0.1-0.2,0.1-0.3,0.1-0.5
				c-0.5-5.2-1.1-10.4-1.6-15.6c-0.1-1-0.1-1-1.1-1c-1.4-0.1-2.7-0.2-4.1-0.3 M144.2,166C144.2,166,144.2,166,144.2,166
				c-0.1,0.4-0.1,0.8-0.1,1.2c0,9.2-0.1,18.4-0.1,27.7c0,8.3,0,16.6,0,24.9c0,1.4,0.6,2.5,1.7,3.1c0.8,0.4,1.7,0.7,2.7,1
				c0,0,0,0.1,0,0.2c-0.3,1.4,0.4,2.4,1.5,3.2c0.1,0,0.1,0.1,0.2,0.1c0.2,0.3,0.4,0.7,0.5,1c0.4,3.4,0.7,6.8,1.1,10.2
				c0.1,0.6,0.2,1.3,0.2,1.9c0.9-3.2,1.8-6.4,2.4-9.6c0.3-1.6,0.9-2.9,2.2-3.9c1-0.8,1.3-1.7,1.2-2.9c-0.1-1,0-1.9,0-2.9
				c0.7,0,1.2,0,1.8,0c3.1-0.3,5.1-1.7,5.1-5.2c0-4.9,0.1-9.8,0.2-14.7c0-1.8,1.1-3.2,2.8-3.7c1.1-0.3,2.3-0.6,3.5-0.6
				c7.8,0,15.7,0,23.5,0.1c5.4,0.1,10.8,0.6,16.2,1.4c4,0.6,8,1.4,11.8,3.1c3.1,1.4,5,3.6,5.4,7c0.3,2.4,0.2,4.9-0.2,7.3
				c-1.1,6.2-3.2,12.2-5.9,17.9c-1,2.1-2,4.1-3,6.1c-0.2,0.4-0.4,0.9-0.5,1.4c0.1,0,0.2,0.1,0.2,0.1c0.2-0.2,0.5-0.3,0.7-0.6
				c0.7-0.9,1.5-1.9,2.2-2.9c3.7-5.7,6.4-12,8.5-18.5c1.3-3.8,2.1-7.6,1.7-11.7c-0.3-3.5-1.6-6.5-4.5-8.5c-1.4-1-2.9-1.9-4.5-2.6
				c-4.1-1.8-8.4-2.8-12.8-3.6c-6.9-1.3-13.9-1.9-20.9-2.2c-4.6-0.2-9.2-0.1-13.8-0.2c-2.6,0-5.2,0.2-7.7,0.7
				c-4.6,0.9-8.6,4.3-8.7,10.2c0,3.2-0.3,6.4-0.6,9.6c-0.2,1.8-0.6,3.6-2,4.8c-2,1.7-4.5,2.5-7.3,2.9
				C147.2,201.3,145.7,183.6,144.2,166z M276.9,221.7c-1-0.1-2.1-0.2-3.1-0.3c-1.5-0.2-3.1-0.5-4.6-0.7c-0.6-0.1-1-0.6-1-1.2
				c-0.1-0.7-0.2-1.4-0.1-2.1c0.3-2.9,0.7-5.9,1.1-8.8c0.1-1,0.2-2.1-0.5-2.9c-1-1.3-2.4-1.7-3.9-1.7c-0.9,0-1.8,0-2.7,0
				c-0.1-0.4-0.1-0.8-0.2-1.2c-0.1-2.5-0.3-4.9-0.4-7.4c0-1,0.6-1.7,1.6-1.9c1-0.2,2-0.2,3-0.3c0.5,0,0.7,0.2,0.9,0.6
				c0.4,1.2,0.9,2.5,1.5,3.7c0.3,0.7,0.8,1.4,1.2,2c0.1-0.3,0.1-0.6,0.1-0.9c0.4-3,0.8-6,1.2-8.9c0.5-3.7,0.6-7.3,0.4-11
				c-0.2-3.5-0.9-7-0.1-10.7c-2.8,2.5-3.9,5.8-4.8,8.8c-1.4,0.2-2.7,0.5-4.1,0.7c-0.2-0.4-0.5-0.9-0.7-1.5c-1-2.2-2.3-4.2-4.1-5.7
				c-1.7-1.4-3.6-2.4-5.7-3.2c-3.1-1.2-6.4-1.7-9.7-2.1c-3.5-0.4-7-0.1-10.5,0.2c-5.7,0.6-11.4,1.3-17.1,2.2
				c-4.8,0.7-9.6,1.6-14.4,2.5c-7.6,1.5-15.2,3-22.8,4.1c-1.7,0.2-3.2,0.1-4.6-0.9c-1-0.7-2-1.3-3-1.9c-3.2-1.9-6.5-3.3-10.3-3.1
				c-0.8,0-1.2-0.2-1.5-0.9c-0.5-1.4-1.7-1.9-2.9-1.4c1.6,0.2,2.4,0.8,2.4,2.2c0,0.9,0.4,1.1,1.2,1.2c2.6,0.4,5.2,1,7.4,2.6
				c1.4,1,2.7,2.1,4.1,3.2c1.6,1.3,3.2,2.7,5.5,2.8c2.2,0.1,4.5,0.1,6.7,0c4.1-0.3,8.2-0.7,12.3-1.2c6.3-0.8,12.6-1.8,18.9-2.8
				c7.2-1.2,14.3-2.5,21.5-3.7c5.2-0.9,10.4-0.9,15.6,0.1c2.4,0.4,4.5,1.3,6.4,2.8c1.6,1.2,2.8,2.9,3.9,4.6c1,1.6,1,1.6,2.8,0.8
				c0.8-0.3,1.6-0.6,2.4-0.9c-0.2,2.6-0.7,5-0.6,7.5c0.1,2.5,0.6,4.9,0.9,7.4c-0.5-0.1-1.1-0.3-1.8-0.4c-0.6-0.1-1.3-0.2-1.9-0.3
				c-1.8-0.3-2.8,0.1-3.7,1.8c-2.3,4.4-2.9,9.1-1.9,13.9c0.3,1.5,1.4,2.5,2.9,2.7c1,0.2,2.1,0.1,3.2,0.2c0,0.1,0,0.2,0,0.3
				c0.2,2.9,0.3,5.9,0.5,8.8c0.1,2.6,1.3,3.9,3.9,4.2C270.8,223.8,273.8,222.9,276.9,221.7z M216.9,249.7c0,0.1,0,0.1,0,0.2
				c0.1,0.1,0.1,0.1,0.2,0.2c0.3,0.1,0.5,0.3,0.8,0.4c3.3,1.5,6.8,2.4,10.4,3.2c7.8,1.7,15.7,2.8,23.7,2.2c2.7-0.2,5.3-0.6,7.7-1.6
				c2-0.8,3.3-2.1,3.3-4.7c0-0.7-0.1-1.4-0.3-2.1c-0.3-1.6-0.6-3.2-0.9-4.6c1.7-0.3,3.4-0.4,5-0.8c2.5-0.6,4.4-2.1,5.4-4.5
				c0.9-2.2,0.9-4.3,0.5-6.6c-0.2-1-0.4-2-0.7-3c3-0.2,6-0.3,9-0.5c-3.5-0.7-7.1-1.3-10.6-1.8c-1-0.1-1.4,0.2-1.3,1.2
				c0,0.6,0.2,1.2,0.3,1.8c0.3,1.9,0.4,3.8-0.1,5.6c-0.6,2.1-1.8,3.1-4,3.3c-0.5,0-1,0.1-1.5,0c-1.6-0.3-3.2-0.6-4.8-1
				c-1.5-0.4-2.9,0-3.3,1.3c-0.2,0.6-0.3,1.4-0.2,2c0.4,2.8,0.8,5.5,1.3,8.3c0.1,0.6,0,0.9-0.6,1.1c-0.3,0.1-0.6,0.2-0.9,0.3
				c-2.2,0.3-4.4,0.8-6.6,1c-4,0.3-8,0.5-12,0.5c-6,0.1-12-0.1-18-1.1C218.1,249.7,217.5,249.7,216.9,249.7z M279.3,220.3
				c0.1,0,0.2-0.1,0.3-0.1c-0.1-0.4-0.1-0.7-0.2-1.1c-0.2-0.8-0.5-1.6-0.6-2.5c-0.8-4.2-0.9-8.5-0.9-12.7c0-5.8,0.1-11.6,0.2-17.4
				c0.1-8,0.3-16,0.3-24c0-1.3-0.2-2.5-0.3-3.8c0-0.2-0.3-0.5-0.4-0.5c-0.2,0-0.5,0.2-0.6,0.4c-0.4,0.7-0.7,1.4-1,2.1
				c-1.3,3.9-2.2,7.9-2.9,12c-1.2,7.4-1.6,14.7-1,22.2c0.4,4.4,1,8.8,2,13.1c0.8,3.5,1.8,7,3.6,10.2
				C278.3,218.8,278.8,219.5,279.3,220.3z M284.8,216.5c0.1,0,0.2,0,0.3,0c0-0.1,0-0.3,0-0.4c-0.1-4.1-0.5-8.3-0.4-12.4
				c0.2-6.3,0.6-12.7,1.1-19c0.5-5.6,1.4-11.2,2.1-16.9c0.4-3,0.7-6,1-9c0.1-0.7,0-1.5-0.1-2.3c-0.1-0.4-0.3-0.9-0.6-1
				c-0.3-0.1-0.8,0.2-1,0.5c-0.4,0.5-0.9,1.1-1.1,1.7c-0.7,1.9-1.4,3.8-1.8,5.7c-1,4.7-1.1,9.5-1.3,14.3c-0.4,10-0.3,19.9,0.7,29.8
				C283.9,210.5,284.4,213.5,284.8,216.5z M183.2,167.5c15.7-2.8,31.2-5.6,46.8-8.3c0,0,0-0.1,0-0.1c-15.6,2.5-31.3,5-47,7.6
				c-0.6-3.1-1.3-6.2-1.9-9.3c0,0-0.1,0-0.1,0c-0.5,3.1-0.9,6.3-1.4,9.5c-8.2-1.8-16.3-3.6-24.4-5.4c0,0,0,0.1,0,0.1
				c8.1,2.1,16.2,4.1,24.3,6.2c-0.1,0.9-0.2,1.7-0.1,2.5c0,1.3,1,2.3,2.2,2.3c1.1,0,2.1-1,2.1-2.3c0-0.3,0-0.6-0.1-0.8
				C183.4,168.8,183.3,168.2,183.2,167.5z M147.8,153c-0.1,0-0.1,0-0.2,0c-0.1,0.4-0.2,0.8-0.3,1.2c-0.6,2.8-1.2,5.5-1.8,8.3
				c-0.2,0.9,0.1,1.6,0.9,2c0.8,0.5,1.7,0.5,2.6,0c0.7-0.5,1-1.2,0.8-2c-0.2-0.9-0.3-1.8-0.5-2.6C148.8,157.6,148.3,155.3,147.8,153
				z"/>
			<path class="st8" d="M219.7,260c0-0.1,0-0.1,0-0.2c-3.7,0-7.4,0.1-11,0c-12.4-0.3-24.7-0.5-37-0.9c-7.9-0.3-15.8-0.8-23.7-1.2
				c-6.5-0.3-13-0.7-19.5-1c-6.5-0.4-13.1-0.7-19.6-1.1c-1-0.1-1.8-0.7-1.9-1.6c-0.2-0.9,0.3-1.5,1.2-2c9.1-4.2,18.3-8.5,27.4-12.7
				c1.2-0.5,2.4-1.1,3.5-1.6c0.4-0.2,0.9-0.3,1.4-0.3c2.7,0.1,5.5,0.3,8.2,0.6c-0.5,0-1,0.1-1.5,0.1c-2.2,0.1-4.4,0.1-6.5,0.2
				c-0.5,0-1.1,0.2-1.6,0.4c-7.5,4.2-15.1,8.5-22.6,12.8c-0.1,0.1-0.3,0.2-0.4,0.3c0,0.1,0,0.1,0,0.2c1.2,0,2.4,0,3.7,0
				c2.7,0,5.4,0,8,0.1c12.4,0.2,24.8,0.3,37.2,0.6c10.2,0.2,20.5,0.7,30.7,1.1c5,0.2,10,0.5,15.1,0.8c8.8,0.5,17.6,1.1,26.4,1.6
				c4.8,0.3,9.7,0.7,14.5,1c4.4,0.3,8.9,0.6,13.3,1c0.5,0,0.7-0.1,1-0.6c2.1-4.5,4.3-9,6.5-13.4c0.1-0.1,0.1-0.3,0.3-0.3
				c-0.4,1.1-0.8,2.1-1.2,3.2c-1.5,3.9-3,7.9-4.4,11.8c-0.4,1.1-0.4,1.1-1.6,1.2"/>
			<path class="st8" d="M291.9,192.1c0,0.5-0.1,1-0.1,1.5c-0.2,4.9-0.3,9.8-1,14.7c-0.4,2.4-1,4.6-2.3,6.7c-0.2,0.4-0.5,0.7-0.9,1
				c-0.5,0.4-1,0.3-1.2-0.4c-0.2-0.6-0.3-1.2-0.3-1.8c0.2-2.8,0.4-5.6,0.7-8.4c0.7-5.3,1.5-10.5,2.1-15.8c1.1-9.3,1.4-18.7,1.4-28
				c0-0.2,0-0.3,0.1-0.5c0.2,1.7,0.4,3.5,0.5,5.2c0.2,2.7,0.4,5.4,0.6,8.1c0.1,2.6,0.2,5.2,0.3,7.7c0,0.2,0.1,0.4,0.1,0.6
				C291.9,185.8,291.9,189,291.9,192.1z"/>
			<path class="st8" d="M239.4,144c1.4,0.1,2.7,0.2,4.1,0.3c1,0,1,0,1.1,1c0.5,5.2,1.1,10.4,1.6,15.6c0,0.2,0,0.3-0.1,0.5
				c-0.6-3.9-1.2-7.9-1.8-11.9c-2.3,0.2-4.6,0.3-7,0.5c-0.2,1.5-0.4,3-0.6,4.6c2.7,0.2,5.3,0.5,7.9,0.7c0,0,0,0.1,0,0.1
				c-2.4,0.1-4.7,0.3-7.1,0.4c-1.1,0.1-1-0.1-1.1,1c0,0.3-0.1,0.5-0.1,0.9c2.5,0.2,4.9,0.5,7.4,0.7c0,0,0,0.1,0,0.1
				c-2,0.1-4.1,0.3-6.1,0.4c-1.5,0.1-1.5,0.1-1.7,1.5c-0.1,0.9-0.3,1.8-0.4,2.8c3.1,0.2,6.1,0.4,9.1,0.6c0,0,0,0.1,0,0.1
				c-3.2,0.1-6.4,0.2-9.7,0.3c-0.5,0-0.6-0.2-0.6-0.6c0.7-5.3,1.4-10.5,2.1-15.8c0.1-0.8,0.2-1.6,0.4-2.5c0.1-0.5,0.3-0.9,0.4-1.3
				C237.9,144,238.6,144,239.4,144z M237.4,148.8c2.3,0.2,4.5,0.4,6.8,0.6c-0.2-1.3-0.3-2.4-0.5-3.5c-1.9,0-3.8,0-5.6,0
				c-0.2,0-0.4,0.2-0.4,0.4C237.6,147.1,237.5,147.9,237.4,148.8z"/>
			<path class="st8" d="M144.2,166c1.5,17.7,3,35.3,4.5,53c2.8-0.4,5.3-1.2,7.3-2.9c1.4-1.2,1.9-3,2-4.8c0.3-3.2,0.6-6.4,0.6-9.6
				c0.1-5.8,4.1-9.3,8.7-10.2c2.5-0.5,5.1-0.7,7.7-0.7c4.6,0,9.2,0,13.8,0.2c7,0.3,14,0.9,20.9,2.2c4.4,0.8,8.7,1.8,12.8,3.6
				c1.6,0.7,3.1,1.6,4.5,2.6c2.9,2.1,4.2,5.1,4.5,8.5c0.4,4-0.4,7.9-1.7,11.7c-2.2,6.5-4.8,12.7-8.5,18.5c-0.7,1-1.4,1.9-2.2,2.9
				c-0.2,0.2-0.5,0.4-0.7,0.6c-0.1,0-0.2-0.1-0.2-0.1c0.2-0.5,0.3-0.9,0.5-1.4c1-2,2.1-4.1,3-6.1c2.6-5.7,4.8-11.7,5.9-17.9
				c0.4-2.4,0.5-4.8,0.2-7.3c-0.4-3.4-2.3-5.6-5.4-7c-3.8-1.7-7.8-2.5-11.8-3.1c-5.4-0.8-10.8-1.3-16.2-1.4
				c-7.8-0.1-15.7-0.1-23.5-0.1c-1.2,0-2.4,0.3-3.5,0.6c-1.7,0.5-2.8,1.9-2.8,3.7c-0.1,4.9-0.1,9.8-0.2,14.7c0,3.5-2,5-5.1,5.2
				c-0.5,0-1.1,0-1.8,0c0,1-0.1,2,0,2.9c0.1,1.2-0.2,2.2-1.2,2.9c-1.3,1-1.9,2.3-2.2,3.9c-0.6,3.2-1.5,6.4-2.4,9.6
				c-0.1-0.6-0.2-1.3-0.2-1.9c-0.4-3.4-0.7-6.8-1.1-10.2c0-0.4-0.3-0.7-0.5-1c0-0.1-0.1-0.1-0.2-0.1c-1.1-0.8-1.8-1.7-1.5-3.2
				c0-0.1,0-0.2,0-0.2c-1-0.4-1.9-0.6-2.7-1c-1.2-0.7-1.8-1.7-1.7-3.1c0-8.3,0-16.6,0-24.9c0-9.2,0.1-18.4,0.1-27.7
				C144.1,166.8,144.1,166.4,144.2,166C144.2,166,144.2,166,144.2,166z"/>
			<path class="st8" d="M276.9,221.7c-3,1.2-6.1,2.1-9.4,1.7c-2.6-0.3-3.8-1.6-3.9-4.2c-0.1-2.9-0.3-5.9-0.5-8.8c0-0.1,0-0.2,0-0.3
				c-1.1-0.1-2.2-0.1-3.2-0.2c-1.6-0.2-2.6-1.2-2.9-2.7c-1-4.9-0.5-9.5,1.9-13.9c0.9-1.7,1.9-2.1,3.7-1.8c0.6,0.1,1.3,0.2,1.9,0.3
				c0.6,0.1,1.2,0.3,1.8,0.4c-0.3-2.5-0.9-4.9-0.9-7.4c-0.1-2.5,0.4-4.9,0.6-7.5c-0.7,0.3-1.6,0.5-2.4,0.9c-1.8,0.8-1.8,0.8-2.8-0.8
				c-1.1-1.7-2.3-3.3-3.9-4.6c-1.9-1.5-4-2.3-6.4-2.8c-5.2-1-10.4-1-15.6-0.1c-7.2,1.2-14.3,2.5-21.5,3.7c-6.3,1-12.6,1.9-18.9,2.8
				c-4.1,0.5-8.2,0.9-12.3,1.2c-2.2,0.2-4.5,0.1-6.7,0c-2.2-0.1-3.8-1.5-5.5-2.8c-1.3-1.1-2.7-2.2-4.1-3.2c-2.2-1.6-4.8-2.2-7.4-2.6
				c-0.8-0.1-1.2-0.3-1.2-1.2c-0.1-1.5-0.8-2.1-2.4-2.2c1.2-0.4,2.4,0.1,2.9,1.4c0.3,0.8,0.7,1,1.5,0.9c3.8-0.1,7.1,1.2,10.3,3.1
				c1,0.6,2,1.2,3,1.9c1.4,1,2.9,1.2,4.6,0.9c7.6-1.1,15.2-2.6,22.8-4.1c4.8-0.9,9.5-1.8,14.4-2.5c5.7-0.8,11.4-1.5,17.1-2.2
				c3.5-0.4,7-0.6,10.5-0.2c3.3,0.4,6.6,0.9,9.7,2.1c2.1,0.8,4,1.8,5.7,3.2c1.9,1.6,3.1,3.5,4.1,5.7c0.2,0.5,0.5,1.1,0.7,1.5
				c1.4-0.2,2.7-0.5,4.1-0.7c1-3,2-6.3,4.8-8.8c-0.8,3.7-0.1,7.2,0.1,10.7c0.2,3.7,0.1,7.3-0.4,11c-0.4,3-0.8,6-1.2,8.9
				c0,0.3,0,0.5-0.1,0.9c-0.4-0.7-0.8-1.3-1.2-2c-0.5-1.2-1-2.5-1.5-3.7c-0.2-0.5-0.4-0.7-0.9-0.6c-1,0.1-2,0.1-3,0.3
				c-1,0.2-1.6,0.9-1.6,1.9c0.1,2.5,0.2,4.9,0.4,7.4c0,0.4,0.1,0.8,0.2,1.2c0.9,0,1.8,0,2.7,0c1.5,0.1,2.9,0.5,3.9,1.7
				c0.7,0.9,0.6,1.9,0.5,2.9c-0.4,2.9-0.7,5.9-1.1,8.8c-0.1,0.7,0,1.4,0.1,2.1c0.1,0.6,0.4,1.1,1,1.2c1.5,0.3,3.1,0.5,4.6,0.7
				C274.8,221.5,275.8,221.6,276.9,221.7z"/>
			<path class="st8" d="M216.9,249.7c0.6,0,1.2,0,1.7,0.1c6,1,12,1.2,18,1.1c4,0,8-0.2,12-0.5c2.2-0.2,4.4-0.6,6.6-1
				c0.3,0,0.6-0.2,0.9-0.3c0.5-0.2,0.7-0.5,0.6-1.1c-0.5-2.8-0.9-5.5-1.3-8.3c-0.1-0.7,0-1.4,0.2-2c0.5-1.3,1.8-1.7,3.3-1.3
				c1.6,0.4,3.2,0.7,4.8,1c0.5,0.1,1,0.1,1.5,0c2.2-0.1,3.4-1.1,4-3.3c0.5-1.9,0.4-3.8,0.1-5.6c-0.1-0.6-0.2-1.2-0.3-1.8
				c-0.1-1,0.3-1.4,1.3-1.2c3.5,0.5,7.1,1.1,10.6,1.8c-3,0.2-6,0.3-9,0.5c0.2,1,0.5,2,0.7,3c0.4,2.2,0.4,4.4-0.5,6.6
				c-1,2.5-2.9,3.9-5.4,4.5c-1.6,0.4-3.3,0.5-5,0.8c0.3,1.4,0.6,3,0.9,4.6c0.1,0.7,0.3,1.4,0.3,2.1c0,2.6-1.4,3.9-3.3,4.7
				c-2.4,1-5.1,1.4-7.7,1.6c-8,0.6-15.9-0.5-23.7-2.2c-3.6-0.8-7-1.8-10.4-3.2c-0.3-0.1-0.6-0.3-0.8-0.4c-0.1,0-0.1-0.1-0.2-0.2
				C216.9,249.8,216.9,249.7,216.9,249.7z"/>
			<path class="st8" d="M279.3,220.3c-0.5-0.8-1.1-1.5-1.5-2.3c-1.7-3.2-2.7-6.6-3.6-10.2c-1-4.3-1.6-8.7-2-13.1
				c-0.6-7.4-0.2-14.8,1-22.2c0.7-4.1,1.6-8.1,2.9-12c0.2-0.7,0.6-1.4,1-2.1c0.1-0.2,0.4-0.4,0.6-0.4c0.1,0,0.4,0.3,0.4,0.5
				c0.1,1.3,0.4,2.5,0.3,3.8c-0.1,8-0.2,16-0.3,24c-0.1,5.8-0.2,11.6-0.2,17.4c0,4.3,0.1,8.5,0.9,12.7c0.2,0.8,0.4,1.7,0.6,2.5
				c0.1,0.4,0.1,0.7,0.2,1.1C279.5,220.2,279.4,220.2,279.3,220.3z"/>
			<path class="st8" d="M284.8,216.5c-0.4-3-0.9-5.9-1.1-8.9c-0.9-9.9-1.1-19.9-0.7-29.8c0.2-4.8,0.3-9.6,1.3-14.3
				c0.4-2,1.2-3.8,1.8-5.7c0.2-0.6,0.7-1.2,1.1-1.7c0.2-0.3,0.8-0.6,1-0.5c0.3,0.1,0.5,0.6,0.6,1c0.1,0.7,0.2,1.5,0.1,2.3
				c-0.3,3-0.7,6-1,9c-0.7,5.6-1.6,11.2-2.1,16.9c-0.6,6.3-0.9,12.7-1.1,19c-0.1,4.1,0.2,8.3,0.4,12.4c0,0.1,0,0.3,0,0.4
				C285,216.5,284.9,216.5,284.8,216.5z"/>
			<path class="st8" d="M183.2,167.5c0.1,0.7,0.2,1.3,0.3,1.9c0,0.3,0.1,0.6,0.1,0.8c0,1.3-1,2.3-2.1,2.3c-1.2,0-2.2-1-2.2-2.3
				c0-0.8,0.1-1.6,0.1-2.5c-8.1-2.1-16.2-4.1-24.3-6.2c0,0,0-0.1,0-0.1c8.1,1.8,16.2,3.6,24.4,5.4c0.5-3.2,1-6.4,1.4-9.5
				c0,0,0.1,0,0.1,0c0.6,3.1,1.3,6.1,1.9,9.3c15.7-2.5,31.3-5.1,47-7.6c0,0,0,0.1,0,0.1C214.4,162,198.9,164.7,183.2,167.5z"/>
			<path class="st8" d="M147.8,153c0.5,2.3,1,4.5,1.5,6.8c0.2,0.9,0.3,1.8,0.5,2.6c0.2,0.9-0.1,1.6-0.8,2c-0.8,0.5-1.7,0.5-2.6,0
				c-0.7-0.5-1.1-1.2-0.9-2c0.6-2.8,1.2-5.5,1.8-8.3c0.1-0.4,0.2-0.8,0.3-1.2C147.7,153,147.7,153,147.8,153z"/>
			<path class="st8" d="M237.4,148.8c0.1-0.9,0.2-1.7,0.3-2.4c0-0.2,0.3-0.4,0.4-0.4c1.8,0,3.7,0,5.6,0c0.1,1.1,0.3,2.2,0.5,3.5
				C241.9,149.2,239.7,149,237.4,148.8z"/>
		</g>
	</g>
</g>
<g id="Calque_4" class="st0">
	<g class="st1">
		
			<image style="overflow:visible;opacity:0.7;" width="415" height="415" xlink:href="70C1821.png"  transform="matrix(1 0 0 1 -6 -7)">
		</image>
		<g>
			<g>
				<g>
					<path class="st10" d="M194.7,1.5c12.6,0,24,9.2,35.9,11.5c12.2,2.4,26.3-1.6,37.6,3.1c11.4,4.7,18.6,17.6,28.7,24.4
						c10.3,6.9,24.8,8.6,33.5,17.2c8.7,8.7,10.4,23.3,17.2,33.5c6.8,10.2,19.7,17.3,24.4,28.7c4.7,11.2,0.6,25.4,3.1,37.6
						c2.3,11.9,11.5,23.4,11.5,35.9c0,12.6-9.2,24-11.5,35.9c-2.4,12.2,1.6,26.3-3.1,37.6c-4.7,11.4-17.6,18.6-24.4,28.7
						c-6.9,10.3-8.6,24.8-17.2,33.5c-8.7,8.7-23.3,10.4-33.5,17.2c-10.2,6.8-17.3,19.7-28.7,24.4c-11.2,4.7-25.4,0.6-37.6,3.1
						c-11.9,2.3-23.4,11.5-35.9,11.5c-12.6,0-24-9.2-35.9-11.5c-12.2-2.4-26.3,1.6-37.6-3.1c-11.4-4.7-18.6-17.6-28.7-24.4
						c-10.3-6.9-24.8-8.6-33.5-17.2c-8.7-8.7-10.4-23.3-17.2-33.5c-6.8-10.2-19.7-17.3-24.4-28.7c-4.7-11.2-0.6-25.4-3.1-37.6
						c-2.3-11.9-11.5-23.4-11.5-35.9c0-12.6,9.2-24,11.5-35.9c2.4-12.2-1.6-26.3,3.1-37.6c4.7-11.4,17.6-18.6,24.4-28.7
						C48.6,81,50.3,66.4,59,57.8c8.7-8.7,23.3-10.4,33.5-17.2c10.2-6.8,17.3-19.7,28.7-24.4c11.2-4.7,25.4-0.6,37.6-3.1
						C170.7,10.7,182.2,1.5,194.7,1.5"/>
				</g>
				<g>
					<circle class="st4" cx="194.7" cy="193.5" r="165.3"/>
				</g>
				<g>
					<polygon class="st10" points="195.3,63 200.1,72.6 210.7,74.2 203,81.7 204.8,92.3 195.3,87.3 185.8,92.3 187.6,81.7 
						179.9,74.2 190.5,72.6 					"/>
				</g>
				<g>
					<g>
						<polygon class="st10" points="64.5,166.8 55.2,193.5 64.5,220.3 64.5,220.7 13.5,220.7 13.5,166.3 64.5,166.3 						"/>
					</g>
				</g>
				<g>
					<g>
						<polygon class="st10" points="325,218 334.3,191.3 325,164.5 325,164.1 375.9,164.1 375.9,218.4 325,218.4 						"/>
					</g>
				</g>
				<path class="st11" d="M157.7,78.7c-18.9,0-37.7,0-56.6,0"/>
				<path class="st11" d="M288.4,78.5c-18.9,0-37.7,0-56.6,0"/>
				<g>
					<polygon class="st10" points="194.5,300.5 196.5,304.5 200.9,305.1 197.7,308.2 198.4,312.6 194.5,310.5 190.6,312.6 
						191.3,308.2 188.2,305.1 192.5,304.5 					"/>
				</g>
				<path class="st11" d="M178.5,307.8c-8.1,0-16.2,0-24.3,0"/>
				<path class="st11" d="M234.2,307.7c-8.1,0-16.3,0-24.4,0"/>
				<g>
					<g>
						<path class="st10" d="M268.9,175.1c-5.4-10.3-19.6-16.3-30.8-13.1c-0.9,0.3-1.6,0.4-2.4-0.5c-10.5-11-21.1-22-31.6-33.1
							c-1.4-1.4-2.8-2.8-4.1-4.2c-0.1,0.1-0.3,0.3-0.4,0.4c11.4,13,22.9,26,34.3,39c-6.7,5.7-8.3,11.6-4.6,17
							c2.8,4,8.3,5.7,11.9,3.7c-6.5,0.8-10.9-1.7-12.4-7c-1.3-4.7,1.5-10,6.6-12.4c1.2,1.1,2.4,2.3,3.8,3.4c0.4,0.3,1.1,0.3,1.7,0.5
							c-0.1-0.6-0.2-1.3-0.5-1.7c-0.7-1.1-1.5-2.1-2.4-3.2c0.6-0.2,1-0.4,1.5-0.5c10.1-2.4,23.4,4,27.8,13.4
							c3.6,7.6,0.7,15.1-6.9,18.5c-5,2.2-10.2,2.2-15.5,0.9c-9.5-2.4-17-8.2-24-14.6c-7.5-6.7-15-13.4-23.6-18.7
							c-1.4-0.9-2.2-1.9-2.6-3.4c-4.7-14.5-10.7-28.5-18.7-41.6c-0.4-0.6-0.8-1.2-1.1-1.8c-0.1,0.1-0.2,0.1-0.3,0.2
							c4.3,13.5,8.7,27.1,13.1,40.9c-3.3-1.3-6.2-2.4-9-3.5c-0.9-0.4-1.8-0.9-2.4-1.6c-6.9-7.4-13.8-14.8-20.7-22.2
							c-0.7-0.8-1.6-1.4-2.3-2.2c-0.1,0.1-0.3,0.2-0.4,0.3c5,7.6,10.1,15.3,15.1,23c-1.2-0.1-2.4-0.3-3.7-0.4
							c-10.9-1-21.4,0.3-30.6,6.7c-7.6,5.3-12.8,12.4-13.4,21.9c-0.7,13.2,9.2,25.8,22.2,28.6c4.8,1,9.5,1,13.6-2.1
							c1-0.7,1.7-1.7,2.6-2.6c-4.3,4.4-9.5,5.1-15.1,3.7c-8.4-2.1-14.7-7.2-18.7-14.9c-3.8-7.3-3.7-14.8,0.1-22.1
							c2.7-5.2,6.6-9.3,11.6-12.4c9.7-6.1,20.3-7.3,31.3-5.6c0.8,0.1,1.6,0.8,2.2,1.4c7,8.8,14.6,17.1,22.7,25
							c0.7,0.7,1.2,1.7,1.5,2.7c2.1,8.3,4.2,16.5,6.2,24.8c1.4,5.9,2.7,11.9,4.1,17.9c-4.6,0.3-7.9,2.6-10,6.3
							c-2.1,3.7-2.7,7.7-1.9,11.8c1.5,7.8,4.6,14.4,13.1,16.9c0.4,0.1,0.9,0.9,1,1.4c0.3,2.4-0.1,4.6-2,6.9c3.3-1.5,4.3-4.1,5.3-6.8
							c0.2-0.7,0.9-1.5,1.5-1.7c9.7-2.3,13.3-13.2,9.6-21c-2-4.3-6.4-7-10.4-6.5c7,3.2,9.6,8.4,7.6,14.9c-1.3,4.1-3.8,7-8.3,7.8
							c-4.2,0.7-7.2-1.5-9.5-4.8c-2.4-3.5-3.8-7.5-3.9-11.8c-0.2-5.8,3.2-10.7,8.3-11.6c1.8-0.4,3.7-0.1,5.7-0.1
							c-4-3.7-5.2-8.7-5.8-13.8c-0.7-5.5-1-11.1-1.6-16.7c-0.3-2.7-0.8-5.3-1.3-8.3c0.5,0.2,0.7,0.3,0.8,0.4
							c6.8,5.9,14,11.3,21.6,16.2c4.7,3,8.2,7.1,10,12c1.9-1.4,3.7-3.3,5.9-4.3c4.4-2,9.7,0.6,11.2,5.1c1.4,4.3-1.2,9.3-5.6,10.5
							c-4.4,1.2-8-1.3-9.3-6.4c-0.1,1.3-0.4,2.7-0.1,4c0.8,3.4,4.2,5.9,7.9,6.1c5,0.3,9.4-2.6,11.2-7.4c1.9-5.1,0.3-10.5-3.9-13.5
							c-4.3-3.1-9.4-3.1-13.6,0.1c-0.4,0.3-0.8,0.6-1.2,0.8c-0.2-0.1-0.4-0.2-0.5-0.2c-12-11.2-24.1-22.4-36.1-33.6
							c-0.3-0.3-0.7-0.7-0.8-1.1c-1.1-4-2.2-8.1-3.4-12.6c1,0.6,1.6,0.9,2.1,1.3c5.7,4.7,11.5,9.2,17,14.1
							c6.1,5.3,11.6,11.3,18.7,15.4c7.2,4.2,14.7,6.7,23.2,5.2C268.7,196.6,274.4,185.6,268.9,175.1z M178.3,154.6
							c0.1-0.1,0.2-0.3,0.3-0.4c2.7,1.2,5.5,2.3,8.2,3.6c0.4,0.2,0.8,0.7,0.9,1.1c0.7,2.3,1.4,4.7,1.7,7.3
							C185.8,162.3,182,158.5,178.3,154.6z M195.9,174.2c0,0.9-0.8,1.7-1.7,1.7c-0.9,0-1.7-0.8-1.7-1.7c0-0.9,0.8-1.7,1.7-1.7
							C195.1,172.5,195.9,173.2,195.9,174.2z"/>
					</g>
					<path class="st10" d="M165.8,211c-1,1.6-2,3.2-1,5.1c1,1.9,2.9,1.6,4.7,1.6c0.5,0,1-0.1,1.5-0.2c6.2-1.3,11.3-4.6,15.7-8.9
						c1.6-1.6,3.1-3.6,4-5.6c1.3-2.7-0.1-4.6-3-4.9c-2.1-0.2-4,0.2-5.6,1.9c0.5-1.1,0.9-2.2,1.6-3.8c-1.3,0.9-2,1.5-3,2.2
						c0.6-1.4,1-2.5,1.7-4.2c-1.2,0.9-1.9,1.5-2.9,2.3c0.6-1.4,1-2.4,1.5-3.5c-0.1-0.1-0.2-0.1-0.3-0.2c-0.7,0.6-1.4,1.2-2.3,1.9
						c0.6-1.4,1-2.5,1.5-3.6c-0.1-0.1-0.2-0.1-0.3-0.2c-0.8,0.6-1.6,1.3-2.6,2.1c0.6-1.4,1.2-2.6,1.7-3.7c-0.1-0.1-0.2-0.1-0.3-0.2
						c-0.9,0.7-1.8,1.5-2.8,2.3c0.7-1.5,1.3-2.8,1.9-4c-0.1-0.1-0.2-0.1-0.3-0.2c-0.8,0.7-1.7,1.3-2.3,1.9c0.7-2.2,1.4-4.4,2.2-6.8
						c-6.1,8.3-13.7,13.8-24.2,14.5c2.8,0.2,5.6,0.4,8.4,0.6c0,0.1,0,0.2,0,0.3c-0.9,0.1-1.7,0.2-2.6,0.3c0,0.1-0.1,0.3-0.1,0.4
						c1,0.3,1.9,0.7,3.3,1.2c-1,0.2-1.5,0.3-2.6,0.5c1.5,0.5,2.5,0.8,3.5,1.2c-0.6,0.2-1.1,0.4-2,0.8c1.4,0.4,2.5,0.8,3.8,1.1
						c-0.9,0.2-1.5,0.3-2.2,0.4c0,0.1,0,0.3,0,0.4c1.2,0.4,2.4,0.7,3.7,1.1c-0.9,0.2-1.7,0.3-2.4,0.4c0,0.1,0,0.2,0,0.4
						c0.9,0.3,1.7,0.6,3,1c-0.9,0.2-1.4,0.4-2.4,0.6c1.3,0.5,2.2,0.8,3.1,1.1c-0.5,0.2-1,0.5-1.7,0.8c1.3,0.4,2.2,0.7,3.4,1.1
						c-0.8,0.2-1.4,0.4-1.9,0.5c0,0.3,0,0.5,0.1,0.8c2,0,4.1,0.3,6-0.1c2.4-0.5,4.7-1.4,7-2.3c3.5-1.3,6-3.7,7.1-7.7
						c-1,0.7-1.6,1.1-2.6,1.8c0.6-1.4,0.9-2.3,1.3-3.3c-0.1,0-0.2-0.1-0.3-0.1c-0.7,0.5-1.3,1-2.4,1.8c0.5-1,0.8-1.5,1-2
						c0.4-1.5,1.4-1.5,2.6-1.1c1.5,0.6,2.1,1.6,1.7,3.2c-0.7,2.8-2.6,4.8-4.7,6.6c-4,3.5-8.4,6.2-13.8,6.8
						C166.5,215.7,165.4,214.5,165.8,211z"/>
					<path class="st10" d="M170.1,174.5c3.4,1.6,4.1,3.3,2.2,6c-4.2,6.2-10.1,10.1-17.5,11.3c-3.2,0.5-4.3-0.6-4.5-3.8
						c-1.2,1.6-1.6,3.2-1,4.4c0.8,1.6,2.3,1.8,3.8,1.8c0.4,0,0.8,0,1.2-0.1c8.4-1.6,15.1-6,20.2-12.9c1.1-1.5,2-3.4,1-5.3
						C174.4,174.1,172.4,174.4,170.1,174.5z"/>
					<path class="st10" d="M168.3,220.1c5.1,1.1,15.8-3.4,18.5-7.7C181.3,216.6,175.7,219.9,168.3,220.1z"/>
					<path class="st10" d="M163.8,182.8c-0.1-0.3-0.3-0.5-0.4-0.8c-1.5,0-2.6,0.5-3.1,2c0.1,0.2,0.3,0.4,0.4,0.7
						C161.8,184.1,162.8,183.5,163.8,182.8z"/>
					<path class="st10" d="M190.1,209.4c1.7-1.7,3.2-3.5,3-5.9C192.1,205.3,191.1,207.4,190.1,209.4z"/>
					<path class="st10" d="M165.8,211c-0.4,3.5,0.7,4.7,4.3,4.3c5.4-0.6,9.8-3.3,13.8-6.8c2.1-1.8,3.9-3.8,4.7-6.6
						c0.4-1.6-0.2-2.7-1.7-3.2c-1.2-0.4-2.2-0.5-2.6,1.1c-0.1,0.5-0.5,1-1,2c1-0.8,1.7-1.3,2.4-1.8c0.1,0,0.2,0.1,0.3,0.1
						c-0.4,1-0.8,1.9-1.3,3.3c1-0.7,1.6-1.1,2.6-1.8c-1.1,4.1-3.6,6.4-7.1,7.7c-2.3,0.9-4.6,1.8-7,2.3c-1.9,0.4-4,0.1-6,0.1
						c0-0.3,0-0.5-0.1-0.8c0.6-0.1,1.1-0.3,1.9-0.5c-1.2-0.4-2.1-0.7-3.4-1.1c0.7-0.3,1.2-0.6,1.7-0.8c-0.9-0.3-1.8-0.6-3.1-1.1
						c1-0.3,1.5-0.4,2.4-0.6c-1.3-0.4-2.2-0.7-3-1c0-0.1,0-0.2,0-0.4c0.8-0.1,1.5-0.3,2.4-0.4c-1.3-0.4-2.5-0.8-3.7-1.1
						c0-0.1,0-0.3,0-0.4c0.7-0.1,1.3-0.2,2.2-0.4c-1.3-0.4-2.3-0.7-3.8-1.1c0.9-0.4,1.5-0.6,2-0.8c-1-0.3-2-0.7-3.5-1.2
						c1.1-0.2,1.6-0.3,2.6-0.5c-1.4-0.5-2.3-0.8-3.3-1.2c0-0.1,0.1-0.3,0.1-0.4c0.9-0.1,1.7-0.2,2.6-0.3c0-0.1,0-0.2,0-0.3
						c-2.8-0.2-5.6-0.4-8.4-0.6c10.5-0.7,18.1-6.2,24.2-14.5c-0.8,2.4-1.5,4.6-2.2,6.8c0.6-0.5,1.5-1.2,2.3-1.9
						c0.1,0.1,0.2,0.1,0.3,0.2c-0.6,1.3-1.2,2.5-1.9,4c1-0.8,1.9-1.6,2.8-2.3c0.1,0.1,0.2,0.1,0.3,0.2c-0.5,1.1-1,2.3-1.7,3.7
						c1-0.8,1.8-1.4,2.6-2.1c0.1,0.1,0.2,0.1,0.3,0.2c-0.5,1.1-0.9,2.2-1.5,3.6c0.9-0.8,1.6-1.3,2.3-1.9c0.1,0.1,0.2,0.1,0.3,0.2
						c-0.4,1-0.9,2.1-1.5,3.5c1-0.8,1.7-1.3,2.9-2.3c-0.7,1.6-1.1,2.8-1.7,4.2c1-0.7,1.7-1.3,3-2.2c-0.7,1.6-1.2,2.7-1.6,3.8
						c1.5-1.6,3.4-2,5.6-1.9c2.9,0.2,4.3,2.1,3,4.9c-1,2.1-2.4,4-4,5.6c-4.4,4.3-9.6,7.6-15.7,8.9c-0.5,0.1-1,0.2-1.5,0.2
						c-1.8,0-3.7,0.3-4.7-1.6C163.8,214.3,164.8,212.6,165.8,211z M177.5,201.3c-3.3,1.1-6.3,2.1-9.7,3.3
						C172,205.6,174.7,203.9,177.5,201.3z M163.4,196.9c3.4,1.1,6.1,0,8.2-2.7C168.9,195.1,166.2,196,163.4,196.9z M164.9,198.7
						c3.5,1.2,6.1-0.4,8.7-2.9C170.5,196.9,167.7,197.8,164.9,198.7z M172.1,209.8c3.5,1.2,6.1-0.4,8.7-2.9
						C177.6,208,174.9,208.9,172.1,209.8z M167.4,202.4c3.5,1.2,6-0.4,8.6-2.8C172.8,200.6,170.1,201.5,167.4,202.4z M169.4,206.3
						c3.4,1,6-0.1,8.1-2.7C174.9,204.5,172.2,205.4,169.4,206.3z M170.5,192.3c-2.6,0.9-5.3,1.7-7.9,2.6
						C165.9,196.1,168.4,194.6,170.5,192.3z M166.2,200.5c3.1,1,5.6,0.1,8.1-2.6C171.2,198.9,168.7,199.7,166.2,200.5z M171.3,207.9
						c3.2,1.1,5.5-0.2,7.9-2.6C176.2,206.3,173.7,207.1,171.3,207.9z"/>
					<path class="st10" d="M170.1,174.5c2.3-0.1,4.3-0.3,5.3,1.5c1.1,1.9,0.2,3.7-1,5.3c-5.1,6.8-11.8,11.2-20.2,12.9
						c-0.4,0.1-0.8,0.1-1.2,0.1c-1.5-0.1-3-0.2-3.8-1.8c-0.6-1.3-0.2-2.8,1-4.4c0.2,3.2,1.3,4.3,4.5,3.8c7.4-1.2,13.3-5.1,17.5-11.3
						C174.2,177.7,173.6,176.1,170.1,174.5z"/>
					<path class="st10" d="M168.3,220.1c7.4-0.1,13-3.5,18.5-7.7C184,216.7,173.4,221.2,168.3,220.1z"/>
					<path class="st10" d="M163.8,182.8c-1,0.6-2.1,1.3-3.1,1.9c-0.1-0.2-0.3-0.4-0.4-0.7c0.5-1.5,1.6-2,3.1-2
						C163.5,182.3,163.7,182.6,163.8,182.8z"/>
					<path class="st10" d="M190.1,209.4c1-2,2.1-4.1,3-5.9C193.3,205.9,191.7,207.7,190.1,209.4z"/>
					<path class="st10" d="M177.5,201.3c-2.8,2.6-5.4,4.4-9.7,3.3C171.2,203.4,174.2,202.4,177.5,201.3z"/>
					<path class="st10" d="M163.4,196.9c2.7-0.9,5.5-1.8,8.2-2.7C169.5,196.8,166.9,198,163.4,196.9z"/>
					<path class="st10" d="M164.9,198.7c2.8-0.9,5.6-1.8,8.7-2.9C171,198.3,168.5,199.9,164.9,198.7z"/>
					<path class="st10" d="M172.1,209.8c2.8-0.9,5.6-1.8,8.7-2.9C178.2,209.4,175.6,211,172.1,209.8z"/>
					<path class="st10" d="M167.4,202.4c2.7-0.9,5.5-1.8,8.6-2.8C173.3,202,170.8,203.6,167.4,202.4z"/>
					<path class="st10" d="M169.4,206.3c2.7-0.9,5.4-1.8,8.1-2.7C175.5,206.2,172.8,207.3,169.4,206.3z"/>
					<path class="st10" d="M170.5,192.3c-2.1,2.3-4.6,3.8-7.9,2.6C165.2,194.1,167.9,193.2,170.5,192.3z"/>
					<path class="st10" d="M166.2,200.5c2.5-0.8,5-1.6,8.1-2.6C171.8,200.6,169.3,201.5,166.2,200.5z"/>
					<path class="st10" d="M171.3,207.9c2.5-0.8,5-1.6,7.9-2.6C176.7,207.7,174.4,209,171.3,207.9z"/>
				</g>
			</g>
		</g>
	</g>
</g>
</svg>
