<svg width="34" height="35" viewBox="0 0 34 35" fill="none" xmlns="http://www.w3.org/2000/svg">
<path d="M20.1079 25.6391C20.9726 25.5213 21.8373 25.325 22.6626 25.0895C25.6104 24.1866 27.1825 22.1846 27.6541 19.2012C27.8507 18.0235 27.89 16.8066 27.6935 15.5897C27.4969 14.5298 27.0253 13.5092 26.3571 12.6455C26.1999 12.4493 26.1213 12.2137 26.1999 11.9782C26.5537 10.6828 26.5144 9.30884 26.0427 8.05267C25.9641 7.77788 25.7283 7.62086 25.4532 7.66011C24.5492 7.73862 23.6845 8.05267 22.8984 8.48447C22.3482 8.79852 21.8373 9.30884 21.2084 9.42661C20.5795 9.54437 19.9507 9.19107 19.3218 9.11256C17.2781 8.79852 15.1557 8.91628 13.1512 9.38735C12.8368 9.46586 12.5224 9.4266 12.2472 9.23033C11.2253 8.48447 10.0855 7.97415 8.86714 7.69937C8.04177 7.54234 7.96316 7.5816 7.72734 8.36671C7.37361 9.54437 7.37361 10.8005 7.68804 11.9782C7.76665 12.1745 7.76665 12.3708 7.60943 12.5278C6.0766 14.3335 5.88009 16.4926 6.15521 18.7301C6.23382 19.3975 6.35173 20.0256 6.58755 20.6537C7.49152 23.3623 9.5353 24.7362 12.2472 25.325C12.7189 25.4428 13.2298 25.4821 13.7801 25.5998C13.2691 26.1887 12.9154 26.9345 12.7975 27.7196C12.7582 27.9159 12.6403 27.9552 12.4831 28.0337C10.6358 28.8188 8.94575 28.2692 7.92386 26.5812C7.37361 25.6783 6.70546 24.9718 5.64427 24.7362C5.25123 24.6577 4.70099 24.5007 4.50447 24.9325C4.30795 25.3643 4.8189 25.5606 5.13332 25.7569C5.95869 26.3064 6.58755 27.1308 6.90197 28.0729C7.60943 30.1142 9.5353 31.0171 11.6184 30.7816C11.9721 30.7423 12.3258 30.6638 12.7189 30.6245C12.7189 31.6452 12.7582 32.6658 12.7189 33.6472C12.6796 34.3145 12.1293 34.5893 11.3826 34.3538C10.3214 34.0005 9.29948 33.5294 8.3562 32.9406C2.5 29.1721 -0.290541 23.7941 0.0238856 16.7281C0.416919 9.38735 5.44775 3.14574 12.5617 1.10446C20.0686 -0.976081 27.9686 2.43914 31.8203 9.42661C36.7725 18.3376 32.9601 29.8002 23.6845 33.922C23.2915 34.079 22.9377 34.236 22.5447 34.3931C21.68 34.7071 21.1691 34.3145 21.1691 33.4117V29.2113C21.2477 27.9159 21.0512 26.6597 20.1079 25.6391Z" fill="#131619"/>
</svg>
