<svg width="34" height="35" viewBox="0 0 34 35" fill="none" xmlns="http://www.w3.org/2000/svg">
<g clip-path="url(#clip0_94_312)">
<path d="M17 34.5C7.61116 34.5 2.30699e-06 26.8888 1.48619e-06 17.5C6.65389e-07 8.11115 7.61116 0.499995 17 0.499994C26.3888 0.499993 34 8.11115 34 17.5C34 26.8888 26.3888 34.5 17 34.5Z" fill="#131619"/>
<path d="M8.54316 18.8547L9.49277 15.9262L11.3787 10.1289C11.475 9.83007 11.8967 9.83007 11.993 10.1289L13.8789 15.9262L20.1344 15.9262L22.0203 10.1322C22.1166 9.83339 22.5383 9.83339 22.6346 10.1289L24.5205 15.9262L25.4701 18.8547C25.5564 19.1203 25.4602 19.4125 25.2344 19.5785L17.0066 25.5551L8.77891 19.5785C8.54981 19.4158 8.45684 19.1236 8.54316 18.8547Z" fill="#D9D9D9"/>
</g>
<defs>
<clipPath id="clip0_94_312">
<rect width="34" height="34" fill="white" transform="matrix(-1 8.74228e-08 8.74228e-08 1 34 0.499992)"/>
</clipPath>
</defs>
</svg>
