<svg width="34" height="35" viewBox="0 0 34 35" fill="none" xmlns="http://www.w3.org/2000/svg">
<path d="M17 0.5C7.62617 0.5 0 8.12617 0 17.5C0 26.8738 7.62617 34.5 17 34.5C26.3738 34.5 33.9603 26.9136 34 17.5397C33.9603 8.16589 26.3738 0.53972 17 0.5ZM11.3598 26.715V26.9533C11.3598 27.0724 11.2804 27.1519 11.2009 27.1519C11.2009 27.1519 11.2009 27.1519 11.1612 27.1519H7.34813C7.03037 27.1519 6.99065 27.1121 6.99065 26.7944V14.4416C6.99065 14.1636 7.03037 14.1238 7.30841 14.1238H11.1215C11.2407 14.1238 11.2804 14.2033 11.3201 14.3224V20.6776C11.3598 22.6636 11.3598 24.6893 11.3598 26.715ZM11.6378 10.3902C11.5187 11.4229 10.6846 12.2173 9.65187 12.3364C9.05607 12.4556 8.46028 12.3762 7.94393 12.0981C6.8715 11.5421 6.43458 10.1916 6.99065 9.07944C7.10981 8.88084 7.22897 8.68224 7.42757 8.52337C7.78505 8.20561 8.22196 8.00701 8.6986 7.92757C8.85748 7.88785 9.05608 7.88785 9.21495 7.88785C9.77103 7.88785 10.3668 8.04673 10.8037 8.40421C11.4393 8.84112 11.757 9.63551 11.6378 10.3902ZM27.0093 26.9533C27.0093 27.0724 26.9299 27.1519 26.8505 27.1519C26.8505 27.1519 26.8505 27.1519 26.8107 27.1519H23.0374C22.7196 27.1519 22.6799 27.1121 22.6799 26.7547V20.1612C22.6799 19.7243 22.6402 19.2477 22.521 18.8107C22.3622 18.0561 21.7266 17.4206 20.972 17.2617C20.3364 17.1028 19.6215 17.2617 19.1051 17.6589C18.5491 18.0958 18.1916 18.7313 18.1121 19.4065C18.0724 19.6051 18.0724 19.764 18.0724 19.9626V26.9533C18.0724 27.1121 18.0327 27.1519 17.8738 27.1916H14.1005C13.743 27.1916 13.7033 27.1519 13.743 26.8341C13.7827 23.8949 13.7827 20.9556 13.7827 18.0164C13.7827 16.8645 13.7827 15.6729 13.743 14.521C13.743 14.2033 13.7827 14.1636 14.1005 14.1636H17.8341C18.0327 14.1636 18.0724 14.243 18.1121 14.4416V15.9509C18.1916 15.9112 18.271 15.7921 18.3107 15.7126C18.6682 15.236 19.0654 14.7991 19.5818 14.4813C20.0981 14.1636 20.6939 13.965 21.2897 13.8855C22.1636 13.8061 23.0374 13.8855 23.8715 14.1636C25.0631 14.5607 25.9766 15.4743 26.4533 16.6262C26.6916 17.1822 26.8505 17.778 26.9299 18.3738C27.0093 18.9696 27.0093 19.5257 27.0093 20.1215V26.9533Z" fill="#131619"/>
</svg>
