<svg width="4" height="4" viewBox="0 0 4 4" fill="none" xmlns="http://www.w3.org/2000/svg">
<path d="M2.9494 2.1387L2.88318 2.19051C2.64648 2.37571 2.54775 2.68722 2.63456 2.97495L2.66822 3.08649C2.77869 3.45265 2.35286 3.74394 2.05164 3.50825C1.8012 3.3123 1.44944 3.3123 1.19901 3.50825C0.897785 3.74394 0.471956 3.45265 0.582432 3.08649L0.616084 2.97495C0.702895 2.68722 0.604167 2.37571 0.367469 2.19051L0.301252 2.1387C-0.00652897 1.89788 0.165534 1.38787 0.573412 1.38787C0.880042 1.38787 1.15543 1.18731 1.24461 0.891732C1.35838 0.51467 1.89227 0.51467 2.00603 0.891732C2.09521 1.18731 2.37061 1.38787 2.67724 1.38787C3.08511 1.38787 3.25718 1.89788 2.9494 2.1387Z" stroke="#B6CCDA" stroke-opacity="0.2" stroke-width="0.3"/>
</svg>
