<svg xmlns="http://www.w3.org/2000/svg" viewBox="0 0 2480 1589"><defs><style>.cls-1{fill:#1a1a1a;}.cls-2{fill:#e69b17;}.cls-3{fill:#6f6f6e;}.cls-4{fill:#1d1d1b;}</style></defs><title>3csi7</title><g id="Calque_6" data-name="Calque 6"><rect class="cls-1" width="2480" height="1589"/><path class="cls-2" d="M3982.44,1424.31c4.06,14.18,6.43,22.32,6.87,24.74h.05c.44-2.2,3.19-10.83,7.48-24.74h3c5.12,17,6.66,21.88,7.15,24h.06c.77-3,2-7.15,7.09-24H4017l-8.69,27.49h-3c-3-9.73-6.54-21.66-7.09-24.19h-.06c-.55,2.69-3.68,12.53-7.26,24.19h-3.3l-8.08-27.49Z" transform="translate(-2907 19)"/><path class="cls-2" d="M4022.86,1424.31c4.07,14.18,6.43,22.32,6.87,24.74h.06c.44-2.2,3.19-10.83,7.48-24.74h3c5.11,17,6.65,21.88,7.15,24h.05c.77-3,2-7.15,7.1-24h2.91l-8.69,27.49h-3c-3-9.73-6.55-21.66-7.1-24.19h0c-.55,2.69-3.69,12.53-7.26,24.19H4028l-8.08-27.49Z" transform="translate(-2907 19)"/><path class="cls-2" d="M4063.29,1424.31c4.06,14.18,6.43,22.32,6.87,24.74h.05c.44-2.2,3.19-10.83,7.48-24.74h3c5.12,17,6.66,21.88,7.15,24h.06c.77-3,2-7.15,7.09-24h2.92l-8.69,27.49h-3c-3-9.73-6.54-21.66-7.09-24.19H4079c-.55,2.69-3.68,12.53-7.26,24.19h-3.3l-8.08-27.49Z" transform="translate(-2907 19)"/><path class="cls-2" d="M4099.59,1451.8v-7.09h2.74v7.09Z" transform="translate(-2907 19)"/><path class="cls-2" d="M4109.92,1423.76c.61-4.46,3.8-8.8,10.62-8.8s10.12,4.45,10.12,9.07a7.55,7.55,0,0,1-5.06,7.59v.11c3.85,1.16,6.71,4.12,6.71,9.4,0,6.11-3.85,11.33-11.88,11.33-7.37,0-11.05-4.78-11.71-9.62h2.86a8.81,8.81,0,0,0,9.07,7c6.21,0,8.63-4.18,8.63-8.58,0-5.77-3.79-8.08-9.13-8.08H4118v-2.53h1.7c5.5,0,8-2.31,8-6.6,0-3.79-2.64-6.43-7.26-6.43-4.79,0-6.88,2.53-7.76,6.16Z" transform="translate(-2907 19)"/><path class="cls-2" d="M4160.36,1443.72c-1.32,4.84-4.51,8.74-10.67,8.74-6.87,0-11.77-5.11-11.77-14.29,0-7.54,4-14.52,12.1-14.52,7,0,9.84,4.95,10.34,8.8h-2.81c-.82-3.19-2.91-6.22-7.59-6.22-5.83,0-9.12,5-9.12,11.82,0,6.55,3.08,11.83,8.85,11.83,4,0,6.43-2,7.86-6.16Z" transform="translate(-2907 19)"/><path class="cls-2" d="M4167.51,1444.21c.93,3.58,3.46,5.72,7.81,5.72,4.89,0,6.87-2.25,6.87-5.33s-1.32-4.68-7.48-6.16c-7.09-1.71-8.85-3.85-8.85-7.48,0-3.79,2.86-7.31,9.07-7.31s9.19,3.79,9.63,7.7h-2.75c-.5-2.31-2.31-5.17-7-5.17s-6.16,2.36-6.16,4.56c0,2.53,1.32,3.8,6.77,5.11,7.75,1.87,9.68,4.4,9.68,8.53,0,5-4.07,8.08-9.85,8.08-6.27,0-9.79-3.3-10.55-8.25Z" transform="translate(-2907 19)"/><path class="cls-2" d="M4191.93,1411.27h2.75v5.34h-2.75Zm0,13h2.75v27.49h-2.75Z" transform="translate(-2907 19)"/><path class="cls-2" d="M4201.94,1451.8v-7.09h2.75v7.09Z" transform="translate(-2907 19)"/><path class="cls-2" d="M4232.35,1443.72c-1.32,4.84-4.51,8.74-10.67,8.74-6.87,0-11.77-5.11-11.77-14.29,0-7.54,4-14.52,12.1-14.52,7,0,9.85,4.95,10.34,8.8h-2.8c-.83-3.19-2.92-6.22-7.59-6.22-5.83,0-9.13,5-9.13,11.82,0,6.55,3.08,11.83,8.85,11.83,4,0,6.44-2,7.87-6.16Z" transform="translate(-2907 19)"/><path class="cls-2" d="M4261.28,1438c0,7.64-4.23,14.46-12.43,14.46-7.42,0-12-6.1-12-14.41,0-7.86,4.34-14.4,12.32-14.4C4256.44,1423.65,4261.28,1429.37,4261.28,1438Zm-21.56,0c0,6.55,3.52,11.83,9.35,11.83s9.3-4.9,9.3-11.83c0-6.48-3.3-11.82-9.41-11.82C4242.69,1426.23,4239.72,1431.46,4239.72,1438.05Z" transform="translate(-2907 19)"/><path class="cls-2" d="M4268.1,1431.4c0-2.36,0-5-.05-7.09h2.69c.06.93.17,3.3.11,4.89a8.61,8.61,0,0,1,8.25-5.55c3.85,0,6.87,1.92,8,5.44a9.37,9.37,0,0,1,9-5.44c4.23,0,8.63,2.42,8.63,10.06v18.09h-2.75V1434c0-3.68-1.32-7.7-6.43-7.7-5.34,0-7.76,4.29-7.76,9.62v15.84H4285v-17.71c0-4-1.21-7.75-6.27-7.75-5.33,0-7.92,4.73-7.92,10.34v15.12h-2.75Z" transform="translate(-2907 19)"/><rect class="cls-2" x="28" y="772" width="83" height="53"/><rect class="cls-2" x="2357" y="773" width="83" height="53"/></g><g id="Calque_9" data-name="Calque 9"><path class="cls-2" d="M3816.15,1197.18a8.12,8.12,0,0,1-8.58-8.59v-4.68h6.24v5.1a2.34,2.34,0,1,0,4.68,0v-3a5.93,5.93,0,0,0-1.12-3.41,18.32,18.32,0,0,0-2.68-3.09l-3.23-3a13,13,0,0,1-2.77-3.81,10.83,10.83,0,0,1-1.12-4.91v-3.12a8.59,8.59,0,1,1,17.17,0v4.68h-6.25v-5.1a2.39,2.39,0,0,0-4-1.69,2.28,2.28,0,0,0-.65,1.68v3a5.85,5.85,0,0,0,1.14,3.39,18.46,18.46,0,0,0,2.7,3.09l3.22,3a12.62,12.62,0,0,1,2.76,3.81,11,11,0,0,1,1.11,4.92v3.13a8.08,8.08,0,0,1-8.59,8.61Z" transform="translate(-2907 19)"/><path class="cls-3" d="M3846.85,1197.18a8.14,8.14,0,0,1-8.59-8.59v-23.93a8.59,8.59,0,1,1,17.17,0v23.93a8.07,8.07,0,0,1-8.58,8.59Zm-1.69-6.48a2.28,2.28,0,0,0,1.69.65,2.23,2.23,0,0,0,2.34-2.34v-24.77a2.39,2.39,0,0,0-4-1.69,2.26,2.26,0,0,0-.65,1.69V1189A2.28,2.28,0,0,0,3845.16,1190.7Z" transform="translate(-2907 19)"/><path class="cls-3" d="M3869.74,1196.39v-39.54H3876v33.72h8.85v5.82Z" transform="translate(-2907 19)"/><path class="cls-3" d="M3904.34,1197.18a8.14,8.14,0,0,1-8.59-8.59v-31.74H3902V1189a2.28,2.28,0,0,0,.65,1.69,2.34,2.34,0,0,0,4-1.69v-32.16h6.24v31.74a8.07,8.07,0,0,1-8.58,8.59Z" transform="translate(-2907 19)"/><path class="cls-3" d="M3931.65,1196.39v-33.71h-7v-5.83h20.29v5.83h-7v33.71Z" transform="translate(-2907 19)"/><path class="cls-3" d="M3956.89,1196.39v-39.54h6.24v39.54Z" transform="translate(-2907 19)"/><path class="cls-3" d="M3986,1197.18a8.12,8.12,0,0,1-8.58-8.59v-23.93a8.59,8.59,0,1,1,17.17,0v23.93a8.07,8.07,0,0,1-8.59,8.59Zm-1.69-6.48a2.52,2.52,0,0,0,3.38,0,2.28,2.28,0,0,0,.65-1.69v-24.77a2.26,2.26,0,0,0-.65-1.69,2.34,2.34,0,0,0-4,1.69V1189A2.32,2.32,0,0,0,3984.33,1190.7Z" transform="translate(-2907 19)"/><path class="cls-3" d="M4008.91,1196.39v-39.54h5.16l6.81,19.36v-19.36h6.24v39.54h-5.2l-6.76-19.19v19.19Z" transform="translate(-2907 19)"/><path class="cls-3" d="M4049.76,1197.18a8.14,8.14,0,0,1-8.59-8.59v-4.68h6.24v5.1a2.24,2.24,0,0,0,2.35,2.34,2.23,2.23,0,0,0,2.34-2.34v-3a6,6,0,0,0-1.12-3.41,18.78,18.78,0,0,0-2.68-3.09l-3.23-3a13,13,0,0,1-2.78-3.81,10.83,10.83,0,0,1-1.12-4.91v-3.12a8.59,8.59,0,1,1,17.17,0v4.68h-6.24v-5.1a2.39,2.39,0,0,0-4-1.69,2.24,2.24,0,0,0-.66,1.68v3a5.85,5.85,0,0,0,1.14,3.39,19.42,19.42,0,0,0,2.7,3.09l3.23,3a12.62,12.62,0,0,1,2.76,3.81,11.16,11.16,0,0,1,1.1,4.92v3.13a8.07,8.07,0,0,1-8.58,8.61Z" transform="translate(-2907 19)"/><path class="cls-2" d="M4123.11,1196.39v-39.54h6.25v39.54Z" transform="translate(-2907 19)"/><path class="cls-3" d="M4144.19,1196.39v-39.54h5.15l6.81,19.36v-19.36h6.25v39.54h-5.21l-6.76-19.19v19.19Z" transform="translate(-2907 19)"/><path class="cls-3" d="M4185,1197.18a8.14,8.14,0,0,1-8.59-8.59v-4.68h6.25v5.1a2.28,2.28,0,0,0,.65,1.69,2.34,2.34,0,0,0,4-1.69v-3a5.93,5.93,0,0,0-1.12-3.41,18.78,18.78,0,0,0-2.68-3.09l-3.23-3a13,13,0,0,1-2.78-3.81,11,11,0,0,1-1.12-4.91v-3.12a8.59,8.59,0,1,1,17.17,0v4.68h-6.24v-5.1a2.39,2.39,0,0,0-4-1.69,2.24,2.24,0,0,0-.65,1.68v3a5.91,5.91,0,0,0,1.13,3.39,19,19,0,0,0,2.71,3.09l3.22,3a12.62,12.62,0,0,1,2.76,3.81,11,11,0,0,1,1.1,4.92v3.13a8.07,8.07,0,0,1-8.58,8.61Z" transform="translate(-2907 19)"/><path class="cls-3" d="M4211.3,1196.39v-33.71h-7v-5.83h20.29v5.83h-7v33.71Z" transform="translate(-2907 19)"/><path class="cls-3" d="M4232.22,1196.39l5-39.54h9.4l5.05,39.54h-5.78l-1.11-8.89h-5.15l-1.07,8.89Zm8.08-14.72H4244l-1.89-15.24Z" transform="translate(-2907 19)"/><path class="cls-3" d="M4263.8,1196.39v-39.54H4270v33.72h8.84v5.82Z" transform="translate(-2907 19)"/><path class="cls-3" d="M4290.59,1196.39v-39.54h6.25v33.72h8.84v5.82Z" transform="translate(-2907 19)"/><path class="cls-3" d="M4315.83,1196.39l5-39.54h9.39l5.06,39.54h-5.78l-1.11-8.89h-5.15l-1.07,8.89Zm8.08-14.72h3.72l-1.89-15.24Z" transform="translate(-2907 19)"/><path class="cls-3" d="M4350.79,1196.39v-33.71h-7v-5.83h20.29v5.83h-7v33.71Z" transform="translate(-2907 19)"/><path class="cls-3" d="M4376,1196.39v-39.54h6.25v39.54Z" transform="translate(-2907 19)"/><path class="cls-3" d="M4405.16,1197.18a8.14,8.14,0,0,1-8.59-8.59v-23.93a8.59,8.59,0,1,1,17.17,0v23.93a8.07,8.07,0,0,1-8.58,8.59Zm-1.69-6.48a2.28,2.28,0,0,0,1.69.65,2.23,2.23,0,0,0,2.34-2.34v-24.77a2.39,2.39,0,0,0-4-1.69,2.26,2.26,0,0,0-.65,1.69V1189A2.28,2.28,0,0,0,4403.47,1190.7Z" transform="translate(-2907 19)"/><path class="cls-3" d="M4428.05,1196.39v-39.54h5.15l6.82,19.36v-19.36h6.24v39.54h-5.2l-6.77-19.19v19.19Z" transform="translate(-2907 19)"/><path class="cls-3" d="M4468.89,1197.18a8.12,8.12,0,0,1-8.58-8.59v-4.68h6.24v5.1a2.23,2.23,0,0,0,2.34,2.34,2.23,2.23,0,0,0,2.34-2.34v-3a5.93,5.93,0,0,0-1.12-3.41,18.32,18.32,0,0,0-2.68-3.09l-3.23-3a13,13,0,0,1-2.77-3.81,10.83,10.83,0,0,1-1.12-4.91v-3.12a8.59,8.59,0,1,1,17.17,0v4.68h-6.25v-5.1a2.26,2.26,0,0,0-.65-1.69,2.34,2.34,0,0,0-4,1.68v3a5.85,5.85,0,0,0,1.14,3.39,18.93,18.93,0,0,0,2.7,3.09l3.22,3a12.62,12.62,0,0,1,2.76,3.81,11,11,0,0,1,1.11,4.92v3.13a8.08,8.08,0,0,1-8.59,8.61Z" transform="translate(-2907 19)"/><rect class="cls-3" x="4087.43" y="1173.37" width="6.24" height="6.24" transform="translate(-877.01 -2528.87) rotate(45)"/><rect class="cls-3" x="4087.43" y="1173.37" width="6.24" height="6.24" transform="translate(-877.01 -2528.87) rotate(45)"/><path class="cls-2" d="M3700.75,405.48a8.12,8.12,0,0,1-8.58-8.58V373a8.59,8.59,0,1,1,17.17,0v4.69h-6.25v-5.1a2.26,2.26,0,0,0-.65-1.69,2.28,2.28,0,0,0-1.69-.65,2.23,2.23,0,0,0-2.34,2.34v24.77a2.21,2.21,0,0,0,2.34,2.33,2.21,2.21,0,0,0,2.34-2.33v-5.11h6.25v4.69a8.05,8.05,0,0,1-8.59,8.58Z" transform="translate(-2907 19)"/><path class="cls-3" d="M3730.41,405.48a8.12,8.12,0,0,1-8.59-8.58V365.16h6.25v32.16a2.4,2.4,0,0,0,4,1.69,2.32,2.32,0,0,0,.65-1.69V365.16H3739V396.9a8.05,8.05,0,0,1-8.58,8.58Z" transform="translate(-2907 19)"/><path class="cls-3" d="M3761.37,405.48a8.12,8.12,0,0,1-8.59-8.58v-4.69H3759v5.11a2.35,2.35,0,1,0,4.69,0v-3a6,6,0,0,0-1.12-3.41,18.78,18.78,0,0,0-2.68-3.09l-3.23-3a13,13,0,0,1-2.78-3.81,10.86,10.86,0,0,1-1.12-4.91V373a8.59,8.59,0,1,1,17.17,0v4.69h-6.24v-5.1a2.23,2.23,0,0,0-2.34-2.34,2.36,2.36,0,0,0-1.7.64,2.32,2.32,0,0,0-.65,1.69v3a5.85,5.85,0,0,0,1.14,3.39,19.42,19.42,0,0,0,2.7,3.09c1,1,2.12,2,3.23,3a12.54,12.54,0,0,1,2.76,3.81,11.16,11.16,0,0,1,1.1,4.92v3.13a8.05,8.05,0,0,1-8.58,8.6Z" transform="translate(-2907 19)"/><path class="cls-3" d="M3787.64,404.7V371h-7v-5.83h20.29V371h-7V404.7Z" transform="translate(-2907 19)"/><path class="cls-3" d="M3820.42,405.48a8.12,8.12,0,0,1-8.59-8.58V373a8.59,8.59,0,1,1,17.17,0V396.9a8.05,8.05,0,0,1-8.58,8.58Zm-1.69-6.47a2.28,2.28,0,0,0,1.69.64,2.21,2.21,0,0,0,2.34-2.33V372.55a2.39,2.39,0,0,0-4-1.69,2.26,2.26,0,0,0-.65,1.69v24.77A2.28,2.28,0,0,0,3818.73,399Z" transform="translate(-2907 19)"/><path class="cls-3" d="M3843.31,404.7V365.16h5.15l5.72,16.23,5.73-16.23h5.15V404.7h-6.25V385.5L3855,396.27h-1.67l-3.8-10.77v19.2Z" transform="translate(-2907 19)"/><path class="cls-2" d="M3938.68,405.48a8.12,8.12,0,0,1-8.59-8.58V373a8.59,8.59,0,1,1,17.17,0v4.69H3941v-5.1a2.39,2.39,0,0,0-4-1.69,2.26,2.26,0,0,0-.65,1.69v24.77a2.21,2.21,0,0,0,2.34,2.33,2.21,2.21,0,0,0,2.34-2.33v-5.11h6.24v4.69a8.05,8.05,0,0,1-8.58,8.58Z" transform="translate(-2907 19)"/><path class="cls-3" d="M3968.59,405.48a8.11,8.11,0,0,1-8.58-8.58V373a8.59,8.59,0,1,1,17.17,0V396.9a8.05,8.05,0,0,1-8.59,8.58ZM3966.9,399a2.34,2.34,0,0,0,4-1.69V372.55a2.26,2.26,0,0,0-.65-1.69,2.34,2.34,0,0,0-4,1.69v24.77A2.32,2.32,0,0,0,3966.9,399Z" transform="translate(-2907 19)"/><path class="cls-3" d="M3991.48,404.7V365.16h5.15l6.82,19.36V365.16h6.24V404.7h-5.2l-6.76-19.2v19.2Z" transform="translate(-2907 19)"/><path class="cls-3" d="M4032.33,405.48a8.12,8.12,0,0,1-8.59-8.58v-4.69H4030v5.11a2.35,2.35,0,1,0,4.69,0v-3a6,6,0,0,0-1.12-3.41,18.39,18.39,0,0,0-2.69-3.09q-1.56-1.46-3.22-3a13,13,0,0,1-2.78-3.81,10.86,10.86,0,0,1-1.12-4.91V373a8.59,8.59,0,1,1,17.17,0v4.69h-6.24v-5.1a2.23,2.23,0,0,0-2.34-2.34,2.36,2.36,0,0,0-1.7.64,2.32,2.32,0,0,0-.65,1.69v3a5.85,5.85,0,0,0,1.14,3.39,19.42,19.42,0,0,0,2.7,3.09c1,1,2.12,2,3.23,3a12.54,12.54,0,0,1,2.76,3.81,11.16,11.16,0,0,1,1.1,4.92v3.13a8.05,8.05,0,0,1-8.58,8.6Z" transform="translate(-2907 19)"/><path class="cls-3" d="M4058.6,404.7V371h-7v-5.83h20.29V371h-7V404.7Z" transform="translate(-2907 19)"/><path class="cls-3" d="M4083.83,404.7V365.16h8.59a8.12,8.12,0,0,1,8.58,8.58v7.8c0,3.4-1.25,5.85-3.77,7.34l4.84,15.82h-6.53l-4.46-14.57h-1V404.7Zm6.25-20.39h2.34a2.23,2.23,0,0,0,2.34-2.35v-8.63a2.3,2.3,0,0,0-.65-1.69,2.28,2.28,0,0,0-1.69-.65h-2.34Z" transform="translate(-2907 19)"/><path class="cls-3" d="M4123.9,405.48a8.12,8.12,0,0,1-8.59-8.58V365.16h6.24v32.16a2.23,2.23,0,0,0,2.35,2.33,2.21,2.21,0,0,0,2.34-2.33V365.16h6.24V396.9a8.05,8.05,0,0,1-8.58,8.58Z" transform="translate(-2907 19)"/><path class="cls-3" d="M4155.11,405.48a8.12,8.12,0,0,1-8.58-8.58V373a8.59,8.59,0,1,1,17.17,0v4.69h-6.25v-5.1a2.26,2.26,0,0,0-.65-1.69,2.28,2.28,0,0,0-1.69-.65,2.23,2.23,0,0,0-2.34,2.34v24.77a2.21,2.21,0,0,0,2.34,2.33,2.21,2.21,0,0,0,2.34-2.33v-5.11h6.25v4.69a8.05,8.05,0,0,1-8.59,8.58Z" transform="translate(-2907 19)"/><path class="cls-3" d="M4180.61,404.7V371h-7v-5.83h20.29V371h-7V404.7Z" transform="translate(-2907 19)"/><path class="cls-3" d="M4205.84,404.7V365.16h6.24V404.7Z" transform="translate(-2907 19)"/><path class="cls-3" d="M4235,405.48a8.12,8.12,0,0,1-8.58-8.58V373a8.59,8.59,0,1,1,17.17,0V396.9a8.05,8.05,0,0,1-8.59,8.58Zm-1.68-6.47a2.27,2.27,0,0,0,1.68.64,2.22,2.22,0,0,0,2.35-2.33V372.55a2.3,2.3,0,0,0-.65-1.69,2.32,2.32,0,0,0-1.7-.65,2.24,2.24,0,0,0-2.34,2.34v24.77A2.28,2.28,0,0,0,4233.29,399Z" transform="translate(-2907 19)"/><path class="cls-3" d="M4257.87,404.7V365.16H4263l6.81,19.36V365.16h6.25V404.7h-5.21l-6.76-19.2v19.2Z" transform="translate(-2907 19)"/><path class="cls-2" d="M4349.69,405.48a8.12,8.12,0,0,1-8.58-8.58V373a8.59,8.59,0,1,1,17.17,0v4.69H4352v-5.1a2.3,2.3,0,0,0-.65-1.69,2.32,2.32,0,0,0-1.7-.65,2.24,2.24,0,0,0-2.34,2.34v24.77a2.23,2.23,0,0,0,2.34,2.33,2.22,2.22,0,0,0,2.35-2.33v-5.11h6.24v4.69a8.05,8.05,0,0,1-8.59,8.58Z" transform="translate(-2907 19)"/><path class="cls-3" d="M4379.61,405.48a8.11,8.11,0,0,1-8.58-8.58V373a8.59,8.59,0,1,1,17.17,0V396.9a8.05,8.05,0,0,1-8.59,8.58Zm-1.69-6.47a2.34,2.34,0,0,0,4-1.69V372.55a2.26,2.26,0,0,0-.65-1.69,2.34,2.34,0,0,0-4,1.69v24.77A2.32,2.32,0,0,0,4377.92,399Z" transform="translate(-2907 19)"/><path class="cls-3" d="M4402.5,404.7V365.16h5.15l6.82,19.36V365.16h6.24V404.7h-5.2l-6.76-19.2v19.2Z" transform="translate(-2907 19)"/><path class="cls-3" d="M4439.7,404.7V371h-7v-5.83H4453V371h-7V404.7Z" transform="translate(-2907 19)"/><path class="cls-3" d="M4460.62,404.7l5-39.54h9.4L4480,404.7h-5.78l-1.1-8.89H4468l-1.08,8.89ZM4468.7,390h3.72l-1.88-15.24Z" transform="translate(-2907 19)"/><path class="cls-3" d="M4492.2,404.7V365.16h6.24V404.7Z" transform="translate(-2907 19)"/><path class="cls-3" d="M4513.27,404.7V365.16h5.15l6.82,19.36V365.16h6.24V404.7h-5.2l-6.77-19.2v19.2Z" transform="translate(-2907 19)"/><path class="cls-3" d="M4546.31,404.7V365.16h16.13V371h-9.89v11h7.81v5.83h-7.81v11h9.89v5.82Z" transform="translate(-2907 19)"/><path class="cls-3" d="M4575.44,404.7V365.16H4584a8.12,8.12,0,0,1,8.58,8.58v7.8q0,5.1-3.77,7.34l4.84,15.82h-6.53l-4.46-14.57h-1V404.7Zm6.25-20.39H4584a2.23,2.23,0,0,0,2.34-2.35v-8.63a2.3,2.3,0,0,0-.65-1.69A2.28,2.28,0,0,0,4584,371h-2.34Z" transform="translate(-2907 19)"/><rect class="cls-3" x="3894.41" y="381.75" width="6.24" height="6.24" transform="translate(-1493.3 -2624.25) rotate(45)"/><rect class="cls-3" x="4305.48" y="381.75" width="6.24" height="6.24" transform="translate(-1372.9 -2914.91) rotate(45)"/><rect class="cls-2" x="781" y="458.46" width="908.22" height="4.25"/><rect class="cls-2" x="781" y="1137.24" width="908.22" height="4.25"/><polygon class="cls-2" points="1691.01 562.93 1691.01 495.15 1487.68 495.15 1487.68 562.93 1555.46 562.93 1555.46 1037.38 1487.68 1037.38 1487.68 1105.16 1691.01 1105.16 1691.01 1037.38 1623.23 1037.38 1623.23 562.93 1691.01 562.93"/><polygon class="cls-2" points="1284.34 495.15 1250.45 529.04 1250.45 800.15 1284.34 834.04 1386.01 834.04 1386.01 1037.38 1318.23 1037.38 1318.23 901.82 1250.45 901.82 1250.45 1071.27 1284.34 1105.16 1419.9 1105.16 1453.79 1071.27 1453.79 800.15 1419.9 766.26 1318.23 766.26 1318.23 562.93 1386.01 562.93 1386.01 698.48 1453.79 698.48 1453.79 529.04 1419.9 495.15 1284.34 495.15"/><polygon class="cls-2" points="1047.12 495.15 1013.23 529.04 1013.23 1071.27 1047.12 1105.16 1182.67 1105.16 1216.56 1071.27 1216.56 901.82 1148.78 901.82 1148.78 1037.38 1081 1037.38 1081 562.93 1148.78 562.93 1148.78 698.48 1216.56 698.48 1216.56 529.04 1182.67 495.15 1047.12 495.15"/><polygon class="cls-2" points="809.89 495.15 776 529.04 776 698.48 843.78 698.48 843.78 562.93 911.56 562.93 911.56 766.26 843.78 766.26 843.78 834.04 911.56 834.04 911.56 1037.38 843.78 1037.38 843.78 901.82 776 901.82 776 1071.27 809.89 1105.16 945.45 1105.16 979.34 1071.27 979.34 834.04 945.45 800.15 979.34 766.26 979.34 529.04 945.45 495.15 809.89 495.15"/><polygon class="cls-4" points="945.45 529.04 945.45 800.15 979.34 766.26 979.34 529.04 945.45 495.15 945.45 529.04"/><polygon class="cls-4" points="1047.12 1105.16 1182.67 1105.16 1216.56 1071.27 1216.56 901.82 1182.67 935.71 1182.67 1071.27 1047.12 1071.27 1013.23 1071.27 1047.12 1105.16"/><polygon class="cls-4" points="1284.34 834.04 1386.01 834.04 1419.9 800.15 1284.34 800.15 1250.45 800.15 1284.34 834.04"/><polygon class="cls-4" points="1182.67 529.04 1182.67 664.59 1148.78 698.48 1216.56 698.48 1216.56 529.04 1182.67 495.15 1182.67 529.04"/><polygon class="cls-4" points="1419.9 529.04 1419.9 664.59 1386.01 698.48 1453.79 698.48 1453.79 529.04 1419.9 495.15 1419.9 529.04"/><polygon class="cls-4" points="1487.68 1105.16 1691.01 1105.16 1691.01 1037.38 1657.12 1071.27 1589.35 1071.27 1521.57 1071.27 1487.68 1105.16"/><polygon class="cls-4" points="843.78 834.04 911.56 834.04 945.45 800.15 877.67 800.15 843.78 834.04"/><polygon class="cls-4" points="843.78 901.82 809.89 935.71 809.89 1071.27 843.78 1037.38 843.78 901.82"/><polygon class="cls-4" points="809.89 1071.27 776 1071.27 809.89 1105.16 945.45 1105.16 979.34 1071.27 979.34 834.04 945.45 800.15 945.45 1071.27 809.89 1071.27"/><polygon class="cls-4" points="1047.12 1071.27 1081 1037.38 1081 562.93 1148.78 562.93 1182.67 529.04 1047.12 529.04 1047.12 1071.27"/><polygon class="cls-4" points="1284.34 800.15 1318.23 766.26 1318.23 562.93 1386.01 562.93 1419.9 529.04 1284.34 529.04 1284.34 800.15"/><polygon class="cls-4" points="1318.23 901.82 1284.34 935.71 1284.34 1071.27 1318.23 1037.38 1318.23 901.82"/><polygon class="cls-4" points="1284.34 1071.27 1250.45 1071.27 1284.34 1105.16 1419.9 1105.16 1453.79 1071.27 1453.79 800.15 1419.9 766.26 1419.9 800.15 1419.9 1071.27 1284.34 1071.27"/><polygon class="cls-4" points="1487.68 562.93 1555.46 562.93 1589.35 529.04 1521.57 529.04 1487.68 562.93"/><polygon class="cls-4" points="1623.23 562.93 1691.01 562.93 1691.01 495.15 1657.12 529.04 1589.35 529.04 1589.35 1071.27 1623.23 1037.38 1623.23 562.93"/><polygon class="cls-4" points="809.89 664.59 776 698.48 843.78 698.48 843.78 562.93 911.56 562.93 945.45 529.04 809.89 529.04 809.89 664.59"/></g></svg>