<?xml version="1.0" encoding="utf-8"?>
<!-- Generator: Adobe Illustrator 24.0.0, SVG Export Plug-In . SVG Version: 6.00 Build 0)  -->
<svg version="1.1" xmlns="http://www.w3.org/2000/svg" xmlns:xlink="http://www.w3.org/1999/xlink" x="0px" y="0px"
	 viewBox="0 0 2409.4 1559.1" style="enable-background:new 0 0 2409.4 1559.1;" xml:space="preserve">
<style type="text/css">
	.st0{display:none;}
	.st1{display:none;fill:#FE5722;}
	.st2{fill:#1A1A1A;}
	.st3{fill:none;stroke:#FE5722;stroke-width:10;stroke-miterlimit:10;}
	.st4{fill:#1A1A1A;stroke:#FE5722;stroke-width:3;stroke-miterlimit:10;}
	.st5{display:none;fill:none;stroke:#FE5722;stroke-width:16;stroke-miterlimit:10;}
	.st6{display:inline;}
	.st7{fill:#575756;}
	.st8{fill:#1D1D1B;}
	.st9{display:inline;fill:#1A1A1A;}
	.st10{fill:#9C9B9B;}
	.st11{fill:#6F6F6E;}
	.st12{fill:#FE5722;}
	.st13{fill:#FFFFFF;}
	.st14{fill:#E6E6E6;}
	.st15{fill:none;stroke:#FE5722;stroke-width:2;stroke-miterlimit:10;}
</style>
<g id="Calque_1">
</g>
<g id="Reperes" class="st0">
</g>
<g id="Calque_2">
	<rect x="-101.5" y="-86.5" class="st1" width="2614" height="597"/>
	<g>
		
			<image style="overflow:visible;opacity:0.6;" width="12583" height="4031" xlink:href="8A7112D1.png"  transform="matrix(0.24 0 0 0.24 -310.8397 -57.6397)">
		</image>
		<g>
			<path class="st2" d="M-258-27C-5,294.3,507.5,839.7,1189.1,845c692.7,5.3,1213.3-549.9,1466.9-872H-258z"/>
			<path class="st3" d="M-258-27C-5,294.3,507.5,839.7,1189.1,845c692.7,5.3,1213.3-549.9,1466.9-872H-258z"/>
		</g>
	</g>
	<polygon class="st4" points="1033,1557.5 1.5,1557.5 1.5,1519.5 993.6,1520.7 	"/>
	<polygon class="st4" points="1378,1557.5 2408.5,1557.5 2408.5,1519.5 1417.4,1520.7 	"/>
	<circle class="st5" cx="1199" cy="250" r="213"/>
</g>
<g id="Calque_4">
	<g class="st0">
		<g class="st6">
			<polygon class="st7" points="1359.2,101.9 1359.2,79 1290.5,79 1290.5,101.9 1313.4,101.9 1313.4,262.1 1290.5,262.1 1290.5,285 
				1359.2,285 1359.2,262.1 1336.3,262.1 1336.3,101.9 			"/>
			<polygon class="st7" points="1221.8,79 1210.4,90.4 1210.4,182 1221.8,193.4 1256.2,193.4 1256.2,262.1 1233.3,262.1 
				1233.3,216.3 1210.4,216.3 1210.4,273.6 1221.8,285 1267.6,285 1279.1,273.6 1279.1,182 1267.6,170.6 1233.3,170.6 1233.3,101.9 
				1256.2,101.9 1256.2,147.7 1279.1,147.7 1279.1,90.4 1267.6,79 			"/>
			<polygon class="st7" points="1141.7,79 1130.3,90.4 1130.3,273.6 1141.7,285 1187.5,285 1198.9,273.6 1198.9,216.3 1176.1,216.3 
				1176.1,262.1 1153.2,262.1 1153.2,101.9 1176.1,101.9 1176.1,147.7 1198.9,147.7 1198.9,90.4 1187.5,79 			"/>
			<polygon class="st7" points="1061.6,79 1050.2,90.4 1050.2,147.7 1073.1,147.7 1073.1,101.9 1095.9,101.9 1095.9,170.6 
				1073.1,170.6 1073.1,193.4 1095.9,193.4 1095.9,262.1 1073.1,262.1 1073.1,216.3 1050.2,216.3 1050.2,273.6 1061.6,285 
				1107.4,285 1118.8,273.6 1118.8,193.4 1107.4,182 1118.8,170.6 1118.8,90.4 1107.4,79 			"/>
		</g>
		<g class="st6">
			<polygon class="st8" points="1107.4,90.4 1107.4,182 1118.8,170.6 1118.8,90.4 1107.4,79 			"/>
			<polygon class="st8" points="1141.7,285 1187.5,285 1198.9,273.6 1198.9,216.3 1187.5,227.8 1187.5,273.6 1141.7,273.6 
				1130.3,273.6 			"/>
			<polygon class="st8" points="1221.8,193.4 1256.2,193.4 1267.6,182 1221.8,182 1210.4,182 			"/>
			<polygon class="st8" points="1187.5,90.4 1187.5,136.2 1176.1,147.7 1198.9,147.7 1198.9,90.4 1187.5,79 			"/>
			<polygon class="st8" points="1267.6,90.4 1267.6,136.2 1256.2,147.7 1279.1,147.7 1279.1,90.4 1267.6,79 			"/>
			<polygon class="st8" points="1290.5,285 1359.2,285 1359.2,262.1 1347.7,273.6 1324.8,273.6 1301.9,273.6 			"/>
			<polygon class="st8" points="1073.1,193.4 1095.9,193.4 1107.4,182 1084.5,182 			"/>
			<polygon class="st8" points="1073.1,216.3 1061.6,227.8 1061.6,273.6 1073.1,262.1 			"/>
			<polygon class="st8" points="1061.6,273.6 1050.2,273.6 1061.6,285 1107.4,285 1118.8,273.6 1118.8,193.4 1107.4,182 
				1107.4,273.6 			"/>
			<polygon class="st8" points="1141.7,273.6 1153.2,262.1 1153.2,101.9 1176.1,101.9 1187.5,90.4 1141.7,90.4 			"/>
			<polygon class="st8" points="1221.8,182 1233.3,170.6 1233.3,101.9 1256.2,101.9 1267.6,90.4 1221.8,90.4 			"/>
			<polygon class="st8" points="1233.3,216.3 1221.8,227.8 1221.8,273.6 1233.3,262.1 			"/>
			<polygon class="st8" points="1221.8,273.6 1210.4,273.6 1221.8,285 1267.6,285 1279.1,273.6 1279.1,182 1267.6,170.6 1267.6,182 
				1267.6,273.6 			"/>
			<polygon class="st8" points="1290.5,101.9 1313.4,101.9 1324.8,90.4 1301.9,90.4 			"/>
			<polygon class="st8" points="1336.3,101.9 1359.2,101.9 1359.2,79 1347.7,90.4 1324.8,90.4 1324.8,273.6 1336.3,262.1 			"/>
			<polygon class="st8" points="1061.6,136.2 1050.2,147.7 1073.1,147.7 1073.1,101.9 1095.9,101.9 1107.4,90.4 1061.6,90.4 			"/>
		</g>
		<rect x="1050" y="54.5" class="st9" width="308.4" height="2.5"/>
		<rect x="1050" y="306.5" class="st9" width="308.4" height="2.5"/>
	</g>
	<g>
		<g>
			<polygon class="st10" points="1390.2,158.4 1390.2,130.9 1307.7,130.9 1307.7,158.4 1335.2,158.4 1335.2,350.9 1307.7,350.9 
				1307.7,378.4 1390.2,378.4 1390.2,350.9 1362.7,350.9 1362.7,158.4 			"/>
			<polygon class="st10" points="1225.2,130.9 1211.4,144.6 1211.4,254.6 1225.2,268.4 1266.4,268.4 1266.4,350.9 1238.9,350.9 
				1238.9,295.9 1211.4,295.9 1211.4,364.6 1225.2,378.4 1280.2,378.4 1293.9,364.6 1293.9,254.6 1280.2,240.9 1238.9,240.9 
				1238.9,158.4 1266.4,158.4 1266.4,213.4 1293.9,213.4 1293.9,144.6 1280.2,130.9 			"/>
			<polygon class="st10" points="1128.9,130.9 1115.2,144.6 1115.2,364.6 1128.9,378.4 1183.9,378.4 1197.7,364.6 1197.7,295.9 
				1170.2,295.9 1170.2,350.9 1142.7,350.9 1142.7,158.4 1170.2,158.4 1170.2,213.4 1197.7,213.4 1197.7,144.6 1183.9,130.9 			"/>
			<polygon class="st10" points="1032.7,130.9 1018.9,144.6 1018.9,213.4 1046.4,213.4 1046.4,158.4 1073.9,158.4 1073.9,240.9 
				1046.4,240.9 1046.4,268.4 1073.9,268.4 1073.9,350.9 1046.4,350.9 1046.4,295.9 1018.9,295.9 1018.9,364.6 1032.7,378.4 
				1087.7,378.4 1101.4,364.6 1101.4,268.4 1087.7,254.6 1101.4,240.9 1101.4,144.6 1087.7,130.9 			"/>
		</g>
		<g>
			<polygon class="st11" points="1087.7,144.6 1087.7,254.6 1101.4,240.9 1101.4,144.6 1087.7,130.9 			"/>
			<polygon class="st11" points="1128.9,378.4 1183.9,378.4 1197.7,364.6 1197.7,295.9 1183.9,309.6 1183.9,364.6 1128.9,364.6 
				1115.2,364.6 			"/>
			<polygon class="st11" points="1225.2,268.4 1266.4,268.4 1280.2,254.6 1225.2,254.6 1211.4,254.6 			"/>
			<polygon class="st11" points="1183.9,144.6 1183.9,199.6 1170.2,213.4 1197.7,213.4 1197.7,144.6 1183.9,130.9 			"/>
			<polygon class="st11" points="1280.2,144.6 1280.2,199.6 1266.4,213.4 1293.9,213.4 1293.9,144.6 1280.2,130.9 			"/>
			<polygon class="st11" points="1307.7,378.4 1390.2,378.4 1390.2,350.9 1376.4,364.6 1348.9,364.6 1321.4,364.6 			"/>
			<polygon class="st11" points="1046.4,268.4 1073.9,268.4 1087.7,254.6 1060.2,254.6 			"/>
			<polygon class="st11" points="1046.4,295.9 1032.7,309.6 1032.7,364.6 1046.4,350.9 			"/>
			<polygon class="st11" points="1032.7,364.6 1018.9,364.6 1032.7,378.4 1087.7,378.4 1101.4,364.6 1101.4,268.4 1087.7,254.6 
				1087.7,364.6 			"/>
			<polygon class="st11" points="1128.9,364.6 1142.7,350.9 1142.7,158.4 1170.2,158.4 1183.9,144.6 1128.9,144.6 			"/>
			<polygon class="st11" points="1225.2,254.6 1238.9,240.9 1238.9,158.4 1266.4,158.4 1280.2,144.6 1225.2,144.6 			"/>
			<polygon class="st11" points="1238.9,295.9 1225.2,309.6 1225.2,364.6 1238.9,350.9 			"/>
			<polygon class="st11" points="1225.2,364.6 1211.4,364.6 1225.2,378.4 1280.2,378.4 1293.9,364.6 1293.9,254.6 1280.2,240.9 
				1280.2,254.6 1280.2,364.6 			"/>
			<polygon class="st11" points="1307.7,158.4 1335.2,158.4 1348.9,144.6 1321.4,144.6 			"/>
			<polygon class="st11" points="1362.7,158.4 1390.2,158.4 1390.2,130.9 1376.4,144.6 1348.9,144.6 1348.9,364.6 1362.7,350.9 			
				"/>
			<polygon class="st11" points="1032.7,199.6 1018.9,213.4 1046.4,213.4 1046.4,158.4 1073.9,158.4 1087.7,144.6 1032.7,144.6 			
				"/>
		</g>
	</g>
	<rect x="1020.4" y="99.5" class="st12" width="371.2" height="4.5"/>
	<rect x="1020" y="405" class="st12" width="371.2" height="4"/>
</g>
<g id="Calque_11">
	<g>
		<g>
			<path class="st13" d="M777.4,590.3c0.8,3.3,3.1,4.8,7,4.8c3.8,0,5.5-1.5,5.5-3.9c0-2.7-1.6-3.9-7.3-5.2c-9-2.1-11.2-5.4-11.2-9.9
				c0-5.8,4.3-9.7,12.1-9.7c8.8,0,12.3,4.7,12.8,9.6H789c-0.3-2-1.5-4.2-5.7-4.2c-2.9,0-4.7,1.2-4.7,3.5c0,2.3,1.4,3.2,6.8,4.5
				c9.6,2.3,11.7,5.8,11.7,10.5c0,6-4.6,10.2-13.3,10.2c-8.4,0-12.8-4.1-13.6-10.2H777.4z"/>
			<path class="st13" d="M809,597.8v11.7h-6.8v-28.4c0-2,0-4,0-6h6.7c0.1,0.7,0.2,2.2,0.2,3.1c1.1-1.8,3.3-3.7,7.2-3.7
				c5.6,0,9.9,4.7,9.9,12.4c0,8.8-4.8,13.6-10.8,13.6C811.8,600.6,809.9,599.3,809,597.8z M819.1,587.3c0-4.6-1.8-7.1-5.1-7.1
				c-3.9,0-5.3,2.5-5.3,7.5c0,4.7,1.3,7.5,5,7.5C817.4,595.1,819.1,592.3,819.1,587.3z"/>
			<path class="st13" d="M836.3,589.1c0,3.1,1.6,6.1,5,6.1c2.9,0,3.7-1.1,4.3-2.7h6.9c-0.9,3-3.6,8-11.4,8
				c-8.2,0-11.7-6.1-11.7-12.6c0-7.8,4-13.4,12-13.4c8.5,0,11.4,6.2,11.4,12.4c0,0.8,0,1.4-0.1,2.1H836.3z M845.9,584.9
				c0-2.9-1.2-5.3-4.6-5.3c-3.3,0-4.6,2.3-4.9,5.3H845.9z M851.1,564.5l-7.7,7.1h-6l5.5-7.1H851.1z"/>
			<path class="st13" d="M879,592c-0.9,4.1-3.8,8.6-11.2,8.6c-7.7,0-11.7-5.4-11.7-12.8c0-7.3,4.5-13.2,12-13.2
				c8.4,0,10.7,6,10.8,8.8h-6.7c-0.4-2-1.6-3.4-4.3-3.4c-3.1,0-4.9,2.8-4.9,7.6c0,5.3,1.9,7.7,4.9,7.7c2.4,0,3.6-1.4,4.2-3.3H879z"
				/>
			<path class="st13" d="M883.4,565h6.9v6.1h-6.9V565z M883.4,575.2h6.9V600h-6.9V575.2z"/>
			<path class="st13" d="M917,593.6c0,2.4,0.2,5.8,0.3,6.4h-6.6c-0.2-0.5-0.3-1.8-0.3-2.4c-0.9,1.4-2.6,3-7,3c-6,0-8.5-3.9-8.5-7.8
				c0-5.7,4.5-8.3,11.8-8.3c1.2,0,2.7,0,3.5,0V583c0-1.8-0.6-3.5-3.8-3.5c-2.9,0-3.5,1.2-3.9,3h-6.5c0.4-4.4,3.1-8,10.7-7.9
				c6.7,0,10.3,2.6,10.3,8.6V593.6z M910.3,588.7c-0.6,0-1.9,0-2.8,0c-4.1,0-5.7,1.3-5.7,3.7c0,1.8,1.1,3.3,3.6,3.3
				c4.4,0,4.9-3,4.9-6.3V588.7z"/>
			<path class="st13" d="M923.3,600v-35h6.9v35H923.3z"/>
			<path class="st13" d="M936.3,565h6.9v6.1h-6.9V565z M936.3,575.2h6.9V600h-6.9V575.2z"/>
			<path class="st13" d="M954.4,592.6c0.5,2,2.1,3.1,4.7,3.1c2.5,0,3.5-0.9,3.5-2.4c0-1.6-1.1-2.2-4.6-3.1c-8.1-2-9.4-4.5-9.4-8
				c0-3.7,2.6-7.5,10.1-7.5c7.5,0,10.1,4.1,10.3,7.5h-6.5c-0.2-0.9-0.8-2.7-4.1-2.7c-2.3,0-3,1-3,2.1c0,1.2,0.8,1.8,4.8,2.8
				c8.3,1.9,9.5,4.8,9.5,8.4c0,4.1-3.1,7.9-10.7,7.9c-7.5,0-10.7-3.6-11.2-8H954.4z"/>
			<path class="st13" d="M971.7,575.2h3.8v-6.7h6.9v6.7h4.9v5.2h-4.9v12.3c0,1.9,0.6,2.6,2.6,2.6c0.4,0,1.1,0,1.6-0.1v4.7
				c-1.4,0.5-3.2,0.5-4.6,0.5c-4.8,0-6.4-2.6-6.4-6.9v-13.1h-3.8V575.2z"/>
			<path class="st13" d="M997,589.1c0,3.1,1.6,6.1,5,6.1c2.9,0,3.7-1.1,4.3-2.7h6.9c-0.9,3-3.6,8-11.4,8c-8.2,0-11.7-6.1-11.7-12.6
				c0-7.8,4-13.4,12-13.4c8.5,0,11.4,6.2,11.4,12.4c0,0.8,0,1.4-0.1,2.1H997z M1006.6,584.9c0-2.9-1.2-5.3-4.6-5.3
				c-3.3,0-4.6,2.3-4.9,5.3H1006.6z"/>
			<path class="st13" d="M1035.3,589.1c0,3.1,1.6,6.1,5,6.1c2.9,0,3.7-1.1,4.3-2.7h6.9c-0.9,3-3.6,8-11.4,8
				c-8.2,0-11.7-6.1-11.7-12.6c0-7.8,4-13.4,12-13.4c8.5,0,11.4,6.2,11.4,12.4c0,0.8,0,1.4-0.1,2.1H1035.3z M1044.9,584.9
				c0-2.9-1.2-5.3-4.6-5.3c-3.3,0-4.6,2.3-4.9,5.3H1044.9z"/>
			<path class="st13" d="M1056.5,581.5c0-2.1,0-4.4,0-6.3h6.7c0.1,0.6,0.2,2.4,0.3,3.2c0.8-1.6,2.9-3.7,7.2-3.7c5,0,8.2,3.4,8.2,9.6
				V600h-6.9v-15c0-2.8-0.9-4.8-4-4.8c-2.9,0-4.6,1.6-4.6,6V600h-6.9V581.5z"/>
			<path class="st13" d="M1096.5,565h6.9v6.1h-6.9V565z M1096.5,575.2h6.9V600h-6.9V575.2z"/>
			<path class="st13" d="M1109.6,581.5c0-2.1,0-4.4,0-6.3h6.7c0.1,0.6,0.2,2.4,0.3,3.2c0.8-1.6,2.9-3.7,7.2-3.7c5,0,8.2,3.4,8.2,9.6
				V600h-6.9v-15c0-2.8-0.9-4.8-4-4.8c-2.9,0-4.6,1.6-4.6,6V600h-6.9V581.5z"/>
			<path class="st13" d="M1143.1,592.6c0.5,2,2.1,3.1,4.7,3.1c2.5,0,3.5-0.9,3.5-2.4c0-1.6-1.1-2.2-4.6-3.1c-8.1-2-9.4-4.5-9.4-8
				c0-3.7,2.6-7.5,10.1-7.5c7.5,0,10.1,4.1,10.3,7.5h-6.5c-0.2-0.9-0.8-2.7-4.1-2.7c-2.3,0-3,1-3,2.1c0,1.2,0.8,1.8,4.8,2.8
				c8.3,1.9,9.5,4.8,9.5,8.4c0,4.1-3.1,7.9-10.7,7.9c-7.5,0-10.7-3.6-11.2-8H1143.1z"/>
			<path class="st13" d="M1160.4,575.2h3.8v-6.7h6.9v6.7h4.9v5.2h-4.9v12.3c0,1.9,0.6,2.6,2.6,2.6c0.4,0,1.1,0,1.6-0.1v4.7
				c-1.4,0.5-3.2,0.5-4.6,0.5c-4.8,0-6.4-2.6-6.4-6.9v-13.1h-3.8V575.2z"/>
			<path class="st13" d="M1200.8,593.6c0,2.4,0.2,5.8,0.3,6.4h-6.6c-0.2-0.5-0.3-1.8-0.3-2.4c-0.9,1.4-2.6,3-7,3
				c-6,0-8.5-3.9-8.5-7.8c0-5.7,4.5-8.3,11.8-8.3c1.2,0,2.7,0,3.5,0V583c0-1.8-0.6-3.5-3.8-3.5c-2.9,0-3.5,1.2-3.9,3h-6.5
				c0.4-4.4,3.1-8,10.7-7.9c6.7,0,10.3,2.6,10.3,8.6V593.6z M1194.1,588.7c-0.6,0-1.9,0-2.8,0c-4.1,0-5.7,1.3-5.7,3.7
				c0,1.8,1.1,3.3,3.6,3.3c4.4,0,4.9-3,4.9-6.3V588.7z"/>
			<path class="st13" d="M1207.1,600v-35h6.9v35H1207.1z"/>
			<path class="st13" d="M1220.1,600v-35h6.9v35H1220.1z"/>
			<path class="st13" d="M1253.8,593.6c0,2.4,0.2,5.8,0.3,6.4h-6.6c-0.2-0.5-0.3-1.8-0.3-2.4c-0.9,1.4-2.6,3-7,3
				c-6,0-8.5-3.9-8.5-7.8c0-5.7,4.5-8.3,11.8-8.3c1.2,0,2.7,0,3.5,0V583c0-1.8-0.6-3.5-3.8-3.5c-2.9,0-3.5,1.2-3.9,3h-6.5
				c0.4-4.4,3.1-8,10.7-7.9c6.7,0,10.3,2.6,10.3,8.6V593.6z M1247.1,588.7c-0.6,0-1.9,0-2.8,0c-4.1,0-5.7,1.3-5.7,3.7
				c0,1.8,1.1,3.3,3.6,3.3c4.4,0,4.9-3,4.9-6.3V588.7z"/>
			<path class="st13" d="M1257.6,575.2h3.8v-6.7h6.9v6.7h4.9v5.2h-4.9v12.3c0,1.9,0.6,2.6,2.6,2.6c0.4,0,1.1,0,1.6-0.1v4.7
				c-1.4,0.5-3.2,0.5-4.6,0.5c-4.8,0-6.4-2.6-6.4-6.9v-13.1h-3.8V575.2z"/>
			<path class="st13" d="M1277.4,565h6.9v6.1h-6.9V565z M1277.4,575.2h6.9V600h-6.9V575.2z"/>
			<path class="st13" d="M1313.6,587.6c0,7.5-4.5,13-12.4,13c-7.7,0-12.2-5.5-12.2-12.9c0-7.7,4.6-13.1,12.5-13.1
				C1308.9,574.6,1313.6,579.8,1313.6,587.6z M1296,587.6c0,4.8,2.1,7.6,5.4,7.6c3.4,0,5.2-2.8,5.2-7.6c0-5.2-1.9-7.7-5.3-7.7
				C1298.1,580,1296,582.4,1296,587.6z"/>
			<path class="st13" d="M1318.4,581.5c0-2.1,0-4.4,0-6.3h6.7c0.1,0.6,0.2,2.4,0.3,3.2c0.8-1.6,2.9-3.7,7.2-3.7c5,0,8.2,3.4,8.2,9.6
				V600h-6.9v-15c0-2.8-0.9-4.8-4-4.8c-2.9,0-4.6,1.6-4.6,6V600h-6.9V581.5z"/>
			<path class="st13" d="M1381.2,565v28.2c0,2.3,0,4.6,0,6.8h-6.6c-0.1-0.7-0.3-2-0.3-2.6c-1.2,2-3.3,3.2-7,3.2
				c-6.3,0-10.3-5-10.3-12.8c0-7.6,4.3-13.2,11.3-13.2c3.6,0,5.5,1.3,6,2.4v-12H1381.2z M1364.1,587.6c0,4.8,1.9,7.5,5.3,7.5
				c4.7,0,5.3-3.9,5.3-7.5c0-4.2-0.6-7.5-5.1-7.5C1365.9,580.1,1364.1,582.9,1364.1,587.6z"/>
			<path class="st13" d="M1392.8,589.1c0,3.1,1.6,6.1,5,6.1c2.9,0,3.7-1.1,4.3-2.7h6.9c-0.9,3-3.6,8-11.4,8
				c-8.2,0-11.7-6.1-11.7-12.6c0-7.8,4-13.4,12-13.4c8.5,0,11.4,6.2,11.4,12.4c0,0.8,0,1.4-0.1,2.1H1392.8z M1402.4,584.9
				c0-2.9-1.2-5.3-4.6-5.3c-3.3,0-4.6,2.3-4.9,5.3H1402.4z"/>
			<path class="st13" d="M1425.6,581.6c0-2.1,0-4.3,0-6.4h6.6c0.1,0.6,0.2,2,0.3,3c1.3-1.9,3.3-3.5,6.9-3.5c3.6,0,5.5,1.8,6.4,3.8
				c1.5-2,3.6-3.8,7.7-3.8c4.3,0,7.9,2.7,7.9,9.1V600h-6.7v-15.5c0-2.2-0.8-4.4-3.6-4.4c-2.9,0-4.1,1.9-4.1,5.7V600h-6.7v-15.2
				c0-2.6-0.6-4.7-3.6-4.7c-2.8,0-4.1,1.7-4.1,6V600h-6.8V581.6z"/>
			<path class="st13" d="M1488,593.6c0,2.4,0.2,5.8,0.3,6.4h-6.6c-0.2-0.5-0.3-1.8-0.3-2.4c-0.9,1.4-2.6,3-7,3c-6,0-8.5-3.9-8.5-7.8
				c0-5.7,4.5-8.3,11.8-8.3c1.2,0,2.7,0,3.5,0V583c0-1.8-0.6-3.5-3.8-3.5c-2.9,0-3.5,1.2-3.9,3h-6.5c0.4-4.4,3.1-8,10.7-7.9
				c6.7,0,10.3,2.6,10.3,8.6V593.6z M1481.3,588.7c-0.6,0-1.9,0-2.8,0c-4.1,0-5.7,1.3-5.7,3.7c0,1.8,1.1,3.3,3.6,3.3
				c4.4,0,4.9-3,4.9-6.3V588.7z"/>
			<path class="st13" d="M1515.7,592c-0.9,4.1-3.8,8.6-11.2,8.6c-7.7,0-11.7-5.4-11.7-12.8c0-7.3,4.5-13.2,12-13.2
				c8.4,0,10.7,6,10.8,8.8h-6.7c-0.4-2-1.6-3.4-4.3-3.4c-3.1,0-4.9,2.8-4.9,7.6c0,5.3,1.9,7.7,4.9,7.7c2.4,0,3.6-1.4,4.2-3.3H1515.7
				z"/>
			<path class="st13" d="M1527,565v13.1c1.1-1.6,3.1-3.5,7.1-3.5c4.6,0,8.3,2.7,8.3,9.5V600h-6.8v-14.9c0-3.2-1.1-4.9-4-4.9
				c-3.8,0-4.6,2.8-4.6,6.7V600h-6.9v-35H1527z"/>
			<path class="st13" d="M1548.6,565h6.9v6.1h-6.9V565z M1548.6,575.2h6.9V600h-6.9V575.2z"/>
			<path class="st13" d="M1561.7,581.5c0-2.1,0-4.4,0-6.3h6.7c0.1,0.6,0.2,2.4,0.3,3.2c0.8-1.6,2.9-3.7,7.2-3.7c5,0,8.2,3.4,8.2,9.6
				V600h-6.9v-15c0-2.8-0.9-4.8-4-4.8c-2.9,0-4.6,1.6-4.6,6V600h-6.9V581.5z"/>
			<path class="st13" d="M1595.6,589.1c0,3.1,1.6,6.1,5,6.1c2.9,0,3.7-1.1,4.3-2.7h6.9c-0.9,3-3.6,8-11.4,8
				c-8.2,0-11.7-6.1-11.7-12.6c0-7.8,4-13.4,12-13.4c8.5,0,11.4,6.2,11.4,12.4c0,0.8,0,1.4-0.1,2.1H1595.6z M1605.2,584.9
				c0-2.9-1.2-5.3-4.6-5.3c-3.3,0-4.6,2.3-4.9,5.3H1605.2z"/>
			<path class="st13" d="M1621.8,592.6c0.5,2,2.1,3.1,4.7,3.1c2.5,0,3.5-0.9,3.5-2.4c0-1.6-1.1-2.2-4.6-3.1c-8.1-2-9.4-4.5-9.4-8
				c0-3.7,2.6-7.5,10.1-7.5c7.5,0,10.1,4.1,10.3,7.5h-6.5c-0.2-0.9-0.8-2.7-4.1-2.7c-2.3,0-3,1-3,2.1c0,1.2,0.8,1.8,4.8,2.8
				c8.3,1.9,9.5,4.8,9.5,8.4c0,4.1-3.1,7.9-10.7,7.9c-7.5,0-10.7-3.6-11.2-8H1621.8z"/>
			<path class="st13" d="M922.2,646.7c0,3.1,1.6,6.1,5,6.1c2.9,0,3.7-1.1,4.3-2.7h6.9c-0.9,3-3.6,8-11.4,8
				c-8.2,0-11.7-6.1-11.7-12.6c0-7.8,4-13.4,12-13.4c8.5,0,11.4,6.2,11.4,12.4c0,0.8,0,1.4-0.1,2.1H922.2z M931.8,642.5
				c0-2.9-1.2-5.3-4.6-5.3c-3.3,0-4.6,2.3-4.9,5.3H931.8z"/>
			<path class="st13" d="M941,632.8h3.8v-6.7h6.9v6.7h4.9v5.2h-4.9v12.3c0,1.9,0.6,2.6,2.6,2.6c0.4,0,1.1,0,1.6-0.1v4.7
				c-1.4,0.5-3.2,0.5-4.6,0.5c-4.8,0-6.4-2.6-6.4-6.9V638H941V632.8z"/>
			<path class="st13" d="M977.9,646.7c0,3.1,1.6,6.1,5,6.1c2.9,0,3.7-1.1,4.3-2.7h6.9c-0.9,3-3.6,8-11.4,8
				c-8.2,0-11.7-6.1-11.7-12.6c0-7.8,4-13.4,12-13.4c8.5,0,11.4,6.2,11.4,12.4c0,0.8,0,1.4-0.1,2.1H977.9z M987.5,642.5
				c0-2.9-1.2-5.3-4.6-5.3c-3.3,0-4.6,2.3-4.9,5.3H987.5z M992.7,622.1l-7.7,7.1h-6l5.5-7.1H992.7z"/>
			<path class="st13" d="M1015,655c-1.4,2.3-3.6,3.2-6.9,3.2c-5.5,0-10.4-4.1-10.4-12.8c0-8,4.8-13.2,11-13.2c4,0,5.8,1.6,6.4,2.9
				c0-0.6,0.1-1.7,0.2-2.3h6.5c0,2.1,0,4.5,0,6.8v27.6h-6.7V655z M1004.7,645.2c0,4.4,1.6,7.5,5.2,7.5c4.2,0,5.2-3.1,5.2-7.5
				c0-4.8-1-7.4-5.1-7.4C1006.4,637.7,1004.7,640.8,1004.7,645.2z"/>
			<path class="st13" d="M1049.7,650.4c0,2.4,0,5,0,7.2h-6.7c-0.1-0.7-0.1-2-0.2-2.9c-1.5,2.5-3.7,3.4-6.8,3.4
				c-5.1,0-8.3-3.1-8.3-9.2v-16.2h6.9v14.8c0,2.7,0.9,5,3.8,5c3.1,0,4.4-1.7,4.4-6.6v-13.2h6.9V650.4z"/>
			<path class="st13" d="M1055.9,622.6h6.9v6.1h-6.9V622.6z M1055.9,632.8h6.9v24.8h-6.9V632.8z"/>
			<path class="st13" d="M1075.8,655.4v11.7h-6.8v-28.4c0-2,0-4,0-6h6.7c0.1,0.7,0.2,2.2,0.2,3.1c1.1-1.8,3.3-3.7,7.2-3.7
				c5.6,0,9.9,4.7,9.9,12.4c0,8.8-4.8,13.6-10.8,13.6C1078.6,658.2,1076.8,656.9,1075.8,655.4z M1086,644.9c0-4.6-1.8-7.1-5.1-7.1
				c-3.9,0-5.3,2.5-5.3,7.5c0,4.7,1.3,7.5,5,7.5C1084.2,652.7,1086,649.9,1086,644.9z"/>
			<path class="st13" d="M1103.2,646.7c0,3.1,1.6,6.1,5,6.1c2.9,0,3.7-1.1,4.3-2.7h6.9c-0.9,3-3.6,8-11.4,8
				c-8.2,0-11.7-6.1-11.7-12.6c0-7.8,4-13.4,12-13.4c8.5,0,11.4,6.2,11.4,12.4c0,0.8,0,1.4-0.1,2.1H1103.2z M1112.7,642.5
				c0-2.9-1.2-5.3-4.6-5.3c-3.3,0-4.6,2.3-4.9,5.3H1112.7z"/>
			<path class="st13" d="M1124.3,639.2c0-2.1,0-4.3,0-6.4h6.6c0.1,0.6,0.2,2,0.3,3c1.3-1.9,3.3-3.5,6.9-3.5c3.6,0,5.5,1.8,6.4,3.8
				c1.5-2,3.6-3.8,7.7-3.8c4.3,0,7.9,2.7,7.9,9.1v16.3h-6.7v-15.5c0-2.2-0.8-4.4-3.6-4.4c-2.9,0-4.1,1.9-4.1,5.7v14.2h-6.7v-15.2
				c0-2.6-0.6-4.7-3.6-4.7c-2.8,0-4.1,1.7-4.1,6v13.9h-6.8V639.2z"/>
			<path class="st13" d="M1171.6,646.7c0,3.1,1.6,6.1,5,6.1c2.9,0,3.7-1.1,4.3-2.7h6.9c-0.9,3-3.6,8-11.4,8
				c-8.2,0-11.7-6.1-11.7-12.6c0-7.8,4-13.4,12-13.4c8.5,0,11.4,6.2,11.4,12.4c0,0.8,0,1.4-0.1,2.1H1171.6z M1181.2,642.5
				c0-2.9-1.2-5.3-4.6-5.3c-3.3,0-4.6,2.3-4.9,5.3H1181.2z"/>
			<path class="st13" d="M1192.8,639.1c0-2.1,0-4.4,0-6.3h6.7c0.1,0.6,0.2,2.4,0.3,3.2c0.8-1.6,2.9-3.7,7.2-3.7c5,0,8.2,3.4,8.2,9.6
				v15.8h-6.9v-15c0-2.8-0.9-4.8-4-4.8c-2.9,0-4.6,1.6-4.6,6v13.8h-6.9V639.1z"/>
			<path class="st13" d="M1218.8,632.8h3.8v-6.7h6.9v6.7h4.9v5.2h-4.9v12.3c0,1.9,0.6,2.6,2.6,2.6c0.4,0,1.1,0,1.6-0.1v4.7
				c-1.4,0.5-3.2,0.5-4.6,0.5c-4.8,0-6.4-2.6-6.4-6.9V638h-3.8V632.8z"/>
			<path class="st13" d="M1250.3,639.2c0-2.1,0-4.3,0-6.4h6.6c0.1,0.6,0.2,2,0.3,3c1.3-1.9,3.3-3.5,6.9-3.5c3.6,0,5.5,1.8,6.4,3.8
				c1.5-2,3.6-3.8,7.7-3.8c4.3,0,7.9,2.7,7.9,9.1v16.3h-6.7v-15.5c0-2.2-0.8-4.4-3.6-4.4c-2.9,0-4.1,1.9-4.1,5.7v14.2h-6.7v-15.2
				c0-2.6-0.6-4.7-3.6-4.7c-2.8,0-4.1,1.7-4.1,6v13.9h-6.8V639.2z"/>
			<path class="st13" d="M1297.5,646.7c0,3.1,1.6,6.1,5,6.1c2.9,0,3.7-1.1,4.3-2.7h6.9c-0.9,3-3.6,8-11.4,8
				c-8.2,0-11.7-6.1-11.7-12.6c0-7.8,4-13.4,12-13.4c8.5,0,11.4,6.2,11.4,12.4c0,0.8,0,1.4-0.1,2.1H1297.5z M1307.1,642.5
				c0-2.9-1.2-5.3-4.6-5.3c-3.3,0-4.6,2.3-4.9,5.3H1307.1z M1312.3,622.1l-7.7,7.1h-6l5.5-7.1H1312.3z"/>
			<path class="st13" d="M1340.2,649.6c-0.9,4.1-3.8,8.6-11.2,8.6c-7.7,0-11.7-5.4-11.7-12.8c0-7.3,4.5-13.2,12-13.2
				c8.4,0,10.7,6,10.8,8.8h-6.7c-0.4-2-1.6-3.4-4.3-3.4c-3.1,0-4.9,2.8-4.9,7.6c0,5.3,1.9,7.7,4.9,7.7c2.4,0,3.6-1.4,4.2-3.3H1340.2
				z"/>
			<path class="st13" d="M1365.2,651.2c0,2.4,0.2,5.8,0.3,6.4h-6.6c-0.2-0.5-0.3-1.8-0.3-2.4c-0.9,1.4-2.6,3-7,3
				c-6,0-8.5-3.9-8.5-7.8c0-5.7,4.5-8.3,11.8-8.3c1.2,0,2.7,0,3.5,0v-1.5c0-1.8-0.6-3.5-3.8-3.5c-2.9,0-3.5,1.2-3.9,3h-6.5
				c0.4-4.4,3.1-8,10.7-7.9c6.7,0,10.3,2.6,10.3,8.6V651.2z M1358.5,646.3c-0.6,0-1.9,0-2.8,0c-4.1,0-5.7,1.3-5.7,3.7
				c0,1.8,1.1,3.3,3.6,3.3c4.4,0,4.9-3,4.9-6.3V646.3z"/>
			<path class="st13" d="M1371.5,639.1c0-2.1,0-4.4,0-6.3h6.7c0.1,0.6,0.2,2.4,0.3,3.2c0.8-1.6,2.9-3.7,7.2-3.7c5,0,8.2,3.4,8.2,9.6
				v15.8h-6.9v-15c0-2.8-0.9-4.8-4-4.8c-2.9,0-4.6,1.6-4.6,6v13.8h-6.9V639.1z"/>
			<path class="st13" d="M1399.9,622.6h6.9v6.1h-6.9V622.6z M1399.9,632.8h6.9v24.8h-6.9V632.8z"/>
			<path class="st13" d="M1428.9,655c-1.4,2.3-3.6,3.2-6.9,3.2c-5.5,0-10.4-4.1-10.4-12.8c0-8,4.8-13.2,11-13.2c4,0,5.8,1.6,6.4,2.9
				c0-0.6,0.1-1.7,0.2-2.3h6.5c0,2.1,0,4.5,0,6.8v27.6h-6.7V655z M1418.5,645.2c0,4.4,1.6,7.5,5.2,7.5c4.2,0,5.2-3.1,5.2-7.5
				c0-4.8-1-7.4-5.1-7.4C1420.2,637.7,1418.5,640.8,1418.5,645.2z"/>
			<path class="st13" d="M1463.6,650.4c0,2.4,0,5,0,7.2h-6.7c-0.1-0.7-0.1-2-0.2-2.9c-1.5,2.5-3.7,3.4-6.8,3.4
				c-5.1,0-8.3-3.1-8.3-9.2v-16.2h6.9v14.8c0,2.7,0.9,5,3.8,5c3.1,0,4.4-1.7,4.4-6.6v-13.2h6.9V650.4z"/>
			<path class="st13" d="M1475.2,646.7c0,3.1,1.6,6.1,5,6.1c2.9,0,3.7-1.1,4.3-2.7h6.9c-0.9,3-3.6,8-11.4,8
				c-8.2,0-11.7-6.1-11.7-12.6c0-7.8,4-13.4,12-13.4c8.5,0,11.4,6.2,11.4,12.4c0,0.8,0,1.4-0.1,2.1H1475.2z M1484.8,642.5
				c0-2.9-1.2-5.3-4.6-5.3c-3.3,0-4.6,2.3-4.9,5.3H1484.8z"/>
		</g>
	</g>
</g>
<g id="Calque_5">
	<g>
		<g>
			<path class="st2" d="M1063.7,1429.3c3.6,12.4,5.6,19.5,6,21.6h0c0.4-1.9,2.8-9.5,6.5-21.6h2.6c4.5,14.8,5.8,19.1,6.2,21h0
				c0.7-2.6,1.8-6.2,6.2-21h2.5l-7.6,24h-2.6c-2.6-8.5-5.7-18.9-6.2-21.1h0c-0.5,2.4-3.2,10.9-6.3,21.1h-2.9l-7.1-24H1063.7z"/>
			<path class="st2" d="M1099.3,1429.3c3.6,12.4,5.6,19.5,6,21.6h0c0.4-1.9,2.8-9.5,6.5-21.6h2.6c4.5,14.8,5.8,19.1,6.2,21h0
				c0.7-2.6,1.8-6.2,6.2-21h2.5l-7.6,24h-2.6c-2.6-8.5-5.7-18.9-6.2-21.1h0c-0.5,2.4-3.2,10.9-6.3,21.1h-2.9l-7.1-24H1099.3z"/>
			<path class="st2" d="M1134.9,1429.3c3.6,12.4,5.6,19.5,6,21.6h0c0.4-1.9,2.8-9.5,6.5-21.6h2.6c4.5,14.8,5.8,19.1,6.2,21h0
				c0.7-2.6,1.8-6.2,6.2-21h2.5l-7.6,24h-2.6c-2.6-8.5-5.7-18.9-6.2-21.1h0c-0.5,2.4-3.2,10.9-6.3,21.1h-2.9l-7.1-24H1134.9z"/>
			<path class="st2" d="M1169.4,1453.3v-6.2h2.4v6.2H1169.4z"/>
			<path class="st2" d="M1178.4,1428.8c0.5-3.9,3.3-7.7,9.3-7.7c6,0,8.8,3.9,8.8,7.9c0,3.9-2.4,6-4.4,6.6v0.1c3.4,1,5.9,3.6,5.9,8.2
				c0,5.3-3.4,9.9-10.4,9.9c-6.4,0-9.6-4.2-10.2-8.4h2.5c0.8,3.2,3.3,6.1,7.9,6.1c5.4,0,7.5-3.6,7.5-7.5c0-5-3.3-7.1-8-7.1h-1.9
				v-2.2h1.5c4.8,0,7-2,7-5.8c0-3.3-2.3-5.6-6.3-5.6c-4.2,0-6,2.2-6.8,5.4H1178.4z"/>
			<path class="st2" d="M1222.5,1446.2c-1.2,4.2-3.9,7.6-9.3,7.6c-6,0-10.3-4.5-10.3-12.5c0-6.6,3.5-12.7,10.6-12.7
				c6.1,0,8.6,4.3,9,7.7h-2.4c-0.7-2.8-2.5-5.4-6.6-5.4c-5.1,0-8,4.3-8,10.3c0,5.7,2.7,10.3,7.7,10.3c3.5,0,5.6-1.8,6.9-5.4H1222.5z
				"/>
			<path class="st2" d="M1228,1446.7c0.8,3.1,3,5,6.8,5c4.3,0,6-2,6-4.7c0-2.7-1.2-4.1-6.5-5.4c-6.2-1.5-7.7-3.4-7.7-6.5
				c0-3.3,2.5-6.4,7.9-6.4c5.4,0,8,3.3,8.4,6.7h-2.4c-0.4-2-2-4.5-6.1-4.5c-4.2,0-5.4,2.1-5.4,4c0,2.2,1.2,3.3,5.9,4.5
				c6.8,1.6,8.4,3.8,8.4,7.4c0,4.4-3.6,7.1-8.6,7.1c-5.5,0-8.5-2.9-9.2-7.2H1228z"/>
			<path class="st2" d="M1249.3,1417.9h2.4v4.7h-2.4V1417.9z M1249.3,1429.3h2.4v24h-2.4V1429.3z"/>
			<path class="st2" d="M1258.5,1453.3v-6.2h2.4v6.2H1258.5z"/>
			<path class="st2" d="M1285.4,1446.2c-1.2,4.2-3.9,7.6-9.3,7.6c-6,0-10.3-4.5-10.3-12.5c0-6.6,3.5-12.7,10.6-12.7
				c6.1,0,8.6,4.3,9,7.7h-2.4c-0.7-2.8-2.5-5.4-6.6-5.4c-5.1,0-8,4.3-8,10.3c0,5.7,2.7,10.3,7.7,10.3c3.5,0,5.6-1.8,6.9-5.4H1285.4z
				"/>
			<path class="st2" d="M1310.4,1441.2c0,6.7-3.7,12.6-10.8,12.6c-6.5,0-10.5-5.3-10.5-12.6c0-6.9,3.8-12.6,10.8-12.6
				C1306.2,1428.7,1310.4,1433.7,1310.4,1441.2z M1291.6,1441.3c0,5.7,3.1,10.3,8.2,10.3c5.2,0,8.1-4.3,8.1-10.3
				c0-5.7-2.9-10.3-8.2-10.3C1294.2,1431,1291.6,1435.5,1291.6,1441.3z"/>
			<path class="st2" d="M1316.4,1435.5c0-2.1,0-4.3,0-6.2h2.4c0,0.8,0.1,2.9,0.1,4.3c1-2.4,3.2-4.8,7.2-4.8c3.4,0,6,1.7,7,4.8
				c1.2-2.5,3.6-4.8,7.8-4.8c3.7,0,7.5,2.1,7.5,8.8v15.8h-2.4v-15.5c0-3.2-1.2-6.7-5.6-6.7c-4.7,0-6.8,3.7-6.8,8.4v13.8h-2.4v-15.5
				c0-3.5-1.1-6.8-5.5-6.8c-4.7,0-6.9,4.1-6.9,9v13.2h-2.4V1435.5z"/>
		</g>
	</g>
</g>
<g id="Calque_6">
	<g id="christ">
		<circle class="st2" cx="1058" cy="1200.5" r="30"/>
		<circle class="st2" cx="1059" cy="1272" r="30"/>
		<g>
			<g>
				<path class="st2" d="M1129.5,1276.6c0,5.1-1.3,11.7-7.2,11.7c-5.8,0-7.2-6-7.2-11.5c0-5.4,1.6-11.5,7.3-11.5
					C1128.2,1265.3,1129.5,1271.4,1129.5,1276.6z M1117,1276.8c0,4.3,0.9,9.8,5.3,9.8c4.5,0,5.4-5.3,5.4-10c0-4.2-0.9-9.7-5.3-9.7
					C1117.8,1266.9,1117,1271.9,1117,1276.8z"/>
				<path class="st2" d="M1145.1,1270.2c-0.5-2-1.9-3.3-4.3-3.3c-4.2,0-5.8,4-5.9,9.8c0.9-1.9,2.6-3.8,6-3.8c4.4,0,6.7,3.2,6.7,7.4
					c0,4.1-2.3,8-7,8c-5.9,0-7.4-5-7.4-11.2c0-6.3,2-11.8,7.7-11.8c4.3,0,5.7,2.9,6.1,4.9H1145.1z M1145.8,1280.4
					c0-2.7-1.1-5.9-5-5.9c-3.1,0-5.5,2.1-5.5,6c0,1.9,1,6.2,5.4,6.2C1144.4,1286.7,1145.8,1283.6,1145.8,1280.4z"/>
				<path class="st2" d="M1159.7,1281.7c0-3.3,2.2-5.2,4.3-5.9c-2.1-0.9-3.3-2.6-3.3-4.8c0-3.2,2.2-5.7,6.5-5.7
					c3.9,0,6.2,2.5,6.2,5.7c0,2.3-1.3,4-3.3,4.7c2.4,0.7,4.2,3,4.2,5.9c0,4-3,6.7-7.3,6.7
					C1162.7,1288.3,1159.7,1285.6,1159.7,1281.7z M1172.4,1281.6c0-3.2-2-5-5.4-5c-3.8,0-5.5,2.2-5.5,5c0,2.8,1.9,5.1,5.4,5.1
					C1170.2,1286.7,1172.4,1284.9,1172.4,1281.6z M1162.5,1270.9c0,2.1,1.3,4.1,4.6,4.1c3.1,0,4.4-1.6,4.4-3.9
					c0-2.1-1.3-4.1-4.4-4.1C1163.7,1266.9,1162.5,1268.6,1162.5,1270.9z"/>
				<path class="st2" d="M1192.1,1276.6c0,5.1-1.3,11.7-7.2,11.7c-5.8,0-7.2-6-7.2-11.5c0-5.4,1.6-11.5,7.3-11.5
					C1190.8,1265.3,1192.1,1271.4,1192.1,1276.6z M1179.6,1276.8c0,4.3,0.9,9.8,5.3,9.8c4.5,0,5.4-5.3,5.4-10c0-4.2-0.9-9.7-5.3-9.7
					C1180.4,1266.9,1179.6,1271.9,1179.6,1276.8z"/>
				<path class="st2" d="M1217.5,1265.7v1.7c-4.1,5.4-7.8,13.9-9.1,20.5h-1.8c1.1-6.2,5.1-15.2,9-20.5h-12.1v-1.7H1217.5z"/>
				<path class="st2" d="M1220.1,1281.7c0-3.3,2.2-5.2,4.3-5.9c-2.1-0.9-3.3-2.6-3.3-4.8c0-3.2,2.2-5.7,6.5-5.7
					c3.9,0,6.2,2.5,6.2,5.7c0,2.3-1.3,4-3.3,4.7c2.4,0.7,4.2,3,4.2,5.9c0,4-3,6.7-7.3,6.7
					C1223.1,1288.3,1220.1,1285.6,1220.1,1281.7z M1232.8,1281.6c0-3.2-2-5-5.4-5c-3.8,0-5.5,2.2-5.5,5c0,2.8,1.9,5.1,5.4,5.1
					C1230.5,1286.7,1232.8,1284.9,1232.8,1281.6z M1222.9,1270.9c0,2.1,1.3,4.1,4.6,4.1c3.1,0,4.4-1.6,4.4-3.9
					c0-2.1-1.3-4.1-4.4-4.1C1224.1,1266.9,1222.9,1268.6,1222.9,1270.9z"/>
				<path class="st2" d="M1246.7,1281.7c0-3.3,2.2-5.2,4.3-5.9c-2.1-0.9-3.3-2.6-3.3-4.8c0-3.2,2.2-5.7,6.5-5.7
					c3.9,0,6.2,2.5,6.2,5.7c0,2.3-1.3,4-3.3,4.7c2.4,0.7,4.2,3,4.2,5.9c0,4-3,6.7-7.3,6.7
					C1249.7,1288.3,1246.7,1285.6,1246.7,1281.7z M1259.4,1281.6c0-3.2-2-5-5.4-5c-3.8,0-5.5,2.2-5.5,5c0,2.8,1.9,5.1,5.4,5.1
					C1257.1,1286.7,1259.4,1284.9,1259.4,1281.6z M1249.5,1270.9c0,2.1,1.3,4.1,4.6,4.1c3.1,0,4.4-1.6,4.4-3.9
					c0-2.1-1.3-4.1-4.4-4.1C1250.7,1266.9,1249.5,1268.6,1249.5,1270.9z"/>
				<path class="st2" d="M1266.6,1283.4c0.8,2.2,2.2,3.2,4.6,3.2c5.1,0,5.5-7.2,5.6-10.2c-1.1,2.3-3.2,3.2-5.8,3.2
					c-3.9,0-6.5-2.9-6.5-7c0-3.9,2.5-7.3,7-7.3c5,0,7,4,7,10.1c0,5.5-1,12.8-7.4,12.8c-4,0-5.7-2.3-6.3-4.8H1266.6z M1266.3,1272.5
					c0,3.2,1.8,5.4,4.8,5.4c3.7,0,5.3-2,5.3-5.3c0-1.3-0.4-5.8-5.1-5.8C1267.8,1266.9,1266.3,1269.4,1266.3,1272.5z"/>
				<path class="st2" d="M1292.9,1283.4c0.8,2.2,2.2,3.2,4.6,3.2c5.1,0,5.5-7.2,5.6-10.2c-1.1,2.3-3.2,3.2-5.8,3.2
					c-3.9,0-6.5-2.9-6.5-7c0-3.9,2.5-7.3,7-7.3c5,0,7,4,7,10.1c0,5.5-1,12.8-7.4,12.8c-4,0-5.7-2.3-6.3-4.8H1292.9z M1292.6,1272.5
					c0,3.2,1.8,5.4,4.8,5.4c3.7,0,5.3-2,5.3-5.3c0-1.3-0.4-5.8-5.1-5.8C1294.1,1266.9,1292.6,1269.4,1292.6,1272.5z"/>
				<path class="st2" d="M1308.3,1281.7c0-3.3,2.2-5.2,4.3-5.9c-2.1-0.9-3.3-2.6-3.3-4.8c0-3.2,2.2-5.7,6.5-5.7
					c3.9,0,6.2,2.5,6.2,5.7c0,2.3-1.3,4-3.3,4.7c2.4,0.7,4.2,3,4.2,5.9c0,4-3,6.7-7.3,6.7
					C1311.4,1288.3,1308.3,1285.6,1308.3,1281.7z M1321,1281.6c0-3.2-2-5-5.4-5c-3.8,0-5.5,2.2-5.5,5c0,2.8,1.9,5.1,5.4,5.1
					C1318.8,1286.7,1321,1284.9,1321,1281.6z M1311.1,1270.9c0,2.1,1.3,4.1,4.6,4.1c3.1,0,4.4-1.6,4.4-3.9c0-2.1-1.3-4.1-4.4-4.1
					C1312.3,1266.9,1311.1,1268.6,1311.1,1270.9z"/>
			</g>
		</g>
		<g>
			<g>
				<path class="st14" d="M1067.9,1277.5c-0.7-0.7-1.5-1.1-2.4-1.1c-0.9,0-1.7,0.4-2.4,1.1l-2.3,2.3c-0.2-0.1-0.4-0.2-0.6-0.3
					c-0.3-0.1-0.5-0.3-0.7-0.4c-2.1-1.3-4-3.1-5.9-5.4c-0.9-1.1-1.5-2.1-1.9-3c0.6-0.5,1.1-1.1,1.7-1.6c0.2-0.2,0.4-0.4,0.6-0.6
					c1.5-1.5,1.5-3.4,0-4.9l-2-2c-0.2-0.2-0.5-0.5-0.7-0.7c-0.4-0.4-0.9-0.9-1.3-1.3c-0.7-0.7-1.5-1.1-2.4-1.1
					c-0.9,0-1.7,0.4-2.4,1.1c0,0,0,0,0,0l-2.4,2.5c-0.9,0.9-1.4,2-1.6,3.3c-0.2,2.1,0.4,4,0.9,5.3c1.2,3.1,2.9,6,5.5,9.1
					c3.1,3.7,6.9,6.7,11.2,8.8c1.6,0.8,3.8,1.7,6.3,1.9c0.2,0,0.3,0,0.5,0c1.7,0,3-0.6,4.1-1.8c0,0,0,0,0,0c0.4-0.5,0.8-0.9,1.3-1.3
					c0.3-0.3,0.6-0.6,0.9-0.9c0.7-0.7,1.1-1.6,1.1-2.5c0-0.9-0.4-1.7-1.1-2.5L1067.9,1277.5z M1070.5,1285.1
					C1070.5,1285.1,1070.5,1285.1,1070.5,1285.1c-0.3,0.3-0.6,0.6-0.9,0.9c-0.5,0.4-0.9,0.9-1.4,1.4c-0.7,0.8-1.6,1.1-2.7,1.1
					c-0.1,0-0.2,0-0.3,0c-2.1-0.1-4.1-1-5.6-1.7c-4-2-7.6-4.7-10.6-8.3c-2.4-2.9-4.1-5.7-5.1-8.6c-0.7-1.8-0.9-3.2-0.8-4.5
					c0.1-0.8,0.4-1.5,1-2.1l2.4-2.4c0.4-0.3,0.7-0.5,1.1-0.5c0.5,0,0.8,0.3,1,0.5c0,0,0,0,0,0c0.4,0.4,0.9,0.8,1.3,1.3
					c0.2,0.2,0.5,0.5,0.7,0.7l2,2c0.8,0.8,0.8,1.5,0,2.2c-0.2,0.2-0.4,0.4-0.6,0.6c-0.6,0.6-1.2,1.2-1.8,1.7c0,0,0,0,0,0
					c-0.6,0.6-0.5,1.2-0.4,1.6c0,0,0,0,0,0.1c0.5,1.2,1.2,2.4,2.3,3.8l0,0c2,2.4,4.1,4.3,6.4,5.8c0.3,0.2,0.6,0.3,0.9,0.5
					c0.3,0.1,0.5,0.3,0.7,0.4c0,0,0.1,0,0.1,0.1c0.2,0.1,0.5,0.2,0.7,0.2c0.6,0,1-0.4,1.1-0.5l2.4-2.4c0.2-0.2,0.6-0.5,1.1-0.5
					c0.4,0,0.8,0.3,1,0.5c0,0,0,0,0,0l3.9,3.9C1071.2,1283.6,1071.2,1284.3,1070.5,1285.1z"/>
				<path class="st14" d="M1059.5,1264.6c1.9,0.3,3.6,1.2,4.9,2.6s2.2,3.1,2.6,4.9c0.1,0.5,0.5,0.8,1,0.8c0.1,0,0.1,0,0.2,0
					c0.5-0.1,0.9-0.6,0.8-1.1c-0.4-2.3-1.5-4.3-3.1-6c-1.6-1.6-3.7-2.7-6-3.1c-0.5-0.1-1,0.3-1.1,0.8
					C1058.6,1264,1058.9,1264.5,1059.5,1264.6z"/>
				<path class="st14" d="M1075,1271.5c-0.6-3.7-2.4-7.1-5.1-9.8c-2.7-2.7-6.1-4.5-9.8-5.1c-0.5-0.1-1,0.3-1.1,0.8
					c-0.1,0.5,0.3,1,0.8,1.1c3.3,0.6,6.4,2.1,8.8,4.6c2.4,2.4,4,5.5,4.6,8.8c0.1,0.5,0.5,0.8,1,0.8c0.1,0,0.1,0,0.2,0
					C1074.7,1272.5,1075.1,1272,1075,1271.5z"/>
			</g>
		</g>
		<g>
			<g>
				<path class="st14" d="M1070.9,1187.3h-25.6c-2.3,0-4.2,1.9-4.2,4.2v17.5c0,2.3,1.9,4.2,4.2,4.2h25.6c2.3,0,4.2-1.9,4.2-4.2
					v-17.5C1075,1189.2,1073.1,1187.3,1070.9,1187.3z M1073.1,1209c0,1.2-1,2.3-2.3,2.3h-25.6c-1.2,0-2.3-1-2.3-2.3v-17.5
					c0-1.2,1-2.3,2.3-2.3h25.6c1.2,0,2.3,1,2.3,2.3L1073.1,1209L1073.1,1209z"/>
				<path class="st14" d="M1062.5,1200l8.3-7.4c0.4-0.4,0.4-0.9,0.1-1.3c-0.4-0.4-0.9-0.4-1.3-0.1l-11.4,10.3l-2.2-2c0,0,0,0,0,0
					c0,0-0.1-0.1-0.2-0.1l-9.1-8.1c-0.4-0.4-1-0.3-1.3,0.1s-0.3,1,0.1,1.3l8.4,7.5l-8.4,7.8c-0.4,0.4-0.4,1,0,1.3
					c0.2,0.2,0.4,0.3,0.7,0.3c0.2,0,0.5-0.1,0.6-0.3l8.5-7.9l2.3,2.1c0.2,0.2,0.4,0.2,0.6,0.2s0.5-0.1,0.6-0.2l2.4-2.1l8.4,8
					c0.2,0.2,0.4,0.3,0.7,0.3c0.3,0,0.5-0.1,0.7-0.3c0.4-0.4,0.3-1,0-1.3L1062.5,1200z"/>
			</g>
		</g>
		<g>
			<g>
				<path class="st2" d="M1116,1196.1c0.4-2.7,2.3-5.4,6.5-5.4c4.2,0,6.2,2.7,6.2,5.6c0,2.7-1.7,4.2-3.1,4.7v0.1
					c2.4,0.7,4.1,2.5,4.1,5.8c0,3.7-2.4,6.9-7.3,6.9c-4.5,0-6.8-2.9-7.2-5.9h1.8c0.5,2.3,2.3,4.3,5.6,4.3c3.8,0,5.3-2.6,5.3-5.3
					c0-3.5-2.3-5-5.6-5h-1.3v-1.6h1c3.4,0,4.9-1.4,4.9-4c0-2.3-1.6-3.9-4.4-3.9c-2.9,0-4.2,1.6-4.8,3.8H1116z"/>
				<path class="st2" d="M1146.9,1208.3c-0.8,3-2.8,5.4-6.5,5.4c-4.2,0-7.2-3.1-7.2-8.8c0-4.6,2.5-8.9,7.4-8.9c4.3,0,6,3,6.3,5.4
					h-1.7c-0.5-2-1.8-3.8-4.7-3.8c-3.6,0-5.6,3-5.6,7.2c0,4,1.9,7.2,5.4,7.2c2.5,0,3.9-1.2,4.8-3.8H1146.9z"/>
				<path class="st2" d="M1150.8,1208.6c0.6,2.2,2.1,3.5,4.8,3.5c3,0,4.2-1.4,4.2-3.3c0-1.9-0.8-2.9-4.6-3.8c-4.3-1-5.4-2.4-5.4-4.6
					c0-2.3,1.8-4.5,5.6-4.5c3.8,0,5.6,2.3,5.9,4.7h-1.7c-0.3-1.4-1.4-3.2-4.3-3.2c-2.9,0-3.8,1.4-3.8,2.8c0,1.5,0.8,2.3,4.1,3.1
					c4.8,1.1,5.9,2.7,5.9,5.2c0,3.1-2.5,5-6,5c-3.8,0-6-2-6.5-5.1H1150.8z"/>
				<path class="st2" d="M1165.7,1188.5h1.7v3.3h-1.7V1188.5z M1165.7,1196.4h1.7v16.9h-1.7V1196.4z"/>
				<path class="st2" d="M1193.7,1216.9c-1.7,1.2-4.4,2.3-8.4,2.3c-7.6,0-12.8-5.1-12.8-13.4c0-8.2,5.4-14.9,14.4-14.9
					c6.7,0,12.2,4.3,12.2,11.7c0,6.1-3.2,9.8-7.1,9.8c-1.9,0-3.2-0.8-3-3c-1.1,1.9-2.6,3-5,3c-2.6,0-4.7-1.9-4.7-5.9
					c0-5.2,3-9.2,6.9-9.2c3.1,0,4,1.9,4.3,3l0.6-2.7h1.6l-2.1,9.8c-0.5,2.5,0.2,3.3,1.6,3.3c3,0,5-3.1,5-8c0-6.2-4.2-10.1-10.5-10.1
					c-7.6,0-12.3,5.7-12.3,13.2c0,6.7,4.2,11.7,11,11.7c2.7,0,5.5-0.6,7.7-2.1L1193.7,1216.9z M1181.1,1206.3c0,2.9,1.2,4.4,3.2,4.4
					c2.4,0,4.2-1.6,5.2-5.8c0.9-3.9-0.2-6-3.3-6C1183,1198.8,1181.1,1202.3,1181.1,1206.3z"/>
				<path class="st2" d="M1218,1204.8c0,4.7-2.6,8.9-7.6,8.9c-4.6,0-7.4-3.7-7.4-8.8c0-4.8,2.7-8.8,7.6-8.8
					C1215,1196,1218,1199.5,1218,1204.8z M1204.8,1204.9c0,4,2.2,7.2,5.7,7.2c3.6,0,5.7-3,5.7-7.2c0-4-2-7.2-5.8-7.2
					C1206.6,1197.6,1204.8,1200.8,1204.8,1204.9z"/>
				<path class="st2" d="M1222.2,1201c0-2.8,0-4,0-4.6h1.7c0,0.5,0.1,1.6,0.1,3.8c1-2.5,3.1-4,5.9-4.2v1.8c-3.5,0.2-5.9,2.7-5.9,6.7
					v8.8h-1.7V1201z"/>
				<path class="st2" d="M1244.6,1210.1c0,1.5,0.1,2.7,0.2,3.2h-1.6c-0.1-0.4-0.2-1.1-0.3-2.6c-0.6,1.2-2.1,3-5.5,3
					c-3.9,0-5.6-2.5-5.6-5.1c0-3.7,2.9-5.4,7.9-5.4c1.4,0,2.5,0,3.2,0v-1.7c0-1.7-0.5-3.9-4.3-3.9c-3.4,0-3.9,1.8-4.3,3.2h-1.7
					c0.2-1.9,1.3-4.7,6-4.7c3.8,0,6,1.6,6,5.3V1210.1z M1243,1204.7c-0.6,0-2.2,0-3.3,0c-3.7,0-6.1,1-6.1,3.9c0,2.1,1.5,3.6,3.9,3.6
					c4.8,0,5.5-3.2,5.5-6.8V1204.7z"/>
				<path class="st2" d="M1250.2,1200.7c0-1.5,0-2.9,0-4.2h1.7c0.1,0.5,0.1,2.7,0.1,3.2c0.7-1.7,2.1-3.6,5.6-3.6
					c3,0,5.7,1.7,5.7,6.3v10.9h-1.7v-10.7c0-3-1.2-5-4.2-5c-4,0-5.4,3.3-5.4,7v8.6h-1.7V1200.7z"/>
				<path class="st2" d="M1281.6,1212.2c0,5.4-2.4,8.2-7.3,8.2c-4.4,0-6.2-2.5-6.6-5h1.7c0.6,2.3,2.5,3.4,5,3.4
					c4.4,0,5.6-2.8,5.6-7.1v-1.8c-0.9,2.2-2.6,3.4-5.6,3.4c-3.9,0-7-3.2-7-8.4c0-5.7,3.2-8.8,7.2-8.8c3.4,0,4.9,1.6,5.4,3
					c0-1,0.1-2.2,0.1-2.6h1.6c0,0.6-0.1,3.3-0.1,4.9V1212.2z M1269.1,1204.8c0,4,2.1,6.9,5.4,6.9c4.2,0,5.5-2.8,5.5-7.2
					c0-4.4-1.3-6.9-5.4-6.9C1270.7,1197.6,1269.1,1201,1269.1,1204.8z"/>
				<path class="st2" d="M1287.5,1205.1c0,4.3,2.2,7,5.5,7c3.2,0,4.2-1.8,4.9-3.2h1.7c-0.7,2.2-2.5,4.8-6.6,4.8
					c-5.1,0-7.1-4.4-7.1-8.7c0-4.8,2.4-9,7.3-9c5.2,0,6.8,4.5,6.8,7.7c0,0.5,0,0.9,0,1.4H1287.5z M1298.1,1203.6c0-3.3-1.9-6-5.2-6
					c-3.5,0-5.1,2.4-5.4,6H1298.1z"/>
				<path class="st2" d="M1303.3,1213.3v-4.3h1.7v4.3H1303.3z"/>
				<path class="st2" d="M1322.1,1208.3c-0.8,3-2.8,5.4-6.5,5.4c-4.2,0-7.2-3.1-7.2-8.8c0-4.6,2.5-8.9,7.4-8.9c4.3,0,6,3,6.3,5.4
					h-1.7c-0.5-2-1.8-3.8-4.7-3.8c-3.6,0-5.6,3-5.6,7.2c0,4,1.9,7.2,5.4,7.2c2.5,0,3.9-1.2,4.8-3.8H1322.1z"/>
				<path class="st2" d="M1339.7,1204.8c0,4.7-2.6,8.9-7.6,8.9c-4.5,0-7.4-3.7-7.4-8.8c0-4.8,2.7-8.8,7.6-8.8
					C1336.7,1196,1339.7,1199.5,1339.7,1204.8z M1326.5,1204.9c0,4,2.2,7.2,5.7,7.2c3.6,0,5.7-3,5.7-7.2c0-4-2-7.2-5.8-7.2
					C1328.3,1197.6,1326.5,1200.8,1326.5,1204.9z"/>
				<path class="st2" d="M1343.9,1200.8c0-1.4,0-3,0-4.3h1.7c0,0.6,0.1,2,0.1,3c0.7-1.7,2.3-3.4,5.1-3.4c2.4,0,4.2,1.2,4.9,3.3
					c0.8-1.8,2.5-3.3,5.5-3.3c2.6,0,5.3,1.5,5.3,6.2v11.1h-1.7v-10.9c0-2.3-0.8-4.7-3.9-4.7c-3.3,0-4.8,2.6-4.8,5.9v9.7h-1.7v-10.9
					c0-2.5-0.7-4.8-3.8-4.8c-3.3,0-4.9,2.9-4.9,6.3v9.3h-1.7V1200.8z"/>
			</g>
		</g>
		<g>
			<g id="XMLID_4_">
				<path id="XMLID_6_" class="st15" d="M1085.8,1088.2c-1.7-11.7-5.9-23.4-15.1-29c-3.8,3-8.5,4.6-13.4,4.6s-9.6-1.6-13.4-4.6
					c-9.2,5.6-13.4,17.2-15.1,29c-0.4,2.5,1.6,4.8,4.1,4.8h48.8C1084.2,1093,1086.2,1090.7,1085.8,1088.2z"/>
				<g id="XMLID_5_">
					<path class="st15" d="M1057.2,1025.2c-9.3,0-16.9,7.6-16.9,16.9c0,9.4,7.6,16.9,16.9,16.9s16.9-7.6,16.9-16.9
						C1074.2,1032.8,1066.6,1025.2,1057.2,1025.2z M1057.2,1036.6c-3,0-5.5,2.5-5.5,5.5c0,1.4-1.1,2.5-2.5,2.5s-2.5-1.1-2.5-2.5
						c0-5.8,4.7-10.6,10.6-10.6c1.4,0,2.5,1.1,2.5,2.5S1058.6,1036.6,1057.2,1036.6z"/>
				</g>
			</g>
		</g>
		<g>
			<g>
				<path class="st2" d="M1139,1084.2c-1.1,5.2-5,9-12,9c-8.8,0-13-6.3-13-14.2c0-7.6,4.3-14.5,13.3-14.5c7.4,0,11,4.4,11.7,9h-6
					c-0.6-2.1-2.1-4.3-5.9-4.3c-5,0-6.9,4.5-6.9,9.5c0,4.7,1.7,9.7,7.1,9.7c3.9,0,5.2-2.6,5.7-4.3H1139z"/>
				<path class="st2" d="M1149.2,1063.3v11.1c0.9-1.4,2.6-3,6-3c3.9,0,7,2.3,7,8v13.4h-5.8v-12.6c0-2.7-1-4.2-3.4-4.2
					c-3.2,0-3.9,2.4-3.9,5.6v11.1h-5.8v-29.5H1149.2z"/>
				<path class="st2" d="M1167.5,1077.5c0-2.1,0-3.9,0-5.7h5.7c0.1,0.5,0.2,2.5,0.2,3.7c0.9-2.4,3.2-4.1,6.7-4.2v5.5
					c-4.2-0.1-6.7,1-6.7,6.8v9.1h-5.8V1077.5z"/>
				<path class="st2" d="M1183.4,1063.3h5.8v5.2h-5.8V1063.3z M1183.4,1071.8h5.8v20.9h-5.8V1071.8z"/>
				<path class="st2" d="M1198.7,1086.5c0.4,1.7,1.8,2.6,4,2.6c2.1,0,2.9-0.8,2.9-2c0-1.3-0.9-1.9-3.9-2.6c-6.8-1.7-7.9-3.8-7.9-6.7
					c0-3.1,2.2-6.3,8.5-6.3c6.4,0,8.5,3.5,8.7,6.3h-5.5c-0.2-0.8-0.7-2.2-3.4-2.2c-1.9,0-2.5,0.8-2.5,1.8c0,1,0.6,1.5,4,2.3
					c7,1.6,8,4,8,7.1c0,3.5-2.6,6.6-9,6.6c-6.4,0-9-3.1-9.4-6.8H1198.7z"/>
				<path class="st2" d="M1213.3,1071.8h3.2v-5.7h5.8v5.7h4.1v4.4h-4.1v10.3c0,1.6,0.5,2.2,2.2,2.2c0.3,0,0.9,0,1.3-0.1v4
					c-1.2,0.4-2.7,0.4-3.9,0.4c-4.1,0-5.4-2.2-5.4-5.8v-11h-3.2V1071.8z"/>
				<path class="st2" d="M1249.5,1082.3c0,6.3-3.8,11-10.4,11c-6.5,0-10.3-4.6-10.3-10.9c0-6.5,3.9-11,10.6-11
					C1245.5,1071.4,1249.5,1075.7,1249.5,1082.3z M1234.6,1082.3c0,4,1.7,6.4,4.5,6.4c2.8,0,4.4-2.4,4.4-6.4c0-4.4-1.6-6.5-4.5-6.5
					C1236.4,1075.9,1234.6,1077.9,1234.6,1082.3z"/>
				<path class="st2" d="M1259.2,1090.9v9.9h-5.8v-23.9c0-1.7,0-3.4,0-5h5.6c0.1,0.6,0.2,1.8,0.2,2.6c0.9-1.5,2.8-3.1,6.1-3.1
					c4.7,0,8.3,3.9,8.3,10.4c0,7.4-4.1,11.5-9.1,11.5C1261.5,1093.3,1260,1092.2,1259.2,1090.9z M1267.7,1082c0-3.8-1.6-6-4.3-6
					c-3.3,0-4.5,2.1-4.5,6.3c0,4,1.1,6.3,4.2,6.3C1266.3,1088.7,1267.7,1086.3,1267.7,1082z"/>
				<path class="st2" d="M1283.4,1063.3v11.1c0.9-1.4,2.6-3,6-3c3.9,0,7,2.3,7,8v13.4h-5.8v-12.6c0-2.7-1-4.2-3.4-4.2
					c-3.2,0-3.9,2.4-3.9,5.6v11.1h-5.8v-29.5H1283.4z"/>
				<path class="st2" d="M1306.3,1083.6c0,2.6,1.3,5.2,4.2,5.2c2.4,0,3.1-1,3.7-2.2h5.8c-0.7,2.6-3,6.8-9.6,6.8
					c-6.9,0-9.9-5.2-9.9-10.7c0-6.6,3.4-11.3,10.1-11.3c7.2,0,9.6,5.2,9.6,10.4c0,0.7,0,1.2-0.1,1.8H1306.3z M1314.4,1080
					c0-2.4-1-4.5-3.8-4.5c-2.8,0-3.9,1.9-4.1,4.5H1314.4z"/>
				<path class="st2" d="M1358.9,1092.8h-4.4c-0.2-0.9-0.4-1.8-0.5-2.8c-1.5,2.1-4.3,3.2-8.1,3.2c-8.1,0-12.6-6.1-12.6-14.1
					c0-8.4,4.9-14.7,13.7-14.7c7.2,0,11.4,4.1,12.1,8.8h-6c-0.6-1.9-2-4.1-6.1-4.1c-5.7,0-7.4,4.8-7.4,9.7c0,4.8,1.9,9.5,7.4,9.5
					c5.2,0,6.1-3.6,6.1-6.1v-0.3h-6.1v-4.9h12V1092.8z"/>
				<path class="st2" d="M1390.7,1078.7c0,7.8-4.7,14.4-13.7,14.4c-8.8,0-13.3-6.4-13.3-14.3c0-8.1,5.1-14.3,13.7-14.3
					C1385.5,1064.5,1390.7,1070.2,1390.7,1078.7z M1369.9,1078.7c0,5.4,2.4,9.6,7.3,9.6c5.4,0,7.3-4.5,7.3-9.5
					c0-5.3-2.2-9.4-7.4-9.4C1372.1,1069.4,1369.9,1073.3,1369.9,1078.7z"/>
				<path class="st2" d="M1396,1092.8v-27.9h7.5c3.5,6.3,9.9,17.6,11.2,20.6h0.1c-0.3-2.9-0.3-7.8-0.3-12.3v-8.3h5.5v27.9h-7.1
					c-3-5.4-10.1-18.4-11.5-21.6h-0.1c0.2,2.4,0.3,8.2,0.3,13.2v8.5H1396z"/>
				<path class="st2" d="M1450.2,1084.2c-1.1,5.2-5,9-12,9c-8.8,0-13-6.3-13-14.2c0-7.6,4.3-14.5,13.3-14.5c7.4,0,11,4.4,11.7,9h-6
					c-0.6-2.1-2.1-4.3-5.9-4.3c-5,0-6.9,4.5-6.9,9.5c0,4.7,1.7,9.7,7.1,9.7c3.9,0,5.2-2.6,5.7-4.3H1450.2z"/>
				<path class="st2" d="M1460.5,1086.3l-2.2,6.4h-5.9l9.5-27.9h7.6l9.9,27.9h-6.3l-2.3-6.4H1460.5z M1469.4,1081.4
					c-2-5.9-3.2-9.6-3.9-12.2h0c-0.7,2.8-2.1,7.1-3.7,12.2H1469.4z"/>
				<path class="st2" d="M1483.1,1064.9h6v22.9h13.9l-0.7,4.9h-19.2V1064.9z"/>
				<path class="st2" d="M1513.4,1092.8l-9.8-27.9h6.5l4.1,12.9c1.3,3.9,2.2,7.2,2.9,10.1h0.1c0.6-2.6,1.7-6,3-10l4.4-13h6.2
					l-10.1,27.9H1513.4z"/>
				<path class="st2" d="M1553.1,1080.8h-13.3v7.1h14.7l-0.7,4.9H1534v-27.9h19.8v4.9h-13.9v6h13.3V1080.8z"/>
				<path class="st2" d="M1563,1084.6c0.6,2.8,2.6,4,5.9,4c3.2,0,4.6-1.3,4.6-3.3c0-2.3-1.3-3.3-6.1-4.4c-7.6-1.8-9.5-4.5-9.5-8.3
					c0-4.9,3.6-8.2,10.2-8.2c7.4,0,10.4,4,10.8,8.1h-6.1c-0.3-1.7-1.2-3.6-4.8-3.6c-2.4,0-3.9,1-3.9,3c0,1.9,1.2,2.7,5.7,3.8
					c8.1,1.9,9.9,4.9,9.9,8.9c0,5.1-3.9,8.6-11.2,8.6c-7.1,0-10.8-3.5-11.5-8.6H1563z"/>
			</g>
		</g>
		<g>
			<g>
				<path class="st2" d="M1117.6,1128.2v11h-1.9v-23.6h8.5c4.7,0,7.1,2.5,7.1,6.2c0,3-1.8,5-4.4,5.5c2.4,0.6,4,2.2,4,6.2v0.9
					c0,1.7-0.1,3.9,0.3,4.8h-1.9c-0.4-1-0.3-2.9-0.3-4.9v-0.6c0-3.9-1.1-5.5-5.7-5.5H1117.6z M1117.6,1126.5h5.7
					c4.1,0,6.1-1.6,6.1-4.7c0-2.9-1.9-4.5-5.6-4.5h-6.2V1126.5z"/>
				<path class="st2" d="M1136.8,1131c0,4.3,2.2,7,5.5,7c3.2,0,4.2-1.8,4.9-3.2h1.7c-0.7,2.2-2.5,4.8-6.6,4.8
					c-5.1,0-7.1-4.4-7.1-8.7c0-4.8,2.4-9,7.3-9c5.2,0,6.8,4.5,6.8,7.7c0,0.5,0,0.9,0,1.4H1136.8z M1147.5,1129.5c0-3.3-1.9-6-5.2-6
					c-3.5,0-5.1,2.4-5.4,6H1147.5z"/>
				<path class="st2" d="M1153.3,1134.6c0.6,2.2,2.1,3.5,4.8,3.5c3,0,4.2-1.4,4.2-3.3c0-1.9-0.8-2.9-4.6-3.8c-4.3-1-5.4-2.4-5.4-4.6
					c0-2.3,1.8-4.5,5.6-4.5s5.6,2.3,5.9,4.7h-1.7c-0.3-1.4-1.4-3.2-4.3-3.2c-2.9,0-3.8,1.4-3.8,2.8c0,1.5,0.8,2.3,4.1,3.1
					c4.8,1.1,5.9,2.7,5.9,5.2c0,3.1-2.5,5-6,5c-3.8,0-6-2-6.5-5.1H1153.3z"/>
				<path class="st2" d="M1170,1136.7v9.2h-1.7v-19.4c0-1.4,0-2.9,0-4.1h1.7c0.1,0.6,0.1,1.7,0.1,3c1-2,2.9-3.4,5.9-3.4
					c4,0,6.7,3.3,6.7,8.4c0,6.1-3.2,9.3-7.3,9.3C1172.4,1139.6,1170.8,1138.3,1170,1136.7z M1180.9,1130.4c0-3.9-1.9-6.8-5.2-6.8
					c-4.1,0-5.8,2.6-5.8,7.1c0,4.5,1.3,7.3,5.5,7.3C1178.9,1138,1180.9,1135.1,1180.9,1130.4z"/>
				<path class="st2" d="M1200.5,1130.8c0,4.7-2.6,8.9-7.6,8.9c-4.6,0-7.4-3.7-7.4-8.8c0-4.8,2.7-8.8,7.5-8.8
					C1197.6,1122,1200.5,1125.5,1200.5,1130.8z M1187.3,1130.8c0,4,2.2,7.2,5.7,7.2c3.6,0,5.7-3,5.7-7.2c0-4-2-7.2-5.8-7.2
					C1189.2,1123.5,1187.3,1126.8,1187.3,1130.8z"/>
				<path class="st2" d="M1204.7,1126.6c0-1.5,0-2.9,0-4.2h1.7c0.1,0.5,0.1,2.7,0.1,3.2c0.7-1.7,2.1-3.6,5.6-3.6
					c3,0,5.7,1.7,5.7,6.3v10.9h-1.7v-10.7c0-3-1.2-5-4.2-5c-4,0-5.4,3.3-5.4,7v8.6h-1.7V1126.6z"/>
				<path class="st2" d="M1223.2,1134.6c0.6,2.2,2.1,3.5,4.8,3.5c3,0,4.2-1.4,4.2-3.3c0-1.9-0.8-2.9-4.6-3.8c-4.3-1-5.4-2.4-5.4-4.6
					c0-2.3,1.8-4.5,5.6-4.5s5.6,2.3,5.9,4.7h-1.7c-0.3-1.4-1.4-3.2-4.3-3.2c-2.9,0-3.8,1.4-3.8,2.8c0,1.5,0.8,2.3,4.1,3.1
					c4.8,1.1,5.9,2.7,5.9,5.2c0,3.1-2.5,5-6,5c-3.8,0-6-2-6.5-5.1H1223.2z"/>
				<path class="st2" d="M1249.7,1136c0,1.5,0.1,2.7,0.2,3.2h-1.6c-0.1-0.4-0.2-1.1-0.3-2.6c-0.6,1.2-2.1,3-5.5,3
					c-3.9,0-5.6-2.5-5.6-5.1c0-3.7,2.9-5.4,7.9-5.4c1.4,0,2.5,0,3.2,0v-1.7c0-1.7-0.5-3.9-4.3-3.9c-3.4,0-3.9,1.8-4.3,3.2h-1.7
					c0.2-1.9,1.3-4.7,6-4.7c3.8,0,6,1.6,6,5.3V1136z M1248.1,1130.6c-0.6,0-2.2,0-3.3,0c-3.7,0-6.1,1-6.1,3.9c0,2.1,1.5,3.6,3.9,3.6
					c4.8,0,5.5-3.2,5.5-6.8V1130.6z"/>
				<path class="st2" d="M1255.3,1114.4h1.7v10.8c0.8-1.7,2.5-3.2,5.8-3.2c4,0,6.9,3.3,6.9,8.5c0,5.3-2.6,9.2-7.3,9.2
					c-2.8,0-4.5-1.1-5.3-3.1c0,1.1,0,2.2-0.1,2.7h-1.7c0-1.9,0-3.8,0-5.8V1114.4z M1267.9,1130.5c0-4.2-2.1-6.9-5.3-6.9
					c-4.2,0-5.7,2.9-5.7,7.3c0,4,1.3,7.2,5.5,7.2C1265.8,1138,1267.9,1135.2,1267.9,1130.5z"/>
				<path class="st2" d="M1273.8,1139.2v-24.8h1.7v24.8H1273.8z"/>
				<path class="st2" d="M1281.4,1131c0,4.3,2.2,7,5.5,7c3.2,0,4.2-1.8,4.9-3.2h1.7c-0.7,2.2-2.5,4.8-6.6,4.8
					c-5.1,0-7.1-4.4-7.1-8.7c0-4.8,2.4-9,7.3-9c5.2,0,6.8,4.5,6.8,7.7c0,0.5,0,0.9,0,1.4H1281.4z M1292.1,1129.5c0-3.3-1.9-6-5.2-6
					c-3.5,0-5.1,2.4-5.4,6H1292.1z"/>
				<path class="st2" d="M1325.1,1132.9c-1.1,3.7-3.9,6.6-8.9,6.6c-6.8,0-10.3-5.4-10.3-12c0-6.4,3.5-12.2,10.4-12.2
					c5.1,0,8.1,2.8,8.9,6.8h-1.8c-1.1-3.1-3.1-5.1-7.1-5.1c-5.9,0-8.3,5.4-8.3,10.4c0,5.1,2.4,10.4,8.5,10.4c3.8,0,5.8-2,7-4.9
					H1325.1z"/>
				<path class="st2" d="M1343,1130.8c0,4.7-2.6,8.9-7.6,8.9c-4.6,0-7.4-3.7-7.4-8.8c0-4.8,2.7-8.8,7.5-8.8
					C1340,1122,1343,1125.5,1343,1130.8z M1329.7,1130.8c0,4,2.2,7.2,5.7,7.2c3.6,0,5.7-3,5.7-7.2c0-4-2-7.2-5.8-7.2
					C1331.6,1123.5,1329.7,1126.8,1329.7,1130.8z"/>
				<path class="st2" d="M1347.1,1126.7c0-1.4,0-3,0-4.3h1.7c0,0.6,0.1,2,0.1,3c0.7-1.7,2.3-3.4,5.1-3.4c2.4,0,4.2,1.2,4.9,3.3
					c0.8-1.8,2.5-3.3,5.5-3.3c2.6,0,5.3,1.5,5.3,6.2v11.1h-1.7v-10.9c0-2.3-0.8-4.7-3.9-4.7c-3.3,0-4.8,2.6-4.8,5.9v9.7h-1.7v-10.9
					c0-2.5-0.7-4.8-3.8-4.8c-3.3,0-4.9,2.9-4.9,6.3v9.3h-1.7V1126.7z"/>
				<path class="st2" d="M1375.1,1126.7c0-1.4,0-3,0-4.3h1.7c0,0.6,0.1,2,0.1,3c0.7-1.7,2.3-3.4,5.1-3.4c2.4,0,4.2,1.2,4.9,3.3
					c0.8-1.8,2.5-3.3,5.5-3.3c2.6,0,5.3,1.5,5.3,6.2v11.1h-1.7v-10.9c0-2.3-0.8-4.7-3.9-4.7c-3.3,0-4.8,2.6-4.8,5.9v9.7h-1.7v-10.9
					c0-2.5-0.7-4.8-3.8-4.8c-3.3,0-4.9,2.9-4.9,6.3v9.3h-1.7V1126.7z"/>
				<path class="st2" d="M1403.4,1131c0,4.3,2.2,7,5.5,7c3.2,0,4.2-1.8,4.9-3.2h1.7c-0.7,2.2-2.5,4.8-6.6,4.8
					c-5.1,0-7.1-4.4-7.1-8.7c0-4.8,2.4-9,7.3-9c5.2,0,6.8,4.5,6.8,7.7c0,0.5,0,0.9,0,1.4H1403.4z M1414.1,1129.5c0-3.3-1.9-6-5.2-6
					c-3.5,0-5.1,2.4-5.4,6H1414.1z"/>
				<path class="st2" d="M1420,1127c0-2.8,0-4,0-4.6h1.7c0,0.5,0.1,1.6,0.1,3.8c1-2.5,3.1-4,5.9-4.2v1.8c-3.5,0.2-5.9,2.7-5.9,6.7
					v8.8h-1.7V1127z"/>
				<path class="st2" d="M1443.3,1134.3c-0.8,3-2.8,5.4-6.5,5.4c-4.2,0-7.2-3.1-7.2-8.8c0-4.6,2.5-8.9,7.4-8.9c4.3,0,6,3,6.3,5.4
					h-1.7c-0.5-2-1.8-3.8-4.7-3.8c-3.6,0-5.6,3-5.6,7.2c0,4,1.9,7.2,5.4,7.2c2.5,0,3.9-1.2,4.8-3.8H1443.3z"/>
				<path class="st2" d="M1447.2,1114.4h1.7v3.3h-1.7V1114.4z M1447.2,1122.4h1.7v16.9h-1.7V1122.4z"/>
				<path class="st2" d="M1466,1136c0,1.5,0.1,2.7,0.2,3.2h-1.6c-0.1-0.4-0.2-1.1-0.3-2.6c-0.6,1.2-2.1,3-5.5,3
					c-3.9,0-5.6-2.5-5.6-5.1c0-3.7,2.9-5.4,7.9-5.4c1.4,0,2.5,0,3.2,0v-1.7c0-1.7-0.5-3.9-4.3-3.9c-3.4,0-3.9,1.8-4.3,3.2h-1.7
					c0.2-1.9,1.3-4.7,6-4.7c3.8,0,6,1.6,6,5.3V1136z M1464.3,1130.6c-0.6,0-2.2,0-3.3,0c-3.7,0-6.1,1-6.1,3.9c0,2.1,1.5,3.6,3.9,3.6
					c4.8,0,5.5-3.2,5.5-6.8V1130.6z"/>
				<path class="st2" d="M1471.5,1139.2v-24.8h1.7v24.8H1471.5z"/>
			</g>
		</g>
		<rect x="1026" y="1003.1" class="st12" width="355.1" height="4.5"/>
	</g>
	<g id="Fabien">
		<circle class="st2" cx="171" cy="1049.5" r="30"/>
		<circle class="st2" cx="172" cy="1121" r="30"/>
		<g>
			<g>
				<path class="st2" d="M242.5,1125.6c0,5.1-1.3,11.7-7.2,11.7c-5.8,0-7.2-6-7.2-11.5c0-5.4,1.6-11.5,7.3-11.5
					C241.2,1114.3,242.5,1120.4,242.5,1125.6z M230,1125.8c0,4.3,0.9,9.8,5.3,9.8c4.5,0,5.4-5.3,5.4-10c0-4.2-0.9-9.7-5.3-9.7
					C230.8,1115.9,230,1120.9,230,1125.8z"/>
				<path class="st2" d="M258.1,1119.2c-0.5-2-1.9-3.3-4.3-3.3c-4.2,0-5.8,4-5.9,9.8c0.9-1.9,2.6-3.8,6-3.8c4.4,0,6.7,3.2,6.7,7.4
					c0,4.1-2.3,8-7,8c-5.9,0-7.4-5-7.4-11.2c0-6.3,2-11.8,7.7-11.8c4.3,0,5.7,2.9,6.1,4.9H258.1z M258.8,1129.4c0-2.7-1.1-5.9-5-5.9
					c-3.1,0-5.5,2.1-5.5,6c0,1.9,1,6.2,5.4,6.2C257.4,1135.7,258.8,1132.6,258.8,1129.4z"/>
				<path class="st2" d="M272.7,1130.7c0-3.3,2.2-5.2,4.3-5.9c-2.1-0.9-3.3-2.6-3.3-4.8c0-3.2,2.2-5.7,6.5-5.7
					c3.9,0,6.2,2.5,6.2,5.7c0,2.3-1.3,4-3.3,4.7c2.4,0.7,4.2,3,4.2,5.9c0,4-3,6.7-7.3,6.7C275.7,1137.3,272.7,1134.6,272.7,1130.7z
					 M285.4,1130.6c0-3.2-2-5-5.4-5c-3.8,0-5.5,2.2-5.5,5c0,2.8,1.9,5.1,5.4,5.1C283.2,1135.7,285.4,1133.9,285.4,1130.6z
					 M275.5,1119.9c0,2.1,1.3,4.1,4.6,4.1c3.1,0,4.4-1.6,4.4-3.9c0-2.1-1.3-4.1-4.4-4.1C276.7,1115.9,275.5,1117.6,275.5,1119.9z"/>
				<path class="st2" d="M305.1,1125.6c0,5.1-1.3,11.7-7.2,11.7c-5.8,0-7.2-6-7.2-11.5c0-5.4,1.6-11.5,7.3-11.5
					C303.8,1114.3,305.1,1120.4,305.1,1125.6z M292.6,1125.8c0,4.3,0.9,9.8,5.3,9.8c4.5,0,5.4-5.3,5.4-10c0-4.2-0.9-9.7-5.3-9.7
					C293.4,1115.9,292.6,1120.9,292.6,1125.8z"/>
				<path class="st2" d="M330.5,1114.7v1.7c-4.1,5.4-7.8,13.9-9.1,20.5h-1.8c1.1-6.2,5.1-15.2,9-20.5h-12.1v-1.7H330.5z"/>
				<path class="st2" d="M333.1,1130.7c0-3.3,2.2-5.2,4.3-5.9c-2.1-0.9-3.3-2.6-3.3-4.8c0-3.2,2.2-5.7,6.5-5.7
					c3.9,0,6.2,2.5,6.2,5.7c0,2.3-1.3,4-3.3,4.7c2.4,0.7,4.2,3,4.2,5.9c0,4-3,6.7-7.3,6.7C336.1,1137.3,333.1,1134.6,333.1,1130.7z
					 M345.8,1130.6c0-3.2-2-5-5.4-5c-3.8,0-5.5,2.2-5.5,5c0,2.8,1.9,5.1,5.4,5.1C343.5,1135.7,345.8,1133.9,345.8,1130.6z
					 M335.9,1119.9c0,2.1,1.3,4.1,4.6,4.1c3.1,0,4.4-1.6,4.4-3.9c0-2.1-1.3-4.1-4.4-4.1C337.1,1115.9,335.9,1117.6,335.9,1119.9z"/>
				<path class="st2" d="M359.7,1130.7c0-3.3,2.2-5.2,4.3-5.9c-2.1-0.9-3.3-2.6-3.3-4.8c0-3.2,2.2-5.7,6.5-5.7
					c3.9,0,6.2,2.5,6.2,5.7c0,2.3-1.3,4-3.3,4.7c2.4,0.7,4.2,3,4.2,5.9c0,4-3,6.7-7.3,6.7C362.7,1137.3,359.7,1134.6,359.7,1130.7z
					 M372.4,1130.6c0-3.2-2-5-5.4-5c-3.8,0-5.5,2.2-5.5,5c0,2.8,1.9,5.1,5.4,5.1C370.1,1135.7,372.4,1133.9,372.4,1130.6z
					 M362.5,1119.9c0,2.1,1.3,4.1,4.6,4.1c3.1,0,4.4-1.6,4.4-3.9c0-2.1-1.3-4.1-4.4-4.1C363.7,1115.9,362.5,1117.6,362.5,1119.9z"/>
				<path class="st2" d="M379.6,1132.4c0.8,2.2,2.2,3.2,4.6,3.2c5.1,0,5.5-7.2,5.6-10.2c-1.1,2.3-3.2,3.2-5.8,3.2
					c-3.9,0-6.5-2.9-6.5-7c0-3.9,2.5-7.3,7-7.3c5,0,7,4,7,10.1c0,5.5-1,12.8-7.4,12.8c-4,0-5.7-2.3-6.3-4.8H379.6z M379.3,1121.5
					c0,3.2,1.8,5.4,4.8,5.4c3.7,0,5.3-2,5.3-5.3c0-1.3-0.4-5.8-5.1-5.8C380.8,1115.9,379.3,1118.4,379.3,1121.5z"/>
				<path class="st2" d="M405.9,1132.4c0.8,2.2,2.2,3.2,4.6,3.2c5.1,0,5.5-7.2,5.6-10.2c-1.1,2.3-3.2,3.2-5.8,3.2
					c-3.9,0-6.5-2.9-6.5-7c0-3.9,2.5-7.3,7-7.3c5,0,7,4,7,10.1c0,5.5-1,12.8-7.4,12.8c-4,0-5.7-2.3-6.3-4.8H405.9z M405.6,1121.5
					c0,3.2,1.8,5.4,4.8,5.4c3.7,0,5.3-2,5.3-5.3c0-1.3-0.4-5.8-5.1-5.8C407.1,1115.9,405.6,1118.4,405.6,1121.5z"/>
				<path class="st2" d="M421.3,1130.7c0-3.3,2.2-5.2,4.3-5.9c-2.1-0.9-3.3-2.6-3.3-4.8c0-3.2,2.2-5.7,6.5-5.7
					c3.9,0,6.2,2.5,6.2,5.7c0,2.3-1.3,4-3.3,4.7c2.4,0.7,4.2,3,4.2,5.9c0,4-3,6.7-7.3,6.7C424.4,1137.3,421.3,1134.6,421.3,1130.7z
					 M434,1130.6c0-3.2-2-5-5.4-5c-3.8,0-5.5,2.2-5.5,5c0,2.8,1.9,5.1,5.4,5.1C431.8,1135.7,434,1133.9,434,1130.6z M424.1,1119.9
					c0,2.1,1.3,4.1,4.6,4.1c3.1,0,4.4-1.6,4.4-3.9c0-2.1-1.3-4.1-4.4-4.1C425.3,1115.9,424.1,1117.6,424.1,1119.9z"/>
			</g>
		</g>
		<g>
			<g>
				<path class="st14" d="M180.9,1126.5c-0.7-0.7-1.5-1.1-2.4-1.1c-0.9,0-1.7,0.4-2.4,1.1l-2.3,2.3c-0.2-0.1-0.4-0.2-0.6-0.3
					c-0.3-0.1-0.5-0.3-0.7-0.4c-2.1-1.3-4-3.1-5.9-5.4c-0.9-1.1-1.5-2.1-1.9-3c0.6-0.5,1.1-1.1,1.7-1.6c0.2-0.2,0.4-0.4,0.6-0.6
					c1.5-1.5,1.5-3.4,0-4.9l-2-2c-0.2-0.2-0.5-0.5-0.7-0.7c-0.4-0.4-0.9-0.9-1.3-1.3c-0.7-0.7-1.5-1.1-2.4-1.1s-1.7,0.4-2.4,1.1
					c0,0,0,0,0,0l-2.4,2.5c-0.9,0.9-1.4,2-1.6,3.3c-0.2,2.1,0.4,4,0.9,5.3c1.2,3.1,2.9,6,5.5,9.1c3.1,3.7,6.9,6.7,11.2,8.8
					c1.6,0.8,3.8,1.7,6.3,1.9c0.2,0,0.3,0,0.5,0c1.7,0,3-0.6,4.1-1.8c0,0,0,0,0,0c0.4-0.5,0.8-0.9,1.3-1.3c0.3-0.3,0.6-0.6,0.9-0.9
					c0.7-0.7,1.1-1.6,1.1-2.5c0-0.9-0.4-1.7-1.1-2.5L180.9,1126.5z M183.5,1134.1C183.5,1134.1,183.5,1134.1,183.5,1134.1
					c-0.3,0.3-0.6,0.6-0.9,0.9c-0.5,0.4-0.9,0.9-1.4,1.4c-0.7,0.8-1.6,1.1-2.7,1.1c-0.1,0-0.2,0-0.3,0c-2.1-0.1-4.1-1-5.6-1.7
					c-4-2-7.6-4.7-10.6-8.3c-2.4-2.9-4.1-5.7-5.1-8.6c-0.7-1.8-0.9-3.2-0.8-4.5c0.1-0.8,0.4-1.5,1-2.1l2.4-2.4
					c0.4-0.3,0.7-0.5,1.1-0.5c0.5,0,0.8,0.3,1,0.5c0,0,0,0,0,0c0.4,0.4,0.9,0.8,1.3,1.3c0.2,0.2,0.5,0.5,0.7,0.7l2,2
					c0.8,0.8,0.8,1.5,0,2.2c-0.2,0.2-0.4,0.4-0.6,0.6c-0.6,0.6-1.2,1.2-1.8,1.7c0,0,0,0,0,0c-0.6,0.6-0.5,1.2-0.4,1.6c0,0,0,0,0,0.1
					c0.5,1.2,1.2,2.4,2.3,3.8l0,0c2,2.4,4.1,4.3,6.4,5.8c0.3,0.2,0.6,0.3,0.9,0.5c0.3,0.1,0.5,0.3,0.7,0.4c0,0,0.1,0,0.1,0.1
					c0.2,0.1,0.5,0.2,0.7,0.2c0.6,0,1-0.4,1.1-0.5l2.4-2.4c0.2-0.2,0.6-0.5,1.1-0.5c0.4,0,0.8,0.3,1,0.5c0,0,0,0,0,0l3.9,3.9
					C184.2,1132.6,184.2,1133.3,183.5,1134.1z"/>
				<path class="st14" d="M172.5,1113.6c1.9,0.3,3.6,1.2,4.9,2.6s2.2,3.1,2.6,4.9c0.1,0.5,0.5,0.8,1,0.8c0.1,0,0.1,0,0.2,0
					c0.5-0.1,0.9-0.6,0.8-1.1c-0.4-2.3-1.5-4.3-3.1-6c-1.6-1.6-3.7-2.7-6-3.1c-0.5-0.1-1,0.3-1.1,0.8
					C171.6,1113,171.9,1113.5,172.5,1113.6z"/>
				<path class="st14" d="M188,1120.5c-0.6-3.7-2.4-7.1-5.1-9.8c-2.7-2.7-6.1-4.5-9.8-5.1c-0.5-0.1-1,0.3-1.1,0.8
					c-0.1,0.5,0.3,1,0.8,1.1c3.3,0.6,6.4,2.1,8.8,4.6c2.4,2.4,4,5.5,4.6,8.8c0.1,0.5,0.5,0.8,1,0.8c0.1,0,0.1,0,0.2,0
					C187.7,1121.5,188.1,1121,188,1120.5z"/>
			</g>
		</g>
		<g>
			<g id="XMLID_1_">
				<path id="XMLID_3_" class="st15" d="M199.6,937.1c-1.7-11.7-5.9-23.4-15.1-29c-3.8,3-8.5,4.6-13.4,4.6s-9.6-1.6-13.4-4.6
					c-9.2,5.6-13.4,17.2-15.1,29c-0.4,2.5,1.6,4.8,4.1,4.8h48.8C198,941.9,200,939.7,199.6,937.1z"/>
				<g id="XMLID_2_">
					<path class="st15" d="M171.1,874.1c-9.3,0-16.9,7.6-16.9,16.9c0,9.4,7.6,16.9,16.9,16.9s16.9-7.6,16.9-16.9
						C188,881.7,180.4,874.1,171.1,874.1z M171.1,885.6c-3,0-5.5,2.5-5.5,5.5c0,1.4-1.1,2.5-2.5,2.5s-2.5-1.1-2.5-2.5
						c0-5.8,4.7-10.6,10.6-10.6c1.4,0,2.5,1.1,2.5,2.5S172.5,885.6,171.1,885.6z"/>
				</g>
			</g>
		</g>
		<g>
			<g>
				<path class="st14" d="M183.9,1036.3h-25.6c-2.3,0-4.2,1.9-4.2,4.2v17.5c0,2.3,1.9,4.2,4.2,4.2h25.6c2.3,0,4.2-1.9,4.2-4.2v-17.5
					C188,1038.2,186.1,1036.3,183.9,1036.3z M186.1,1058c0,1.2-1,2.3-2.3,2.3h-25.6c-1.2,0-2.3-1-2.3-2.3v-17.5c0-1.2,1-2.3,2.3-2.3
					h25.6c1.2,0,2.3,1,2.3,2.3L186.1,1058L186.1,1058z"/>
				<path class="st14" d="M175.5,1049l8.3-7.4c0.4-0.4,0.4-0.9,0.1-1.3c-0.4-0.4-0.9-0.4-1.3-0.1l-11.4,10.3l-2.2-2c0,0,0,0,0,0
					c0,0-0.1-0.1-0.2-0.1l-9.1-8.1c-0.4-0.4-1-0.3-1.3,0.1s-0.3,1,0.1,1.3l8.4,7.5l-8.4,7.8c-0.4,0.4-0.4,1,0,1.3
					c0.2,0.2,0.4,0.3,0.7,0.3c0.2,0,0.5-0.1,0.6-0.3l8.5-7.9l2.3,2.1c0.2,0.2,0.4,0.2,0.6,0.2s0.5-0.1,0.6-0.2l2.4-2.1l8.4,8
					c0.2,0.2,0.4,0.3,0.7,0.3c0.3,0,0.5-0.1,0.7-0.3c0.4-0.4,0.3-1,0-1.3L175.5,1049z"/>
			</g>
		</g>
		<g>
			<g>
				<path class="st2" d="M229.2,913.8h19.5v4.9h-13.6v6.8h12.7v4.9h-12.7v11.2h-5.9V913.8z"/>
				<path class="st2" d="M269.6,936.3c0,2,0.2,4.9,0.3,5.4h-5.5c-0.2-0.4-0.3-1.5-0.3-2c-0.8,1.2-2.2,2.5-5.9,2.5
					c-5,0-7.2-3.3-7.2-6.6c0-4.8,3.8-7,10-7c1,0,2.3,0,3,0v-1.3c0-1.5-0.5-3-3.2-3c-2.4,0-3,1-3.3,2.6H252c0.3-3.7,2.6-6.7,9-6.7
					c5.6,0,8.7,2.2,8.7,7.2V936.3z M264,932.2c-0.5,0-1.6,0-2.4,0c-3.5,0-4.8,1.1-4.8,3.1c0,1.5,0.9,2.8,3,2.8
					c3.7,0,4.1-2.6,4.1-5.3V932.2z"/>
				<path class="st2" d="M274.9,912.2h5.8V923c0.9-1.3,2.6-2.7,6-2.7c5.7,0,8.5,4.7,8.5,10.6c0,6-3.1,11.3-9.1,11.3
					c-3.1,0-4.5-0.9-5.5-2.5c0,0.7-0.1,1.5-0.2,2h-5.5c0-2.3,0-4.6,0-6.8V912.2z M289.3,931c0-3.5-1.3-6-4.4-6
					c-3.3,0-4.5,2.2-4.5,6.4c0,3.5,1,6.2,4.4,6.2C287.8,937.6,289.3,934.9,289.3,931z"/>
				<path class="st2" d="M299.2,912.2h5.8v5.2h-5.8V912.2z M299.2,920.7h5.8v20.9h-5.8V920.7z"/>
				<path class="st2" d="M314.8,932.5c0,2.6,1.3,5.2,4.2,5.2c2.4,0,3.1-1,3.7-2.2h5.8c-0.7,2.6-3,6.8-9.6,6.8
					c-6.9,0-9.9-5.2-9.9-10.7c0-6.6,3.4-11.3,10.1-11.3c7.2,0,9.6,5.2,9.6,10.4c0,0.7,0,1.2-0.1,1.8H314.8z M322.9,928.9
					c0-2.4-1-4.5-3.8-4.5c-2.8,0-3.9,1.9-4.1,4.5H322.9z"/>
				<path class="st2" d="M332.7,926c0-1.8,0-3.7,0-5.3h5.6c0.1,0.5,0.2,2,0.2,2.7c0.7-1.3,2.4-3.2,6.1-3.2c4.2,0,6.9,2.8,6.9,8.1
					v13.3h-5.8V929c0-2.4-0.8-4.1-3.3-4.1c-2.5,0-3.9,1.4-3.9,5.1v11.7h-5.8V926z"/>
				<path class="st2" d="M371.2,933.5c0.6,2.8,2.6,4,5.9,4c3.2,0,4.6-1.3,4.6-3.3c0-2.3-1.3-3.3-6.1-4.4c-7.6-1.8-9.5-4.5-9.5-8.3
					c0-4.9,3.6-8.2,10.2-8.2c7.4,0,10.4,4,10.8,8.1H381c-0.3-1.7-1.2-3.6-4.8-3.6c-2.4,0-3.9,1-3.9,3c0,1.9,1.2,2.7,5.7,3.8
					c8.1,1.9,9.9,4.9,9.9,8.9c0,5.1-3.9,8.6-11.2,8.6c-7.1,0-10.8-3.5-11.5-8.6H371.2z"/>
				<path class="st2" d="M398.4,918.7h-8.5v-4.9h23v4.9h-8.4v22.9h-6V918.7z"/>
				<path class="st2" d="M421.9,935.2l-2.2,6.4h-5.9l9.5-27.9h7.6l9.9,27.9h-6.3l-2.3-6.4H421.9z M430.7,930.3
					c-2-5.9-3.2-9.6-3.9-12.2h0c-0.7,2.8-2.1,7.1-3.7,12.2H430.7z"/>
				<path class="st2" d="M468.1,933.1c-1.1,5.2-5,9-12,9c-8.8,0-13-6.3-13-14.2c0-7.6,4.3-14.5,13.3-14.5c7.4,0,11,4.4,11.7,9h-6
					c-0.6-2.1-2.1-4.3-5.9-4.3c-5,0-6.9,4.5-6.9,9.5c0,4.7,1.7,9.7,7.1,9.7c3.9,0,5.2-2.6,5.7-4.3H468.1z"/>
				<path class="st2" d="M473.3,913.8h6v10.9h11.2v-10.9h6v27.9h-6v-12.1h-11.2v12.1h-6V913.8z"/>
				<path class="st2" d="M508.9,913.8v16.6c0,5.4,2.8,6.9,5.8,6.9c3.5,0,5.6-1.9,5.6-6.9v-16.6h6v16.3c0,9.5-5.6,12-11.7,12
					c-6.3,0-11.7-2.5-11.7-11.9v-16.4H508.9z"/>
				<path class="st2" d="M532.5,913.8h6v22.9h13.9l-0.7,4.9h-19.2V913.8z"/>
				<path class="st2" d="M561.5,935.2l-2.2,6.4h-5.9l9.5-27.9h7.6l9.9,27.9h-6.3l-2.3-6.4H561.5z M570.4,930.3
					c-2-5.9-3.2-9.6-3.9-12.2h0c-0.7,2.8-2.1,7.1-3.7,12.2H570.4z"/>
			</g>
		</g>
		<g>
			<g>
				<path class="st2" d="M229,1045.1c0.4-2.7,2.3-5.4,6.5-5.4c4.2,0,6.2,2.7,6.2,5.6c0,2.7-1.7,4.2-3.1,4.7v0.1
					c2.4,0.7,4.1,2.5,4.1,5.8c0,3.7-2.4,6.9-7.3,6.9c-4.5,0-6.8-2.9-7.2-5.9h1.8c0.5,2.3,2.3,4.3,5.6,4.3c3.8,0,5.3-2.6,5.3-5.3
					c0-3.5-2.3-5-5.6-5h-1.3v-1.6h1c3.4,0,4.9-1.4,4.9-4c0-2.3-1.6-3.9-4.4-3.9c-2.9,0-4.2,1.6-4.8,3.8H229z"/>
				<path class="st2" d="M259.9,1057.3c-0.8,3-2.8,5.4-6.5,5.4c-4.2,0-7.2-3.1-7.2-8.8c0-4.6,2.5-8.9,7.4-8.9c4.3,0,6,3,6.3,5.4
					h-1.7c-0.5-2-1.8-3.8-4.7-3.8c-3.6,0-5.6,3-5.6,7.2c0,4,1.9,7.2,5.4,7.2c2.5,0,3.9-1.2,4.8-3.8H259.9z"/>
				<path class="st2" d="M263.8,1057.6c0.6,2.2,2.1,3.5,4.8,3.5c3,0,4.2-1.4,4.2-3.3c0-1.9-0.8-2.9-4.6-3.8c-4.3-1-5.4-2.4-5.4-4.6
					c0-2.3,1.8-4.5,5.6-4.5c3.8,0,5.6,2.3,5.9,4.7h-1.7c-0.3-1.4-1.4-3.2-4.3-3.2c-2.9,0-3.8,1.4-3.8,2.8c0,1.5,0.8,2.3,4.1,3.1
					c4.8,1.1,5.9,2.7,5.9,5.2c0,3.1-2.5,5-6,5c-3.8,0-6-2-6.5-5.1H263.8z"/>
				<path class="st2" d="M278.7,1037.5h1.7v3.3h-1.7V1037.5z M278.7,1045.4h1.7v16.9h-1.7V1045.4z"/>
				<path class="st2" d="M306.7,1065.9c-1.7,1.2-4.4,2.3-8.4,2.3c-7.6,0-12.8-5.1-12.8-13.4c0-8.2,5.4-14.9,14.4-14.9
					c6.7,0,12.2,4.3,12.2,11.7c0,6.1-3.2,9.8-7.1,9.8c-1.9,0-3.2-0.8-3-3c-1.1,1.9-2.6,3-5,3c-2.6,0-4.7-1.9-4.7-5.9
					c0-5.2,3-9.2,6.9-9.2c3.1,0,4,1.9,4.3,3l0.6-2.7h1.6l-2.1,9.8c-0.5,2.5,0.2,3.3,1.6,3.3c3,0,5-3.1,5-8c0-6.2-4.2-10.1-10.5-10.1
					c-7.6,0-12.3,5.7-12.3,13.2c0,6.7,4.2,11.7,11,11.7c2.7,0,5.5-0.6,7.7-2.1L306.7,1065.9z M294.1,1055.3c0,2.9,1.2,4.4,3.2,4.4
					c2.4,0,4.2-1.6,5.2-5.8c0.9-3.9-0.2-6-3.3-6C296,1047.8,294.1,1051.3,294.1,1055.3z"/>
				<path class="st2" d="M331,1053.8c0,4.7-2.6,8.9-7.6,8.9c-4.6,0-7.4-3.7-7.4-8.8c0-4.8,2.7-8.8,7.6-8.8
					C328,1045,331,1048.5,331,1053.8z M317.8,1053.9c0,4,2.2,7.2,5.7,7.2c3.6,0,5.7-3,5.7-7.2c0-4-2-7.2-5.8-7.2
					C319.6,1046.6,317.8,1049.8,317.8,1053.9z"/>
				<path class="st2" d="M335.2,1050c0-2.8,0-4,0-4.6h1.7c0,0.5,0.1,1.6,0.1,3.8c1-2.5,3.1-4,5.9-4.2v1.8c-3.5,0.2-5.9,2.7-5.9,6.7
					v8.8h-1.7V1050z"/>
				<path class="st2" d="M357.6,1059.1c0,1.5,0.1,2.7,0.2,3.2h-1.6c-0.1-0.4-0.2-1.1-0.3-2.6c-0.6,1.2-2.1,3-5.5,3
					c-3.9,0-5.6-2.5-5.6-5.1c0-3.7,2.9-5.4,7.9-5.4c1.4,0,2.5,0,3.2,0v-1.7c0-1.7-0.5-3.9-4.3-3.9c-3.4,0-3.9,1.8-4.3,3.2h-1.7
					c0.2-1.9,1.3-4.7,6-4.7c3.8,0,6,1.6,6,5.3V1059.1z M356,1053.7c-0.6,0-2.2,0-3.3,0c-3.7,0-6.1,1-6.1,3.9c0,2.1,1.5,3.6,3.9,3.6
					c4.8,0,5.5-3.2,5.5-6.8V1053.7z"/>
				<path class="st2" d="M363.2,1049.7c0-1.5,0-2.9,0-4.2h1.7c0.1,0.5,0.1,2.7,0.1,3.2c0.7-1.7,2.1-3.6,5.6-3.6c3,0,5.7,1.7,5.7,6.3
					v10.9h-1.7v-10.7c0-3-1.2-5-4.2-5c-4,0-5.4,3.3-5.4,7v8.6h-1.7V1049.7z"/>
				<path class="st2" d="M394.6,1061.2c0,5.4-2.4,8.2-7.3,8.2c-4.4,0-6.2-2.5-6.6-5h1.7c0.6,2.3,2.5,3.4,5,3.4
					c4.4,0,5.6-2.8,5.6-7.1v-1.8c-0.9,2.2-2.6,3.4-5.6,3.4c-3.9,0-7-3.2-7-8.4c0-5.7,3.2-8.8,7.2-8.8c3.4,0,4.9,1.6,5.4,3
					c0-1,0.1-2.2,0.1-2.6h1.6c0,0.6-0.1,3.3-0.1,4.9V1061.2z M382.1,1053.8c0,4,2.1,6.9,5.4,6.9c4.2,0,5.5-2.8,5.5-7.2
					c0-4.4-1.3-6.9-5.4-6.9C383.7,1046.6,382.1,1050,382.1,1053.8z"/>
				<path class="st2" d="M400.5,1054.1c0,4.3,2.2,7,5.5,7c3.2,0,4.2-1.8,4.9-3.2h1.7c-0.7,2.2-2.5,4.8-6.6,4.8
					c-5.1,0-7.1-4.4-7.1-8.7c0-4.8,2.4-9,7.3-9c5.2,0,6.8,4.5,6.8,7.7c0,0.5,0,0.9,0,1.4H400.5z M411.1,1052.6c0-3.3-1.9-6-5.2-6
					c-3.5,0-5.1,2.4-5.4,6H411.1z"/>
				<path class="st2" d="M416.3,1062.3v-4.3h1.7v4.3H416.3z"/>
				<path class="st2" d="M435.1,1057.3c-0.8,3-2.8,5.4-6.5,5.4c-4.2,0-7.2-3.1-7.2-8.8c0-4.6,2.5-8.9,7.4-8.9c4.3,0,6,3,6.3,5.4
					h-1.7c-0.5-2-1.8-3.8-4.7-3.8c-3.6,0-5.6,3-5.6,7.2c0,4,1.9,7.2,5.4,7.2c2.5,0,3.9-1.2,4.8-3.8H435.1z"/>
				<path class="st2" d="M452.7,1053.8c0,4.7-2.6,8.9-7.6,8.9c-4.6,0-7.4-3.7-7.4-8.8c0-4.8,2.7-8.8,7.6-8.8
					C449.7,1045,452.7,1048.5,452.7,1053.8z M439.5,1053.9c0,4,2.2,7.2,5.7,7.2c3.6,0,5.7-3,5.7-7.2c0-4-2-7.2-5.8-7.2
					C441.3,1046.6,439.5,1049.8,439.5,1053.9z"/>
				<path class="st2" d="M456.9,1049.8c0-1.4,0-3,0-4.3h1.7c0,0.6,0.1,2,0.1,3c0.7-1.7,2.3-3.4,5.1-3.4c2.4,0,4.2,1.2,4.9,3.3
					c0.8-1.8,2.5-3.3,5.5-3.3c2.6,0,5.3,1.5,5.3,6.2v11.1h-1.7v-10.9c0-2.3-0.8-4.7-3.9-4.7c-3.3,0-4.8,2.6-4.8,5.9v9.7h-1.7v-10.9
					c0-2.5-0.7-4.8-3.8-4.8c-3.3,0-4.9,2.9-4.9,6.3v9.3h-1.7V1049.8z"/>
			</g>
		</g>
		<g>
			<g>
				<path class="st2" d="M231.5,977.1v11h-1.9v-23.6h8.5c4.7,0,7.1,2.5,7.1,6.2c0,3-1.8,5-4.4,5.5c2.4,0.6,4,2.2,4,6.2v0.9
					c0,1.7-0.1,3.9,0.3,4.8h-1.9c-0.4-1-0.3-2.9-0.3-4.9v-0.6c0-3.9-1.1-5.5-5.7-5.5H231.5z M231.5,975.4h5.7c4.1,0,6.1-1.6,6.1-4.7
					c0-2.9-1.9-4.5-5.6-4.5h-6.2V975.4z"/>
				<path class="st2" d="M250.6,979.9c0,4.3,2.2,7,5.5,7c3.2,0,4.2-1.8,4.9-3.2h1.7c-0.7,2.2-2.5,4.8-6.6,4.8
					c-5.1,0-7.1-4.4-7.1-8.7c0-4.8,2.4-9,7.3-9c5.2,0,6.8,4.5,6.8,7.7c0,0.5,0,0.9,0,1.4H250.6z M261.3,978.4c0-3.3-1.9-6-5.2-6
					c-3.5,0-5.1,2.4-5.4,6H261.3z"/>
				<path class="st2" d="M267.2,983.5c0.6,2.2,2.1,3.5,4.8,3.5c3,0,4.2-1.4,4.2-3.3c0-1.9-0.8-2.9-4.6-3.8c-4.3-1-5.4-2.4-5.4-4.6
					c0-2.3,1.8-4.5,5.6-4.5c3.8,0,5.6,2.3,5.9,4.7h-1.7c-0.3-1.4-1.4-3.2-4.3-3.2c-2.9,0-3.8,1.4-3.8,2.8c0,1.5,0.8,2.3,4.1,3.1
					c4.8,1.1,5.9,2.7,5.9,5.2c0,3.1-2.5,5-6,5c-3.8,0-6-2-6.5-5.1H267.2z"/>
				<path class="st2" d="M283.8,985.6v9.2h-1.7v-19.4c0-1.4,0-2.9,0-4.1h1.7c0.1,0.6,0.1,1.7,0.1,3c1-2,2.9-3.4,5.9-3.4
					c4,0,6.7,3.3,6.7,8.4c0,6.1-3.2,9.3-7.3,9.3C286.2,988.5,284.7,987.2,283.8,985.6z M294.7,979.3c0-3.9-1.9-6.8-5.2-6.8
					c-4.1,0-5.8,2.6-5.8,7.1c0,4.5,1.3,7.3,5.5,7.3C292.8,986.9,294.7,984,294.7,979.3z"/>
				<path class="st2" d="M314.4,979.7c0,4.7-2.6,8.9-7.6,8.9c-4.6,0-7.4-3.7-7.4-8.8c0-4.8,2.7-8.8,7.6-8.8
					C311.4,970.9,314.4,974.4,314.4,979.7z M301.2,979.7c0,4,2.2,7.2,5.7,7.2c3.6,0,5.7-3,5.7-7.2c0-4-2-7.2-5.8-7.2
					C303,972.5,301.2,975.7,301.2,979.7z"/>
				<path class="st2" d="M318.6,975.5c0-1.5,0-2.9,0-4.2h1.7c0.1,0.5,0.1,2.7,0.1,3.2c0.7-1.7,2.1-3.6,5.6-3.6c3,0,5.7,1.7,5.7,6.3
					v10.9h-1.7v-10.7c0-3-1.2-5-4.2-5c-4,0-5.4,3.3-5.4,7v8.6h-1.7V975.5z"/>
				<path class="st2" d="M337,983.5c0.6,2.2,2.1,3.5,4.8,3.5c3,0,4.2-1.4,4.2-3.3c0-1.9-0.8-2.9-4.6-3.8c-4.3-1-5.4-2.4-5.4-4.6
					c0-2.3,1.8-4.5,5.6-4.5c3.8,0,5.6,2.3,5.9,4.7h-1.7c-0.3-1.4-1.4-3.2-4.3-3.2c-2.9,0-3.8,1.4-3.8,2.8c0,1.5,0.8,2.3,4.1,3.1
					c4.8,1.1,5.9,2.7,5.9,5.2c0,3.1-2.5,5-6,5c-3.8,0-6-2-6.5-5.1H337z"/>
				<path class="st2" d="M363.6,984.9c0,1.5,0.1,2.7,0.2,3.2h-1.6c-0.1-0.4-0.2-1.1-0.3-2.6c-0.6,1.2-2.1,3-5.5,3
					c-3.9,0-5.6-2.5-5.6-5.1c0-3.7,2.9-5.4,7.9-5.4c1.4,0,2.5,0,3.2,0v-1.7c0-1.7-0.5-3.9-4.3-3.9c-3.4,0-3.9,1.8-4.3,3.2h-1.7
					c0.2-1.9,1.3-4.7,6-4.7c3.8,0,6,1.6,6,5.3V984.9z M361.9,979.5c-0.6,0-2.2,0-3.3,0c-3.7,0-6.1,1-6.1,3.9c0,2.1,1.5,3.6,3.9,3.6
					c4.8,0,5.5-3.2,5.5-6.8V979.5z"/>
				<path class="st2" d="M369.1,963.3h1.7v10.8c0.8-1.7,2.5-3.2,5.8-3.2c4,0,6.9,3.3,6.9,8.5c0,5.3-2.6,9.2-7.3,9.2
					c-2.8,0-4.4-1.1-5.3-3.1c0,1.1,0,2.2-0.1,2.7h-1.7c0-1.9,0-3.8,0-5.8V963.3z M381.7,979.4c0-4.2-2.1-6.9-5.3-6.9
					c-4.2,0-5.7,2.9-5.7,7.3c0,4,1.3,7.2,5.5,7.2C379.6,986.9,381.7,984.1,381.7,979.4z"/>
				<path class="st2" d="M387.7,988.1v-24.8h1.7v24.8H387.7z"/>
				<path class="st2" d="M395.3,979.9c0,4.3,2.2,7,5.5,7c3.2,0,4.2-1.8,4.9-3.2h1.7c-0.7,2.2-2.5,4.8-6.6,4.8
					c-5.1,0-7.1-4.4-7.1-8.7c0-4.8,2.4-9,7.3-9c5.2,0,6.8,4.5,6.8,7.7c0,0.5,0,0.9,0,1.4H395.3z M405.9,978.4c0-3.3-1.9-6-5.2-6
					c-3.5,0-5.1,2.4-5.4,6H405.9z"/>
				<path class="st2" d="M423.5,980l-3,8.2h-1.9l8.7-23.6h2.2l9,23.6h-2l-3.1-8.2H423.5z M432.9,978.3c-2.6-7-4-10.4-4.4-12h0
					c-0.6,1.8-2.1,6-4.2,12H432.9z"/>
				<path class="st2" d="M439.7,971.3h3.1V966h1.7v5.3h4v1.6h-4v11c0,1.9,0.4,3,2,3c0.5,0,1.2,0,1.8-0.2v1.5
					c-0.6,0.2-1.4,0.3-2.1,0.3c-2.2,0-3.4-1.1-3.4-3.8v-11.7h-3.1V971.3z"/>
				<path class="st2" d="M452.3,979.9c0,4.3,2.2,7,5.5,7c3.2,0,4.2-1.8,4.9-3.2h1.7c-0.7,2.2-2.5,4.8-6.6,4.8
					c-5.1,0-7.1-4.4-7.1-8.7c0-4.8,2.4-9,7.3-9c5.2,0,6.8,4.5,6.8,7.7c0,0.5,0,0.9,0,1.4H452.3z M463,978.4c0-3.3-1.9-6-5.2-6
					c-3.5,0-5.1,2.4-5.4,6H463z"/>
				<path class="st2" d="M468.9,988.1v-24.8h1.7v24.8H468.9z"/>
				<path class="st2" d="M476.1,963.3h1.7v3.3h-1.7V963.3z M476.1,971.3h1.7v16.9h-1.7V971.3z"/>
				<path class="st2" d="M483.7,979.9c0,4.3,2.2,7,5.5,7c3.2,0,4.2-1.8,4.9-3.2h1.7c-0.7,2.2-2.5,4.8-6.6,4.8
					c-5.1,0-7.1-4.4-7.1-8.7c0-4.8,2.4-9,7.3-9c5.2,0,6.8,4.5,6.8,7.7c0,0.5,0,0.9,0,1.4H483.7z M494.3,978.4c0-3.3-1.9-6-5.2-6
					c-3.5,0-5.1,2.4-5.4,6H494.3z"/>
				<path class="st2" d="M500.2,975.9c0-2.8,0-4,0-4.6h1.7c0,0.5,0.1,1.6,0.1,3.8c1-2.5,3.1-4,5.9-4.2v1.8c-3.5,0.2-5.9,2.7-5.9,6.7
					v8.8h-1.7V975.9z"/>
			</g>
		</g>
		<rect x="141" y="852" class="st12" width="355.1" height="4.5"/>
	</g>
	<g id="vinc">
		<circle class="st2" cx="1898" cy="1051.5" r="30"/>
		<circle class="st2" cx="1899" cy="1123" r="30"/>
		<g>
			<g>
				<path class="st2" d="M1969.5,1127.6c0,5.1-1.3,11.7-7.2,11.7c-5.8,0-7.2-6-7.2-11.5c0-5.4,1.5-11.5,7.3-11.5
					C1968.2,1116.3,1969.5,1122.4,1969.5,1127.6z M1957,1127.8c0,4.3,0.9,9.8,5.3,9.8c4.5,0,5.4-5.3,5.4-10c0-4.2-0.9-9.7-5.3-9.7
					C1957.8,1117.9,1957,1122.9,1957,1127.8z"/>
				<path class="st2" d="M1985.1,1121.2c-0.5-2-1.9-3.3-4.3-3.3c-4.2,0-5.8,4-5.9,9.8c0.9-1.9,2.6-3.8,6-3.8c4.4,0,6.7,3.2,6.7,7.4
					c0,4.1-2.3,8-7,8c-5.9,0-7.4-5-7.4-11.2c0-6.3,2-11.8,7.7-11.8c4.3,0,5.7,2.9,6.1,4.9H1985.1z M1985.8,1131.4
					c0-2.7-1.1-5.9-5-5.9c-3.1,0-5.5,2.1-5.5,6c0,1.9,1,6.2,5.4,6.2C1984.4,1137.7,1985.8,1134.6,1985.8,1131.4z"/>
				<path class="st2" d="M1999.7,1132.7c0-3.3,2.2-5.2,4.3-5.9c-2.1-0.9-3.3-2.6-3.3-4.8c0-3.2,2.2-5.7,6.5-5.7
					c3.9,0,6.2,2.5,6.2,5.7c0,2.3-1.3,4-3.3,4.7c2.4,0.7,4.2,3,4.2,5.9c0,4-3,6.7-7.3,6.7
					C2002.7,1139.3,1999.7,1136.6,1999.7,1132.7z M2012.4,1132.6c0-3.2-2-5-5.4-5c-3.8,0-5.5,2.2-5.5,5c0,2.8,1.9,5.1,5.4,5.1
					C2010.2,1137.7,2012.4,1135.9,2012.4,1132.6z M2002.5,1121.9c0,2.1,1.3,4.1,4.6,4.1c3.1,0,4.4-1.6,4.4-3.9
					c0-2.1-1.3-4.1-4.4-4.1C2003.7,1117.9,2002.5,1119.6,2002.5,1121.9z"/>
				<path class="st2" d="M2032.1,1127.6c0,5.1-1.3,11.7-7.2,11.7c-5.8,0-7.2-6-7.2-11.5c0-5.4,1.6-11.5,7.3-11.5
					C2030.8,1116.3,2032.1,1122.4,2032.1,1127.6z M2019.6,1127.8c0,4.3,0.9,9.8,5.3,9.8c4.5,0,5.4-5.3,5.4-10c0-4.2-0.9-9.7-5.3-9.7
					C2020.4,1117.9,2019.6,1122.9,2019.6,1127.8z"/>
				<path class="st2" d="M2057.5,1116.7v1.7c-4.1,5.4-7.8,13.9-9.1,20.5h-1.8c1.1-6.2,5.1-15.2,9-20.5h-12.1v-1.7H2057.5z"/>
				<path class="st2" d="M2060.1,1132.7c0-3.3,2.2-5.2,4.3-5.9c-2.1-0.9-3.3-2.6-3.3-4.8c0-3.2,2.2-5.7,6.5-5.7
					c3.9,0,6.2,2.5,6.2,5.7c0,2.3-1.3,4-3.3,4.7c2.4,0.7,4.2,3,4.2,5.9c0,4-3,6.7-7.3,6.7
					C2063.1,1139.3,2060.1,1136.6,2060.1,1132.7z M2072.8,1132.6c0-3.2-2-5-5.4-5c-3.8,0-5.5,2.2-5.5,5c0,2.8,1.9,5.1,5.4,5.1
					C2070.5,1137.7,2072.8,1135.9,2072.8,1132.6z M2062.9,1121.9c0,2.1,1.3,4.1,4.6,4.1c3.1,0,4.4-1.6,4.4-3.9
					c0-2.1-1.3-4.1-4.4-4.1C2064.1,1117.9,2062.9,1119.6,2062.9,1121.9z"/>
				<path class="st2" d="M2086.7,1132.7c0-3.3,2.2-5.2,4.3-5.9c-2.1-0.9-3.3-2.6-3.3-4.8c0-3.2,2.2-5.7,6.5-5.7
					c3.9,0,6.2,2.5,6.2,5.7c0,2.3-1.3,4-3.3,4.7c2.4,0.7,4.2,3,4.2,5.9c0,4-3,6.7-7.3,6.7
					C2089.7,1139.3,2086.7,1136.6,2086.7,1132.7z M2099.4,1132.6c0-3.2-2-5-5.4-5c-3.8,0-5.5,2.2-5.5,5c0,2.8,1.9,5.1,5.4,5.1
					C2097.1,1137.7,2099.4,1135.9,2099.4,1132.6z M2089.5,1121.9c0,2.1,1.3,4.1,4.6,4.1c3.1,0,4.4-1.6,4.4-3.9
					c0-2.1-1.3-4.1-4.4-4.1C2090.7,1117.9,2089.5,1119.6,2089.5,1121.9z"/>
				<path class="st2" d="M2106.6,1134.4c0.8,2.2,2.2,3.2,4.6,3.2c5.1,0,5.5-7.2,5.6-10.2c-1.1,2.3-3.2,3.2-5.8,3.2
					c-3.9,0-6.5-2.9-6.5-7c0-3.9,2.5-7.3,7-7.3c5,0,7,4,7,10.1c0,5.5-1,12.8-7.4,12.8c-4,0-5.7-2.3-6.3-4.8H2106.6z M2106.3,1123.5
					c0,3.2,1.8,5.4,4.8,5.4c3.7,0,5.3-2,5.3-5.3c0-1.3-0.4-5.8-5.1-5.8C2107.8,1117.9,2106.3,1120.4,2106.3,1123.5z"/>
				<path class="st2" d="M2132.9,1134.4c0.8,2.2,2.2,3.2,4.6,3.2c5.1,0,5.5-7.2,5.6-10.2c-1.1,2.3-3.2,3.2-5.8,3.2
					c-3.9,0-6.5-2.9-6.5-7c0-3.9,2.5-7.3,7-7.3c5,0,7,4,7,10.1c0,5.5-1,12.8-7.4,12.8c-4,0-5.7-2.3-6.3-4.8H2132.9z M2132.6,1123.5
					c0,3.2,1.8,5.4,4.8,5.4c3.7,0,5.3-2,5.3-5.3c0-1.3-0.4-5.8-5.1-5.8C2134.1,1117.9,2132.6,1120.4,2132.6,1123.5z"/>
				<path class="st2" d="M2148.3,1132.7c0-3.3,2.2-5.2,4.3-5.9c-2.1-0.9-3.3-2.6-3.3-4.8c0-3.2,2.2-5.7,6.5-5.7
					c3.9,0,6.2,2.5,6.2,5.7c0,2.3-1.3,4-3.3,4.7c2.4,0.7,4.2,3,4.2,5.9c0,4-3,6.7-7.3,6.7
					C2151.4,1139.3,2148.3,1136.6,2148.3,1132.7z M2161,1132.6c0-3.2-2-5-5.4-5c-3.8,0-5.5,2.2-5.5,5c0,2.8,1.9,5.1,5.4,5.1
					C2158.8,1137.7,2161,1135.9,2161,1132.6z M2151.1,1121.9c0,2.1,1.3,4.1,4.6,4.1c3.1,0,4.4-1.6,4.4-3.9c0-2.1-1.3-4.1-4.4-4.1
					C2152.3,1117.9,2151.1,1119.6,2151.1,1121.9z"/>
			</g>
		</g>
		<g>
			<g>
				<path class="st14" d="M1907.9,1128.5c-0.7-0.7-1.5-1.1-2.4-1.1c-0.9,0-1.7,0.4-2.4,1.1l-2.3,2.3c-0.2-0.1-0.4-0.2-0.6-0.3
					c-0.3-0.1-0.5-0.3-0.7-0.4c-2.1-1.3-4-3.1-5.9-5.4c-0.9-1.1-1.5-2.1-1.9-3c0.6-0.5,1.1-1.1,1.7-1.6c0.2-0.2,0.4-0.4,0.6-0.6
					c1.5-1.5,1.5-3.4,0-4.9l-2-2c-0.2-0.2-0.5-0.5-0.7-0.7c-0.4-0.4-0.9-0.9-1.3-1.3c-0.7-0.7-1.5-1.1-2.4-1.1
					c-0.9,0-1.7,0.4-2.4,1.1c0,0,0,0,0,0l-2.4,2.5c-0.9,0.9-1.4,2-1.6,3.3c-0.2,2.1,0.4,4,0.9,5.3c1.2,3.1,2.9,6,5.5,9.1
					c3.1,3.7,6.9,6.7,11.2,8.8c1.6,0.8,3.8,1.7,6.3,1.9c0.2,0,0.3,0,0.5,0c1.7,0,3-0.6,4.1-1.8c0,0,0,0,0,0c0.4-0.5,0.8-0.9,1.3-1.3
					c0.3-0.3,0.6-0.6,0.9-0.9c0.7-0.7,1.1-1.6,1.1-2.5c0-0.9-0.4-1.7-1.1-2.5L1907.9,1128.5z M1910.5,1136.1
					C1910.5,1136.1,1910.5,1136.1,1910.5,1136.1c-0.3,0.3-0.6,0.6-0.9,0.9c-0.5,0.4-0.9,0.9-1.4,1.4c-0.7,0.8-1.6,1.1-2.7,1.1
					c-0.1,0-0.2,0-0.3,0c-2.1-0.1-4.1-1-5.6-1.7c-4-2-7.6-4.7-10.6-8.3c-2.4-2.9-4.1-5.7-5.1-8.6c-0.7-1.8-0.9-3.2-0.8-4.5
					c0.1-0.8,0.4-1.5,1-2.1l2.4-2.4c0.4-0.3,0.7-0.5,1.1-0.5c0.5,0,0.8,0.3,1,0.5c0,0,0,0,0,0c0.4,0.4,0.9,0.8,1.3,1.3
					c0.2,0.2,0.5,0.5,0.7,0.7l2,2c0.8,0.8,0.8,1.5,0,2.2c-0.2,0.2-0.4,0.4-0.6,0.6c-0.6,0.6-1.2,1.2-1.8,1.7c0,0,0,0,0,0
					c-0.6,0.6-0.5,1.2-0.4,1.6c0,0,0,0,0,0.1c0.5,1.2,1.2,2.4,2.3,3.8l0,0c2,2.4,4.1,4.3,6.4,5.8c0.3,0.2,0.6,0.3,0.9,0.5
					c0.3,0.1,0.5,0.3,0.7,0.4c0,0,0.1,0,0.1,0.1c0.2,0.1,0.5,0.2,0.7,0.2c0.6,0,1-0.4,1.1-0.5l2.4-2.4c0.2-0.2,0.6-0.5,1.1-0.5
					c0.4,0,0.8,0.3,1,0.5c0,0,0,0,0,0l3.9,3.9C1911.2,1134.6,1911.2,1135.3,1910.5,1136.1z"/>
				<path class="st14" d="M1899.5,1115.6c1.9,0.3,3.6,1.2,4.9,2.6s2.2,3.1,2.6,4.9c0.1,0.5,0.5,0.8,1,0.8c0.1,0,0.1,0,0.2,0
					c0.5-0.1,0.9-0.6,0.8-1.1c-0.4-2.3-1.5-4.3-3.1-6c-1.6-1.6-3.7-2.7-6-3.1c-0.5-0.1-1,0.3-1.1,0.8
					C1898.6,1115,1898.9,1115.5,1899.5,1115.6z"/>
				<path class="st14" d="M1915,1122.5c-0.6-3.7-2.4-7.1-5.1-9.8c-2.7-2.7-6.1-4.5-9.8-5.1c-0.5-0.1-1,0.3-1.1,0.8
					c-0.1,0.5,0.3,1,0.8,1.1c3.3,0.6,6.4,2.1,8.8,4.6c2.4,2.4,4,5.5,4.6,8.8c0.1,0.5,0.5,0.8,1,0.8c0.1,0,0.1,0,0.2,0
					C1914.7,1123.5,1915.1,1123,1915,1122.5z"/>
			</g>
		</g>
		<g>
			<g>
				<path class="st14" d="M1910.9,1038.3h-25.6c-2.3,0-4.2,1.9-4.2,4.2v17.5c0,2.3,1.9,4.2,4.2,4.2h25.6c2.3,0,4.2-1.9,4.2-4.2
					v-17.5C1915,1040.2,1913.1,1038.3,1910.9,1038.3z M1913.1,1060c0,1.2-1,2.3-2.3,2.3h-25.6c-1.2,0-2.3-1-2.3-2.3v-17.5
					c0-1.2,1-2.3,2.3-2.3h25.6c1.2,0,2.3,1,2.3,2.3L1913.1,1060L1913.1,1060z"/>
				<path class="st14" d="M1902.5,1051l8.3-7.4c0.4-0.4,0.4-0.9,0.1-1.3c-0.4-0.4-0.9-0.4-1.3-0.1l-11.4,10.3l-2.2-2c0,0,0,0,0,0
					c0,0-0.1-0.1-0.2-0.1l-9.1-8.1c-0.4-0.4-1-0.3-1.3,0.1s-0.3,1,0.1,1.3l8.4,7.5l-8.4,7.8c-0.4,0.4-0.4,1,0,1.3
					c0.2,0.2,0.4,0.3,0.7,0.3c0.2,0,0.5-0.1,0.6-0.3l8.5-7.9l2.3,2.1c0.2,0.2,0.4,0.2,0.6,0.2s0.5-0.1,0.6-0.2l2.4-2.1l8.4,8
					c0.2,0.2,0.4,0.3,0.7,0.3c0.3,0,0.5-0.1,0.7-0.3c0.4-0.4,0.3-1,0-1.3L1902.5,1051z"/>
			</g>
		</g>
		<g>
			<g>
				<path class="st2" d="M1956,1047.1c0.4-2.7,2.3-5.4,6.5-5.4c4.2,0,6.2,2.7,6.2,5.6c0,2.7-1.7,4.2-3.1,4.7v0.1
					c2.4,0.7,4.1,2.5,4.1,5.8c0,3.7-2.4,6.9-7.3,6.9c-4.5,0-6.8-2.9-7.2-5.9h1.8c0.5,2.3,2.3,4.3,5.6,4.3c3.8,0,5.3-2.6,5.3-5.3
					c0-3.5-2.3-5-5.6-5h-1.3v-1.6h1c3.4,0,4.9-1.4,4.9-4c0-2.3-1.6-3.9-4.4-3.9c-2.9,0-4.2,1.6-4.8,3.8H1956z"/>
				<path class="st2" d="M1986.9,1059.3c-0.8,3-2.8,5.4-6.5,5.4c-4.2,0-7.2-3.1-7.2-8.8c0-4.6,2.5-8.9,7.4-8.9c4.3,0,6,3,6.3,5.4
					h-1.7c-0.5-2-1.8-3.8-4.7-3.8c-3.6,0-5.6,3-5.6,7.2c0,4,1.9,7.2,5.4,7.2c2.5,0,3.9-1.2,4.8-3.8H1986.9z"/>
				<path class="st2" d="M1990.8,1059.6c0.6,2.2,2.1,3.5,4.8,3.5c3,0,4.2-1.4,4.2-3.3c0-1.9-0.8-2.9-4.6-3.8c-4.3-1-5.4-2.4-5.4-4.6
					c0-2.3,1.8-4.5,5.6-4.5c3.8,0,5.6,2.3,5.9,4.7h-1.7c-0.3-1.4-1.4-3.2-4.3-3.2c-2.9,0-3.8,1.4-3.8,2.8c0,1.5,0.8,2.3,4.1,3.1
					c4.8,1.1,5.9,2.7,5.9,5.2c0,3.1-2.5,5-6,5c-3.8,0-6-2-6.5-5.1H1990.8z"/>
				<path class="st2" d="M2005.7,1039.5h1.7v3.3h-1.7V1039.5z M2005.7,1047.4h1.7v16.9h-1.7V1047.4z"/>
				<path class="st2" d="M2033.7,1067.9c-1.7,1.2-4.4,2.3-8.4,2.3c-7.5,0-12.8-5.1-12.8-13.4c0-8.2,5.4-14.9,14.4-14.9
					c6.7,0,12.2,4.3,12.2,11.7c0,6.1-3.2,9.8-7.1,9.8c-1.9,0-3.2-0.8-3-3c-1.1,1.9-2.6,3-5,3c-2.6,0-4.7-1.9-4.7-5.9
					c0-5.2,3-9.2,6.9-9.2c3.1,0,4,1.9,4.3,3l0.6-2.7h1.6l-2.1,9.8c-0.5,2.5,0.2,3.3,1.5,3.3c3,0,5-3.1,5-8c0-6.2-4.2-10.1-10.5-10.1
					c-7.6,0-12.3,5.7-12.3,13.2c0,6.7,4.2,11.7,11,11.7c2.7,0,5.5-0.6,7.7-2.1L2033.7,1067.9z M2021.1,1057.3c0,2.9,1.2,4.4,3.2,4.4
					c2.4,0,4.2-1.6,5.2-5.8c0.9-3.9-0.2-6-3.3-6C2023,1049.8,2021.1,1053.3,2021.1,1057.3z"/>
				<path class="st2" d="M2058,1055.8c0,4.7-2.6,8.9-7.6,8.9c-4.6,0-7.4-3.7-7.4-8.8c0-4.8,2.7-8.8,7.6-8.8
					C2055,1047,2058,1050.5,2058,1055.8z M2044.8,1055.9c0,4,2.2,7.2,5.7,7.2c3.6,0,5.7-3,5.7-7.2c0-4-2-7.2-5.8-7.2
					C2046.6,1048.6,2044.8,1051.8,2044.8,1055.9z"/>
				<path class="st2" d="M2062.2,1052c0-2.8,0-4,0-4.6h1.7c0,0.5,0.1,1.6,0.1,3.8c1-2.5,3.1-4,5.9-4.2v1.8c-3.5,0.2-5.9,2.7-5.9,6.7
					v8.8h-1.7V1052z"/>
				<path class="st2" d="M2084.6,1061.1c0,1.5,0.1,2.7,0.2,3.2h-1.6c-0.1-0.4-0.2-1.1-0.3-2.6c-0.6,1.2-2.1,3-5.5,3
					c-3.9,0-5.6-2.5-5.6-5.1c0-3.7,2.9-5.4,7.9-5.4c1.4,0,2.5,0,3.2,0v-1.7c0-1.7-0.5-3.9-4.3-3.9c-3.4,0-3.9,1.8-4.3,3.2h-1.7
					c0.2-1.9,1.3-4.7,6-4.7c3.8,0,6,1.6,6,5.3V1061.1z M2083,1055.7c-0.6,0-2.2,0-3.3,0c-3.7,0-6.1,1-6.1,3.9c0,2.1,1.5,3.6,3.9,3.6
					c4.8,0,5.5-3.2,5.5-6.8V1055.7z"/>
				<path class="st2" d="M2090.2,1051.7c0-1.5,0-2.9,0-4.2h1.7c0.1,0.5,0.1,2.7,0.1,3.2c0.7-1.7,2.1-3.6,5.6-3.6
					c3,0,5.7,1.7,5.7,6.3v10.9h-1.7v-10.7c0-3-1.2-5-4.2-5c-4,0-5.4,3.3-5.4,7v8.6h-1.7V1051.7z"/>
				<path class="st2" d="M2121.6,1063.2c0,5.4-2.4,8.2-7.3,8.2c-4.4,0-6.2-2.5-6.6-5h1.7c0.6,2.3,2.5,3.4,5,3.4
					c4.4,0,5.6-2.8,5.6-7.1v-1.8c-0.9,2.2-2.6,3.4-5.6,3.4c-3.9,0-7-3.2-7-8.4c0-5.7,3.2-8.8,7.2-8.8c3.4,0,4.9,1.6,5.4,3
					c0-1,0.1-2.2,0.1-2.6h1.6c0,0.6-0.1,3.3-0.1,4.9V1063.2z M2109.1,1055.8c0,4,2.1,6.9,5.4,6.9c4.2,0,5.5-2.8,5.5-7.2
					c0-4.4-1.3-6.9-5.4-6.9C2110.7,1048.6,2109.1,1052,2109.1,1055.8z"/>
				<path class="st2" d="M2127.5,1056.1c0,4.3,2.2,7,5.5,7c3.2,0,4.2-1.8,4.9-3.2h1.7c-0.7,2.2-2.5,4.8-6.6,4.8
					c-5.1,0-7.1-4.4-7.1-8.7c0-4.8,2.4-9,7.3-9c5.2,0,6.8,4.5,6.8,7.7c0,0.5,0,0.9,0,1.4H2127.5z M2138.1,1054.6c0-3.3-1.9-6-5.2-6
					c-3.5,0-5.1,2.4-5.4,6H2138.1z"/>
				<path class="st2" d="M2143.3,1064.3v-4.3h1.7v4.3H2143.3z"/>
				<path class="st2" d="M2162.1,1059.3c-0.8,3-2.8,5.4-6.5,5.4c-4.2,0-7.2-3.1-7.2-8.8c0-4.6,2.5-8.9,7.4-8.9c4.3,0,6,3,6.3,5.4
					h-1.7c-0.5-2-1.8-3.8-4.7-3.8c-3.6,0-5.6,3-5.6,7.2c0,4,1.9,7.2,5.4,7.2c2.5,0,3.9-1.2,4.8-3.8H2162.1z"/>
				<path class="st2" d="M2179.7,1055.8c0,4.7-2.6,8.9-7.6,8.9c-4.5,0-7.4-3.7-7.4-8.8c0-4.8,2.7-8.8,7.6-8.8
					C2176.7,1047,2179.7,1050.5,2179.7,1055.8z M2166.5,1055.9c0,4,2.2,7.2,5.7,7.2c3.6,0,5.7-3,5.7-7.2c0-4-2-7.2-5.8-7.2
					C2168.3,1048.6,2166.5,1051.8,2166.5,1055.9z"/>
				<path class="st2" d="M2183.9,1051.8c0-1.4,0-3,0-4.3h1.7c0,0.6,0.1,2,0.1,3c0.7-1.7,2.3-3.4,5.1-3.4c2.4,0,4.2,1.2,4.9,3.3
					c0.8-1.8,2.5-3.3,5.5-3.3c2.6,0,5.3,1.5,5.3,6.2v11.1h-1.7v-10.9c0-2.3-0.8-4.7-3.9-4.7c-3.3,0-4.8,2.6-4.8,5.9v9.7h-1.7v-10.9
					c0-2.5-0.7-4.8-3.8-4.8c-3.3,0-4.9,2.9-4.9,6.3v9.3h-1.7V1051.8z"/>
			</g>
		</g>
		<g>
			<g id="XMLID_7_">
				<path id="XMLID_9_" class="st15" d="M1925.9,939.4c-1.7-11.7-5.9-23.4-15.1-29c-3.8,3-8.5,4.6-13.4,4.6c-4.9,0-9.6-1.6-13.4-4.6
					c-9.2,5.6-13.4,17.2-15.1,29c-0.4,2.5,1.6,4.8,4.1,4.8h48.8C1924.3,944.2,1926.2,941.9,1925.9,939.4z"/>
				<g id="XMLID_8_">
					<path class="st15" d="M1897.3,876.4c-9.3,0-16.9,7.6-16.9,16.9c0,9.4,7.6,16.9,16.9,16.9s16.9-7.6,16.9-16.9
						C1914.3,884,1906.7,876.4,1897.3,876.4z M1897.3,887.8c-3,0-5.5,2.5-5.5,5.5c0,1.4-1.1,2.5-2.5,2.5s-2.5-1.1-2.5-2.5
						c0-5.8,4.7-10.6,10.6-10.6c1.4,0,2.5,1.1,2.5,2.5S1898.7,887.8,1897.3,887.8z"/>
				</g>
			</g>
		</g>
		<g>
			<g>
				<path class="st2" d="M1962,943.9l-9.8-27.9h6.5l4.1,12.9c1.3,3.9,2.2,7.2,2.9,10.1h0.1c0.6-2.6,1.7-6,3-10l4.4-13h6.2
					l-10.1,27.9H1962z"/>
				<path class="st2" d="M1981.8,914.4h5.8v5.2h-5.8V914.4z M1981.8,923h5.8v20.9h-5.8V923z"/>
				<path class="st2" d="M1992.9,928.3c0-1.8,0-3.7,0-5.3h5.6c0.1,0.5,0.2,2,0.2,2.7c0.7-1.3,2.4-3.2,6.1-3.2c4.2,0,6.9,2.8,6.9,8.1
					v13.3h-5.8v-12.7c0-2.4-0.8-4.1-3.3-4.1c-2.5,0-3.9,1.4-3.9,5.1v11.7h-5.8V928.3z"/>
				<path class="st2" d="M2034.9,937.2c-0.7,3.5-3.2,7.3-9.4,7.3c-6.5,0-9.9-4.5-9.9-10.8c0-6.2,3.8-11.1,10.1-11.1
					c7.1,0,9,5.1,9.1,7.4h-5.7c-0.4-1.7-1.3-2.9-3.6-2.9c-2.6,0-4.2,2.3-4.2,6.4c0,4.5,1.6,6.5,4.1,6.5c2,0,3.1-1.2,3.6-2.8H2034.9z
					"/>
				<path class="st2" d="M2043.2,934.7c0,2.6,1.3,5.2,4.2,5.2c2.4,0,3.1-1,3.7-2.2h5.8c-0.7,2.6-3,6.8-9.6,6.8
					c-6.9,0-9.9-5.2-9.9-10.7c0-6.6,3.4-11.3,10.1-11.3c7.2,0,9.6,5.2,9.6,10.4c0,0.7,0,1.2-0.1,1.8H2043.2z M2051.3,931.1
					c0-2.4-1-4.5-3.8-4.5c-2.8,0-3.9,1.9-4.1,4.5H2051.3z"/>
				<path class="st2" d="M2061.1,928.3c0-1.8,0-3.7,0-5.3h5.6c0.1,0.5,0.2,2,0.2,2.7c0.7-1.3,2.4-3.2,6.1-3.2c4.2,0,6.9,2.8,6.9,8.1
					v13.3h-5.8v-12.7c0-2.4-0.8-4.1-3.3-4.1c-2.5,0-3.9,1.4-3.9,5.1v11.7h-5.8V928.3z"/>
				<path class="st2" d="M2083,923h3.2v-5.7h5.8v5.7h4.1v4.4h-4.1v10.3c0,1.6,0.5,2.2,2.2,2.2c0.3,0,0.9,0,1.3-0.1v4
					c-1.2,0.4-2.7,0.4-3.9,0.4c-4.1,0-5.4-2.2-5.4-5.8v-11h-3.2V923z"/>
				<path class="st2" d="M2116.8,943.9L2107,916h6.5l4.1,12.9c1.3,3.9,2.2,7.2,2.9,10.1h0.1c0.6-2.6,1.7-6,3-10l4.4-13h6.2
					l-10.1,27.9H2116.8z"/>
				<path class="st2" d="M2156.6,931.9h-13.3v7.1h14.7l-0.7,4.9h-19.8V916h19.8v4.9h-13.9v6h13.3V931.9z"/>
				<path class="st2" d="M2162.4,916h6V939h13.9l-0.7,4.9h-19.2V916z"/>
				<path class="st2" d="M2191.6,921h-8.5V916h23v4.9h-8.4v22.9h-6V921z"/>
				<path class="st2" d="M2229.1,931.9h-13.3v7.1h14.7l-0.7,4.9h-19.8V916h19.8v4.9h-13.9v6h13.3V931.9z"/>
				<path class="st2" d="M2234.9,943.9V916h7.5c3.5,6.3,9.9,17.6,11.2,20.6h0.1c-0.3-2.9-0.3-7.8-0.3-12.3V916h5.5v27.9h-7.1
					c-3-5.4-10.1-18.4-11.5-21.6h-0.1c0.2,2.4,0.3,8.2,0.3,13.2v8.5H2234.9z"/>
			</g>
		</g>
		<g>
			<g>
				<path class="st2" d="M1957.7,977.1v11h-1.9v-23.6h8.5c4.7,0,7.1,2.5,7.1,6.2c0,3-1.8,5-4.4,5.5c2.4,0.6,4,2.2,4,6.2v0.9
					c0,1.7-0.1,3.9,0.3,4.8h-1.9c-0.4-1-0.3-2.9-0.3-4.9v-0.6c0-3.9-1.1-5.5-5.7-5.5H1957.7z M1957.7,975.4h5.7
					c4.1,0,6.1-1.6,6.1-4.7c0-2.9-1.9-4.5-5.6-4.5h-6.2V975.4z"/>
				<path class="st2" d="M1976.9,979.9c0,4.3,2.2,7,5.5,7c3.2,0,4.2-1.8,4.9-3.2h1.7c-0.7,2.2-2.5,4.8-6.6,4.8
					c-5.1,0-7.1-4.4-7.1-8.7c0-4.8,2.4-9,7.3-9c5.2,0,6.8,4.5,6.8,7.7c0,0.5,0,0.9,0,1.4H1976.9z M1987.6,978.4c0-3.3-1.9-6-5.2-6
					c-3.5,0-5.1,2.4-5.4,6H1987.6z"/>
				<path class="st2" d="M1993.4,983.5c0.6,2.2,2.1,3.5,4.8,3.5c3,0,4.2-1.4,4.2-3.3c0-1.9-0.8-2.9-4.6-3.8c-4.3-1-5.4-2.4-5.4-4.6
					c0-2.3,1.8-4.5,5.6-4.5s5.6,2.3,5.9,4.7h-1.7c-0.3-1.4-1.4-3.2-4.3-3.2c-2.9,0-3.8,1.4-3.8,2.8c0,1.5,0.8,2.3,4.1,3.1
					c4.8,1.1,5.9,2.7,5.9,5.2c0,3.1-2.5,5-6,5c-3.8,0-6-2-6.5-5.1H1993.4z"/>
				<path class="st2" d="M2010.1,985.6v9.2h-1.7v-19.4c0-1.4,0-2.9,0-4.1h1.7c0.1,0.6,0.1,1.7,0.1,3c1-2,2.9-3.4,5.9-3.4
					c4,0,6.7,3.3,6.7,8.4c0,6.1-3.2,9.3-7.3,9.3C2012.5,988.5,2010.9,987.2,2010.1,985.6z M2021,979.3c0-3.9-1.9-6.8-5.2-6.8
					c-4.1,0-5.8,2.6-5.8,7.1c0,4.5,1.3,7.3,5.5,7.3C2019,986.9,2021,984,2021,979.3z"/>
				<path class="st2" d="M2040.6,979.7c0,4.7-2.6,8.9-7.6,8.9c-4.6,0-7.4-3.7-7.4-8.8c0-4.8,2.7-8.8,7.5-8.8
					C2037.7,970.9,2040.6,974.4,2040.6,979.7z M2027.4,979.7c0,4,2.2,7.2,5.7,7.2c3.6,0,5.7-3,5.7-7.2c0-4-2-7.2-5.8-7.2
					C2029.2,972.5,2027.4,975.7,2027.4,979.7z"/>
				<path class="st2" d="M2044.8,975.5c0-1.5,0-2.9,0-4.2h1.7c0.1,0.5,0.1,2.7,0.1,3.2c0.7-1.7,2.1-3.6,5.6-3.6c3,0,5.7,1.7,5.7,6.3
					v10.9h-1.7v-10.7c0-3-1.2-5-4.2-5c-4,0-5.4,3.3-5.4,7v8.6h-1.7V975.5z"/>
				<path class="st2" d="M2063.3,983.5c0.6,2.2,2.1,3.5,4.8,3.5c3,0,4.2-1.4,4.2-3.3c0-1.9-0.8-2.9-4.6-3.8c-4.3-1-5.4-2.4-5.4-4.6
					c0-2.3,1.8-4.5,5.6-4.5s5.6,2.3,5.9,4.7h-1.7c-0.3-1.4-1.4-3.2-4.3-3.2c-2.9,0-3.8,1.4-3.8,2.8c0,1.5,0.8,2.3,4.1,3.1
					c4.8,1.1,5.9,2.7,5.9,5.2c0,3.1-2.5,5-6,5c-3.8,0-6-2-6.5-5.1H2063.3z"/>
				<path class="st2" d="M2089.8,984.9c0,1.5,0.1,2.7,0.2,3.2h-1.6c-0.1-0.4-0.2-1.1-0.3-2.6c-0.6,1.2-2.1,3-5.5,3
					c-3.9,0-5.6-2.5-5.6-5.1c0-3.7,2.9-5.4,7.9-5.4c1.4,0,2.5,0,3.2,0v-1.7c0-1.7-0.5-3.9-4.3-3.9c-3.4,0-3.9,1.8-4.3,3.2h-1.7
					c0.2-1.9,1.3-4.7,6-4.7c3.8,0,6,1.6,6,5.3V984.9z M2088.2,979.5c-0.6,0-2.2,0-3.3,0c-3.7,0-6.1,1-6.1,3.9c0,2.1,1.5,3.6,3.9,3.6
					c4.8,0,5.5-3.2,5.5-6.8V979.5z"/>
				<path class="st2" d="M2095.4,963.3h1.7v10.8c0.8-1.7,2.5-3.2,5.8-3.2c4,0,6.9,3.3,6.9,8.5c0,5.3-2.6,9.2-7.3,9.2
					c-2.8,0-4.5-1.1-5.3-3.1c0,1.1,0,2.2-0.1,2.7h-1.7c0-1.9,0-3.8,0-5.8V963.3z M2107.9,979.4c0-4.2-2.1-6.9-5.3-6.9
					c-4.2,0-5.7,2.9-5.7,7.3c0,4,1.3,7.2,5.5,7.2C2105.9,986.9,2107.9,984.1,2107.9,979.4z"/>
				<path class="st2" d="M2113.9,988.1v-24.8h1.7v24.8H2113.9z"/>
				<path class="st2" d="M2121.5,979.9c0,4.3,2.2,7,5.5,7c3.2,0,4.2-1.8,4.9-3.2h1.7c-0.7,2.2-2.5,4.8-6.6,4.8
					c-5.1,0-7.1-4.4-7.1-8.7c0-4.8,2.4-9,7.3-9c5.2,0,6.8,4.5,6.8,7.7c0,0.5,0,0.9,0,1.4H2121.5z M2132.2,978.4c0-3.3-1.9-6-5.2-6
					c-3.5,0-5.1,2.4-5.4,6H2132.2z"/>
				<path class="st2" d="M2165.2,981.8c-1.1,3.7-3.9,6.6-8.9,6.6c-6.8,0-10.3-5.4-10.3-12c0-6.4,3.5-12.2,10.4-12.2
					c5.1,0,8.1,2.8,8.9,6.8h-1.8c-1.1-3.1-3.1-5.1-7.1-5.1c-5.9,0-8.3,5.4-8.3,10.4c0,5.1,2.4,10.4,8.5,10.4c3.8,0,5.8-2,7-4.9
					H2165.2z"/>
				<path class="st2" d="M2171.1,963.3v10.8c0.9-1.8,2.6-3.2,5.6-3.2c2.4,0,5.7,1.2,5.7,6.5v10.7h-1.7v-10.4c0-3.3-1.5-5.2-4.3-5.2
					c-3.3,0-5.3,2.1-5.3,6.2v9.4h-1.7v-24.8H2171.1z"/>
				<path class="st2" d="M2199.4,984.9c0,1.5,0.1,2.7,0.2,3.2h-1.6c-0.1-0.4-0.2-1.1-0.3-2.6c-0.6,1.2-2.1,3-5.5,3
					c-3.9,0-5.6-2.5-5.6-5.1c0-3.7,2.9-5.4,7.9-5.4c1.4,0,2.5,0,3.2,0v-1.7c0-1.7-0.5-3.9-4.3-3.9c-3.4,0-3.9,1.8-4.3,3.2h-1.7
					c0.2-1.9,1.3-4.7,6-4.7c3.8,0,6,1.6,6,5.3V984.9z M2197.8,979.5c-0.6,0-2.2,0-3.3,0c-3.7,0-6.1,1-6.1,3.9c0,2.1,1.5,3.6,3.9,3.6
					c4.8,0,5.5-3.2,5.5-6.8V979.5z"/>
				<path class="st2" d="M2205,975.5c0-1.5,0-2.9,0-4.2h1.7c0.1,0.5,0.1,2.7,0.1,3.2c0.7-1.7,2.1-3.6,5.6-3.6c3,0,5.7,1.7,5.7,6.3
					v10.9h-1.7v-10.7c0-3-1.2-5-4.2-5c-4,0-5.4,3.3-5.4,7v8.6h-1.7V975.5z"/>
				<path class="st2" d="M2220.9,971.3h3.1V966h1.7v5.3h4v1.6h-4v11c0,1.9,0.4,3,2,3c0.5,0,1.2,0,1.8-0.2v1.5
					c-0.6,0.2-1.4,0.3-2.1,0.3c-2.2,0-3.4-1.1-3.4-3.8v-11.7h-3.1V971.3z"/>
				<path class="st2" d="M2233.2,963.3h1.7v3.3h-1.7V963.3z M2233.2,971.3h1.7v16.9h-1.7V971.3z"/>
				<path class="st2" d="M2240.8,979.9c0,4.3,2.2,7,5.5,7c3.2,0,4.2-1.8,4.9-3.2h1.7c-0.7,2.2-2.5,4.8-6.6,4.8
					c-5.1,0-7.1-4.4-7.1-8.7c0-4.8,2.4-9,7.3-9c5.2,0,6.8,4.5,6.8,7.7c0,0.5,0,0.9,0,1.4H2240.8z M2251.5,978.4c0-3.3-1.9-6-5.2-6
					c-3.5,0-5.1,2.4-5.4,6H2251.5z"/>
				<path class="st2" d="M2257.3,975.9c0-2.8,0-4,0-4.6h1.7c0,0.5,0.1,1.6,0.1,3.8c1-2.5,3.1-4,5.9-4.2v1.8
					c-3.5,0.2-5.9,2.7-5.9,6.7v8.8h-1.7V975.9z"/>
			</g>
		</g>
		<rect x="1866.1" y="852" class="st12" width="355.1" height="4.5"/>
	</g>
</g>
<g id="Calque_12">
</g>
<g id="Calque_10">
</g>
</svg>
