<?xml version="1.0" encoding="utf-8"?>
<!-- Generator: Adobe Illustrator 24.0.0, SVG Export Plug-In . SVG Version: 6.00 Build 0)  -->
<svg version="1.1" xmlns="http://www.w3.org/2000/svg" xmlns:xlink="http://www.w3.org/1999/xlink" x="0px" y="0px"
	 viewBox="0 0 2409.4 1559.1" style="enable-background:new 0 0 2409.4 1559.1;" xml:space="preserve">
<style type="text/css">
	.st0{fill:#1A1A1A;}
	.st1{display:none;}
	.st2{display:inline;}
	.st3{fill:#0071BC;}
	.st4{display:none;fill:#F2F2F2;stroke:#000000;stroke-miterlimit:10;}
	.st5{display:none;fill:#0071BC;}
	.st6{fill:#E69B17;}
	.st7{fill:none;}
	.st8{fill:#333333;}
	.st9{font-family:'Impact';}
	.st10{font-size:60px;}
	.st11{fill:#FFFFFF;}
	.st12{fill:none;stroke:#E69B17;stroke-width:2;stroke-miterlimit:10;}
	.st13{fill:url(#SVGID_1_);}
	.st14{fill:#1D1D1B;}
	.st15{fill:#9C9B9B;}
	.st16{fill:#6F6F6E;}
</style>
<g id="Calque_1">
</g>
<g id="Calque_3">
	<rect x="-18" y="-19" class="st0" width="2440" height="1589"/>
	<g id="Calque_5">
	</g>
	<g class="st1">
		
			<image style="display:inline;overflow:visible;" width="5832" height="5098" xlink:href="FE8DBB63.png"  transform="matrix(0.24 0 0 0.24 505.1603 190.2803)">
		</image>
		<g class="st2">
			<polygon class="st3" points="1533.5,232.9 876.5,232.9 547.9,801.9 876.5,1371 1533.5,1371 1862.1,801.9 			"/>
		</g>
	</g>
	<polygon class="st4" points="1524.6,248.5 885.4,248.5 565.9,802 885.4,1355.5 1524.6,1355.5 1844.1,802 	"/>
	<polygon class="st5" points="1588,336 2080,336 2071,319 1579,319 	"/>
	<rect x="-36" y="1506" class="st6" width="2482" height="53"/>
</g>
<g id="Calque_6">
	<g>
		<g>
			<path class="st6" d="M375,1222.1c1.3,5.6,5,8.9,11.9,8.9c7.7,0,10.6-3.8,10.6-8.4c0-4.7-2.1-7.7-11.3-10
				c-8.9-2.2-12.7-5.1-12.7-11.2c0-5.5,4-10.7,13-10.7c9.2,0,13.1,5.6,13.7,10.7h-3.4c-1-4.5-3.9-7.7-10.5-7.7
				c-6.1,0-9.4,2.8-9.4,7.5c0,4.6,2.8,6.4,10.5,8.3c11.8,2.9,13.6,7.7,13.6,12.7c0,6.2-4.5,11.5-14.2,11.5
				c-10.5,0-14.3-6.1-15.1-11.8H375z"/>
			<path class="st6" d="M412,1228.9v16.4h-3v-34.6c0-2.5,0-5.1-0.1-7.4h2.9c0.1,1.1,0.1,2.9,0.1,5.4c1.9-3.6,5.2-6.1,10.6-6.1
				c7.1,0,12,5.9,12,14.9c0,10.8-5.8,16.5-13,16.5C416.2,1234.1,413.5,1231.7,412,1228.9z M431.3,1217.7c0-7-3.4-12.2-9.3-12.2
				c-7.3,0-10.3,4.6-10.3,12.7c0,8,2.3,13,9.8,13C427.9,1231.3,431.3,1226,431.3,1217.7z"/>
			<path class="st6" d="M442.7,1218.7c0.1,7.7,4,12.5,9.7,12.5c5.6,0,7.6-3.2,8.6-5.6h3.1c-1.3,4-4.4,8.5-11.8,8.5
				c-9.1,0-12.7-7.9-12.7-15.5c0-8.6,4.3-16,13-16c9.2,0,12.2,8,12.2,13.6c0,0.8,0,1.7-0.1,2.5H442.7z M461.7,1216.1
				c-0.1-5.9-3.3-10.6-9.2-10.6c-6.2,0-9,4.3-9.7,10.6H461.7z M462,1188.5l-8.9,9.4h-3.2l8.2-9.4H462z"/>
			<path class="st6" d="M494.2,1224.5c-1.4,5.3-4.9,9.5-11.6,9.5c-7.5,0-12.8-5.6-12.8-15.6c0-8.2,4.4-15.8,13.2-15.8
				c7.6,0,10.7,5.4,11.3,9.6h-3.1c-0.9-3.5-3.2-6.8-8.3-6.8c-6.4,0-10,5.4-10,12.9c0,7.1,3.4,12.9,9.7,12.9c4.4,0,7-2.2,8.6-6.7
				H494.2z"/>
			<path class="st6" d="M501.2,1189.1h3v5.8h-3V1189.1z M501.2,1203.4h3v30h-3V1203.4z"/>
			<path class="st6" d="M534.6,1227.7c0,2.6,0.2,4.7,0.4,5.7h-2.9c-0.2-0.7-0.4-2-0.5-4.6c-1,2.2-3.7,5.3-9.8,5.3c-7,0-10-4.5-10-9
				c0-6.6,5.1-9.6,14.1-9.6c2.5,0,4.5,0,5.7,0v-3.1c0-3-0.9-7-7.7-7c-6.1,0-7,3.2-7.6,5.6h-3c0.4-3.3,2.4-8.4,10.7-8.4
				c6.8,0,10.7,2.9,10.7,9.5V1227.7z M531.6,1218.1c-1.1,0-3.9,0-5.9,0c-6.7,0-10.8,1.7-10.8,6.9c0,3.8,2.7,6.4,6.9,6.4
				c8.6,0,9.8-5.7,9.8-12.2V1218.1z"/>
			<path class="st6" d="M544.5,1233.4v-44.2h3v44.2H544.5z"/>
			<path class="st6" d="M557.3,1189.1h3v5.8h-3V1189.1z M557.3,1203.4h3v30h-3V1203.4z"/>
			<path class="st6" d="M570.2,1225.1c1,3.9,3.8,6.2,8.5,6.2c5.3,0,7.5-2.5,7.5-5.8c0-3.4-1.4-5.1-8.2-6.7c-7.7-1.9-9.7-4.2-9.7-8.2
				c0-4.1,3.1-8,9.9-8s10,4.1,10.5,8.4h-3c-0.5-2.5-2.5-5.6-7.6-5.6c-5.2,0-6.7,2.6-6.7,5c0,2.8,1.4,4.1,7.4,5.6
				c8.5,2,10.6,4.8,10.6,9.3c0,5.5-4.4,8.8-10.7,8.8c-6.8,0-10.7-3.6-11.5-9H570.2z"/>
			<path class="st6" d="M592.3,1203.4h5.6v-9.4h3v9.4h7.1v2.8h-7.1v19.5c0,3.4,0.7,5.3,3.6,5.3c0.9,0,2.2-0.1,3.1-0.4v2.6
				c-1,0.4-2.5,0.5-3.7,0.5c-3.8,0-6-1.9-6-6.7v-20.9h-5.6V1203.4z"/>
			<path class="st6" d="M614.8,1218.7c0.1,7.7,4,12.5,9.7,12.5c5.6,0,7.6-3.2,8.6-5.6h3.1c-1.3,4-4.4,8.5-11.8,8.5
				c-9.1,0-12.7-7.9-12.7-15.5c0-8.6,4.3-16,13-16c9.2,0,12.2,8,12.2,13.6c0,0.8,0,1.7-0.1,2.5H614.8z M633.8,1216.1
				c-0.1-5.9-3.3-10.6-9.2-10.6c-6.2,0-9,4.3-9.7,10.6H633.8z"/>
			<path class="st6" d="M660.5,1218.7c0.1,7.7,4,12.5,9.7,12.5c5.6,0,7.6-3.2,8.6-5.6h3.1c-1.3,4-4.4,8.5-11.8,8.5
				c-9.1,0-12.7-7.9-12.7-15.5c0-8.6,4.3-16,13-16c9.2,0,12.2,8,12.2,13.6c0,0.8,0,1.7-0.1,2.5H660.5z M679.5,1216.1
				c-0.1-5.9-3.3-10.6-9.2-10.6c-6.2,0-9,4.3-9.7,10.6H679.5z"/>
			<path class="st6" d="M690,1210.9c0-2.6,0-5.2-0.1-7.6h2.9c0.1,1,0.2,4.9,0.1,5.7c1.3-3.1,3.8-6.4,10-6.4c5.3,0,10.1,3,10.1,11.3
				v19.4h-3v-19c0-5.3-2.2-8.8-7.4-8.8c-7.1,0-9.6,5.9-9.6,12.5v15.3h-3V1210.9z"/>
			<path class="st6" d="M738.5,1189.1h3v5.8h-3V1189.1z M738.5,1203.4h3v30h-3V1203.4z"/>
			<path class="st6" d="M751.3,1210.9c0-2.6,0-5.2-0.1-7.6h2.9c0.1,1,0.2,4.9,0.1,5.7c1.3-3.1,3.8-6.4,10-6.4
				c5.3,0,10.1,3,10.1,11.3v19.4h-3v-19c0-5.3-2.2-8.8-7.4-8.8c-7.1,0-9.6,5.9-9.6,12.5v15.3h-3V1210.9z"/>
			<path class="st6" d="M784.2,1225.1c1,3.9,3.8,6.2,8.5,6.2c5.3,0,7.5-2.5,7.5-5.8c0-3.4-1.4-5.1-8.2-6.7c-7.7-1.9-9.7-4.2-9.7-8.2
				c0-4.1,3.1-8,9.9-8s10,4.1,10.5,8.4h-3c-0.5-2.5-2.5-5.6-7.6-5.6c-5.2,0-6.7,2.6-6.7,5c0,2.8,1.4,4.1,7.4,5.6
				c8.5,2,10.6,4.8,10.6,9.3c0,5.5-4.4,8.8-10.7,8.8c-6.8,0-10.7-3.6-11.5-9H784.2z"/>
			<path class="st6" d="M806.3,1203.4h5.6v-9.4h3v9.4h7.1v2.8h-7.1v19.5c0,3.4,0.7,5.3,3.6,5.3c0.9,0,2.2-0.1,3.1-0.4v2.6
				c-1,0.4-2.5,0.5-3.7,0.5c-3.8,0-6-1.9-6-6.7v-20.9h-5.6V1203.4z"/>
			<path class="st6" d="M848.7,1227.7c0,2.6,0.2,4.7,0.4,5.7h-2.9c-0.2-0.7-0.4-2-0.5-4.6c-1,2.2-3.7,5.3-9.8,5.3c-7,0-10-4.5-10-9
				c0-6.6,5.1-9.6,14.1-9.6c2.5,0,4.5,0,5.7,0v-3.1c0-3-0.9-7-7.7-7c-6.1,0-7,3.2-7.6,5.6h-3c0.4-3.3,2.4-8.4,10.7-8.4
				c6.8,0,10.7,2.9,10.7,9.5V1227.7z M845.8,1218.1c-1.1,0-3.9,0-5.9,0c-6.7,0-10.8,1.7-10.8,6.9c0,3.8,2.7,6.4,6.9,6.4
				c8.6,0,9.8-5.7,9.8-12.2V1218.1z"/>
			<path class="st6" d="M858.6,1233.4v-44.2h3v44.2H858.6z"/>
			<path class="st6" d="M871.5,1233.4v-44.2h3v44.2H871.5z"/>
			<path class="st6" d="M904.9,1227.7c0,2.6,0.2,4.7,0.4,5.7h-2.9c-0.2-0.7-0.4-2-0.5-4.6c-1,2.2-3.7,5.3-9.8,5.3c-7,0-10-4.5-10-9
				c0-6.6,5.1-9.6,14.1-9.6c2.5,0,4.5,0,5.7,0v-3.1c0-3-0.9-7-7.7-7c-6.1,0-7,3.2-7.6,5.6h-3c0.4-3.3,2.4-8.4,10.7-8.4
				c6.8,0,10.7,2.9,10.7,9.5V1227.7z M902,1218.1c-1.1,0-3.9,0-5.9,0c-6.7,0-10.8,1.7-10.8,6.9c0,3.8,2.7,6.4,6.9,6.4
				c8.6,0,9.8-5.7,9.8-12.2V1218.1z"/>
			<path class="st6" d="M910.3,1203.4h5.6v-9.4h3v9.4h7.1v2.8h-7.1v19.5c0,3.4,0.7,5.3,3.6,5.3c0.9,0,2.2-0.1,3.1-0.4v2.6
				c-1,0.4-2.5,0.5-3.7,0.5c-3.8,0-6-1.9-6-6.7v-20.9h-5.6V1203.4z"/>
			<path class="st6" d="M932.1,1189.1h3v5.8h-3V1189.1z M932.1,1203.4h3v30h-3V1203.4z"/>
			<path class="st6" d="M969.3,1218.3c0,8.3-4.6,15.8-13.6,15.8c-8.1,0-13.1-6.7-13.1-15.7c0-8.6,4.7-15.7,13.4-15.7
				C964,1202.6,969.3,1208.9,969.3,1218.3z M945.8,1218.4c0,7.1,3.8,12.9,10.2,12.9c6.5,0,10.1-5.3,10.1-12.9
				c0-7.1-3.6-12.9-10.3-12.9C949,1205.5,945.8,1211.2,945.8,1218.4z"/>
			<path class="st6" d="M976.7,1210.9c0-2.6,0-5.2-0.1-7.6h2.9c0.1,1,0.2,4.9,0.1,5.7c1.3-3.1,3.8-6.4,10-6.4
				c5.3,0,10.1,3,10.1,11.3v19.4h-3v-19c0-5.3-2.2-8.8-7.4-8.8c-7.1,0-9.6,5.9-9.6,12.5v15.3h-3V1210.9z"/>
			<path class="st6" d="M1048.4,1189.1v35.6c0,2.9,0,5.6,0.1,8.6h-2.9c-0.1-0.7-0.2-3.5-0.2-5c-1.5,3.7-4.9,5.8-10.1,5.8
				c-7.8,0-12.5-6.4-12.5-15.4c0-9.2,5.1-16.1,13.3-16.1c6,0,8.4,2.6,9.3,4.5v-18H1048.4z M1026,1218.6c0,8.2,4.3,12.7,9.4,12.7
				c7.9,0,10.1-5.5,10.1-13.6c0-7.7-1.9-12.2-9.5-12.2C1030,1205.5,1026,1210.2,1026,1218.6z"/>
			<path class="st6" d="M1058.9,1218.7c0.1,7.7,4,12.5,9.7,12.5c5.6,0,7.6-3.2,8.6-5.6h3.1c-1.3,4-4.4,8.5-11.8,8.5
				c-9.1,0-12.7-7.9-12.7-15.5c0-8.6,4.3-16,13-16c9.2,0,12.2,8,12.2,13.6c0,0.8,0,1.7-0.1,2.5H1058.9z M1077.9,1216.1
				c-0.1-5.9-3.3-10.6-9.2-10.6c-6.2,0-9,4.3-9.7,10.6H1077.9z"/>
			<path class="st6" d="M1103.9,1211.1c0-2.6,0-5.4-0.1-7.7h2.9c0.1,1,0.2,3.6,0.1,5.3c1.3-3,4-6.1,9-6.1c4.2,0,7.5,2.1,8.7,5.9
				c1.5-3.1,4.5-5.9,9.8-5.9c4.6,0,9.4,2.6,9.4,11v19.7h-3V1214c0-4-1.4-8.4-7-8.4c-5.8,0-8.5,4.7-8.5,10.5v17.3h-2.9V1214
				c0-4.4-1.3-8.5-6.8-8.5c-5.8,0-8.6,5.2-8.6,11.3v16.5h-3V1211.1z"/>
			<path class="st6" d="M1174.2,1227.7c0,2.6,0.2,4.7,0.4,5.7h-2.9c-0.2-0.7-0.4-2-0.5-4.6c-1,2.2-3.7,5.3-9.8,5.3c-7,0-10-4.5-10-9
				c0-6.6,5.1-9.6,14.1-9.6c2.5,0,4.5,0,5.7,0v-3.1c0-3-0.9-7-7.7-7c-6.1,0-7,3.2-7.6,5.6h-3c0.4-3.3,2.4-8.4,10.7-8.4
				c6.8,0,10.7,2.9,10.7,9.5V1227.7z M1171.3,1218.1c-1.1,0-3.9,0-5.9,0c-6.7,0-10.8,1.7-10.8,6.9c0,3.8,2.7,6.4,6.9,6.4
				c8.6,0,9.8-5.7,9.8-12.2V1218.1z"/>
			<path class="st6" d="M1206.2,1224.5c-1.4,5.3-4.9,9.5-11.6,9.5c-7.5,0-12.8-5.6-12.8-15.6c0-8.2,4.4-15.8,13.2-15.8
				c7.6,0,10.7,5.4,11.3,9.6h-3.1c-0.9-3.5-3.2-6.8-8.3-6.8c-6.4,0-10,5.4-10,12.9c0,7.1,3.4,12.9,9.7,12.9c4.4,0,7-2.2,8.6-6.7
				H1206.2z"/>
			<path class="st6" d="M1216.2,1189.1v19.3c1.7-3.1,4.6-5.8,9.9-5.8c4.3,0,10.1,2.2,10.1,11.6v19.1h-3v-18.5c0-5.9-2.7-9.3-7.7-9.3
				c-5.9,0-9.4,3.7-9.4,11v16.7h-3v-44.2H1216.2z"/>
			<path class="st6" d="M1246.1,1189.1h3v5.8h-3V1189.1z M1246.1,1203.4h3v30h-3V1203.4z"/>
			<path class="st6" d="M1258.9,1210.9c0-2.6,0-5.2-0.1-7.6h2.9c0.1,1,0.2,4.9,0.1,5.7c1.3-3.1,3.8-6.4,10-6.4
				c5.3,0,10.1,3,10.1,11.3v19.4h-3v-19c0-5.3-2.2-8.8-7.4-8.8c-7.1,0-9.6,5.9-9.6,12.5v15.3h-3V1210.9z"/>
			<path class="st6" d="M1292.4,1218.7c0.1,7.7,4,12.5,9.7,12.5c5.6,0,7.6-3.2,8.6-5.6h3.1c-1.3,4-4.4,8.5-11.8,8.5
				c-9.1,0-12.7-7.9-12.7-15.5c0-8.6,4.3-16,13-16c9.2,0,12.2,8,12.2,13.6c0,0.8,0,1.7-0.1,2.5H1292.4z M1311.4,1216.1
				c-0.1-5.9-3.3-10.6-9.2-10.6c-6.2,0-9,4.3-9.7,10.6H1311.4z"/>
			<path class="st6" d="M1321.9,1225.1c1,3.9,3.8,6.2,8.5,6.2c5.3,0,7.5-2.5,7.5-5.8c0-3.4-1.4-5.1-8.2-6.7
				c-7.7-1.9-9.7-4.2-9.7-8.2c0-4.1,3.1-8,9.9-8c6.8,0,10,4.1,10.5,8.4h-3c-0.5-2.5-2.5-5.6-7.6-5.6c-5.2,0-6.7,2.6-6.7,5
				c0,2.8,1.4,4.1,7.4,5.6c8.5,2,10.6,4.8,10.6,9.3c0,5.5-4.4,8.8-10.7,8.8c-6.8,0-10.7-3.6-11.5-9H1321.9z"/>
			<path class="st6" d="M1380.4,1218.7c0.1,7.7,4,12.5,9.7,12.5c5.6,0,7.6-3.2,8.6-5.6h3.1c-1.3,4-4.4,8.5-11.8,8.5
				c-9.1,0-12.7-7.9-12.7-15.5c0-8.6,4.3-16,13-16c9.2,0,12.2,8,12.2,13.6c0,0.8,0,1.7-0.1,2.5H1380.4z M1399.4,1216.1
				c-0.1-5.9-3.3-10.6-9.2-10.6c-6.2,0-9,4.3-9.7,10.6H1399.4z"/>
			<path class="st6" d="M1405.3,1203.4h5.6v-9.4h3v9.4h7.1v2.8h-7.1v19.5c0,3.4,0.7,5.3,3.6,5.3c0.9,0,2.2-0.1,3.1-0.4v2.6
				c-1,0.4-2.5,0.5-3.7,0.5c-3.8,0-6-1.9-6-6.7v-20.9h-5.6V1203.4z"/>
			<path class="st6" d="M1443.4,1218.7c0.1,7.7,4,12.5,9.7,12.5c5.6,0,7.6-3.2,8.6-5.6h3.1c-1.3,4-4.4,8.5-11.8,8.5
				c-9.1,0-12.7-7.9-12.7-15.5c0-8.6,4.3-16,13-16c9.2,0,12.2,8,12.2,13.6c0,0.8,0,1.7-0.1,2.5H1443.4z M1462.5,1216.1
				c-0.1-5.9-3.3-10.6-9.2-10.6c-6.2,0-9,4.3-9.7,10.6H1462.5z M1462.8,1188.5l-8.9,9.4h-3.2l8.2-9.4H1462.8z"/>
			<path class="st6" d="M1493.1,1228.3c-1.4,3.4-4.3,5.8-10.3,5.8c-6.9,0-12.4-5.7-12.4-15.4c0-10.4,6.1-16.1,13.1-16.1
				c6.1,0,8.8,3,9.5,5.2c-0.1-1.3,0.1-2.9,0.1-4.5h2.9c-0.1,3.5-0.1,5.6-0.1,8.3v33.7h-2.9V1228.3z M1473.7,1218.5
				c0,6.5,3.1,12.7,9.7,12.7c7.4,0,9.8-5,9.8-13.1c0-7.9-2-12.7-9.6-12.7C1477.2,1205.5,1473.7,1211,1473.7,1218.5z"/>
			<path class="st6" d="M1528.3,1224.6c0,2.9,0.1,7.6,0.1,8.8h-2.9c-0.1-0.8-0.2-2.8-0.2-5.2c-1.3,3.5-4.3,5.9-9.7,5.9
				c-4.3,0-9.8-1.7-9.8-10.9v-19.9h2.9v19.1c0,4.4,1.4,8.6,7.3,8.6c6.7,0,9.2-3.8,9.2-12.4v-15.4h3V1224.6z"/>
			<path class="st6" d="M1538.2,1189.1h3v5.8h-3V1189.1z M1538.2,1203.4h3v30h-3V1203.4z"/>
			<path class="st6" d="M1554,1228.9v16.4h-3v-34.6c0-2.5,0-5.1-0.1-7.4h2.9c0.1,1.1,0.1,2.9,0.1,5.4c1.9-3.6,5.2-6.1,10.6-6.1
				c7.1,0,12,5.9,12,14.9c0,10.8-5.8,16.5-13,16.5C1558.3,1234.1,1555.5,1231.7,1554,1228.9z M1573.4,1217.7c0-7-3.4-12.2-9.3-12.2
				c-7.3,0-10.3,4.6-10.3,12.7c0,8,2.3,13,9.8,13C1569.9,1231.3,1573.4,1226,1573.4,1217.7z"/>
			<path class="st6" d="M1584.7,1218.7c0.1,7.7,4,12.5,9.7,12.5c5.6,0,7.6-3.2,8.6-5.6h3.1c-1.3,4-4.4,8.5-11.8,8.5
				c-9.1,0-12.7-7.9-12.7-15.5c0-8.6,4.3-16,13-16c9.2,0,12.2,8,12.2,13.6c0,0.8,0,1.7-0.1,2.5H1584.7z M1603.8,1216.1
				c-0.1-5.9-3.3-10.6-9.2-10.6c-6.2,0-9,4.3-9.7,10.6H1603.8z"/>
			<path class="st6" d="M1614.2,1211.1c0-2.6,0-5.4-0.1-7.7h2.9c0.1,1,0.2,3.6,0.1,5.3c1.3-3,4-6.1,9-6.1c4.2,0,7.5,2.1,8.7,5.9
				c1.5-3.1,4.5-5.9,9.8-5.9c4.6,0,9.4,2.6,9.4,11v19.7h-3V1214c0-4-1.4-8.4-7-8.4c-5.8,0-8.5,4.7-8.5,10.5v17.3h-2.9V1214
				c0-4.4-1.3-8.5-6.8-8.5c-5.8,0-8.6,5.2-8.6,11.3v16.5h-3V1211.1z"/>
			<path class="st6" d="M1664.6,1218.7c0.1,7.7,4,12.5,9.7,12.5c5.6,0,7.6-3.2,8.6-5.6h3.1c-1.3,4-4.4,8.5-11.8,8.5
				c-9.1,0-12.7-7.9-12.7-15.5c0-8.6,4.3-16,13-16c9.2,0,12.2,8,12.2,13.6c0,0.8,0,1.7-0.1,2.5H1664.6z M1683.6,1216.1
				c-0.1-5.9-3.3-10.6-9.2-10.6c-6.2,0-9,4.3-9.7,10.6H1683.6z"/>
			<path class="st6" d="M1694.1,1210.9c0-2.6,0-5.2-0.1-7.6h2.9c0.1,1,0.2,4.9,0.1,5.7c1.3-3.1,3.8-6.4,10-6.4
				c5.3,0,10.1,3,10.1,11.3v19.4h-3v-19c0-5.3-2.2-8.8-7.4-8.8c-7.1,0-9.6,5.9-9.6,12.5v15.3h-3V1210.9z"/>
			<path class="st6" d="M1722.4,1203.4h5.6v-9.4h3v9.4h7.1v2.8h-7.1v19.5c0,3.4,0.7,5.3,3.6,5.3c0.9,0,2.2-0.1,3.1-0.4v2.6
				c-1,0.4-2.5,0.5-3.7,0.5c-3.8,0-6-1.9-6-6.7v-20.9h-5.6V1203.4z"/>
			<path class="st6" d="M1759.9,1211.1c0-2.6,0-5.4-0.1-7.7h2.9c0.1,1,0.2,3.6,0.1,5.3c1.3-3,4-6.1,9-6.1c4.2,0,7.5,2.1,8.7,5.9
				c1.5-3.1,4.5-5.9,9.8-5.9c4.6,0,9.4,2.6,9.4,11v19.7h-3V1214c0-4-1.4-8.4-7-8.4c-5.8,0-8.5,4.7-8.5,10.5v17.3h-2.9V1214
				c0-4.4-1.3-8.5-6.8-8.5c-5.8,0-8.6,5.2-8.6,11.3v16.5h-3V1211.1z"/>
			<path class="st6" d="M1810.3,1218.7c0.1,7.7,4,12.5,9.7,12.5c5.6,0,7.6-3.2,8.6-5.6h3.1c-1.3,4-4.4,8.5-11.8,8.5
				c-9.1,0-12.7-7.9-12.7-15.5c0-8.6,4.3-16,13-16c9.2,0,12.2,8,12.2,13.6c0,0.8,0,1.7-0.1,2.5H1810.3z M1829.3,1216.1
				c-0.1-5.9-3.3-10.6-9.2-10.6c-6.2,0-9,4.3-9.7,10.6H1829.3z M1829.6,1188.5l-8.9,9.4h-3.2l8.2-9.4H1829.6z"/>
			<path class="st6" d="M1861.8,1224.5c-1.4,5.3-4.9,9.5-11.6,9.5c-7.5,0-12.8-5.6-12.8-15.6c0-8.2,4.4-15.8,13.2-15.8
				c7.6,0,10.7,5.4,11.3,9.6h-3.1c-0.9-3.5-3.2-6.8-8.3-6.8c-6.4,0-10,5.4-10,12.9c0,7.1,3.4,12.9,9.7,12.9c4.4,0,7-2.2,8.6-6.7
				H1861.8z"/>
			<path class="st6" d="M1889.4,1227.7c0,2.6,0.2,4.7,0.4,5.7h-2.9c-0.2-0.7-0.4-2-0.5-4.6c-1,2.2-3.7,5.3-9.8,5.3c-7,0-10-4.5-10-9
				c0-6.6,5.1-9.6,14.1-9.6c2.5,0,4.5,0,5.7,0v-3.1c0-3-0.9-7-7.7-7c-6.1,0-7,3.2-7.6,5.6h-3c0.4-3.3,2.4-8.4,10.7-8.4
				c6.8,0,10.7,2.9,10.7,9.5V1227.7z M1886.4,1218.1c-1.1,0-3.9,0-5.9,0c-6.7,0-10.8,1.7-10.8,6.9c0,3.8,2.7,6.4,6.9,6.4
				c8.6,0,9.8-5.7,9.8-12.2V1218.1z"/>
			<path class="st6" d="M1899.3,1210.9c0-2.6,0-5.2-0.1-7.6h2.9c0.1,1,0.2,4.9,0.1,5.7c1.3-3.1,3.8-6.4,10-6.4
				c5.3,0,10.1,3,10.1,11.3v19.4h-3v-19c0-5.3-2.2-8.8-7.4-8.8c-7.1,0-9.6,5.9-9.6,12.5v15.3h-3V1210.9z"/>
			<path class="st6" d="M1932.1,1189.1h3v5.8h-3V1189.1z M1932.1,1203.4h3v30h-3V1203.4z"/>
			<path class="st6" d="M1965.2,1228.3c-1.4,3.4-4.3,5.8-10.3,5.8c-6.9,0-12.4-5.7-12.4-15.4c0-10.4,6.1-16.1,13.1-16.1
				c6.1,0,8.8,3,9.5,5.2c-0.1-1.3,0.1-2.9,0.1-4.5h2.9c-0.1,3.5-0.1,5.6-0.1,8.3v33.7h-2.9V1228.3z M1945.8,1218.5
				c0,6.5,3.1,12.7,9.7,12.7c7.4,0,9.8-5,9.8-13.1c0-7.9-2-12.7-9.6-12.7C1949.3,1205.5,1945.8,1211,1945.8,1218.5z"/>
			<path class="st6" d="M2000.4,1224.6c0,2.9,0.1,7.6,0.1,8.8h-2.9c-0.1-0.8-0.2-2.8-0.2-5.2c-1.3,3.5-4.3,5.9-9.7,5.9
				c-4.3,0-9.8-1.7-9.8-10.9v-19.9h2.9v19.1c0,4.4,1.4,8.6,7.3,8.6c6.7,0,9.2-3.8,9.2-12.4v-15.4h3V1224.6z"/>
			<path class="st6" d="M2010.9,1218.7c0.1,7.7,4,12.5,9.7,12.5c5.6,0,7.6-3.2,8.6-5.6h3.1c-1.3,4-4.4,8.5-11.8,8.5
				c-9.1,0-12.7-7.9-12.7-15.5c0-8.6,4.3-16,13-16c9.2,0,12.2,8,12.2,13.6c0,0.8,0,1.7-0.1,2.5H2010.9z M2029.9,1216.1
				c-0.1-5.9-3.3-10.6-9.2-10.6c-6.2,0-9,4.3-9.7,10.6H2029.9z"/>
		</g>
	</g>
</g>
<g id="Calque_8">
	<rect x="1484.9" y="47.7" class="st7" width="316.2" height="68.7"/>
	<text transform="matrix(1 0 0 1 1484.8647 95.1629)" class="st8 st9 st10">ASSEMBLAGE</text>
	<rect x="1166.1" y="47.7" class="st7" width="325" height="68.7"/>
	<text transform="matrix(1 0 0 1 1166.0869 95.1629)" class="st8 st9 st10">INDUSTRIEL</text>
	<rect x="1067.9" y="1378.7" class="st7" width="247.2" height="68.7"/>
	<text transform="matrix(1 0 0 1 1067.8643 1426.1628)" class="st8 st9 st10">SOUDURE</text>
	<rect x="610.9" y="47.7" class="st7" width="534.2" height="68.7"/>
	<text transform="matrix(1 0 0 1 610.8643 95.1629)" class="st8 st9 st10">GROUPE ELECTROGENE</text>
	<rect x="1325.9" y="1378.7" class="st7" width="244.2" height="68.7"/>
	<text transform="matrix(1 0 0 1 1325.8643 1426.1624)" class="st8 st9 st10">SECOURS</text>
	<rect x="757.9" y="1378.7" class="st7" width="310.2" height="68.7"/>
	<text transform="matrix(1 0 0 1 757.8643 1426.1624)" class="st8 st9 st10">TUYAUTERIE</text>
</g>
<g id="Calque_7">
	<g>
		<g>
			<path class="st11" d="M1614.7,792.2c0,6.3-1.6,14.4-8.9,14.4c-7.1,0-8.9-7.4-8.9-14.1c0-6.7,1.9-14.1,9-14.1
				C1613,778.2,1614.7,785.7,1614.7,792.2z M1599.2,792.4c0,5.3,1.1,12.1,6.6,12.1c5.6,0,6.6-6.5,6.6-12.4c0-5.2-1.1-11.9-6.5-11.9
				C1600.3,780.2,1599.2,786.4,1599.2,792.4z"/>
			<path class="st11" d="M1633.9,784.2c-0.7-2.4-2.3-4-5.4-4c-5.2,0-7.1,4.9-7.2,12.1c1.1-2.3,3.2-4.6,7.4-4.6
				c5.5,0,8.3,3.9,8.3,9.1c0,5.1-2.8,9.8-8.7,9.8c-7.3,0-9.2-6.1-9.2-13.8c0-7.8,2.4-14.5,9.5-14.5c5.3,0,7.1,3.6,7.5,6H1633.9z
				 M1634.7,796.9c0-3.4-1.3-7.3-6.1-7.3c-3.9,0-6.8,2.6-6.8,7.3c0,2.3,1.2,7.6,6.6,7.6C1633,804.6,1634.7,800.7,1634.7,796.9z"/>
			<path class="st11" d="M1651.8,798.4c0-4.1,2.7-6.4,5.3-7.3c-2.6-1.1-4.1-3.2-4.1-5.9c0-3.9,2.7-7,8-7c4.8,0,7.6,3.1,7.6,7
				c0,2.8-1.6,4.9-4,5.8c3,0.9,5.1,3.7,5.1,7.3c0,4.9-3.7,8.2-9,8.2C1655.5,806.5,1651.8,803.3,1651.8,798.4z M1667.4,798.3
				c0-4-2.4-6.2-6.7-6.2c-4.7,0-6.7,2.7-6.7,6.2c0,3.5,2.4,6.3,6.7,6.3C1664.7,804.6,1667.4,802.3,1667.4,798.3z M1655.2,785.1
				c0,2.6,1.6,5,5.7,5c3.8,0,5.4-2,5.4-4.9c0-2.6-1.6-5.1-5.5-5.1C1656.7,780.2,1655.2,782.4,1655.2,785.1z"/>
			<path class="st11" d="M1691.7,792.2c0,6.3-1.6,14.4-8.9,14.4c-7.1,0-8.9-7.4-8.9-14.1c0-6.7,1.9-14.1,9-14.1
				C1690.1,778.2,1691.7,785.7,1691.7,792.2z M1676.2,792.4c0,5.3,1.1,12.1,6.6,12.1c5.6,0,6.6-6.5,6.6-12.4
				c0-5.2-1.1-11.9-6.5-11.9C1677.3,780.2,1676.2,786.4,1676.2,792.4z"/>
			<path class="st11" d="M1723,778.7v2c-5,6.6-9.6,17.1-11.2,25.3h-2.2c1.4-7.6,6.2-18.8,11.1-25.3h-14.9v-2H1723z"/>
			<path class="st11" d="M1726.1,798.4c0-4.1,2.7-6.4,5.3-7.3c-2.6-1.1-4.1-3.2-4.1-5.9c0-3.9,2.7-7,8-7c4.8,0,7.6,3.1,7.6,7
				c0,2.8-1.6,4.9-4,5.8c3,0.9,5.1,3.7,5.1,7.3c0,4.9-3.7,8.2-9,8.2C1729.8,806.5,1726.1,803.3,1726.1,798.4z M1741.7,798.3
				c0-4-2.4-6.2-6.7-6.2c-4.7,0-6.7,2.7-6.7,6.2c0,3.5,2.4,6.3,6.7,6.3C1739,804.6,1741.7,802.3,1741.7,798.3z M1729.5,785.1
				c0,2.6,1.6,5,5.7,5c3.8,0,5.4-2,5.4-4.9c0-2.6-1.6-5.1-5.5-5.1C1731,780.2,1729.5,782.4,1729.5,785.1z"/>
			<path class="st11" d="M1758.8,798.4c0-4.1,2.7-6.4,5.3-7.3c-2.6-1.1-4.1-3.2-4.1-5.9c0-3.9,2.7-7,8-7c4.8,0,7.6,3.1,7.6,7
				c0,2.8-1.6,4.9-4,5.8c3,0.9,5.1,3.7,5.1,7.3c0,4.9-3.7,8.2-9,8.2C1762.5,806.5,1758.8,803.3,1758.8,798.4z M1774.4,798.3
				c0-4-2.4-6.2-6.7-6.2c-4.7,0-6.7,2.7-6.7,6.2c0,3.5,2.4,6.3,6.7,6.3C1771.7,804.6,1774.4,802.3,1774.4,798.3z M1762.2,785.1
				c0,2.6,1.6,5,5.7,5c3.8,0,5.4-2,5.4-4.9c0-2.6-1.6-5.1-5.5-5.1C1763.7,780.2,1762.2,782.4,1762.2,785.1z"/>
			<path class="st11" d="M1783.4,800.6c1,2.7,2.7,3.9,5.6,3.9c6.3,0,6.7-8.9,6.8-12.6c-1.4,2.8-3.9,3.9-7.1,3.9c-4.8,0-8-3.6-8-8.6
				c0-4.8,3.1-9,8.6-9c6.2,0,8.7,4.9,8.7,12.5c0,6.8-1.2,15.7-9.1,15.7c-4.9,0-7-2.8-7.8-5.9H1783.4z M1782.9,787.2
				c0,4,2.2,6.6,5.9,6.6c4.6,0,6.5-2.4,6.5-6.5c0-1.6-0.5-7.1-6.2-7.1C1784.8,780.2,1782.9,783.3,1782.9,787.2z"/>
			<path class="st11" d="M1815.7,800.6c1,2.7,2.7,3.9,5.6,3.9c6.3,0,6.7-8.9,6.8-12.6c-1.4,2.8-3.9,3.9-7.1,3.9c-4.8,0-8-3.6-8-8.6
				c0-4.8,3.1-9,8.6-9c6.2,0,8.7,4.9,8.7,12.5c0,6.8-1.2,15.7-9.1,15.7c-4.9,0-7-2.8-7.8-5.9H1815.7z M1815.3,787.2
				c0,4,2.2,6.6,5.9,6.6c4.6,0,6.5-2.4,6.5-6.5c0-1.6-0.5-7.1-6.2-7.1C1817.1,780.2,1815.3,783.3,1815.3,787.2z"/>
			<path class="st11" d="M1834.7,798.4c0-4.1,2.7-6.4,5.3-7.3c-2.6-1.1-4.1-3.2-4.1-5.9c0-3.9,2.7-7,8-7c4.8,0,7.6,3.1,7.6,7
				c0,2.8-1.6,4.9-4,5.8c3,0.9,5.1,3.7,5.1,7.3c0,4.9-3.7,8.2-9,8.2C1838.4,806.5,1834.7,803.3,1834.7,798.4z M1850.3,798.3
				c0-4-2.4-6.2-6.7-6.2c-4.7,0-6.7,2.7-6.7,6.2c0,3.5,2.4,6.3,6.7,6.3C1847.6,804.6,1850.3,802.3,1850.3,798.3z M1838.1,785.1
				c0,2.6,1.6,5,5.7,5c3.8,0,5.4-2,5.4-4.9c0-2.6-1.6-5.1-5.5-5.1C1839.6,780.2,1838.1,782.4,1838.1,785.1z"/>
		</g>
	</g>
	<g>
		<g>
			<path class="st6" d="M1542.6,794.9c-1.1-1.2-2.5-1.8-3.9-1.8c-1.4,0-2.8,0.6-3.9,1.8l-3.6,3.6c-0.3-0.2-0.6-0.3-0.9-0.5
				c-0.4-0.2-0.8-0.4-1.1-0.6c-3.4-2.2-6.5-5-9.5-8.7c-1.4-1.8-2.4-3.4-3.1-4.9c0.9-0.9,1.8-1.8,2.7-2.6c0.3-0.3,0.6-0.7,1-1
				c2.4-2.4,2.4-5.6,0-8l-3.2-3.2c-0.4-0.4-0.7-0.7-1.1-1.1c-0.7-0.7-1.4-1.5-2.2-2.1c-1.1-1.1-2.5-1.7-3.9-1.7
				c-1.4,0-2.8,0.6-3.9,1.7c0,0,0,0,0,0l-3.9,4c-1.5,1.5-2.3,3.3-2.5,5.4c-0.3,3.4,0.7,6.5,1.5,8.6c1.9,5,4.7,9.7,8.8,14.7
				c5.1,6,11.1,10.8,18.1,14.2c2.7,1.3,6.2,2.7,10.2,3c0.2,0,0.5,0,0.7,0c2.7,0,4.9-1,6.7-2.9c0,0,0,0,0-0.1c0.6-0.7,1.3-1.4,2-2.1
				c0.5-0.5,1-1,1.5-1.5c1.1-1.2,1.7-2.6,1.7-4c0-1.4-0.6-2.8-1.8-4L1542.6,794.9z M1546.8,807C1546.7,807,1546.7,807,1546.8,807
				c-0.5,0.5-0.9,0.9-1.4,1.4c-0.8,0.7-1.5,1.5-2.2,2.3c-1.2,1.2-2.5,1.8-4.3,1.8c-0.2,0-0.4,0-0.5,0c-3.4-0.2-6.6-1.6-9-2.7
				c-6.5-3.2-12.3-7.7-17-13.3c-3.9-4.7-6.6-9.1-8.3-13.8c-1.1-2.9-1.5-5.1-1.3-7.2c0.1-1.4,0.6-2.5,1.6-3.4l3.9-3.9
				c0.6-0.5,1.2-0.8,1.8-0.8c0.7,0,1.3,0.4,1.7,0.8c0,0,0,0,0,0c0.7,0.7,1.4,1.3,2.1,2.1c0.4,0.4,0.7,0.7,1.1,1.1l3.2,3.2
				c1.2,1.2,1.2,2.4,0,3.6c-0.3,0.3-0.7,0.7-1,1c-1,1-1.9,1.9-2.9,2.8c0,0,0,0-0.1,0.1c-1,1-0.8,2-0.6,2.6c0,0,0,0.1,0,0.1
				c0.8,2,2,3.9,3.7,6.1l0,0c3.2,3.9,6.5,7,10.2,9.3c0.5,0.3,1,0.5,1.4,0.8c0.4,0.2,0.8,0.4,1.1,0.6c0,0,0.1,0.1,0.1,0.1
				c0.4,0.2,0.8,0.3,1.1,0.3c1,0,1.6-0.6,1.8-0.8l3.9-3.9c0.4-0.4,1-0.9,1.7-0.9c0.7,0,1.3,0.5,1.7,0.8c0,0,0,0,0,0l6.4,6.4
				C1547.9,804.6,1547.9,805.8,1546.8,807z"/>
			<path class="st6" d="M1529,774c3,0.5,5.8,1.9,8,4.1s3.6,4.9,4.1,8c0.1,0.8,0.8,1.3,1.5,1.3c0.1,0,0.2,0,0.3,0
				c0.9-0.1,1.4-0.9,1.3-1.8c-0.6-3.7-2.4-7-5-9.6c-2.6-2.6-6-4.4-9.6-5c-0.9-0.1-1.7,0.4-1.8,1.3S1528.1,773.9,1529,774z"/>
			<path class="st6" d="M1554,785.1c-1-6-3.9-11.5-8.2-15.9c-4.4-4.4-9.8-7.2-15.9-8.2c-0.8-0.2-1.6,0.4-1.8,1.3
				c-0.1,0.9,0.4,1.7,1.3,1.8c5.4,0.9,10.3,3.5,14.2,7.4c3.9,3.9,6.4,8.8,7.4,14.2c0.1,0.8,0.8,1.3,1.5,1.3c0.1,0,0.2,0,0.3,0
				C1553.6,786.8,1554.2,786,1554,785.1z"/>
		</g>
	</g>
	<g>
		<g id="XMLID_16_">
			<path id="XMLID_18_" class="st12" d="M1561.9,560.2c-2.1-14.5-7.3-28.7-18.6-35.7c-4.7,3.7-10.4,5.7-16.5,5.7s-11.8-2-16.5-5.7
				c-11.3,6.9-16.5,21.2-18.6,35.7c-0.5,3.1,2,5.9,5.1,5.9h60C1559.9,566.1,1562.3,563.3,1561.9,560.2z"/>
			<g id="XMLID_17_">
				<path class="st12" d="M1526.7,482.7c-11.5,0-20.8,9.3-20.8,20.8s9.3,20.8,20.8,20.8c11.5,0,20.8-9.3,20.8-20.8
					S1538.2,482.7,1526.7,482.7z M1526.7,496.8c-3.7,0-6.8,3-6.8,6.8c0,1.7-1.4,3.1-3.1,3.1c-1.7,0-3.1-1.4-3.1-3.1
					c0-7.2,5.8-13,13-13c1.7,0,3.1,1.4,3.1,3.1S1528.5,496.8,1526.7,496.8z"/>
			</g>
		</g>
	</g>
	<g>
		<g>
			<path class="st6" d="M1547.3,677.4H1506c-3.7,0-6.7,3-6.7,6.7v28.2c0,3.7,3,6.7,6.7,6.7h41.3c3.7,0,6.7-3,6.7-6.7v-28.2
				C1554,680.4,1551,677.4,1547.3,677.4z M1551,712.3c0,2-1.6,3.6-3.6,3.6H1506c-2,0-3.6-1.6-3.6-3.6v-28.2c0-2,1.6-3.6,3.6-3.6
				h41.3c2,0,3.6,1.6,3.6,3.6L1551,712.3L1551,712.3z"/>
			<path class="st6" d="M1533.8,697.8l13.4-12c0.6-0.6,0.7-1.5,0.1-2.2c-0.6-0.6-1.5-0.7-2.2-0.1l-18.4,16.5l-3.6-3.2c0,0,0,0,0,0
				c-0.1-0.1-0.2-0.1-0.2-0.2l-14.6-13.1c-0.6-0.6-1.6-0.5-2.2,0.1c-0.6,0.6-0.5,1.6,0.1,2.2l13.5,12.1l-13.5,12.6
				c-0.6,0.6-0.6,1.5-0.1,2.2c0.3,0.3,0.7,0.5,1.1,0.5c0.4,0,0.7-0.1,1-0.4L1522,700l3.7,3.3c0.3,0.3,0.7,0.4,1,0.4s0.7-0.1,1-0.4
				l3.8-3.4l13.6,12.9c0.3,0.3,0.7,0.4,1.1,0.4c0.4,0,0.8-0.2,1.1-0.5c0.6-0.6,0.6-1.6-0.1-2.2L1533.8,697.8z"/>
		</g>
	</g>
	<g>
		<g>
			<path class="st6" d="M1627.4,539.3c-1.4,6.4-6.2,11.1-14.8,11.1c-10.9,0-16-7.7-16-17.5c0-9.4,5.3-17.8,16.4-17.8
				c9.1,0,13.6,5.4,14.4,11.1h-7.4c-0.7-2.6-2.6-5.3-7.2-5.3c-6.1,0-8.5,5.5-8.5,11.8c0,5.8,2,11.9,8.7,11.9c4.8,0,6.4-3.2,7-5.2
				H1627.4z"/>
			<path class="st6" d="M1640,513.5v13.6c1.1-1.7,3.2-3.6,7.4-3.6c4.8,0,8.6,2.8,8.6,9.8v16.5h-7.1v-15.5c0-3.4-1.2-5.1-4.2-5.1
				c-4,0-4.7,2.9-4.7,6.9v13.7h-7.1v-36.3H1640z"/>
			<path class="st6" d="M1662.4,531.1c0-2.6,0-4.8,0-7h7c0.1,0.6,0.2,3.1,0.2,4.5c1.1-2.9,3.9-5.1,8.3-5.1v6.8
				c-5.2-0.1-8.3,1.3-8.3,8.3v11.2h-7.1V531.1z"/>
			<path class="st6" d="M1682,513.5h7.1v6.4h-7.1V513.5z M1682,524.1h7.1v25.8h-7.1V524.1z"/>
			<path class="st6" d="M1700.8,542.1c0.5,2.1,2.2,3.2,4.9,3.2c2.6,0,3.6-0.9,3.6-2.5c0-1.7-1.1-2.3-4.8-3.2
				c-8.4-2.1-9.8-4.7-9.8-8.3c0-3.8,2.7-7.8,10.5-7.8c7.8,0,10.5,4.3,10.7,7.8h-6.8c-0.2-1-0.9-2.8-4.2-2.8c-2.4,0-3.1,1-3.1,2.2
				c0,1.3,0.8,1.9,5,2.9c8.6,2,9.8,4.9,9.8,8.7c0,4.3-3.2,8.2-11.1,8.2c-7.8,0-11.1-3.8-11.6-8.3H1700.8z"/>
			<path class="st6" d="M1718.7,524.1h4v-7h7.1v7h5v5.4h-5v12.7c0,2,0.6,2.7,2.7,2.7c0.4,0,1.1,0,1.6-0.1v4.9
				c-1.4,0.5-3.4,0.5-4.8,0.5c-5,0-6.7-2.7-6.7-7.2v-13.6h-4V524.1z"/>
			<path class="st6" d="M1763.3,536.9c0,7.8-4.7,13.5-12.8,13.5c-8,0-12.7-5.7-12.7-13.4c0-8,4.8-13.6,13-13.6
				C1758.4,523.5,1763.3,528.8,1763.3,536.9z M1745,536.9c0,5,2.1,7.9,5.6,7.9c3.5,0,5.4-2.9,5.4-7.9c0-5.4-2-7.9-5.5-7.9
				C1747.2,529,1745,531.5,1745,536.9z"/>
			<path class="st6" d="M1775.3,547.6v12.2h-7.1v-29.4c0-2.1,0-4.1,0-6.2h6.9c0.1,0.7,0.2,2.3,0.2,3.2c1.1-1.9,3.4-3.8,7.5-3.8
				c5.8,0,10.3,4.8,10.3,12.8c0,9.1-5,14.1-11.2,14.1C1778.2,550.4,1776.3,549.1,1775.3,547.6z M1785.8,536.6c0-4.7-1.9-7.4-5.3-7.4
				c-4.1,0-5.5,2.6-5.5,7.8c0,4.9,1.3,7.8,5.2,7.8C1784,544.8,1785.8,541.8,1785.8,536.6z"/>
			<path class="st6" d="M1805.1,513.5v13.6c1.1-1.7,3.2-3.6,7.4-3.6c4.8,0,8.6,2.8,8.6,9.8v16.5h-7.1v-15.5c0-3.4-1.2-5.1-4.2-5.1
				c-4,0-4.7,2.9-4.7,6.9v13.7h-7.1v-36.3H1805.1z"/>
			<path class="st6" d="M1833.2,538.5c0,3.2,1.6,6.4,5.2,6.4c3,0,3.8-1.2,4.5-2.8h7.1c-0.9,3.2-3.7,8.3-11.8,8.3
				c-8.5,0-12.2-6.3-12.2-13.1c0-8.1,4.1-13.9,12.4-13.9c8.9,0,11.9,6.4,11.9,12.8c0,0.9,0,1.4-0.1,2.2H1833.2z M1843.2,534.1
				c0-3-1.2-5.5-4.7-5.5c-3.4,0-4.8,2.4-5.1,5.5H1843.2z"/>
			<path class="st11" d="M1898,549.8h-5.4c-0.3-1.1-0.5-2.2-0.6-3.4c-1.9,2.6-5.3,4-10,4c-10,0-15.5-7.5-15.5-17.3
				c0-10.3,6-18.1,16.8-18.1c8.8,0,14,5,14.9,10.8h-7.4c-0.7-2.3-2.5-5-7.5-5c-7,0-9.1,5.9-9.1,11.9c0,5.9,2.3,11.7,9.1,11.7
				c6.3,0,7.5-4.4,7.5-7.5v-0.3h-7.5v-6.1h14.8V549.8z"/>
			<path class="st11" d="M1937.1,532.6c0,9.6-5.7,17.8-16.9,17.8c-10.8,0-16.4-7.8-16.4-17.7c0-10,6.2-17.7,16.9-17.7
				C1930.7,515,1937.1,522,1937.1,532.6z M1911.4,532.5c0,6.7,2.9,11.8,9,11.8c6.6,0,8.9-5.5,8.9-11.6c0-6.5-2.7-11.6-9.1-11.6
				C1914.2,521.1,1911.4,525.8,1911.4,532.5z"/>
			<path class="st11" d="M1943.6,549.8v-34.3h9.2c4.3,7.7,12.2,21.6,13.8,25.3h0.1c-0.4-3.6-0.4-9.5-0.4-15.2v-10.2h6.7v34.3h-8.7
				c-3.7-6.7-12.5-22.7-14.2-26.6h-0.1c0.2,3,0.3,10.1,0.3,16.2v10.4H1943.6z"/>
			<path class="st11" d="M2010.3,539.3c-1.4,6.4-6.2,11.1-14.8,11.1c-10.9,0-16-7.7-16-17.5c0-9.4,5.3-17.8,16.4-17.8
				c9.1,0,13.6,5.4,14.4,11.1h-7.4c-0.7-2.6-2.6-5.3-7.2-5.3c-6.1,0-8.5,5.5-8.5,11.8c0,5.8,2.1,11.9,8.7,11.9c4.8,0,6.4-3.2,7-5.2
				H2010.3z"/>
			<path class="st11" d="M2023,541.9l-2.7,7.9h-7.3l11.7-34.3h9.3l12.2,34.3h-7.8l-2.8-7.9H2023z M2034,535.8
				c-2.4-7.2-4-11.9-4.8-15h0c-0.8,3.4-2.6,8.8-4.5,15H2034z"/>
			<path class="st11" d="M2050.9,515.5h7.4v28.2h17.1l-0.8,6.1h-23.7V515.5z"/>
			<path class="st11" d="M2088.1,549.8l-12.1-34.3h8l5.1,15.9c1.5,4.8,2.7,8.9,3.5,12.4h0.1c0.7-3.2,2-7.4,3.7-12.3l5.4-16h7.6
				l-12.4,34.3H2088.1z"/>
			<path class="st11" d="M2137,535h-16.4v8.7h18.1l-0.9,6.1h-24.4v-34.3h24.3v6.1h-17.1v7.4h16.4V535z"/>
			<path class="st11" d="M2149.2,539.8c0.8,3.4,3.3,5,7.2,5c4,0,5.7-1.6,5.7-4.1c0-2.8-1.7-4-7.5-5.4c-9.3-2.2-11.7-5.6-11.7-10.2
				c0-6,4.5-10,12.6-10c9.1,0,12.7,4.9,13.2,9.9h-7.5c-0.4-2.1-1.5-4.4-6-4.4c-3,0-4.8,1.2-4.8,3.7c0,2.4,1.5,3.4,7,4.6
				c10,2.4,12.2,6.1,12.2,10.9c0,6.3-4.7,10.6-13.8,10.6c-8.7,0-13.3-4.3-14.1-10.5H2149.2z"/>
		</g>
	</g>
	<g>
		<g>
			<path class="st11" d="M1598,693.1c0.5-3.4,2.9-6.6,8-6.6c5.2,0,7.6,3.4,7.6,6.8c0,3.4-2,5.1-3.8,5.7v0.1c2.9,0.9,5.1,3.1,5.1,7.1
				c0,4.6-2.9,8.5-9,8.5c-5.6,0-8.3-3.6-8.8-7.3h2.2c0.7,2.8,2.9,5.3,6.8,5.3c4.7,0,6.5-3.2,6.5-6.5c0-4.4-2.9-6.1-6.9-6.1h-1.6
				v-1.9h1.3c4.1,0,6-1.7,6-5c0-2.9-2-4.9-5.5-4.9c-3.6,0-5.2,1.9-5.8,4.6H1598z"/>
			<path class="st11" d="M1636,708.2c-1,3.7-3.4,6.6-8,6.6c-5.2,0-8.9-3.9-8.9-10.8c0-5.7,3-11,9.1-11c5.3,0,7.4,3.7,7.8,6.6h-2.1
				c-0.6-2.4-2.2-4.7-5.7-4.7c-4.4,0-6.9,3.7-6.9,8.9c0,4.9,2.3,8.9,6.7,8.9c3,0,4.9-1.5,5.9-4.6H1636z"/>
			<path class="st11" d="M1640.8,708.5c0.7,2.7,2.6,4.3,5.9,4.3c3.7,0,5.2-1.7,5.2-4c0-2.4-1-3.5-5.6-4.6c-5.4-1.3-6.7-2.9-6.7-5.6
				c0-2.9,2.2-5.5,6.8-5.5s6.9,2.9,7.3,5.8h-2.1c-0.4-1.7-1.7-3.9-5.3-3.9c-3.6,0-4.6,1.8-4.6,3.4c0,1.9,1,2.9,5.1,3.9
				c5.9,1.4,7.3,3.3,7.3,6.4c0,3.8-3.1,6.1-7.4,6.1c-4.7,0-7.4-2.5-8-6.2H1640.8z"/>
			<path class="st11" d="M1659.2,683.7h2.1v4h-2.1V683.7z M1659.2,693.5h2.1v20.7h-2.1V693.5z"/>
			<path class="st11" d="M1693.7,718.7c-2.1,1.5-5.4,2.8-10.3,2.8c-9.3,0-15.7-6.3-15.7-16.5c0-10.1,6.7-18.3,17.7-18.3
				c8.3,0,15.1,5.3,15.1,14.4c0,7.6-3.9,12.1-8.8,12.1c-2.3,0-3.9-1-3.7-3.7c-1.4,2.3-3.2,3.7-6.1,3.7c-3.2,0-5.8-2.4-5.8-7.3
				c0-6.4,3.7-11.3,8.5-11.3c3.8,0,5,2.3,5.3,3.7l0.8-3.3h2L1690,707c-0.7,3.1,0.3,4.1,1.9,4.1c3.7,0,6.2-3.9,6.2-9.9
				c0-7.6-5.2-12.5-12.9-12.5c-9.4,0-15.1,7-15.2,16.3c0,8.3,5.2,14.4,13.5,14.4c3.4,0,6.7-0.7,9.5-2.5L1693.7,718.7z M1678.1,705.6
				c0,3.6,1.5,5.4,3.9,5.4c3,0,5.2-1.9,6.4-7.1c1.1-4.8-0.3-7.4-4-7.4C1680.4,696.5,1678.1,700.7,1678.1,705.6z"/>
			<path class="st11" d="M1723.5,703.8c0,5.8-3.2,10.9-9.4,10.9c-5.6,0-9.1-4.6-9.1-10.9c0-5.9,3.3-10.9,9.3-10.9
				C1719.9,693,1723.5,697.3,1723.5,703.8z M1707.2,703.9c0,4.9,2.7,8.9,7.1,8.9c4.5,0,7-3.7,7-8.9c0-4.9-2.5-8.9-7.1-8.9
				C1709.5,695,1707.2,698.9,1707.2,703.9z"/>
			<path class="st11" d="M1728.6,699.2c0-3.5,0-5,0-5.6h2c0,0.7,0.1,2,0.1,4.6c1.2-3.1,3.9-5,7.2-5.1v2.2c-4.3,0.3-7.2,3.3-7.2,8.2
				v10.8h-2.1V699.2z"/>
			<path class="st11" d="M1756.3,710.3c0,1.8,0.2,3.3,0.3,3.9h-2c-0.2-0.5-0.3-1.4-0.4-3.2c-0.7,1.5-2.5,3.7-6.8,3.7
				c-4.8,0-6.9-3.1-6.9-6.2c0-4.6,3.5-6.6,9.8-6.6c1.7,0,3.1,0,3.9,0v-2.1c0-2.1-0.6-4.9-5.4-4.9c-4.2,0-4.8,2.2-5.3,3.9h-2.1
				c0.2-2.3,1.7-5.8,7.4-5.8c4.7,0,7.4,2,7.4,6.6V710.3z M1754.3,703.7c-0.8,0-2.7,0-4.1,0c-4.6,0-7.5,1.2-7.5,4.8
				c0,2.6,1.9,4.4,4.8,4.4c5.9,0,6.8-3.9,6.8-8.4V703.7z"/>
			<path class="st11" d="M1763.2,698.7c0-1.8,0-3.6,0-5.2h2c0.1,0.7,0.1,3.4,0.1,3.9c0.9-2.1,2.6-4.4,6.9-4.4c3.7,0,7,2.1,7,7.8
				v13.4h-2.1v-13.1c0-3.7-1.5-6.1-5.1-6.1c-4.9,0-6.6,4.1-6.6,8.6v10.6h-2.1V698.7z"/>
			<path class="st11" d="M1801.7,712.9c0,6.6-2.9,10.1-9,10.1c-5.4,0-7.6-3-8.1-6.2h2.1c0.7,2.9,3.1,4.2,6.1,4.2
				c5.4,0,6.9-3.5,6.9-8.8v-2.2c-1.1,2.7-3.2,4.1-6.9,4.1c-4.9,0-8.6-3.9-8.6-10.4c0-7,4-10.9,8.9-10.9c4.2,0,6.1,2,6.6,3.7
				c0-1.2,0.1-2.7,0.1-3.2h2c0,0.7-0.1,4-0.1,6V712.9z M1786.4,703.8c0,4.9,2.6,8.5,6.6,8.5c5.2,0,6.8-3.4,6.8-8.8
				c0-5.5-1.7-8.5-6.6-8.5C1788.4,695,1786.4,699.1,1786.4,703.8z"/>
			<path class="st11" d="M1809,704.1c0,5.4,2.7,8.7,6.7,8.7c3.9,0,5.2-2.2,6-3.9h2.1c-0.9,2.7-3.1,5.8-8.2,5.8
				c-6.3,0-8.8-5.4-8.8-10.7c0-5.9,2.9-11,9-11c6.4,0,8.4,5.5,8.4,9.4c0,0.6,0,1.2,0,1.7H1809z M1822.2,702.3c0-4.1-2.3-7.3-6.3-7.3
				c-4.3,0-6.2,3-6.7,7.3H1822.2z"/>
			<path class="st11" d="M1828.5,714.3v-5.4h2.1v5.4H1828.5z"/>
			<path class="st11" d="M1851.7,708.2c-1,3.7-3.4,6.6-8,6.6c-5.2,0-8.9-3.9-8.9-10.8c0-5.7,3-11,9.1-11c5.3,0,7.4,3.7,7.8,6.6h-2.1
				c-0.6-2.4-2.2-4.7-5.7-4.7c-4.4,0-6.9,3.7-6.9,8.9c0,4.9,2.3,8.9,6.7,8.9c3,0,4.9-1.5,5.9-4.6H1851.7z"/>
			<path class="st11" d="M1873.3,703.8c0,5.8-3.2,10.9-9.4,10.9c-5.6,0-9.1-4.6-9.1-10.9c0-5.9,3.3-10.9,9.3-10.9
				C1869.7,693,1873.3,697.3,1873.3,703.8z M1857.1,703.9c0,4.9,2.7,8.9,7.1,8.9c4.5,0,7-3.7,7-8.9c0-4.9-2.5-8.9-7.1-8.9
				C1859.3,695,1857.1,698.9,1857.1,703.9z"/>
			<path class="st11" d="M1878.5,698.9c0-1.8,0-3.7,0-5.4h2c0,0.7,0.1,2.5,0.1,3.7c0.9-2.1,2.8-4.2,6.2-4.2c2.9,0,5.2,1.5,6,4.1
				c1-2.2,3.1-4.1,6.8-4.1c3.2,0,6.5,1.8,6.5,7.6v13.6h-2.1v-13.4c0-2.8-1-5.8-4.9-5.8c-4,0-5.8,3.2-5.8,7.3v11.9h-2v-13.4
				c0-3-0.9-5.8-4.7-5.8c-4,0-6,3.6-6,7.8v11.4h-2.1V698.9z"/>
		</g>
	</g>
	<g>
		<g>
			<path class="st11" d="M1724.1,597.4V611h-2.3v-29h10.4c5.7,0,8.8,3.1,8.8,7.6c0,3.7-2.2,6.1-5.4,6.8c3,0.7,5,2.7,5,7.6v1.1
				c0,2-0.2,4.8,0.4,5.9h-2.3c-0.5-1.2-0.4-3.6-0.4-6.1v-0.7c0-4.8-1.4-6.8-7-6.8H1724.1z M1724.1,595.3h7c5.1,0,7.5-1.9,7.5-5.7
				c0-3.6-2.3-5.6-6.8-5.6h-7.6V595.3z"/>
			<path class="st11" d="M1747.6,600.9c0,5.4,2.7,8.7,6.7,8.7c3.9,0,5.2-2.2,6-3.9h2.1c-0.9,2.7-3.1,5.9-8.2,5.9
				c-6.3,0-8.8-5.4-8.8-10.7c0-5.9,2.9-11,9-11c6.4,0,8.4,5.5,8.4,9.4c0,0.6,0,1.2,0,1.7H1747.6z M1760.8,599c0-4.1-2.3-7.3-6.3-7.3
				c-4.3,0-6.2,3-6.7,7.3H1760.8z"/>
			<path class="st11" d="M1768,605.3c0.7,2.7,2.6,4.3,5.9,4.3c3.7,0,5.2-1.7,5.2-4c0-2.4-1-3.5-5.6-4.6c-5.4-1.3-6.7-2.9-6.7-5.6
				c0-2.9,2.2-5.5,6.8-5.5s6.9,2.9,7.3,5.8h-2.1c-0.4-1.7-1.7-3.9-5.3-3.9c-3.6,0-4.6,1.8-4.6,3.4c0,1.9,1,2.9,5.1,3.9
				c5.9,1.4,7.3,3.3,7.3,6.4c0,3.8-3.1,6.1-7.4,6.1c-4.7,0-7.4-2.5-8-6.2H1768z"/>
			<path class="st11" d="M1788.5,607.9v11.4h-2.1v-23.9c0-1.7,0-3.5,0-5.1h2c0.1,0.8,0.1,2,0.1,3.7c1.3-2.5,3.6-4.2,7.3-4.2
				c4.9,0,8.3,4.1,8.3,10.3c0,7.5-4,11.4-9,11.4C1791.4,611.5,1789.5,609.9,1788.5,607.9z M1801.9,600.2c0-4.8-2.3-8.4-6.4-8.4
				c-5,0-7.1,3.2-7.1,8.8c0,5.6,1.6,9,6.8,9C1799.5,609.5,1801.9,605.9,1801.9,600.2z"/>
			<path class="st11" d="M1826.1,600.6c0,5.8-3.2,10.9-9.4,10.9c-5.6,0-9.1-4.6-9.1-10.9c0-5.9,3.3-10.9,9.3-10.9
				C1822.4,589.7,1826.1,594.1,1826.1,600.6z M1809.8,600.6c0,4.9,2.7,8.9,7.1,8.9c4.5,0,7-3.7,7-8.9c0-4.9-2.5-8.9-7.1-8.9
				C1812.1,591.7,1809.8,595.6,1809.8,600.6z"/>
			<path class="st11" d="M1831.2,595.5c0-1.8,0-3.6,0-5.2h2c0.1,0.7,0.1,3.4,0.1,3.9c0.9-2.1,2.6-4.4,6.9-4.4c3.7,0,7,2.1,7,7.8V611
				h-2.1v-13.1c0-3.7-1.5-6.1-5.1-6.1c-4.9,0-6.6,4.1-6.6,8.6V611h-2.1V595.5z"/>
			<path class="st11" d="M1854,605.3c0.7,2.7,2.6,4.3,5.9,4.3c3.7,0,5.2-1.7,5.2-4c0-2.4-1-3.5-5.6-4.6c-5.4-1.3-6.7-2.9-6.7-5.6
				c0-2.9,2.2-5.5,6.8-5.5s6.9,2.9,7.3,5.8h-2.1c-0.4-1.7-1.7-3.9-5.3-3.9c-3.6,0-4.6,1.8-4.6,3.4c0,1.9,1,2.9,5.1,3.9
				c5.9,1.4,7.3,3.3,7.3,6.4c0,3.8-3.1,6.1-7.4,6.1c-4.7,0-7.4-2.5-8-6.2H1854z"/>
			<path class="st11" d="M1886.6,607c0,1.8,0.2,3.3,0.3,3.9h-2c-0.2-0.5-0.3-1.4-0.4-3.2c-0.7,1.5-2.5,3.7-6.8,3.7
				c-4.8,0-6.9-3.1-6.9-6.2c0-4.6,3.5-6.6,9.8-6.6c1.7,0,3.1,0,3.9,0v-2.1c0-2.1-0.6-4.9-5.4-4.9c-4.2,0-4.8,2.2-5.3,3.9h-2.1
				c0.2-2.3,1.7-5.8,7.4-5.8c4.7,0,7.4,2,7.4,6.6V607z M1884.6,600.4c-0.8,0-2.7,0-4.1,0c-4.6,0-7.5,1.2-7.5,4.8
				c0,2.6,1.9,4.4,4.8,4.4c5.9,0,6.8-3.9,6.8-8.4V600.4z"/>
			<path class="st11" d="M1893.5,580.4h2.1v13.3c1-2.1,3-4,7.1-4c4.9,0,8.5,4,8.5,10.4c0,6.6-3.2,11.3-9,11.3
				c-3.5,0-5.5-1.4-6.6-3.8c0,1.3,0,2.7-0.1,3.3h-2c0-2.4,0-4.7,0-7.1V580.4z M1908.9,600.2c0-5.2-2.6-8.5-6.5-8.5c-5.2,0-7,3.5-7,9
				c0,4.9,1.6,8.9,6.8,8.9C1906.4,609.5,1908.9,606.1,1908.9,600.2z"/>
			<path class="st11" d="M1916.3,611v-30.6h2.1V611H1916.3z"/>
			<path class="st11" d="M1925.6,600.9c0,5.4,2.7,8.7,6.7,8.7c3.9,0,5.2-2.2,6-3.9h2.1c-0.9,2.7-3.1,5.9-8.2,5.9
				c-6.3,0-8.8-5.4-8.8-10.7c0-5.9,2.9-11,9-11c6.4,0,8.4,5.5,8.4,9.4c0,0.6,0,1.2,0,1.7H1925.6z M1938.8,599c0-4.1-2.3-7.3-6.3-7.3
				c-4.3,0-6.2,3-6.7,7.3H1938.8z"/>
			<path class="st11" d="M1979.3,603.2c-1.4,4.6-4.8,8.1-10.9,8.1c-8.3,0-12.7-6.6-12.7-14.8c0-7.8,4.3-15,12.8-15
				c6.3,0,10,3.5,10.9,8.3h-2.2c-1.3-3.8-3.8-6.3-8.8-6.3c-7.2,0-10.2,6.6-10.2,12.9c0,6.2,3,12.8,10.4,12.8c4.7,0,7.1-2.4,8.6-6
				H1979.3z"/>
			<path class="st11" d="M2001.3,600.6c0,5.8-3.2,10.9-9.4,10.9c-5.6,0-9.1-4.6-9.1-10.9c0-5.9,3.3-10.9,9.3-10.9
				C1997.7,589.7,2001.3,594.1,2001.3,600.6z M1985.1,600.6c0,4.9,2.7,8.9,7.1,8.9c4.5,0,7-3.7,7-8.9c0-4.9-2.5-8.9-7.1-8.9
				C1987.3,591.7,1985.1,595.6,1985.1,600.6z"/>
			<path class="st11" d="M2006.5,595.6c0-1.8,0-3.7,0-5.4h2c0,0.7,0.1,2.5,0.1,3.7c0.9-2.1,2.8-4.2,6.2-4.2c2.9,0,5.2,1.5,6,4.1
				c1-2.2,3.1-4.1,6.8-4.1c3.2,0,6.5,1.8,6.5,7.6V611h-2.1v-13.4c0-2.8-1-5.8-4.9-5.8c-4,0-5.8,3.2-5.8,7.3V611h-2v-13.4
				c0-3-0.9-5.9-4.7-5.9c-4,0-6,3.6-6,7.8V611h-2.1V595.6z"/>
			<path class="st11" d="M2040.9,595.6c0-1.8,0-3.7,0-5.4h2c0,0.7,0.1,2.5,0.1,3.7c0.9-2.1,2.8-4.2,6.2-4.2c2.9,0,5.2,1.5,6,4.1
				c1-2.2,3.1-4.1,6.8-4.1c3.2,0,6.5,1.8,6.5,7.6V611h-2.1v-13.4c0-2.8-1-5.8-4.9-5.8c-4,0-5.8,3.2-5.8,7.3V611h-2v-13.4
				c0-3-0.9-5.9-4.7-5.9c-4,0-6,3.6-6,7.8V611h-2.1V595.6z"/>
			<path class="st11" d="M2075.7,600.9c0,5.4,2.7,8.7,6.7,8.7c3.9,0,5.2-2.2,6-3.9h2.1c-0.9,2.7-3.1,5.9-8.2,5.9
				c-6.3,0-8.8-5.4-8.8-10.7c0-5.9,2.9-11,9-11c6.4,0,8.4,5.5,8.4,9.4c0,0.6,0,1.2,0,1.7H2075.7z M2088.9,599c0-4.1-2.3-7.3-6.3-7.3
				c-4.3,0-6.2,3-6.7,7.3H2088.9z"/>
			<path class="st11" d="M2096.1,595.9c0-3.5,0-5,0-5.6h2c0,0.7,0.1,2,0.1,4.6c1.2-3.1,3.9-5,7.2-5.1v2.2c-4.3,0.3-7.2,3.3-7.2,8.2
				V611h-2.1V595.9z"/>
			<path class="st11" d="M2124.8,604.9c-1,3.7-3.4,6.6-8,6.6c-5.2,0-8.9-3.9-8.9-10.8c0-5.7,3-11,9.1-11c5.3,0,7.4,3.7,7.8,6.6h-2.1
				c-0.6-2.4-2.2-4.7-5.7-4.7c-4.4,0-6.9,3.7-6.9,8.9c0,4.9,2.3,8.9,6.7,8.9c3,0,4.9-1.5,5.9-4.6H2124.8z"/>
			<path class="st11" d="M2129.6,580.4h2.1v4h-2.1V580.4z M2129.6,590.2h2.1V611h-2.1V590.2z"/>
			<path class="st11" d="M2152.7,607c0,1.8,0.2,3.3,0.3,3.9h-2c-0.2-0.5-0.3-1.4-0.4-3.2c-0.7,1.5-2.5,3.7-6.8,3.7
				c-4.8,0-6.9-3.1-6.9-6.2c0-4.6,3.5-6.6,9.8-6.6c1.7,0,3.1,0,3.9,0v-2.1c0-2.1-0.6-4.9-5.4-4.9c-4.2,0-4.8,2.2-5.3,3.9h-2.1
				c0.2-2.3,1.7-5.8,7.4-5.8c4.7,0,7.4,2,7.4,6.6V607z M2150.7,600.4c-0.8,0-2.7,0-4.1,0c-4.6,0-7.5,1.2-7.5,4.8
				c0,2.6,1.9,4.4,4.8,4.4c5.9,0,6.8-3.9,6.8-8.4V600.4z"/>
			<path class="st11" d="M2159.6,611v-30.6h2.1V611H2159.6z"/>
		</g>
	</g>
	<linearGradient id="SVGID_1_" gradientUnits="userSpaceOnUse" x1="1206.5244" y1="970" x2="1206.5244" y2="312">
		<stop  offset="0" style="stop-color:#252525"/>
		<stop  offset="0.5" style="stop-color:#E69B17"/>
		<stop  offset="1" style="stop-color:#252525"/>
	</linearGradient>
	<rect x="1205.3" y="312" class="st13" width="2.5" height="658"/>
</g>
<g id="Calque_4">
	<g>
		<g>
			<polygon class="st6" points="809,533.6 809,502.8 716.9,502.8 716.9,533.6 747.6,533.6 747.6,748.6 716.9,748.6 716.9,779.3 
				809,779.3 809,748.6 778.3,748.6 778.3,533.6 			"/>
			<polygon class="st6" points="624.7,502.8 609.3,518.2 609.3,641.1 624.7,656.4 670.8,656.4 670.8,748.6 640.1,748.6 640.1,687.1 
				609.3,687.1 609.3,763.9 624.7,779.3 686.1,779.3 701.5,763.9 701.5,641.1 686.1,625.7 640.1,625.7 640.1,533.6 670.8,533.6 
				670.8,595 701.5,595 701.5,518.2 686.1,502.8 			"/>
			<polygon class="st6" points="517.2,502.8 501.8,518.2 501.8,763.9 517.2,779.3 578.6,779.3 594,763.9 594,687.1 563.3,687.1 
				563.3,748.6 532.6,748.6 532.6,533.6 563.3,533.6 563.3,595 594,595 594,518.2 578.6,502.8 			"/>
			<polygon class="st6" points="409.7,502.8 394.3,518.2 394.3,595 425,595 425,533.6 455.8,533.6 455.8,625.7 425,625.7 425,656.4 
				455.8,656.4 455.8,748.6 425,748.6 425,687.1 394.3,687.1 394.3,763.9 409.7,779.3 471.1,779.3 486.5,763.9 486.5,656.4 
				471.1,641.1 486.5,625.7 486.5,518.2 471.1,502.8 			"/>
		</g>
		<g>
			<polygon class="st14" points="471.1,518.2 471.1,641.1 486.5,625.7 486.5,518.2 471.1,502.8 			"/>
			<polygon class="st14" points="517.2,779.3 578.6,779.3 594,763.9 594,687.1 578.6,702.5 578.6,763.9 517.2,763.9 501.8,763.9 			
				"/>
			<polygon class="st14" points="624.7,656.4 670.8,656.4 686.1,641.1 624.7,641.1 609.3,641.1 			"/>
			<polygon class="st14" points="578.6,518.2 578.6,579.6 563.3,595 594,595 594,518.2 578.6,502.8 			"/>
			<polygon class="st14" points="686.1,518.2 686.1,579.6 670.8,595 701.5,595 701.5,518.2 686.1,502.8 			"/>
			<polygon class="st14" points="716.9,779.3 809,779.3 809,748.6 793.6,763.9 762.9,763.9 732.2,763.9 			"/>
			<polygon class="st14" points="425,656.4 455.8,656.4 471.1,641.1 440.4,641.1 			"/>
			<polygon class="st14" points="425,687.1 409.7,702.5 409.7,763.9 425,748.6 			"/>
			<polygon class="st14" points="409.7,763.9 394.3,763.9 409.7,779.3 471.1,779.3 486.5,763.9 486.5,656.4 471.1,641.1 
				471.1,763.9 			"/>
			<polygon class="st14" points="517.2,763.9 532.6,748.6 532.6,533.6 563.3,533.6 578.6,518.2 517.2,518.2 			"/>
			<polygon class="st14" points="624.7,641.1 640.1,625.7 640.1,533.6 670.8,533.6 686.1,518.2 624.7,518.2 			"/>
			<polygon class="st14" points="640.1,687.1 624.7,702.5 624.7,763.9 640.1,748.6 			"/>
			<polygon class="st14" points="624.7,763.9 609.3,763.9 624.7,779.3 686.1,779.3 701.5,763.9 701.5,641.1 686.1,625.7 
				686.1,641.1 686.1,763.9 			"/>
			<polygon class="st14" points="716.9,533.6 747.6,533.6 762.9,518.2 732.2,518.2 			"/>
			<polygon class="st14" points="778.3,533.6 809,533.6 809,502.8 793.6,518.2 762.9,518.2 762.9,763.9 778.3,748.6 			"/>
			<polygon class="st14" points="409.7,579.6 394.3,595 425,595 425,533.6 455.8,533.6 471.1,518.2 409.7,518.2 			"/>
		</g>
	</g>
	<rect x="394.3" y="471.1" class="st6" width="414.7" height="1.9"/>
	<rect x="394" y="808" class="st6" width="415" height="1.9"/>
</g>
<g id="Calque_9">
	<g class="st1">
		<g class="st2">
			<polygon class="st15" points="4596.2,545.7 4596.2,478.4 4394.4,478.4 4394.4,545.7 4461.7,545.7 4461.7,1016.6 4394.4,1016.6 
				4394.4,1083.9 4596.2,1083.9 4596.2,1016.6 4528.9,1016.6 4528.9,545.7 			"/>
			<polygon class="st15" points="4192.6,478.4 4158.9,512 4158.9,781.1 4192.6,814.8 4293.5,814.8 4293.5,1016.6 4226.2,1016.6 
				4226.2,882 4158.9,882 4158.9,1050.2 4192.6,1083.9 4327.1,1083.9 4360.8,1050.2 4360.8,781.1 4327.1,747.5 4226.2,747.5 
				4226.2,545.7 4293.5,545.7 4293.5,680.2 4360.8,680.2 4360.8,512 4327.1,478.4 			"/>
			<polygon class="st15" points="3957.1,478.4 3923.5,512 3923.5,1050.2 3957.1,1083.9 4091.7,1083.9 4125.3,1050.2 4125.3,882 
				4058,882 4058,1016.6 3990.7,1016.6 3990.7,545.7 4058,545.7 4058,680.2 4125.3,680.2 4125.3,512 4091.7,478.4 			"/>
			<polygon class="st15" points="3721.6,478.4 3688,512 3688,680.2 3755.3,680.2 3755.3,545.7 3822.6,545.7 3822.6,747.5 
				3755.3,747.5 3755.3,814.8 3822.6,814.8 3822.6,1016.6 3755.3,1016.6 3755.3,882 3688,882 3688,1050.2 3721.6,1083.9 
				3856.2,1083.9 3889.8,1050.2 3889.8,814.8 3856.2,781.1 3889.8,747.5 3889.8,512 3856.2,478.4 			"/>
		</g>
		<g class="st2">
			<polygon class="st16" points="3856.2,512 3856.2,781.1 3889.8,747.5 3889.8,512 3856.2,478.4 			"/>
			<polygon class="st16" points="3957.1,1083.9 4091.7,1083.9 4125.3,1050.2 4125.3,882 4091.7,915.7 4091.7,1050.2 3957.1,1050.2 
				3923.5,1050.2 			"/>
			<polygon class="st16" points="4192.6,814.8 4293.5,814.8 4327.1,781.1 4192.6,781.1 4158.9,781.1 			"/>
			<polygon class="st16" points="4091.7,512 4091.7,646.6 4058,680.2 4125.3,680.2 4125.3,512 4091.7,478.4 			"/>
			<polygon class="st16" points="4327.1,512 4327.1,646.6 4293.5,680.2 4360.8,680.2 4360.8,512 4327.1,478.4 			"/>
			<polygon class="st16" points="4394.4,1083.9 4596.2,1083.9 4596.2,1016.6 4562.6,1050.2 4495.3,1050.2 4428,1050.2 			"/>
			<polygon class="st16" points="3755.3,814.8 3822.6,814.8 3856.2,781.1 3788.9,781.1 			"/>
			<polygon class="st16" points="3755.3,882 3721.6,915.7 3721.6,1050.2 3755.3,1016.6 			"/>
			<polygon class="st16" points="3721.6,1050.2 3688,1050.2 3721.6,1083.9 3856.2,1083.9 3889.8,1050.2 3889.8,814.8 3856.2,781.1 
				3856.2,1050.2 			"/>
			<polygon class="st16" points="3957.1,1050.2 3990.7,1016.6 3990.7,545.7 4058,545.7 4091.7,512 3957.1,512 			"/>
			<polygon class="st16" points="4192.6,781.1 4226.2,747.5 4226.2,545.7 4293.5,545.7 4327.1,512 4192.6,512 			"/>
			<polygon class="st16" points="4226.2,882 4192.6,915.7 4192.6,1050.2 4226.2,1016.6 			"/>
			<polygon class="st16" points="4192.6,1050.2 4158.9,1050.2 4192.6,1083.9 4327.1,1083.9 4360.8,1050.2 4360.8,781.1 
				4327.1,747.5 4327.1,781.1 4327.1,1050.2 			"/>
			<polygon class="st16" points="4394.4,545.7 4461.7,545.7 4495.3,512 4428,512 			"/>
			<polygon class="st16" points="4528.9,545.7 4596.2,545.7 4596.2,478.4 4562.6,512 4495.3,512 4495.3,1050.2 4528.9,1016.6 			"/>
			<polygon class="st16" points="3721.6,646.6 3688,680.2 3755.3,680.2 3755.3,545.7 3822.6,545.7 3856.2,512 3721.6,512 			"/>
		</g>
	</g>
</g>
</svg>
