<?xml version="1.0" encoding="utf-8"?>
<!-- Generator: Adobe Illustrator 24.0.0, SVG Export Plug-In . SVG Version: 6.00 Build 0)  -->
<svg version="1.1" xmlns="http://www.w3.org/2000/svg" xmlns:xlink="http://www.w3.org/1999/xlink" x="0px" y="0px"
	 viewBox="0 0 2409.4 1559.1" style="enable-background:new 0 0 2409.4 1559.1;" xml:space="preserve">
<style type="text/css">
	.st0{display:none;fill:none;stroke:#0071BC;stroke-width:5;stroke-miterlimit:10;}
	.st1{display:none;}
	.st2{display:inline;}
	.st3{fill:#9C9B9B;}
	.st4{fill:#6F6F6E;}
	.st5{fill:#1A1A1A;}
	.st6{fill:#1D1D1B;stroke:#0071BC;stroke-width:2;stroke-miterlimit:10;}
	.st7{fill:#1A1A1A;stroke:#0071BC;stroke-width:2;stroke-miterlimit:10;}
	.st8{fill:#0071BC;}
	.st9{fill:#333333;}
</style>
<g id="Calque_3">
</g>
<g id="Calque_10">
</g>
<g id="Calque_1">
	<g id="Calque_11">
	</g>
</g>
<g id="Calque_2">
</g>
<g id="Calque_5">
</g>
<g id="Calque_4">
	<line class="st0" x1="1543" y1="629" x2="1543" y2="234"/>
	<line class="st0" x1="1540.5" y1="1280.5" x2="1540.5" y2="901"/>
	<line class="st0" x1="1540.5" y1="234.5" x2="1735.5" y2="234.5"/>
	<line class="st0" x1="1538" y1="1279.5" x2="1733" y2="1279.5"/>
</g>
<g id="Calque_12">
	<g class="st1">
		<g class="st2">
			<polygon class="st3" points="612.2,315.9 612.2,278.7 500.4,278.7 500.4,315.9 537.6,315.9 537.6,576.7 500.4,576.7 500.4,614 
				612.2,614 612.2,576.7 574.9,576.7 574.9,315.9 			"/>
			<polygon class="st3" points="388.6,278.7 370,297.3 370,446.3 388.6,465 444.5,465 444.5,576.7 407.2,576.7 407.2,502.2 
				370,502.2 370,595.4 388.6,614 463.1,614 481.8,595.4 481.8,446.3 463.1,427.7 407.2,427.7 407.2,315.9 444.5,315.9 444.5,390.4 
				481.8,390.4 481.8,297.3 463.1,278.7 			"/>
			<polygon class="st3" points="258.2,278.7 239.6,297.3 239.6,595.4 258.2,614 332.7,614 351.4,595.4 351.4,502.2 314.1,502.2 
				314.1,576.7 276.8,576.7 276.8,315.9 314.1,315.9 314.1,390.4 351.4,390.4 351.4,297.3 332.7,278.7 			"/>
			<polygon class="st3" points="127.8,278.7 109.2,297.3 109.2,390.4 146.4,390.4 146.4,315.9 183.7,315.9 183.7,427.7 146.4,427.7 
				146.4,465 183.7,465 183.7,576.7 146.4,576.7 146.4,502.2 109.2,502.2 109.2,595.4 127.8,614 202.3,614 220.9,595.4 220.9,465 
				202.3,446.3 220.9,427.7 220.9,297.3 202.3,278.7 			"/>
		</g>
		<g class="st2">
			<polygon class="st4" points="202.3,297.3 202.3,446.3 220.9,427.7 220.9,297.3 202.3,278.7 			"/>
			<polygon class="st4" points="258.2,614 332.7,614 351.4,595.4 351.4,502.2 332.7,520.9 332.7,595.4 258.2,595.4 239.6,595.4 			
				"/>
			<polygon class="st4" points="388.6,465 444.5,465 463.1,446.3 388.6,446.3 370,446.3 			"/>
			<polygon class="st4" points="332.7,297.3 332.7,371.8 314.1,390.4 351.4,390.4 351.4,297.3 332.7,278.7 			"/>
			<polygon class="st4" points="463.1,297.3 463.1,371.8 444.5,390.4 481.8,390.4 481.8,297.3 463.1,278.7 			"/>
			<polygon class="st4" points="500.4,614 612.2,614 612.2,576.7 593.5,595.4 556.3,595.4 519,595.4 			"/>
			<polygon class="st4" points="146.4,465 183.7,465 202.3,446.3 165.1,446.3 			"/>
			<polygon class="st4" points="146.4,502.2 127.8,520.9 127.8,595.4 146.4,576.7 			"/>
			<polygon class="st4" points="127.8,595.4 109.2,595.4 127.8,614 202.3,614 220.9,595.4 220.9,465 202.3,446.3 202.3,595.4 			"/>
			<polygon class="st4" points="258.2,595.4 276.8,576.7 276.8,315.9 314.1,315.9 332.7,297.3 258.2,297.3 			"/>
			<polygon class="st4" points="388.6,446.3 407.2,427.7 407.2,315.9 444.5,315.9 463.1,297.3 388.6,297.3 			"/>
			<polygon class="st4" points="407.2,502.2 388.6,520.9 388.6,595.4 407.2,576.7 			"/>
			<polygon class="st4" points="388.6,595.4 370,595.4 388.6,614 463.1,614 481.8,595.4 481.8,446.3 463.1,427.7 463.1,446.3 
				463.1,595.4 			"/>
			<polygon class="st4" points="500.4,315.9 537.6,315.9 556.3,297.3 519,297.3 			"/>
			<polygon class="st4" points="574.9,315.9 612.2,315.9 612.2,278.7 593.5,297.3 556.3,297.3 556.3,595.4 574.9,576.7 			"/>
			<polygon class="st4" points="127.8,371.8 109.2,390.4 146.4,390.4 146.4,315.9 183.7,315.9 202.3,297.3 127.8,297.3 			"/>
		</g>
	</g>
</g>
<g id="Calque_6_-_copie_2">
</g>
<g id="Calque_6_-_copie">
</g>
<g id="Calque_7">
</g>
<g id="Calque_13">
	<rect x="-24" y="-36" class="st5" width="2458" height="1619"/>
	<g>
		<g>
			<polygon class="st3" points="1686,518.1 1686,446.8 1472.1,446.8 1472.1,518.1 1543.4,518.1 1543.4,1017.1 1472.1,1017.1 
				1472.1,1088.4 1686,1088.4 1686,1017.1 1614.7,1017.1 1614.7,518.1 			"/>
			<polygon class="st3" points="1258.2,446.8 1222.6,482.4 1222.6,767.6 1258.2,803.2 1365.2,803.2 1365.2,1017.1 1293.9,1017.1 
				1293.9,874.5 1222.6,874.5 1222.6,1052.7 1258.2,1088.4 1400.8,1088.4 1436.5,1052.7 1436.5,767.6 1400.8,731.9 1293.9,731.9 
				1293.9,518.1 1365.2,518.1 1365.2,660.7 1436.5,660.7 1436.5,482.4 1400.8,446.8 			"/>
			<polygon class="st3" points="1008.7,446.8 973.1,482.4 973.1,1052.7 1008.7,1088.4 1151.3,1088.4 1187,1052.7 1187,874.5 
				1115.7,874.5 1115.7,1017.1 1044.4,1017.1 1044.4,518.1 1115.7,518.1 1115.7,660.7 1187,660.7 1187,482.4 1151.3,446.8 			"/>
			<polygon class="st3" points="759.2,446.8 723.6,482.4 723.6,660.7 794.9,660.7 794.9,518.1 866.2,518.1 866.2,731.9 794.9,731.9 
				794.9,803.2 866.2,803.2 866.2,1017.1 794.9,1017.1 794.9,874.5 723.6,874.5 723.6,1052.7 759.2,1088.4 901.8,1088.4 
				937.5,1052.7 937.5,803.2 901.8,767.6 937.5,731.9 937.5,482.4 901.8,446.8 			"/>
		</g>
		<g>
			<polygon class="st4" points="901.8,482.4 901.8,767.6 937.5,731.9 937.5,482.4 901.8,446.8 			"/>
			<polygon class="st4" points="1008.7,1088.4 1151.3,1088.4 1187,1052.7 1187,874.5 1151.3,910.2 1151.3,1052.7 1008.7,1052.7 
				973.1,1052.7 			"/>
			<polygon class="st4" points="1258.2,803.2 1365.2,803.2 1400.8,767.6 1258.2,767.6 1222.6,767.6 			"/>
			<polygon class="st4" points="1151.3,482.4 1151.3,625 1115.7,660.7 1187,660.7 1187,482.4 1151.3,446.8 			"/>
			<polygon class="st4" points="1400.8,482.4 1400.8,625 1365.2,660.7 1436.5,660.7 1436.5,482.4 1400.8,446.8 			"/>
			<polygon class="st4" points="1472.1,1088.4 1686,1088.4 1686,1017.1 1650.3,1052.7 1579,1052.7 1507.7,1052.7 			"/>
			<polygon class="st4" points="794.9,803.2 866.2,803.2 901.8,767.6 830.5,767.6 			"/>
			<polygon class="st4" points="794.9,874.5 759.2,910.2 759.2,1052.7 794.9,1017.1 			"/>
			<polygon class="st4" points="759.2,1052.7 723.6,1052.7 759.2,1088.4 901.8,1088.4 937.5,1052.7 937.5,803.2 901.8,767.6 
				901.8,1052.7 			"/>
			<polygon class="st4" points="1008.7,1052.7 1044.4,1017.1 1044.4,518.1 1115.7,518.1 1151.3,482.4 1008.7,482.4 			"/>
			<polygon class="st4" points="1258.2,767.6 1293.9,731.9 1293.9,518.1 1365.2,518.1 1400.8,482.4 1258.2,482.4 			"/>
			<polygon class="st4" points="1293.9,874.5 1258.2,910.2 1258.2,1052.7 1293.9,1017.1 			"/>
			<polygon class="st4" points="1258.2,1052.7 1222.6,1052.7 1258.2,1088.4 1400.8,1088.4 1436.5,1052.7 1436.5,767.6 1400.8,731.9 
				1400.8,767.6 1400.8,1052.7 			"/>
			<polygon class="st4" points="1472.1,518.1 1543.4,518.1 1579,482.4 1507.7,482.4 			"/>
			<polygon class="st4" points="1614.7,518.1 1686,518.1 1686,446.8 1650.3,482.4 1579,482.4 1579,1052.7 1614.7,1017.1 			"/>
			<polygon class="st4" points="759.2,625 723.6,660.7 794.9,660.7 794.9,518.1 866.2,518.1 901.8,482.4 759.2,482.4 			"/>
		</g>
	</g>
	<g>
		<g>
			<g>
				<path class="st6" d="M859.4,1208.4c-2.7,0-4.9-0.8-6.6-2.5c-1.7-1.7-2.5-3.9-2.5-6.6v-5h6.6v5.4c0,0.7,0.2,1.3,0.7,1.8
					c0.5,0.5,1.1,0.7,1.8,0.7c0.7,0,1.3-0.2,1.8-0.7c0.5-0.5,0.7-1.1,0.7-1.8v-3.2c0-1.2-0.4-2.5-1.2-3.6c-0.8-1.2-1.7-2.3-2.8-3.3
					c-1.1-1-2.2-2.1-3.4-3.2c-1.2-1.1-2.2-2.4-2.9-4c-0.8-1.6-1.2-3.3-1.2-5.2v-3.3c0-2.8,0.8-5,2.5-6.6c1.7-1.7,3.9-2.5,6.6-2.5
					c2.7,0,4.9,0.8,6.6,2.5c1.7,1.7,2.5,3.9,2.5,6.6v5h-6.6v-5.4c0-0.7-0.2-1.3-0.7-1.8c-0.5-0.5-1.1-0.7-1.8-0.7
					c-0.7,0-1.3,0.2-1.8,0.7c-0.5,0.5-0.7,1.1-0.7,1.8v3.2c0,1.2,0.4,2.4,1.2,3.6c0.8,1.2,1.8,2.2,2.9,3.3c1.1,1,2.2,2.1,3.4,3.2
					c1.2,1.1,2.1,2.4,2.9,4c0.8,1.6,1.2,3.3,1.2,5.2v3.3c0,2.8-0.8,5-2.5,6.6C864.3,1207.6,862.1,1208.4,859.4,1208.4z"/>
				<path class="st4" d="M891.9,1208.4c-2.7,0-4.9-0.8-6.6-2.5c-1.7-1.7-2.5-3.9-2.5-6.6V1174c0-2.8,0.8-5,2.5-6.6
					c1.7-1.7,3.9-2.5,6.6-2.5c2.7,0,4.9,0.8,6.6,2.5c1.7,1.7,2.5,3.9,2.5,6.6v25.4c0,2.8-0.8,5-2.5,6.6S894.7,1208.4,891.9,1208.4z
					 M890.1,1201.6c0.5,0.5,1.1,0.7,1.8,0.7c0.7,0,1.3-0.2,1.8-0.7c0.5-0.5,0.7-1.1,0.7-1.8v-26.2c0-0.7-0.2-1.3-0.7-1.8
					c-0.5-0.5-1.1-0.7-1.8-0.7c-0.7,0-1.3,0.2-1.8,0.7c-0.5,0.5-0.7,1.1-0.7,1.8v26.2C889.4,1200.5,889.7,1201.1,890.1,1201.6z"/>
				<path class="st4" d="M916.2,1207.6v-41.9h6.6v35.7h9.4v6.2H916.2z"/>
				<path class="st4" d="M952.8,1208.4c-2.7,0-4.9-0.8-6.6-2.5c-1.7-1.7-2.5-3.9-2.5-6.6v-33.6h6.6v34.1c0,0.7,0.2,1.3,0.7,1.8
					c0.5,0.5,1.1,0.7,1.8,0.7s1.3-0.2,1.8-0.7c0.5-0.5,0.7-1.1,0.7-1.8v-34.1h6.6v33.6c0,2.8-0.8,5-2.5,6.6
					S955.6,1208.4,952.8,1208.4z"/>
				<path class="st4" d="M981.8,1207.6v-35.7h-7.4v-6.2h21.5v6.2h-7.4v35.7H981.8z"/>
				<path class="st4" d="M1008.5,1207.6v-41.9h6.6v41.9H1008.5z"/>
				<path class="st4" d="M1039.4,1208.4c-2.7,0-4.9-0.8-6.6-2.5c-1.7-1.7-2.5-3.9-2.5-6.6V1174c0-2.8,0.8-5,2.5-6.6s3.9-2.5,6.6-2.5
					c2.7,0,4.9,0.8,6.6,2.5c1.7,1.7,2.5,3.9,2.5,6.6v25.4c0,2.8-0.8,5-2.5,6.6S1042.1,1208.4,1039.4,1208.4z M1037.6,1201.6
					c0.5,0.5,1.1,0.7,1.8,0.7c0.7,0,1.3-0.2,1.8-0.7c0.5-0.5,0.7-1.1,0.7-1.8v-26.2c0-0.7-0.2-1.3-0.7-1.8c-0.5-0.5-1.1-0.7-1.8-0.7
					c-0.7,0-1.3,0.2-1.8,0.7c-0.5,0.5-0.7,1.1-0.7,1.8v26.2C1036.9,1200.5,1037.1,1201.1,1037.6,1201.6z"/>
				<path class="st4" d="M1063.6,1207.6v-41.9h5.5l7.2,20.5v-20.5h6.6v41.9h-5.5l-7.2-20.3v20.3H1063.6z"/>
				<path class="st4" d="M1106.9,1208.4c-2.7,0-4.9-0.8-6.6-2.5c-1.7-1.7-2.5-3.9-2.5-6.6v-5h6.6v5.4c0,0.7,0.2,1.3,0.7,1.8
					c0.5,0.5,1.1,0.7,1.8,0.7s1.3-0.2,1.8-0.7c0.5-0.5,0.7-1.1,0.7-1.8v-3.2c0-1.2-0.4-2.5-1.2-3.6c-0.8-1.2-1.7-2.3-2.8-3.3
					c-1.1-1-2.2-2.1-3.4-3.2c-1.2-1.1-2.2-2.4-2.9-4c-0.8-1.6-1.2-3.3-1.2-5.2v-3.3c0-2.8,0.8-5,2.5-6.6c1.7-1.7,3.9-2.5,6.6-2.5
					c2.7,0,4.9,0.8,6.6,2.5c1.7,1.7,2.5,3.9,2.5,6.6v5h-6.6v-5.4c0-0.7-0.2-1.3-0.7-1.8c-0.5-0.5-1.1-0.7-1.8-0.7s-1.3,0.2-1.8,0.7
					c-0.5,0.5-0.7,1.1-0.7,1.8v3.2c0,1.2,0.4,2.4,1.2,3.6c0.8,1.2,1.8,2.2,2.9,3.3c1.1,1,2.2,2.1,3.4,3.2c1.2,1.1,2.1,2.4,2.9,4
					c0.8,1.6,1.2,3.3,1.2,5.2v3.3c0,2.8-0.8,5-2.5,6.6C1111.9,1207.6,1109.7,1208.4,1106.9,1208.4z"/>
				<path class="st6" d="M1184.6,1207.6v-41.9h6.6v41.9H1184.6z"/>
				<path class="st4" d="M1207,1207.6v-41.9h5.5l7.2,20.5v-20.5h6.6v41.9h-5.5l-7.2-20.3v20.3H1207z"/>
				<path class="st4" d="M1250.3,1208.4c-2.7,0-4.9-0.8-6.6-2.5c-1.7-1.7-2.5-3.9-2.5-6.6v-5h6.6v5.4c0,0.7,0.2,1.3,0.7,1.8
					c0.5,0.5,1.1,0.7,1.8,0.7s1.3-0.2,1.8-0.7c0.5-0.5,0.7-1.1,0.7-1.8v-3.2c0-1.2-0.4-2.5-1.2-3.6c-0.8-1.2-1.7-2.3-2.8-3.3
					c-1.1-1-2.2-2.1-3.4-3.2c-1.2-1.1-2.2-2.4-2.9-4c-0.8-1.6-1.2-3.3-1.2-5.2v-3.3c0-2.8,0.8-5,2.5-6.6c1.7-1.7,3.9-2.5,6.6-2.5
					c2.7,0,4.9,0.8,6.6,2.5c1.7,1.7,2.5,3.9,2.5,6.6v5h-6.6v-5.4c0-0.7-0.2-1.3-0.7-1.8c-0.5-0.5-1.1-0.7-1.8-0.7s-1.3,0.2-1.8,0.7
					c-0.5,0.5-0.7,1.1-0.7,1.8v3.2c0,1.2,0.4,2.4,1.2,3.6c0.8,1.2,1.8,2.2,2.9,3.3c1.1,1,2.2,2.1,3.4,3.2c1.2,1.1,2.1,2.4,2.9,4
					c0.8,1.6,1.2,3.3,1.2,5.2v3.3c0,2.8-0.8,5-2.5,6.6C1255.2,1207.6,1253,1208.4,1250.3,1208.4z"/>
				<path class="st4" d="M1278.1,1207.6v-35.7h-7.4v-6.2h21.5v6.2h-7.4v35.7H1278.1z"/>
				<path class="st4" d="M1300.3,1207.6l5.3-41.9h10l5.4,41.9h-6.1l-1.2-9.4h-5.5l-1.1,9.4H1300.3z M1308.8,1192h3.9l-2-16.1
					L1308.8,1192z"/>
				<path class="st4" d="M1333.7,1207.6v-41.9h6.6v35.7h9.4v6.2H1333.7z"/>
				<path class="st4" d="M1362.1,1207.6v-41.9h6.6v35.7h9.4v6.2H1362.1z"/>
				<path class="st4" d="M1388.8,1207.6l5.3-41.9h10l5.4,41.9h-6.1l-1.2-9.4h-5.5l-1.1,9.4H1388.8z M1397.4,1192h3.9l-2-16.1
					L1397.4,1192z"/>
				<path class="st4" d="M1425.9,1207.6v-35.7h-7.4v-6.2h21.5v6.2h-7.4v35.7H1425.9z"/>
				<path class="st4" d="M1452.6,1207.6v-41.9h6.6v41.9H1452.6z"/>
				<path class="st4" d="M1483.5,1208.4c-2.7,0-4.9-0.8-6.6-2.5c-1.7-1.7-2.5-3.9-2.5-6.6V1174c0-2.8,0.8-5,2.5-6.6s3.9-2.5,6.6-2.5
					c2.7,0,4.9,0.8,6.6,2.5c1.7,1.7,2.5,3.9,2.5,6.6v25.4c0,2.8-0.8,5-2.5,6.6S1486.3,1208.4,1483.5,1208.4z M1481.7,1201.6
					c0.5,0.5,1.1,0.7,1.8,0.7s1.3-0.2,1.8-0.7c0.5-0.5,0.7-1.1,0.7-1.8v-26.2c0-0.7-0.2-1.3-0.7-1.8c-0.5-0.5-1.1-0.7-1.8-0.7
					s-1.3,0.2-1.8,0.7c-0.5,0.5-0.7,1.1-0.7,1.8v26.2C1481,1200.5,1481.3,1201.1,1481.7,1201.6z"/>
				<path class="st4" d="M1507.8,1207.6v-41.9h5.5l7.2,20.5v-20.5h6.6v41.9h-5.5l-7.2-20.3v20.3H1507.8z"/>
				<path class="st4" d="M1551,1208.4c-2.7,0-4.9-0.8-6.6-2.5c-1.7-1.7-2.5-3.9-2.5-6.6v-5h6.6v5.4c0,0.7,0.2,1.3,0.7,1.8
					c0.5,0.5,1.1,0.7,1.8,0.7c0.7,0,1.3-0.2,1.8-0.7c0.5-0.5,0.7-1.1,0.7-1.8v-3.2c0-1.2-0.4-2.5-1.2-3.6c-0.8-1.2-1.7-2.3-2.8-3.3
					c-1.1-1-2.2-2.1-3.4-3.2c-1.2-1.1-2.2-2.4-2.9-4c-0.8-1.6-1.2-3.3-1.2-5.2v-3.3c0-2.8,0.8-5,2.5-6.6c1.7-1.7,3.9-2.5,6.6-2.5
					c2.7,0,4.9,0.8,6.6,2.5c1.7,1.7,2.5,3.9,2.5,6.6v5h-6.6v-5.4c0-0.7-0.2-1.3-0.7-1.8c-0.5-0.5-1.1-0.7-1.8-0.7
					c-0.7,0-1.3,0.2-1.8,0.7c-0.5,0.5-0.7,1.1-0.7,1.8v3.2c0,1.2,0.4,2.4,1.2,3.6c0.8,1.2,1.8,2.2,2.9,3.3c1.1,1,2.2,2.1,3.4,3.2
					c1.2,1.1,2.1,2.4,2.9,4c0.8,1.6,1.2,3.3,1.2,5.2v3.3c0,2.8-0.8,5-2.5,6.6C1556,1207.6,1553.8,1208.4,1551,1208.4z"/>
			</g>
		</g>
		
			<rect x="1146.8" y="1183.2" transform="matrix(0.7071 0.7071 -0.7071 0.7071 1175.8627 -465.7461)" class="st4" width="6.6" height="6.6"/>
		
			<rect x="1146.8" y="1183.2" transform="matrix(0.7071 0.7071 -0.7071 0.7071 1175.8627 -465.7461)" class="st4" width="6.6" height="6.6"/>
	</g>
	<g>
		<g>
			<g>
				<path class="st6" d="M737.1,369.6c-2.7,0-4.9-0.8-6.6-2.5c-1.7-1.7-2.5-3.9-2.5-6.6v-25.4c0-2.8,0.8-5,2.5-6.6
					c1.7-1.7,3.9-2.5,6.6-2.5c2.7,0,4.9,0.8,6.6,2.5c1.7,1.7,2.5,3.9,2.5,6.6v5h-6.6v-5.4c0-0.7-0.2-1.3-0.7-1.8
					c-0.5-0.5-1.1-0.7-1.8-0.7c-0.7,0-1.3,0.2-1.8,0.7c-0.5,0.5-0.7,1.1-0.7,1.8v26.2c0,0.7,0.2,1.3,0.7,1.8
					c0.5,0.5,1.1,0.7,1.8,0.7c0.7,0,1.3-0.2,1.8-0.7c0.5-0.5,0.7-1.1,0.7-1.8v-5.4h6.6v5c0,2.8-0.8,5-2.5,6.6
					C742.1,368.7,739.9,369.6,737.1,369.6z"/>
				<path class="st4" d="M768.5,369.6c-2.7,0-4.9-0.8-6.6-2.5c-1.7-1.7-2.5-3.9-2.5-6.6v-33.6h6.6v34.1c0,0.7,0.2,1.3,0.7,1.8
					c0.5,0.5,1.1,0.7,1.8,0.7s1.3-0.2,1.8-0.7c0.5-0.5,0.7-1.1,0.7-1.8v-34.1h6.6v33.6c0,2.8-0.8,5-2.5,6.6
					C773.5,368.7,771.3,369.6,768.5,369.6z"/>
				<path class="st4" d="M801.3,369.6c-2.7,0-4.9-0.8-6.6-2.5c-1.7-1.7-2.5-3.9-2.5-6.6v-5h6.6v5.4c0,0.7,0.2,1.3,0.7,1.8
					c0.5,0.5,1.1,0.7,1.8,0.7s1.3-0.2,1.8-0.7c0.5-0.5,0.7-1.1,0.7-1.8v-3.2c0-1.2-0.4-2.5-1.2-3.6c-0.8-1.2-1.7-2.3-2.8-3.3
					c-1.1-1-2.2-2.1-3.4-3.2c-1.2-1.1-2.2-2.4-2.9-4s-1.2-3.3-1.2-5.2v-3.3c0-2.8,0.8-5,2.5-6.6c1.7-1.7,3.9-2.5,6.6-2.5
					c2.7,0,4.9,0.8,6.6,2.5c1.7,1.7,2.5,3.9,2.5,6.6v5h-6.6v-5.4c0-0.7-0.2-1.3-0.7-1.8c-0.5-0.5-1.1-0.7-1.8-0.7s-1.3,0.2-1.8,0.7
					c-0.5,0.5-0.7,1.1-0.7,1.8v3.2c0,1.2,0.4,2.4,1.2,3.6c0.8,1.2,1.8,2.2,2.9,3.3c1.1,1,2.2,2.1,3.4,3.2c1.2,1.1,2.1,2.4,2.9,4
					c0.8,1.6,1.2,3.3,1.2,5.2v3.3c0,2.8-0.8,5-2.5,6.6C806.3,368.7,804.1,369.6,801.3,369.6z"/>
				<path class="st4" d="M829.2,368.7V333h-7.4v-6.2h21.5v6.2h-7.4v35.7H829.2z"/>
				<path class="st4" d="M863.9,369.6c-2.7,0-4.9-0.8-6.6-2.5c-1.7-1.7-2.5-3.9-2.5-6.6v-25.4c0-2.8,0.8-5,2.5-6.6
					c1.7-1.7,3.9-2.5,6.6-2.5c2.7,0,4.9,0.8,6.6,2.5c1.7,1.7,2.5,3.9,2.5,6.6v25.4c0,2.8-0.8,5-2.5,6.6
					C868.9,368.7,866.7,369.6,863.9,369.6z M862.1,362.7c0.5,0.5,1.1,0.7,1.8,0.7c0.7,0,1.3-0.2,1.8-0.7c0.5-0.5,0.7-1.1,0.7-1.8
					v-26.2c0-0.7-0.2-1.3-0.7-1.8c-0.5-0.5-1.1-0.7-1.8-0.7c-0.7,0-1.3,0.2-1.8,0.7c-0.5,0.5-0.7,1.1-0.7,1.8v26.2
					C861.4,361.6,861.7,362.2,862.1,362.7z"/>
				<path class="st4" d="M888.2,368.7v-41.9h5.5l6.1,17.2l6.1-17.2h5.5v41.9h-6.6v-20.3l-4,11.4h-1.8l-4-11.4v20.3H888.2z"/>
				<path class="st7" d="M989.2,369.6c-2.7,0-4.9-0.8-6.6-2.5c-1.7-1.7-2.5-3.9-2.5-6.6v-25.4c0-2.8,0.8-5,2.5-6.6
					c1.7-1.7,3.9-2.5,6.6-2.5c2.7,0,4.9,0.8,6.6,2.5c1.7,1.7,2.5,3.9,2.5,6.6v5h-6.6v-5.4c0-0.7-0.2-1.3-0.7-1.8
					c-0.5-0.5-1.1-0.7-1.8-0.7s-1.3,0.2-1.8,0.7c-0.5,0.5-0.7,1.1-0.7,1.8v26.2c0,0.7,0.2,1.3,0.7,1.8c0.5,0.5,1.1,0.7,1.8,0.7
					s1.3-0.2,1.8-0.7c0.5-0.5,0.7-1.1,0.7-1.8v-5.4h6.6v5c0,2.8-0.8,5-2.5,6.6C994.2,368.7,992,369.6,989.2,369.6z"/>
				<path class="st4" d="M1020.9,369.6c-2.7,0-4.9-0.8-6.6-2.5c-1.7-1.7-2.5-3.9-2.5-6.6v-25.4c0-2.8,0.8-5,2.5-6.6
					c1.7-1.7,3.9-2.5,6.6-2.5c2.7,0,4.9,0.8,6.6,2.5c1.7,1.7,2.5,3.9,2.5,6.6v25.4c0,2.8-0.8,5-2.5,6.6
					C1025.9,368.7,1023.7,369.6,1020.9,369.6z M1019.1,362.7c0.5,0.5,1.1,0.7,1.8,0.7s1.3-0.2,1.8-0.7c0.5-0.5,0.7-1.1,0.7-1.8
					v-26.2c0-0.7-0.2-1.3-0.7-1.8c-0.5-0.5-1.1-0.7-1.8-0.7s-1.3,0.2-1.8,0.7c-0.5,0.5-0.7,1.1-0.7,1.8v26.2
					C1018.4,361.6,1018.7,362.2,1019.1,362.7z"/>
				<path class="st4" d="M1045.2,368.7v-41.9h5.5l7.2,20.5v-20.5h6.6v41.9h-5.5l-7.2-20.3v20.3H1045.2z"/>
				<path class="st4" d="M1088.4,369.6c-2.7,0-4.9-0.8-6.6-2.5c-1.7-1.7-2.5-3.9-2.5-6.6v-5h6.6v5.4c0,0.7,0.2,1.3,0.7,1.8
					c0.5,0.5,1.1,0.7,1.8,0.7s1.3-0.2,1.8-0.7c0.5-0.5,0.7-1.1,0.7-1.8v-3.2c0-1.2-0.4-2.5-1.2-3.6c-0.8-1.2-1.7-2.3-2.8-3.3
					c-1.1-1-2.2-2.1-3.4-3.2s-2.2-2.4-2.9-4c-0.8-1.6-1.2-3.3-1.2-5.2v-3.3c0-2.8,0.8-5,2.5-6.6c1.7-1.7,3.9-2.5,6.6-2.5
					c2.7,0,4.9,0.8,6.6,2.5c1.7,1.7,2.5,3.9,2.5,6.6v5h-6.6v-5.4c0-0.7-0.2-1.3-0.7-1.8c-0.5-0.5-1.1-0.7-1.8-0.7s-1.3,0.2-1.8,0.7
					c-0.5,0.5-0.7,1.1-0.7,1.8v3.2c0,1.2,0.4,2.4,1.2,3.6c0.8,1.2,1.8,2.2,2.9,3.3c1.1,1,2.2,2.1,3.4,3.2c1.2,1.1,2.1,2.4,2.9,4
					c0.8,1.6,1.2,3.3,1.2,5.2v3.3c0,2.8-0.8,5-2.5,6.6C1093.4,368.7,1091.2,369.6,1088.4,369.6z"/>
				<path class="st4" d="M1116.3,368.7V333h-7.4v-6.2h21.5v6.2h-7.4v35.7H1116.3z"/>
				<path class="st4" d="M1143,368.7v-41.9h9.1c2.7,0,4.9,0.8,6.6,2.5c1.7,1.7,2.5,3.9,2.5,6.6v8.3c0,3.6-1.3,6.2-4,7.8l5.1,16.8
					h-6.9l-4.7-15.4h-1.1v15.4H1143z M1149.6,347.1h2.5c0.7,0,1.3-0.2,1.8-0.7c0.5-0.5,0.7-1.1,0.7-1.8v-9.1c0-0.7-0.2-1.3-0.7-1.8
					c-0.5-0.5-1.1-0.7-1.8-0.7h-2.5V347.1z"/>
				<path class="st4" d="M1185.5,369.6c-2.7,0-4.9-0.8-6.6-2.5c-1.7-1.7-2.5-3.9-2.5-6.6v-33.6h6.6v34.1c0,0.7,0.2,1.3,0.7,1.8
					c0.5,0.5,1.1,0.7,1.8,0.7s1.3-0.2,1.8-0.7c0.5-0.5,0.7-1.1,0.7-1.8v-34.1h6.6v33.6c0,2.8-0.8,5-2.5,6.6
					C1190.4,368.7,1188.2,369.6,1185.5,369.6z"/>
				<path class="st4" d="M1218.6,369.6c-2.7,0-4.9-0.8-6.6-2.5c-1.7-1.7-2.5-3.9-2.5-6.6v-25.4c0-2.8,0.8-5,2.5-6.6
					c1.7-1.7,3.9-2.5,6.6-2.5c2.7,0,4.9,0.8,6.6,2.5c1.7,1.7,2.5,3.9,2.5,6.6v5h-6.6v-5.4c0-0.7-0.2-1.3-0.7-1.8
					c-0.5-0.5-1.1-0.7-1.8-0.7s-1.3,0.2-1.8,0.7c-0.5,0.5-0.7,1.1-0.7,1.8v26.2c0,0.7,0.2,1.3,0.7,1.8c0.5,0.5,1.1,0.7,1.8,0.7
					s1.3-0.2,1.8-0.7c0.5-0.5,0.7-1.1,0.7-1.8v-5.4h6.6v5c0,2.8-0.8,5-2.5,6.6C1223.5,368.7,1221.3,369.6,1218.6,369.6z"/>
				<path class="st4" d="M1245.6,368.7V333h-7.4v-6.2h21.5v6.2h-7.4v35.7H1245.6z"/>
				<path class="st4" d="M1272.3,368.7v-41.9h6.6v41.9H1272.3z"/>
				<path class="st4" d="M1303.2,369.6c-2.7,0-4.9-0.8-6.6-2.5c-1.7-1.7-2.5-3.9-2.5-6.6v-25.4c0-2.8,0.8-5,2.5-6.6
					c1.7-1.7,3.9-2.5,6.6-2.5c2.7,0,4.9,0.8,6.6,2.5c1.7,1.7,2.5,3.9,2.5,6.6v25.4c0,2.8-0.8,5-2.5,6.6
					C1308.1,368.7,1305.9,369.6,1303.2,369.6z M1301.4,362.7c0.5,0.5,1.1,0.7,1.8,0.7s1.3-0.2,1.8-0.7c0.5-0.5,0.7-1.1,0.7-1.8
					v-26.2c0-0.7-0.2-1.3-0.7-1.8c-0.5-0.5-1.1-0.7-1.8-0.7s-1.3,0.2-1.8,0.7c-0.5,0.5-0.7,1.1-0.7,1.8v26.2
					C1300.7,361.6,1300.9,362.2,1301.4,362.7z"/>
				<path class="st4" d="M1327.4,368.7v-41.9h5.5l7.2,20.5v-20.5h6.6v41.9h-5.5l-7.2-20.3v20.3H1327.4z"/>
				<path class="st7" d="M1424.7,369.6c-2.7,0-4.9-0.8-6.6-2.5c-1.7-1.7-2.5-3.9-2.5-6.6v-25.4c0-2.8,0.8-5,2.5-6.6
					c1.7-1.7,3.9-2.5,6.6-2.5c2.7,0,4.9,0.8,6.6,2.5c1.7,1.7,2.5,3.9,2.5,6.6v5h-6.6v-5.4c0-0.7-0.2-1.3-0.7-1.8
					c-0.5-0.5-1.1-0.7-1.8-0.7s-1.3,0.2-1.8,0.7c-0.5,0.5-0.7,1.1-0.7,1.8v26.2c0,0.7,0.2,1.3,0.7,1.8c0.5,0.5,1.1,0.7,1.8,0.7
					s1.3-0.2,1.8-0.7c0.5-0.5,0.7-1.1,0.7-1.8v-5.4h6.6v5c0,2.8-0.8,5-2.5,6.6C1429.7,368.7,1427.5,369.6,1424.7,369.6z"/>
				<path class="st4" d="M1456.4,369.6c-2.7,0-4.9-0.8-6.6-2.5c-1.7-1.7-2.5-3.9-2.5-6.6v-25.4c0-2.8,0.8-5,2.5-6.6
					c1.7-1.7,3.9-2.5,6.6-2.5c2.7,0,4.9,0.8,6.6,2.5c1.7,1.7,2.5,3.9,2.5,6.6v25.4c0,2.8-0.8,5-2.5,6.6
					C1461.4,368.7,1459.2,369.6,1456.4,369.6z M1454.6,362.7c0.5,0.5,1.1,0.7,1.8,0.7s1.3-0.2,1.8-0.7c0.5-0.5,0.7-1.1,0.7-1.8
					v-26.2c0-0.7-0.2-1.3-0.7-1.8c-0.5-0.5-1.1-0.7-1.8-0.7s-1.3,0.2-1.8,0.7c-0.5,0.5-0.7,1.1-0.7,1.8v26.2
					C1454,361.6,1454.2,362.2,1454.6,362.7z"/>
				<path class="st4" d="M1480.7,368.7v-41.9h5.5l7.2,20.5v-20.5h6.6v41.9h-5.5l-7.2-20.3v20.3H1480.7z"/>
				<path class="st4" d="M1520.1,368.7V333h-7.4v-6.2h21.5v6.2h-7.4v35.7H1520.1z"/>
				<path class="st4" d="M1542.3,368.7l5.3-41.9h10l5.4,41.9h-6.1l-1.2-9.4h-5.5l-1.1,9.4H1542.3z M1550.8,353.1h3.9l-2-16.1
					L1550.8,353.1z"/>
				<path class="st4" d="M1575.7,368.7v-41.9h6.6v41.9H1575.7z"/>
				<path class="st4" d="M1598.1,368.7v-41.9h5.5l7.2,20.5v-20.5h6.6v41.9h-5.5l-7.2-20.3v20.3H1598.1z"/>
				<path class="st4" d="M1633.1,368.7v-41.9h17.1v6.2h-10.5v11.7h8.3v6.2h-8.3v11.7h10.5v6.2H1633.1z"/>
				<path class="st4" d="M1663.9,368.7v-41.9h9.1c2.7,0,4.9,0.8,6.6,2.5c1.7,1.7,2.5,3.9,2.5,6.6v8.3c0,3.6-1.3,6.2-4,7.8l5.1,16.8
					h-6.9l-4.7-15.4h-1.1v15.4H1663.9z M1670.6,347.1h2.5c0.7,0,1.3-0.2,1.8-0.7c0.5-0.5,0.7-1.1,0.7-1.8v-9.1
					c0-0.7-0.2-1.3-0.7-1.8c-0.5-0.5-1.1-0.7-1.8-0.7h-2.5V347.1z"/>
			</g>
		</g>
		
			<rect x="942.3" y="344.4" transform="matrix(0.7071 0.7071 -0.7071 0.7071 522.8339 -566.8113)" class="st4" width="6.6" height="6.6"/>
		
			<rect x="1377.9" y="344.4" transform="matrix(0.7071 0.7071 -0.7071 0.7071 650.4086 -874.8038)" class="st4" width="6.6" height="6.6"/>
	</g>
	<rect x="723.6" y="405.6" class="st8" width="962.4" height="4.5"/>
	<rect x="723.6" y="1124.8" class="st8" width="962.4" height="4.5"/>
	<polygon class="st9" points="2518,1530 2434,1643 1425,1604 1865,1174 2445,592 2489,1098 	"/>
	<polygon class="st9" points="980,-65 584.1,325.9 344.3,567.4 -58,982 -65,-72 165.7,-89.4 	"/>
</g>
<g id="Calque_14">
	
		<rect x="448.7" y="-227.2" transform="matrix(0.7071 0.7071 -0.7071 0.7071 460.4727 -193.0772)" class="st8" width="29.1" height="1373"/>
	
		<rect x="1926.9" y="397.7" transform="matrix(0.7071 0.7071 -0.7071 0.7071 1335.5012 -1055.7875)" class="st8" width="30.6" height="1373"/>
</g>
</svg>
