<svg xmlns="http://www.w3.org/2000/svg" viewBox="0 0 2442 1587"><defs><style>.cls-1{fill:#1a1a1a;}.cls-2{fill:#9c9b9b;}.cls-3{fill:#6f6f6e;}.cls-4{fill:#fe5722;}</style></defs><title>3csi3</title><g id="Calque_12" data-name="Calque 12"><rect class="cls-1" width="2442" height="1587"/></g><g id="Calque_10" data-name="Calque 10"><polygon class="cls-2" points="1781.33 504.42 1781.33 421.65 1533.04 421.65 1533.04 504.42 1615.8 504.42 1615.8 1083.77 1533.04 1083.77 1533.04 1166.54 1781.33 1166.54 1781.33 1083.77 1698.57 1083.77 1698.57 504.42 1781.33 504.42"/><polygon class="cls-2" points="1284.74 421.65 1243.36 463.03 1243.36 794.1 1284.74 835.48 1408.89 835.48 1408.89 1083.77 1326.12 1083.77 1326.12 918.24 1243.36 918.24 1243.36 1125.16 1284.74 1166.54 1450.27 1166.54 1491.65 1125.16 1491.65 794.1 1450.27 752.71 1326.12 752.71 1326.12 504.42 1408.89 504.42 1408.89 669.95 1491.65 669.95 1491.65 463.03 1450.27 421.65 1284.74 421.65"/><polygon class="cls-2" points="995.06 421.65 953.68 463.03 953.68 1125.16 995.06 1166.54 1160.59 1166.54 1201.97 1125.16 1201.97 918.24 1119.21 918.24 1119.21 1083.77 1036.44 1083.77 1036.44 504.42 1119.21 504.42 1119.21 669.95 1201.97 669.95 1201.97 463.03 1160.59 421.65 995.06 421.65"/><polygon class="cls-2" points="705.38 421.65 664 463.03 664 669.95 746.76 669.95 746.76 504.42 829.53 504.42 829.53 752.71 746.76 752.71 746.76 835.48 829.53 835.48 829.53 1083.77 746.76 1083.77 746.76 918.24 664 918.24 664 1125.16 705.38 1166.54 870.91 1166.54 912.3 1125.16 912.3 835.48 870.91 794.1 912.3 752.71 912.3 463.03 870.91 421.65 705.38 421.65"/><polygon class="cls-3" points="870.91 463.03 870.91 794.1 912.3 752.71 912.3 463.03 870.91 421.65 870.91 463.03"/><polygon class="cls-3" points="995.06 1166.54 1160.59 1166.54 1201.97 1125.16 1201.97 918.24 1160.59 959.63 1160.59 1125.16 995.06 1125.16 953.68 1125.16 995.06 1166.54"/><polygon class="cls-3" points="1284.74 835.48 1408.89 835.48 1450.27 794.1 1284.74 794.1 1243.36 794.1 1284.74 835.48"/><polygon class="cls-3" points="1160.59 463.03 1160.59 628.57 1119.21 669.95 1201.97 669.95 1201.97 463.03 1160.59 421.65 1160.59 463.03"/><polygon class="cls-3" points="1450.27 463.03 1450.27 628.57 1408.89 669.95 1491.65 669.95 1491.65 463.03 1450.27 421.65 1450.27 463.03"/><polygon class="cls-3" points="1533.04 1166.54 1781.33 1166.54 1781.33 1083.77 1739.95 1125.16 1657.18 1125.16 1574.42 1125.16 1533.04 1166.54"/><polygon class="cls-3" points="746.76 835.48 829.53 835.48 870.91 794.1 788.15 794.1 746.76 835.48"/><polygon class="cls-3" points="746.76 918.24 705.38 959.63 705.38 1125.16 746.76 1083.77 746.76 918.24"/><polygon class="cls-3" points="705.38 1125.16 664 1125.16 705.38 1166.54 870.91 1166.54 912.3 1125.16 912.3 835.48 870.91 794.1 870.91 1125.16 705.38 1125.16"/><polygon class="cls-3" points="995.06 1125.16 1036.44 1083.77 1036.44 504.42 1119.21 504.42 1160.59 463.03 995.06 463.03 995.06 1125.16"/><polygon class="cls-3" points="1284.74 794.1 1326.12 752.71 1326.12 504.42 1408.89 504.42 1450.27 463.03 1284.74 463.03 1284.74 794.1"/><polygon class="cls-3" points="1326.12 918.24 1284.74 959.63 1284.74 1125.16 1326.12 1083.77 1326.12 918.24"/><polygon class="cls-3" points="1284.74 1125.16 1243.36 1125.16 1284.74 1166.54 1450.27 1166.54 1491.65 1125.16 1491.65 794.1 1450.27 752.71 1450.27 794.1 1450.27 1125.16 1284.74 1125.16"/><polygon class="cls-3" points="1533.04 504.42 1615.8 504.42 1657.18 463.03 1574.42 463.03 1533.04 504.42"/><polygon class="cls-3" points="1698.57 504.42 1781.33 504.42 1781.33 421.65 1739.95 463.03 1657.18 463.03 1657.18 1125.16 1698.57 1083.77 1698.57 504.42"/><polygon class="cls-3" points="705.38 628.57 664 669.95 746.76 669.95 746.76 504.42 829.53 504.42 870.91 463.03 705.38 463.03 705.38 628.57"/><path class="cls-4" d="M3502.66,1291.94a10,10,0,0,1-10.56-10.56v-5.77h7.68v6.28a2.74,2.74,0,0,0,2.88,2.88,2.74,2.74,0,0,0,2.88-2.88v-3.72a7.33,7.33,0,0,0-1.38-4.19,22.87,22.87,0,0,0-3.3-3.8l-4-3.68a15.91,15.91,0,0,1-3.42-4.68,13.43,13.43,0,0,1-1.37-6v-3.84a10.57,10.57,0,1,1,21.12,0v5.76h-7.68v-6.27a2.94,2.94,0,0,0-5-2.08,2.76,2.76,0,0,0-.8,2.07v3.7a7.15,7.15,0,0,0,1.4,4.17,23.49,23.49,0,0,0,3.32,3.8l4,3.68a15.49,15.49,0,0,1,3.39,4.68,13.6,13.6,0,0,1,1.36,6.06v3.85a9.93,9.93,0,0,1-10.56,10.59Z" transform="translate(-2681 14)"/><path class="cls-3" d="M3540.42,1291.94a10,10,0,0,1-10.56-10.56v-29.45a10.57,10.57,0,1,1,21.12,0v29.45a9.91,9.91,0,0,1-10.56,10.56Zm-2.08-8a2.88,2.88,0,0,0,5-2.08v-30.47a2.79,2.79,0,0,0-.8-2.08,2.88,2.88,0,0,0-5,2.08v30.47A2.84,2.84,0,0,0,3538.34,1284Z" transform="translate(-2681 14)"/><path class="cls-3" d="M3568.58,1291v-48.65h7.69v41.48h10.88V1291Z" transform="translate(-2681 14)"/><path class="cls-3" d="M3611.15,1291.94a10,10,0,0,1-10.56-10.56v-39.05h7.68v39.56a2.94,2.94,0,0,0,5,2.08,2.84,2.84,0,0,0,.8-2.08v-39.56h7.68v39.05a9.91,9.91,0,0,1-10.56,10.56Z" transform="translate(-2681 14)"/><path class="cls-3" d="M3644.75,1291V1249.5h-8.64v-7.17h25v7.17h-8.65V1291Z" transform="translate(-2681 14)"/><path class="cls-3" d="M3675.8,1291v-48.65h7.68V1291Z" transform="translate(-2681 14)"/><path class="cls-3" d="M3711.64,1291.94a10,10,0,0,1-10.56-10.56v-29.45a10.57,10.57,0,1,1,21.12,0v29.45a9.91,9.91,0,0,1-10.56,10.56Zm-2.08-8a2.88,2.88,0,0,0,5-2.08v-30.47a2.88,2.88,0,1,0-5.76,0v30.47A2.84,2.84,0,0,0,3709.56,1284Z" transform="translate(-2681 14)"/><path class="cls-3" d="M3739.8,1291v-48.65h6.34l8.38,23.81v-23.81h7.68V1291h-6.4l-8.32-23.62V1291Z" transform="translate(-2681 14)"/><path class="cls-3" d="M3790.05,1291.94a10,10,0,0,1-10.56-10.56v-5.77h7.68v6.28a2.74,2.74,0,0,0,2.88,2.88,2.74,2.74,0,0,0,2.88-2.88v-3.72a7.33,7.33,0,0,0-1.38-4.19,22.87,22.87,0,0,0-3.3-3.8l-4-3.68a15.91,15.91,0,0,1-3.42-4.68,13.56,13.56,0,0,1-1.37-6v-3.84a10.57,10.57,0,1,1,21.12,0v5.76h-7.68v-6.27a2.94,2.94,0,0,0-5-2.08,2.76,2.76,0,0,0-.8,2.07v3.7a7.15,7.15,0,0,0,1.4,4.17,23.49,23.49,0,0,0,3.32,3.8l4,3.68a15.49,15.49,0,0,1,3.39,4.68,13.6,13.6,0,0,1,1.36,6.06v3.85a9.93,9.93,0,0,1-10.56,10.59Z" transform="translate(-2681 14)"/><path class="cls-4" d="M3880.29,1291v-48.65H3888V1291Z" transform="translate(-2681 14)"/><path class="cls-3" d="M3906.22,1291v-48.65h6.34l8.38,23.81v-23.81h7.68V1291h-6.4l-8.32-23.62V1291Z" transform="translate(-2681 14)"/><path class="cls-3" d="M3956.47,1291.94a10,10,0,0,1-10.57-10.56v-5.77h7.68v6.28a2.88,2.88,0,1,0,5.76,0v-3.72A7.32,7.32,0,0,0,3958,1274a22.87,22.87,0,0,0-3.3-3.8l-4-3.68a15.91,15.91,0,0,1-3.42-4.68,13.44,13.44,0,0,1-1.38-6v-3.84a10.57,10.57,0,1,1,21.13,0v5.76h-7.69v-6.27a2.73,2.73,0,0,0-2.87-2.88,2.85,2.85,0,0,0-2.09.8,2.8,2.8,0,0,0-.8,2.07v3.7a7.22,7.22,0,0,0,1.4,4.17,23.56,23.56,0,0,0,3.33,3.8l4,3.68a15.49,15.49,0,0,1,3.39,4.68,13.73,13.73,0,0,1,1.36,6.06v3.85a9.93,9.93,0,0,1-10.56,10.59Z" transform="translate(-2681 14)"/><path class="cls-3" d="M3988.79,1291V1249.5h-8.64v-7.17h25v7.17h-8.64V1291Z" transform="translate(-2681 14)"/><path class="cls-3" d="M4014.52,1291l6.1-48.65h11.56l6.22,48.65h-7.11l-1.36-11h-6.33l-1.32,11Zm9.94-18.12H4029l-2.32-18.74Z" transform="translate(-2681 14)"/><path class="cls-3" d="M4053.37,1291v-48.65h7.68v41.48h10.88V1291Z" transform="translate(-2681 14)"/><path class="cls-3" d="M4086.33,1291v-48.65H4094v41.48h10.88V1291Z" transform="translate(-2681 14)"/><path class="cls-3" d="M4117.38,1291l6.1-48.65H4135l6.22,48.65h-7.11l-1.36-11h-6.34l-1.31,11Zm9.94-18.12h4.58l-2.32-18.74Z" transform="translate(-2681 14)"/><path class="cls-3" d="M4160.39,1291V1249.5h-8.64v-7.17h25v7.17h-8.64V1291Z" transform="translate(-2681 14)"/><path class="cls-3" d="M4191.43,1291v-48.65h7.69V1291Z" transform="translate(-2681 14)"/><path class="cls-3" d="M4227.28,1291.94a10,10,0,0,1-10.57-10.56v-29.45a10.57,10.57,0,1,1,21.13,0v29.45a9.91,9.91,0,0,1-10.56,10.56Zm-2.08-8a2.81,2.81,0,0,0,2.08.8,2.74,2.74,0,0,0,2.88-2.88v-30.47a2.94,2.94,0,0,0-5-2.08,2.79,2.79,0,0,0-.8,2.08v30.47A2.8,2.8,0,0,0,4225.2,1284Z" transform="translate(-2681 14)"/><path class="cls-3" d="M4255.44,1291v-48.65h6.34l8.38,23.81v-23.81h7.68V1291h-6.4l-8.32-23.62V1291Z" transform="translate(-2681 14)"/><path class="cls-3" d="M4305.69,1291.94a10,10,0,0,1-10.57-10.56v-5.77h7.68v6.28a2.88,2.88,0,1,0,5.76,0v-3.72a7.32,7.32,0,0,0-1.37-4.19,22.87,22.87,0,0,0-3.3-3.8l-4-3.68a15.91,15.91,0,0,1-3.42-4.68,13.44,13.44,0,0,1-1.38-6v-3.84a10.57,10.57,0,1,1,21.13,0v5.76h-7.69v-6.27a2.73,2.73,0,0,0-2.87-2.88,2.85,2.85,0,0,0-2.09.8,2.8,2.8,0,0,0-.8,2.07v3.7a7.22,7.22,0,0,0,1.4,4.17,23.56,23.56,0,0,0,3.33,3.8l4,3.68a15.49,15.49,0,0,1,3.39,4.68,13.73,13.73,0,0,1,1.36,6.06v3.85a9.93,9.93,0,0,1-10.56,10.59Z" transform="translate(-2681 14)"/><rect class="cls-3" x="3836.39" y="1262.64" width="7.67" height="7.67" transform="translate(-660.69 -2330.51) rotate(45)"/><rect class="cls-3" x="3836.39" y="1262.64" width="7.67" height="7.67" transform="translate(-660.69 -2330.51) rotate(45)"/><path class="cls-4" d="M3360.69,318a10,10,0,0,1-10.56-10.56V278a10.57,10.57,0,1,1,21.12,0v5.76h-7.68v-6.27a2.76,2.76,0,0,0-2.88-2.89,2.78,2.78,0,0,0-2.08.81,2.81,2.81,0,0,0-.8,2.08v30.46a2.85,2.85,0,0,0,.8,2.09,2.8,2.8,0,0,0,2.08.79,2.73,2.73,0,0,0,2.88-2.88v-6.27h7.68v5.76A9.91,9.91,0,0,1,3360.69,318Z" transform="translate(-2681 14)"/><path class="cls-3" d="M3397.17,318a10,10,0,0,1-10.56-10.56v-39h7.68v39.55a2.73,2.73,0,0,0,2.88,2.88,2.74,2.74,0,0,0,2.89-2.88V268.36h7.68v39A9.93,9.93,0,0,1,3397.17,318Z" transform="translate(-2681 14)"/><path class="cls-3" d="M3435.26,318a10,10,0,0,1-10.56-10.56v-5.76h7.68v6.27a3,3,0,0,0,5,2.09,2.85,2.85,0,0,0,.8-2.09V304.2a7.31,7.31,0,0,0-1.38-4.19,22.87,22.87,0,0,0-3.3-3.8l-4-3.68a16.18,16.18,0,0,1-3.42-4.68,13.59,13.59,0,0,1-1.37-6.05V278a10.57,10.57,0,1,1,21.12,0v5.76h-7.68v-6.27a2.94,2.94,0,0,0-5-2.09,2.76,2.76,0,0,0-.8,2.07v3.7a7.16,7.16,0,0,0,1.4,4.18,23.49,23.49,0,0,0,3.32,3.8l4,3.68a15.49,15.49,0,0,1,3.39,4.68,13.6,13.6,0,0,1,1.36,6.06v3.85A9.91,9.91,0,0,1,3435.26,318Z" transform="translate(-2681 14)"/><path class="cls-3" d="M3467.58,317V275.53h-8.64v-7.17h25v7.17h-8.64V317Z" transform="translate(-2681 14)"/><path class="cls-3" d="M3507.91,318a10,10,0,0,1-10.57-10.56V278a10.57,10.57,0,1,1,21.13,0V307.4A9.91,9.91,0,0,1,3507.91,318Zm-2.08-8a2.8,2.8,0,0,0,2.08.79,2.73,2.73,0,0,0,2.88-2.88V277.45a2.76,2.76,0,0,0-2.88-2.89,2.76,2.76,0,0,0-2.88,2.89v30.46A2.81,2.81,0,0,0,3505.83,310Z" transform="translate(-2681 14)"/><path class="cls-3" d="M3536.07,317V268.36h6.34l7,20,7-20h6.34V317h-7.69V293.38l-4.67,13.25h-2l-4.67-13.25V317Z" transform="translate(-2681 14)"/><path class="cls-4" d="M3653.39,318a10,10,0,0,1-10.56-10.56V278a10.57,10.57,0,1,1,21.12,0v5.76h-7.68v-6.27a2.76,2.76,0,0,0-2.88-2.89,2.76,2.76,0,0,0-2.88,2.89v30.46a2.73,2.73,0,0,0,2.88,2.88,2.73,2.73,0,0,0,2.88-2.88v-6.27H3664v5.76A9.9,9.9,0,0,1,3653.39,318Z" transform="translate(-2681 14)"/><path class="cls-3" d="M3690.19,318a10,10,0,0,1-10.56-10.56V278a10.57,10.57,0,1,1,21.13,0V307.4A9.91,9.91,0,0,1,3690.19,318Zm-2.07-8a2.89,2.89,0,0,0,5-2.09V277.45a2.88,2.88,0,1,0-5.76,0v30.46A2.81,2.81,0,0,0,3688.12,310Z" transform="translate(-2681 14)"/><path class="cls-3" d="M3718.36,317V268.36h6.34l8.38,23.81V268.36h7.68V317h-6.4L3726,293.38V317Z" transform="translate(-2681 14)"/><path class="cls-3" d="M3768.6,318A10,10,0,0,1,3758,307.4v-5.76h7.68v6.27a2.73,2.73,0,0,0,2.88,2.88,2.73,2.73,0,0,0,2.88-2.88V304.2a7.37,7.37,0,0,0-1.37-4.19,22.87,22.87,0,0,0-3.3-3.8l-4-3.68a16.18,16.18,0,0,1-3.42-4.68,13.47,13.47,0,0,1-1.38-6.05V278a10.57,10.57,0,1,1,21.13,0v5.76h-7.69v-6.27a2.76,2.76,0,0,0-2.88-2.89,2.84,2.84,0,0,0-2.08.8,2.8,2.8,0,0,0-.8,2.07v3.7a7.23,7.23,0,0,0,1.4,4.18,23.08,23.08,0,0,0,3.33,3.8l4,3.68a15.35,15.35,0,0,1,3.4,4.68,13.73,13.73,0,0,1,1.36,6.06v3.85A9.93,9.93,0,0,1,3768.6,318Z" transform="translate(-2681 14)"/><path class="cls-3" d="M3800.93,317V275.53h-8.64v-7.17h25v7.17h-8.64V317Z" transform="translate(-2681 14)"/><path class="cls-3" d="M3832,317V268.36h10.56a10,10,0,0,1,10.56,10.56v9.59q0,6.27-4.64,9l6,19.46h-8l-5.48-17.93h-1.24V317Zm7.68-25.09h2.88a2.74,2.74,0,0,0,2.88-2.88V278.41a2.74,2.74,0,0,0-2.88-2.88h-2.88Z" transform="translate(-2681 14)"/><path class="cls-3" d="M3881.26,318a10,10,0,0,1-10.56-10.56v-39h7.68v39.55a3,3,0,0,0,5,2.09,2.85,2.85,0,0,0,.8-2.09V268.36h7.68v39A9.91,9.91,0,0,1,3881.26,318Z" transform="translate(-2681 14)"/><path class="cls-3" d="M3919.66,318a10,10,0,0,1-10.56-10.56V278a10.57,10.57,0,1,1,21.12,0v5.76h-7.68v-6.27a2.76,2.76,0,0,0-2.88-2.89,2.76,2.76,0,0,0-2.88,2.89v30.46a2.73,2.73,0,0,0,2.88,2.88,2.73,2.73,0,0,0,2.88-2.88v-6.27h7.68v5.76A9.91,9.91,0,0,1,3919.66,318Z" transform="translate(-2681 14)"/><path class="cls-3" d="M3951,317V275.53h-8.64v-7.17h25v7.17h-8.64V317Z" transform="translate(-2681 14)"/><path class="cls-3" d="M3982.07,317V268.36h7.68V317Z" transform="translate(-2681 14)"/><path class="cls-3" d="M4017.91,318a10,10,0,0,1-10.56-10.56V278a10.57,10.57,0,1,1,21.12,0V307.4A9.91,9.91,0,0,1,4017.91,318Zm-2.08-8a2.88,2.88,0,0,0,5-2.09V277.45a2.76,2.76,0,0,0-2.88-2.89,2.76,2.76,0,0,0-2.88,2.89v30.46A2.85,2.85,0,0,0,4015.83,310Z" transform="translate(-2681 14)"/><path class="cls-3" d="M4046.07,317V268.36h6.34l8.39,23.81V268.36h7.68V317h-6.4l-8.32-23.62V317Z" transform="translate(-2681 14)"/><path class="cls-4" d="M4159,318a10,10,0,0,1-10.56-10.56V278a10.57,10.57,0,1,1,21.13,0v5.76h-7.68v-6.27a2.88,2.88,0,1,0-5.76,0v30.46a2.88,2.88,0,1,0,5.76,0v-6.27h7.68v5.76A9.91,9.91,0,0,1,4159,318Z" transform="translate(-2681 14)"/><path class="cls-3" d="M4195.85,318a10,10,0,0,1-10.56-10.56V278a10.57,10.57,0,1,1,21.12,0V307.4A9.91,9.91,0,0,1,4195.85,318Zm-2.08-8a3.13,3.13,0,0,0,4.16,0,2.85,2.85,0,0,0,.8-2.09V277.45a2.88,2.88,0,1,0-5.76,0v30.46A2.85,2.85,0,0,0,4193.77,310Z" transform="translate(-2681 14)"/><path class="cls-3" d="M4224,317V268.36h6.34l8.38,23.81V268.36h7.68V317H4240l-8.32-23.62V317Z" transform="translate(-2681 14)"/><path class="cls-3" d="M4269.78,317V275.53h-8.64v-7.17h25v7.17h-8.64V317Z" transform="translate(-2681 14)"/><path class="cls-3" d="M4295.51,317l6.1-48.64h11.56l6.22,48.64h-7.11l-1.36-10.94h-6.34L4303.27,317Zm9.94-18.11H4310l-2.32-18.75Z" transform="translate(-2681 14)"/><path class="cls-3" d="M4334.36,317V268.36H4342V317Z" transform="translate(-2681 14)"/><path class="cls-3" d="M4360.28,317V268.36h6.34l8.38,23.81V268.36h7.68V317h-6.4L4368,293.38V317Z" transform="translate(-2681 14)"/><path class="cls-3" d="M4400.93,317V268.36h19.84v7.17h-12.16v13.56h9.6v7.18h-9.6v13.56h12.16V317Z" transform="translate(-2681 14)"/><path class="cls-3" d="M4436.77,317V268.36h10.56a10,10,0,0,1,10.56,10.56v9.59q0,6.27-4.64,9L4459.2,317h-8l-5.48-17.93h-1.24V317Zm7.68-25.09h2.88a2.74,2.74,0,0,0,2.88-2.88V278.41a2.74,2.74,0,0,0-2.88-2.88h-2.88Z" transform="translate(-2681 14)"/><rect class="cls-3" x="3598.94" y="288.77" width="7.67" height="7.67" transform="translate(-1418.87 -2447.85) rotate(45)"/><rect class="cls-3" x="4104.64" y="288.77" width="7.67" height="7.67" transform="translate(-1270.75 -2805.43) rotate(45)"/><rect class="cls-4" x="664" y="373.76" width="1117.33" height="5.23"/><rect class="cls-4" x="664" y="1208.83" width="1117.33" height="5.23"/></g></svg>