<svg xmlns="http://www.w3.org/2000/svg" viewBox="0 0 2486 1607.43"><defs><style>.cls-1{fill:#1a1a1a;}.cls-2{fill:#9c9b9b;}.cls-3{fill:#6f6f6e;}.cls-4{fill:#1d1d1b;stroke:#89b73a;stroke-miterlimit:10;}.cls-5{fill:#89b73a;}</style></defs><title>3CSI Carte visite</title><g id="Calque_15" data-name="Calque 15"><rect class="cls-1" width="2486" height="1607.43"/><polygon class="cls-2" points="1749.69 535.63 1749.69 461.25 1526.57 461.25 1526.57 535.63 1600.94 535.63 1600.94 1056.24 1526.57 1056.24 1526.57 1130.62 1749.69 1130.62 1749.69 1056.24 1675.32 1056.24 1675.32 535.63 1749.69 535.63"/><polygon class="cls-2" points="1303.45 461.25 1266.26 498.44 1266.26 795.94 1303.45 833.12 1415.01 833.12 1415.01 1056.24 1340.63 1056.24 1340.63 907.5 1266.26 907.5 1266.26 1093.43 1303.45 1130.62 1452.19 1130.62 1489.38 1093.43 1489.38 795.94 1452.19 758.75 1340.63 758.75 1340.63 535.63 1415.01 535.63 1415.01 684.38 1489.38 684.38 1489.38 498.44 1452.19 461.25 1303.45 461.25"/><polygon class="cls-2" points="1043.14 461.25 1005.95 498.44 1005.95 1093.43 1043.14 1130.62 1191.89 1130.62 1229.07 1093.43 1229.07 907.5 1154.7 907.5 1154.7 1056.24 1080.33 1056.24 1080.33 535.63 1154.7 535.63 1154.7 684.38 1229.07 684.38 1229.07 498.44 1191.89 461.25 1043.14 461.25"/><polygon class="cls-2" points="782.83 461.25 745.64 498.44 745.64 684.38 820.01 684.38 820.01 535.63 894.39 535.63 894.39 758.75 820.01 758.75 820.01 833.12 894.39 833.12 894.39 1056.24 820.01 1056.24 820.01 907.5 745.64 907.5 745.64 1093.43 782.83 1130.62 931.58 1130.62 968.76 1093.43 968.76 833.12 931.58 795.94 968.76 758.75 968.76 498.44 931.58 461.25 782.83 461.25"/><polygon class="cls-3" points="931.58 498.44 931.58 795.94 968.76 758.75 968.76 498.44 931.58 461.25 931.58 498.44"/><polygon class="cls-3" points="1043.14 1130.62 1191.89 1130.62 1229.07 1093.43 1229.07 907.5 1191.89 944.68 1191.89 1093.43 1043.14 1093.43 1005.95 1093.43 1043.14 1130.62"/><polygon class="cls-3" points="1303.45 833.12 1415.01 833.12 1452.19 795.94 1303.45 795.94 1266.26 795.94 1303.45 833.12"/><polygon class="cls-3" points="1191.89 498.44 1191.89 647.19 1154.7 684.38 1229.07 684.38 1229.07 498.44 1191.89 461.25 1191.89 498.44"/><polygon class="cls-3" points="1452.19 498.44 1452.19 647.19 1415.01 684.38 1489.38 684.38 1489.38 498.44 1452.19 461.25 1452.19 498.44"/><polygon class="cls-3" points="1526.57 1130.62 1749.69 1130.62 1749.69 1056.24 1712.5 1093.43 1638.13 1093.43 1563.76 1093.43 1526.57 1130.62"/><polygon class="cls-3" points="820.01 833.12 894.39 833.12 931.58 795.94 857.2 795.94 820.01 833.12"/><polygon class="cls-3" points="820.01 907.5 782.83 944.68 782.83 1093.43 820.01 1056.24 820.01 907.5"/><polygon class="cls-3" points="782.83 1093.43 745.64 1093.43 782.83 1130.62 931.58 1130.62 968.76 1093.43 968.76 833.12 931.58 795.94 931.58 1093.43 782.83 1093.43"/><polygon class="cls-3" points="1043.14 1093.43 1080.33 1056.24 1080.33 535.63 1154.7 535.63 1191.89 498.44 1043.14 498.44 1043.14 1093.43"/><polygon class="cls-3" points="1303.45 795.94 1340.63 758.75 1340.63 535.63 1415.01 535.63 1452.19 498.44 1303.45 498.44 1303.45 795.94"/><polygon class="cls-3" points="1340.63 907.5 1303.45 944.68 1303.45 1093.43 1340.63 1056.24 1340.63 907.5"/><polygon class="cls-3" points="1303.45 1093.43 1266.26 1093.43 1303.45 1130.62 1452.19 1130.62 1489.38 1093.43 1489.38 795.94 1452.19 758.75 1452.19 795.94 1452.19 1093.43 1303.45 1093.43"/><polygon class="cls-3" points="1526.57 535.63 1600.94 535.63 1638.13 498.44 1563.76 498.44 1526.57 535.63"/><polygon class="cls-3" points="1675.32 535.63 1749.69 535.63 1749.69 461.25 1712.5 498.44 1638.13 498.44 1638.13 1093.43 1675.32 1056.24 1675.32 535.63"/><polygon class="cls-3" points="782.83 647.19 745.64 684.38 820.01 684.38 820.01 535.63 894.39 535.63 931.58 498.44 782.83 498.44 782.83 647.19"/><path class="cls-4" d="M3525.31,1232.67a9,9,0,0,1-9.49-9.49V1218h6.9v5.64a2.59,2.59,0,1,0,5.18,0v-3.34a6.64,6.64,0,0,0-1.23-3.77,20.12,20.12,0,0,0-3-3.41c-1.16-1.08-2.34-2.18-3.57-3.31a14.35,14.35,0,0,1-3.07-4.21,12.16,12.16,0,0,1-1.24-5.43v-3.45a9.5,9.5,0,1,1,19,0v5.17h-6.9v-5.63a2.47,2.47,0,0,0-2.59-2.59,2.57,2.57,0,0,0-1.87.71,2.52,2.52,0,0,0-.72,1.87v3.32a6.45,6.45,0,0,0,1.26,3.75,20.71,20.71,0,0,0,3,3.41l3.56,3.31a14,14,0,0,1,3.06,4.21,12.33,12.33,0,0,1,1.21,5.45v3.46a8.91,8.91,0,0,1-9.49,9.51Z" transform="translate(-2638 23.22)"/><path class="cls-3" d="M3559.25,1232.67a9,9,0,0,1-9.49-9.49v-26.46a9.5,9.5,0,1,1,19,0v26.46a8.91,8.91,0,0,1-9.49,9.49Zm-1.87-7.16a2.59,2.59,0,0,0,4.46-1.87v-27.38a2.59,2.59,0,1,0-5.18,0v27.38A2.56,2.56,0,0,0,3557.38,1225.51Z" transform="translate(-2638 23.22)"/><path class="cls-3" d="M3584.56,1231.8v-43.71h6.9v37.27h9.78v6.44Z" transform="translate(-2638 23.22)"/><path class="cls-3" d="M3622.81,1232.67a9,9,0,0,1-9.49-9.49v-35.09h6.9v35.55a2.65,2.65,0,0,0,4.46,1.87,2.6,2.6,0,0,0,.72-1.87v-35.55h6.9v35.09a8.91,8.91,0,0,1-9.49,9.49Z" transform="translate(-2638 23.22)"/><path class="cls-3" d="M3653,1231.8v-37.27h-7.76v-6.44h22.43v6.44h-7.76v37.27Z" transform="translate(-2638 23.22)"/><path class="cls-3" d="M3680.9,1231.8v-43.71h6.9v43.71Z" transform="translate(-2638 23.22)"/><path class="cls-3" d="M3713.11,1232.67a9,9,0,0,1-9.49-9.49v-26.46a9.5,9.5,0,1,1,19,0v26.46a8.91,8.91,0,0,1-9.49,9.49Zm-1.87-7.16a2.59,2.59,0,0,0,4.46-1.87v-27.38a2.59,2.59,0,1,0-5.18,0v27.38A2.56,2.56,0,0,0,3711.24,1225.51Z" transform="translate(-2638 23.22)"/><path class="cls-3" d="M3738.41,1231.8v-43.71h5.7l7.54,21.4v-21.4h6.9v43.71h-5.75l-7.48-21.22v21.22Z" transform="translate(-2638 23.22)"/><path class="cls-3" d="M3783.57,1232.67a9,9,0,0,1-9.49-9.49V1218h6.9v5.64a2.59,2.59,0,1,0,5.17,0v-3.34a6.64,6.64,0,0,0-1.23-3.77,19.68,19.68,0,0,0-3-3.41q-1.72-1.62-3.56-3.31a14.38,14.38,0,0,1-3.08-4.21,12.15,12.15,0,0,1-1.23-5.43v-3.45a9.5,9.5,0,1,1,19,0v5.17h-6.91v-5.63a2.45,2.45,0,0,0-2.58-2.59,2.56,2.56,0,0,0-1.87.71,2.52,2.52,0,0,0-.72,1.87v3.32a6.45,6.45,0,0,0,1.26,3.75,20.18,20.18,0,0,0,3,3.41c1.16,1.07,2.34,2.18,3.57,3.31a14,14,0,0,1,3.05,4.21,12.34,12.34,0,0,1,1.22,5.45v3.46a8.93,8.93,0,0,1-9.49,9.51Z" transform="translate(-2638 23.22)"/><path class="cls-4" d="M3864.66,1231.8v-43.71h6.91v43.71Z" transform="translate(-2638 23.22)"/><path class="cls-3" d="M3888,1231.8v-43.71h5.7l7.53,21.4v-21.4h6.9v43.71h-5.75l-7.48-21.22v21.22Z" transform="translate(-2638 23.22)"/><path class="cls-3" d="M3933.11,1232.67a9,9,0,0,1-9.49-9.49V1218h6.9v5.64a2.59,2.59,0,1,0,5.18,0v-3.34a6.58,6.58,0,0,0-1.24-3.77,19.62,19.62,0,0,0-3-3.41c-1.16-1.08-2.34-2.18-3.57-3.31a14.35,14.35,0,0,1-3.07-4.21,12,12,0,0,1-1.24-5.43v-3.45a9.5,9.5,0,1,1,19,0v5.17h-6.9v-5.63a2.47,2.47,0,0,0-2.59-2.59,2.57,2.57,0,0,0-1.87.71,2.52,2.52,0,0,0-.72,1.87v3.32a6.45,6.45,0,0,0,1.26,3.75,20.25,20.25,0,0,0,3,3.41l3.56,3.31a13.83,13.83,0,0,1,3.05,4.21,12.2,12.2,0,0,1,1.22,5.45v3.46a8.93,8.93,0,0,1-9.49,9.51Z" transform="translate(-2638 23.22)"/><path class="cls-3" d="M3962.16,1231.8v-37.27h-7.77v-6.44h22.44v6.44h-7.77v37.27Z" transform="translate(-2638 23.22)"/><path class="cls-3" d="M3985.28,1231.8l5.48-43.71h10.39l5.59,43.71h-6.39l-1.22-9.83h-5.69l-1.19,9.83Zm8.93-16.27h4.12l-2.09-16.85Z" transform="translate(-2638 23.22)"/><path class="cls-3" d="M4020.19,1231.8v-43.71h6.9v37.27h9.78v6.44Z" transform="translate(-2638 23.22)"/><path class="cls-3" d="M4049.81,1231.8v-43.71h6.91v37.27h9.77v6.44Z" transform="translate(-2638 23.22)"/><path class="cls-3" d="M4077.71,1231.8l5.48-43.71h10.39l5.59,43.71h-6.39l-1.22-9.83h-5.69l-1.19,9.83Zm8.93-16.27h4.12l-2.09-16.85Z" transform="translate(-2638 23.22)"/><path class="cls-3" d="M4116.36,1231.8v-37.27h-7.76v-6.44H4131v6.44h-7.77v37.27Z" transform="translate(-2638 23.22)"/><path class="cls-3" d="M4144.26,1231.8v-43.71h6.9v43.71Z" transform="translate(-2638 23.22)"/><path class="cls-3" d="M4176.47,1232.67a9,9,0,0,1-9.49-9.49v-26.46a9.5,9.5,0,1,1,19,0v26.46a8.91,8.91,0,0,1-9.49,9.49Zm-1.87-7.16a2.59,2.59,0,0,0,4.46-1.87v-27.38a2.59,2.59,0,1,0-5.18,0v27.38A2.56,2.56,0,0,0,4174.6,1225.51Z" transform="translate(-2638 23.22)"/><path class="cls-3" d="M4201.77,1231.8v-43.71h5.7l7.53,21.4v-21.4h6.91v43.71h-5.76l-7.47-21.22v21.22Z" transform="translate(-2638 23.22)"/><path class="cls-3" d="M4246.93,1232.67a9,9,0,0,1-9.49-9.49V1218h6.9v5.64a2.65,2.65,0,0,0,4.46,1.87,2.59,2.59,0,0,0,.71-1.87v-3.34a6.64,6.64,0,0,0-1.23-3.77,20.12,20.12,0,0,0-3-3.41q-1.73-1.62-3.56-3.31a14.38,14.38,0,0,1-3.08-4.21,12.15,12.15,0,0,1-1.23-5.43v-3.45a9.5,9.5,0,1,1,19,0v5.17h-6.91v-5.63a2.65,2.65,0,0,0-4.45-1.88,2.52,2.52,0,0,0-.72,1.87v3.32a6.51,6.51,0,0,0,1.25,3.75,20.71,20.71,0,0,0,3,3.41c1.16,1.07,2.34,2.18,3.57,3.31a14,14,0,0,1,3.05,4.21,12.34,12.34,0,0,1,1.22,5.45v3.46a8.93,8.93,0,0,1-9.49,9.51Z" transform="translate(-2638 23.22)"/><rect class="cls-3" x="3825.21" y="1206.34" width="6.89" height="6.89" transform="translate(-661.16 -2329.71) rotate(45)"/><rect class="cls-3" x="3825.21" y="1206.34" width="6.89" height="6.89" transform="translate(-661.16 -2329.71) rotate(45)"/><path class="cls-4" d="M3397.74,357.44a9,9,0,0,1-9.49-9.49V321.49a9.5,9.5,0,1,1,19,0v5.18h-6.9V321a2.59,2.59,0,1,0-5.18,0v27.38a2.59,2.59,0,1,0,5.18,0v-5.64h6.9V348a8.91,8.91,0,0,1-9.49,9.49Z" transform="translate(-2638 23.22)"/><path class="cls-3" d="M3430.53,357.44A9,9,0,0,1,3421,348V312.86h6.91v35.55a2.47,2.47,0,0,0,2.59,2.59,2.45,2.45,0,0,0,2.58-2.59V312.86H3440V348a8.91,8.91,0,0,1-9.49,9.49Z" transform="translate(-2638 23.22)"/><path class="cls-3" d="M3464.75,357.44a9,9,0,0,1-9.49-9.49v-5.18h6.9v5.64a2.59,2.59,0,1,0,5.18,0v-3.34a6.62,6.62,0,0,0-1.24-3.76,20.12,20.12,0,0,0-3-3.42l-3.56-3.31a14.33,14.33,0,0,1-3.08-4.2,12.16,12.16,0,0,1-1.23-5.44v-3.45a9.5,9.5,0,1,1,19,0v5.18h-6.9V321a2.59,2.59,0,1,0-5.18,0v3.33a6.45,6.45,0,0,0,1.26,3.75,21,21,0,0,0,3,3.41l3.57,3.31A14,14,0,0,1,3473,339a12.37,12.37,0,0,1,1.22,5.45v3.46a8.91,8.91,0,0,1-9.49,9.51Z" transform="translate(-2638 23.22)"/><path class="cls-3" d="M3493.8,356.58V319.31H3486v-6.45h22.43v6.45h-7.76v37.27Z" transform="translate(-2638 23.22)"/><path class="cls-3" d="M3530,357.44a9,9,0,0,1-9.49-9.49V321.49a9.5,9.5,0,1,1,19,0V348a8.91,8.91,0,0,1-9.49,9.49Zm-1.87-7.16a2.59,2.59,0,0,0,4.46-1.87V321a2.59,2.59,0,1,0-5.18,0v27.38A2.52,2.52,0,0,0,3528.16,350.28Z" transform="translate(-2638 23.22)"/><path class="cls-3" d="M3555.34,356.58V312.86H3561l6.33,17.95,6.33-17.95h5.69v43.72h-6.9V335.35l-4.2,11.91h-1.84l-4.2-11.91v21.23Z" transform="translate(-2638 23.22)"/><path class="cls-4" d="M3660.77,357.44a9,9,0,0,1-9.49-9.49V321.49a9.5,9.5,0,1,1,19,0v5.18h-6.9V321a2.59,2.59,0,1,0-5.18,0v27.38a2.59,2.59,0,1,0,5.18,0v-5.64h6.9V348a8.91,8.91,0,0,1-9.49,9.49Z" transform="translate(-2638 23.22)"/><path class="cls-3" d="M3693.84,357.44a9,9,0,0,1-9.49-9.49V321.49a9.5,9.5,0,1,1,19,0V348a8.91,8.91,0,0,1-9.49,9.49Zm-1.87-7.16a2.59,2.59,0,0,0,4.46-1.87V321a2.59,2.59,0,1,0-5.18,0v27.38A2.52,2.52,0,0,0,3692,350.28Z" transform="translate(-2638 23.22)"/><path class="cls-3" d="M3719.14,356.58V312.86h5.7l7.54,21.4v-21.4h6.9v43.72h-5.75l-7.48-21.23v21.23Z" transform="translate(-2638 23.22)"/><path class="cls-3" d="M3764.3,357.44a9,9,0,0,1-9.49-9.49v-5.18h6.9v5.64a2.59,2.59,0,1,0,5.17,0v-3.34a6.61,6.61,0,0,0-1.23-3.76,20.12,20.12,0,0,0-3-3.42l-3.56-3.31a14.33,14.33,0,0,1-3.08-4.2,12.16,12.16,0,0,1-1.23-5.44v-3.45a9.5,9.5,0,1,1,19,0v5.18h-6.91V321a2.59,2.59,0,1,0-5.17,0v3.33a6.45,6.45,0,0,0,1.26,3.75,21,21,0,0,0,3,3.41l3.57,3.31a14,14,0,0,1,3.05,4.2,12.37,12.37,0,0,1,1.22,5.45v3.46a8.91,8.91,0,0,1-9.49,9.51Z" transform="translate(-2638 23.22)"/><path class="cls-3" d="M3793.35,356.58V319.31h-7.77v-6.45H3808v6.45h-7.76v37.27Z" transform="translate(-2638 23.22)"/><path class="cls-3" d="M3821.24,356.58V312.86h9.49a9,9,0,0,1,9.49,9.49V331q0,5.63-4.17,8.11l5.35,17.49h-7.22l-4.93-16.11h-1.11v16.11Zm6.9-22.55h2.59a2.47,2.47,0,0,0,2.59-2.59V321.9a2.52,2.52,0,0,0-.72-1.87,2.49,2.49,0,0,0-1.87-.72h-2.59Z" transform="translate(-2638 23.22)"/><path class="cls-3" d="M3865.53,357.44A9,9,0,0,1,3856,348V312.86h6.9v35.55a2.59,2.59,0,1,0,5.18,0V312.86h6.9V348a8.91,8.91,0,0,1-9.49,9.49Z" transform="translate(-2638 23.22)"/><path class="cls-3" d="M3900,357.44a9,9,0,0,1-9.49-9.49V321.49a9.5,9.5,0,1,1,19,0v5.18h-6.9V321a2.59,2.59,0,1,0-5.18,0v27.38a2.59,2.59,0,1,0,5.18,0v-5.64h6.9V348a8.91,8.91,0,0,1-9.49,9.49Z" transform="translate(-2638 23.22)"/><path class="cls-3" d="M3928.23,356.58V319.31h-7.77v-6.45h22.43v6.45h-7.76v37.27Z" transform="translate(-2638 23.22)"/><path class="cls-3" d="M3956.12,356.58V312.86h6.9v43.72Z" transform="translate(-2638 23.22)"/><path class="cls-3" d="M3988.33,357.44a9,9,0,0,1-9.49-9.49V321.49a9.5,9.5,0,1,1,19,0V348a8.91,8.91,0,0,1-9.49,9.49Zm-1.87-7.16a2.59,2.59,0,0,0,4.46-1.87V321a2.59,2.59,0,1,0-5.18,0v27.38A2.52,2.52,0,0,0,3986.46,350.28Z" transform="translate(-2638 23.22)"/><path class="cls-3" d="M4013.64,356.58V312.86h5.69l7.54,21.4v-21.4h6.9v43.72H4028l-7.48-21.23v21.23Z" transform="translate(-2638 23.22)"/><path class="cls-4" d="M4115.15,357.44a9,9,0,0,1-9.49-9.49V321.49a9.5,9.5,0,1,1,19,0v5.18h-6.9V321a2.64,2.64,0,0,0-4.45-1.87,2.49,2.49,0,0,0-.72,1.87v27.38a2.47,2.47,0,0,0,2.58,2.59,2.47,2.47,0,0,0,2.59-2.59v-5.64h6.9V348a8.9,8.9,0,0,1-9.49,9.49Z" transform="translate(-2638 23.22)"/><path class="cls-3" d="M4148.23,357.44a9,9,0,0,1-9.5-9.49V321.49a9.5,9.5,0,1,1,19,0V348a8.91,8.91,0,0,1-9.49,9.49Zm-1.87-7.16a2.78,2.78,0,0,0,3.73,0,2.49,2.49,0,0,0,.72-1.87V321a2.49,2.49,0,0,0-.72-1.87,2.59,2.59,0,0,0-4.45,1.87v27.38A2.52,2.52,0,0,0,4146.36,350.28Z" transform="translate(-2638 23.22)"/><path class="cls-3" d="M4173.53,356.58V312.86h5.7l7.53,21.4v-21.4h6.9v43.72h-5.75l-7.47-21.23v21.23Z" transform="translate(-2638 23.22)"/><path class="cls-3" d="M4214.66,356.58V319.31h-7.77v-6.45h22.44v6.45h-7.77v37.27Z" transform="translate(-2638 23.22)"/><path class="cls-3" d="M4237.78,356.58l5.48-43.72h10.39l5.59,43.72h-6.39l-1.22-9.84h-5.69l-1.19,9.84Zm8.93-16.28h4.12l-2.09-16.85Z" transform="translate(-2638 23.22)"/><path class="cls-3" d="M4272.69,356.58V312.86h6.91v43.72Z" transform="translate(-2638 23.22)"/><path class="cls-3" d="M4296,356.58V312.86h5.69l7.54,21.4v-21.4h6.9v43.72h-5.75l-7.48-21.23v21.23Z" transform="translate(-2638 23.22)"/><path class="cls-3" d="M4332.51,356.58V312.86h17.83v6.45h-10.93V331.5H4348v6.44h-8.63v12.2h10.93v6.44Z" transform="translate(-2638 23.22)"/><path class="cls-3" d="M4364.72,356.58V312.86h9.49a9,9,0,0,1,9.49,9.49V331q0,5.63-4.17,8.11l5.35,17.49h-7.22l-4.93-16.11h-1.11v16.11Zm6.9-22.55h2.59a2.47,2.47,0,0,0,2.59-2.59V321.9a2.52,2.52,0,0,0-.72-1.87,2.49,2.49,0,0,0-1.87-.72h-2.59Z" transform="translate(-2638 23.22)"/><rect class="cls-3" x="3611.84" y="331.2" width="6.89" height="6.89" transform="translate(-1342.47 -2435.16) rotate(45)"/><rect class="cls-3" x="4066.27" y="331.2" width="6.89" height="6.89" transform="translate(-1209.37 -2756.49) rotate(45)"/><rect class="cls-5" x="745.64" y="418.22" width="1004.05" height="4.7"/><rect class="cls-5" x="745.64" y="1168.62" width="1004.05" height="4.7"/></g></svg>