<?xml version="1.0" encoding="utf-8"?>
<!-- Generator: Adobe Illustrator 24.0.0, SVG Export Plug-In . SVG Version: 6.00 Build 0)  -->
<svg version="1.1" xmlns="http://www.w3.org/2000/svg" xmlns:xlink="http://www.w3.org/1999/xlink" x="0px" y="0px"
	 viewBox="0 0 2409.4 1559.1" style="enable-background:new 0 0 2409.4 1559.1;" xml:space="preserve">
<style type="text/css">
	.st0{fill:#0071BC;}
	.st1{fill:#1A1A1A;}
	.st2{fill:#E6E6E6;}
	.st3{fill:#333333;}
	.st4{display:none;fill:none;stroke:#0071BC;stroke-width:5;stroke-miterlimit:10;}
	.st5{display:none;}
	.st6{display:inline;}
	.st7{fill:#9C9B9B;}
	.st8{fill:#6F6F6E;}
	.st9{fill:#575756;}
	.st10{fill:#1D1D1B;}
	.st11{fill:none;}
	.st12{fill:#F2F2F2;}
	.st13{font-family:'Impact';}
	.st14{font-size:60px;}
	.st15{fill:#4D4D4D;}
</style>
<g id="Calque_3">
</g>
<g id="Calque_10">
</g>
<g id="Calque_1">
	<g id="Calque_11">
		<polygon class="st0" points="1020,1305 -19,1305 -19,1046 933,1046 		"/>
		<polygon class="st1" points="981,1277 -58,1277 -58,1018 894,1018 		"/>
	</g>
	<g>
		<g>
			<path class="st2" d="M155.8,1095.4c0.8,3.5,3.3,5,7.3,5c4,0,5.7-1.6,5.7-4.1c0-2.8-1.7-4-7.6-5.4c-9.4-2.2-11.7-5.6-11.7-10.3
				c0-6,4.5-10.1,12.7-10.1c9.2,0,12.8,4.9,13.3,10h-7.5c-0.4-2.1-1.5-4.4-6-4.4c-3,0-4.9,1.3-4.9,3.7c0,2.4,1.5,3.4,7,4.7
				c10,2.4,12.2,6.1,12.2,11c0,6.3-4.8,10.6-13.9,10.6c-8.8,0-13.4-4.3-14.2-10.6H155.8z"/>
			<path class="st2" d="M188.7,1103.2v12.2h-7.1v-29.6c0-2.1,0-4.2,0-6.2h6.9c0.1,0.7,0.2,2.3,0.2,3.2c1.1-1.9,3.4-3.8,7.5-3.8
				c5.8,0,10.3,4.9,10.3,12.9c0,9.1-5,14.2-11.3,14.2C191.6,1106.1,189.7,1104.7,188.7,1103.2z M199.3,1092.2c0-4.7-1.9-7.4-5.3-7.4
				c-4.1,0-5.5,2.6-5.5,7.8c0,4.9,1.3,7.8,5.2,7.8C197.5,1100.4,199.3,1097.5,199.3,1092.2z"/>
			<path class="st2" d="M217.2,1094.1c0,3.2,1.6,6.4,5.2,6.4c3,0,3.8-1.2,4.5-2.8h7.2c-0.9,3.2-3.7,8.4-11.9,8.4
				c-8.5,0-12.2-6.4-12.2-13.2c0-8.1,4.2-13.9,12.5-13.9c8.9,0,11.9,6.4,11.9,12.9c0,0.9,0,1.4-0.1,2.2H217.2z M227.2,1089.7
				c0-3-1.3-5.5-4.7-5.5c-3.4,0-4.8,2.4-5.1,5.5H227.2z M232.6,1068.5l-8,7.4h-6.3l5.8-7.4H232.6z"/>
			<path class="st2" d="M261.7,1097.1c-0.9,4.3-3.9,9-11.6,9c-8.1,0-12.2-5.6-12.2-13.4c0-7.6,4.7-13.7,12.5-13.7
				c8.7,0,11.2,6.3,11.3,9.2h-7c-0.4-2.1-1.6-3.6-4.4-3.6c-3.3,0-5.1,2.9-5.1,7.9c0,5.5,2,8,5.1,8c2.5,0,3.8-1.5,4.4-3.4H261.7z"/>
			<path class="st2" d="M266.2,1069h7.2v6.4h-7.2V1069z M266.2,1079.6h7.2v25.9h-7.2V1079.6z"/>
			<path class="st2" d="M301.3,1098.8c0,2.5,0.2,6.1,0.4,6.7h-6.8c-0.2-0.5-0.4-1.9-0.4-2.5c-0.9,1.5-2.7,3.1-7.3,3.1
				c-6.2,0-8.9-4.1-8.9-8.1c0-5.9,4.7-8.6,12.3-8.6c1.3,0,2.8,0,3.7,0v-1.6c0-1.8-0.7-3.6-4-3.6c-3,0-3.7,1.3-4,3.2h-6.8
				c0.4-4.6,3.2-8.3,11.1-8.3c6.9,0,10.7,2.8,10.7,8.9V1098.8z M294.3,1093.7c-0.6,0-2,0-2.9,0c-4.3,0-5.9,1.3-5.9,3.8
				c0,1.9,1.1,3.5,3.7,3.5c4.6,0,5.1-3.2,5.1-6.6V1093.7z"/>
			<path class="st2" d="M307.8,1105.5V1069h7.2v36.5H307.8z"/>
			<path class="st2" d="M321.4,1069h7.2v6.4h-7.2V1069z M321.4,1079.6h7.2v25.9h-7.2V1079.6z"/>
			<path class="st2" d="M340.2,1097.7c0.5,2.1,2.2,3.2,4.9,3.2c2.6,0,3.6-0.9,3.6-2.5c0-1.7-1.1-2.3-4.8-3.2
				c-8.4-2.1-9.8-4.7-9.8-8.3c0-3.8,2.7-7.8,10.5-7.8c7.9,0,10.5,4.3,10.7,7.8h-6.8c-0.2-1-0.9-2.8-4.2-2.8c-2.4,0-3.1,1-3.1,2.2
				c0,1.3,0.8,1.9,5,2.9c8.6,2,9.9,5,9.9,8.8c0,4.3-3.3,8.2-11.2,8.2c-7.9,0-11.1-3.8-11.7-8.4H340.2z"/>
			<path class="st2" d="M358.2,1079.6h4v-7h7.2v7h5.1v5.4h-5.1v12.8c0,2,0.6,2.7,2.7,2.7c0.4,0,1.1,0,1.6-0.1v4.9
				c-1.4,0.5-3.4,0.5-4.8,0.5c-5,0-6.7-2.7-6.7-7.2V1085h-4V1079.6z"/>
			<path class="st2" d="M384.6,1094.1c0,3.2,1.6,6.4,5.2,6.4c3,0,3.8-1.2,4.5-2.8h7.2c-0.9,3.2-3.7,8.4-11.9,8.4
				c-8.5,0-12.2-6.4-12.2-13.2c0-8.1,4.2-13.9,12.5-13.9c8.9,0,11.9,6.4,11.9,12.9c0,0.9,0,1.4-0.1,2.2H384.6z M394.6,1089.7
				c0-3-1.3-5.5-4.7-5.5c-3.4,0-4.8,2.4-5.1,5.5H394.6z"/>
			<path class="st2" d="M424.5,1094.1c0,3.2,1.6,6.4,5.2,6.4c3,0,3.8-1.2,4.5-2.8h7.2c-0.9,3.2-3.7,8.4-11.9,8.4
				c-8.5,0-12.2-6.4-12.2-13.2c0-8.1,4.2-13.9,12.5-13.9c8.9,0,11.9,6.4,11.9,12.9c0,0.9,0,1.4-0.1,2.2H424.5z M434.5,1089.7
				c0-3-1.3-5.5-4.7-5.5c-3.4,0-4.8,2.4-5.1,5.5H434.5z"/>
			<path class="st2" d="M446.6,1086.1c0-2.2,0-4.6,0-6.5h6.9c0.1,0.7,0.2,2.5,0.3,3.3c0.9-1.6,3-3.9,7.5-3.9c5.2,0,8.6,3.5,8.6,10
				v16.5h-7.2v-15.7c0-2.9-1-5-4.1-5c-3,0-4.8,1.7-4.8,6.3v14.4h-7.2V1086.1z"/>
			<path class="st2" d="M488.3,1069h7.2v6.4h-7.2V1069z M488.3,1079.6h7.2v25.9h-7.2V1079.6z"/>
			<path class="st2" d="M501.9,1086.1c0-2.2,0-4.6,0-6.5h6.9c0.1,0.7,0.2,2.5,0.3,3.3c0.9-1.6,3-3.9,7.5-3.9c5.2,0,8.6,3.5,8.6,10
				v16.5H518v-15.7c0-2.9-1-5-4.1-5c-3,0-4.8,1.7-4.8,6.3v14.4h-7.2V1086.1z"/>
			<path class="st2" d="M536.8,1097.7c0.5,2.1,2.2,3.2,4.9,3.2c2.6,0,3.6-0.9,3.6-2.5c0-1.7-1.1-2.3-4.8-3.2
				c-8.4-2.1-9.8-4.7-9.8-8.3c0-3.8,2.7-7.8,10.5-7.8c7.9,0,10.5,4.3,10.7,7.8h-6.8c-0.2-1-0.9-2.8-4.2-2.8c-2.4,0-3.1,1-3.1,2.2
				c0,1.3,0.8,1.9,5,2.9c8.6,2,9.9,5,9.9,8.8c0,4.3-3.3,8.2-11.2,8.2c-7.9,0-11.1-3.8-11.7-8.4H536.8z"/>
			<path class="st2" d="M554.8,1079.6h4v-7h7.2v7h5.1v5.4h-5.1v12.8c0,2,0.6,2.7,2.7,2.7c0.4,0,1.1,0,1.6-0.1v4.9
				c-1.4,0.5-3.4,0.5-4.8,0.5c-5,0-6.7-2.7-6.7-7.2V1085h-4V1079.6z"/>
			<path class="st2" d="M596.9,1098.8c0,2.5,0.2,6.1,0.4,6.7h-6.8c-0.2-0.5-0.3-1.9-0.4-2.5c-0.9,1.5-2.7,3.1-7.3,3.1
				c-6.2,0-8.9-4.1-8.9-8.1c0-5.9,4.7-8.6,12.3-8.6c1.3,0,2.8,0,3.7,0v-1.6c0-1.8-0.7-3.6-4-3.6c-3,0-3.7,1.3-4,3.2h-6.8
				c0.4-4.6,3.2-8.3,11.1-8.3c6.9,0,10.7,2.8,10.7,8.9V1098.8z M589.9,1093.7c-0.6,0-2,0-2.9,0c-4.3,0-5.9,1.3-5.9,3.8
				c0,1.9,1.1,3.5,3.7,3.5c4.6,0,5.1-3.2,5.1-6.6V1093.7z"/>
			<path class="st2" d="M603.4,1105.5V1069h7.2v36.5H603.4z"/>
			<path class="st2" d="M617,1105.5V1069h7.2v36.5H617z"/>
			<path class="st2" d="M652.1,1098.8c0,2.5,0.2,6.1,0.4,6.7h-6.8c-0.2-0.5-0.3-1.9-0.4-2.5c-0.9,1.5-2.7,3.1-7.3,3.1
				c-6.2,0-8.9-4.1-8.9-8.1c0-5.9,4.7-8.6,12.3-8.6c1.3,0,2.8,0,3.7,0v-1.6c0-1.8-0.7-3.6-4-3.6c-3,0-3.7,1.3-4,3.2h-6.8
				c0.4-4.6,3.2-8.3,11.1-8.3c6.9,0,10.7,2.8,10.7,8.9V1098.8z M645.1,1093.7c-0.6,0-2,0-2.9,0c-4.3,0-5.9,1.3-5.9,3.8
				c0,1.9,1.1,3.5,3.7,3.5c4.6,0,5.1-3.2,5.1-6.6V1093.7z"/>
			<path class="st2" d="M656,1079.6h4v-7h7.2v7h5.1v5.4h-5.1v12.8c0,2,0.6,2.7,2.7,2.7c0.4,0,1.1,0,1.6-0.1v4.9
				c-1.4,0.5-3.4,0.5-4.8,0.5c-5,0-6.7-2.7-6.7-7.2V1085h-4V1079.6z"/>
			<path class="st2" d="M676.7,1069h7.2v6.4h-7.2V1069z M676.7,1079.6h7.2v25.9h-7.2V1079.6z"/>
			<path class="st2" d="M714.4,1092.5c0,7.8-4.7,13.6-12.9,13.6c-8,0-12.7-5.7-12.7-13.5c0-8,4.8-13.6,13-13.6
				C709.5,1079,714.4,1084.4,714.4,1092.5z M696.1,1092.6c0,5,2.1,7.9,5.6,7.9c3.5,0,5.5-3,5.5-7.9c0-5.4-2-8-5.6-8
				C698.2,1084.6,696.1,1087.1,696.1,1092.6z"/>
			<path class="st2" d="M719.3,1086.1c0-2.2,0-4.6,0-6.5h6.9c0.1,0.7,0.2,2.5,0.3,3.3c0.9-1.6,3-3.9,7.5-3.9c5.2,0,8.6,3.5,8.6,10
				v16.5h-7.2v-15.7c0-2.9-1-5-4.1-5c-3,0-4.8,1.7-4.8,6.3v14.4h-7.2V1086.1z"/>
			<path class="st2" d="M784.8,1069v29.4c0,2.4,0,4.7,0,7.1H778c-0.1-0.8-0.3-2.1-0.3-2.7c-1.3,2-3.5,3.3-7.3,3.3
				c-6.5,0-10.7-5.3-10.7-13.3c0-8,4.4-13.8,11.8-13.8c3.7,0,5.7,1.3,6.3,2.5V1069H784.8z M766.9,1092.6c0,5,2,7.8,5.5,7.8
				c4.9,0,5.5-4.1,5.5-7.8c0-4.4-0.6-7.8-5.3-7.8C768.8,1084.8,766.9,1087.7,766.9,1092.6z"/>
			<path class="st2" d="M796.9,1094.1c0,3.2,1.6,6.4,5.2,6.4c3,0,3.8-1.2,4.5-2.8h7.2c-0.9,3.2-3.7,8.4-11.9,8.4
				c-8.5,0-12.2-6.4-12.2-13.2c0-8.1,4.2-13.9,12.5-13.9c8.9,0,11.9,6.4,11.9,12.9c0,0.9,0,1.4-0.1,2.2H796.9z M806.9,1089.7
				c-0.1-3-1.3-5.5-4.7-5.5c-3.4,0-4.8,2.4-5.1,5.5H806.9z"/>
			<path class="st2" d="M371.9,1146.3c0-2.2,0-4.5,0-6.7h6.9c0.1,0.6,0.2,2.1,0.3,3.1c1.3-1.9,3.4-3.7,7.2-3.7
				c3.7,0,5.8,1.9,6.7,3.9c1.5-2.1,3.8-3.9,8-3.9c4.5,0,8.2,2.8,8.2,9.5v17h-7v-16.1c0-2.3-0.8-4.6-3.8-4.6c-3,0-4.2,2-4.2,5.9v14.8
				h-7v-15.8c0-2.7-0.7-4.8-3.7-4.8c-2.9,0-4.3,1.8-4.3,6.2v14.5h-7.1V1146.3z"/>
			<path class="st2" d="M436.9,1158.8c0,2.5,0.2,6.1,0.4,6.7h-6.8c-0.2-0.5-0.3-1.9-0.4-2.5c-0.9,1.5-2.7,3.1-7.3,3.1
				c-6.2,0-8.9-4.1-8.9-8.1c0-5.9,4.7-8.6,12.3-8.6c1.3,0,2.8,0,3.7,0v-1.6c0-1.8-0.7-3.6-4-3.6c-3,0-3.7,1.3-4,3.2h-6.8
				c0.4-4.6,3.2-8.3,11.1-8.3c6.9,0,10.7,2.8,10.7,8.9V1158.8z M429.9,1153.7c-0.6,0-2,0-2.9,0c-4.3,0-5.9,1.3-5.9,3.8
				c0,1.9,1.1,3.5,3.7,3.5c4.6,0,5.1-3.2,5.1-6.6V1153.7z"/>
			<path class="st2" d="M465.8,1157.1c-0.9,4.3-3.9,9-11.6,9c-8.1,0-12.2-5.6-12.2-13.4c0-7.6,4.7-13.7,12.5-13.7
				c8.7,0,11.2,6.3,11.3,9.2h-7c-0.4-2.1-1.6-3.6-4.4-3.6c-3.3,0-5.1,2.9-5.1,7.9c0,5.5,2,8,5.1,8c2.5,0,3.8-1.5,4.4-3.4H465.8z"/>
			<path class="st2" d="M477.5,1129v13.7c1.1-1.7,3.2-3.7,7.4-3.7c4.8,0,8.7,2.9,8.7,9.9v16.6h-7.1V1150c0-3.4-1.2-5.2-4.2-5.2
				c-4,0-4.8,3-4.8,7v13.7h-7.2V1129H477.5z"/>
			<path class="st2" d="M500.1,1129h7.2v6.4h-7.2V1129z M500.1,1139.6h7.2v25.9h-7.2V1139.6z"/>
			<path class="st2" d="M513.7,1146.1c0-2.2,0-4.6,0-6.5h6.9c0.1,0.7,0.2,2.5,0.3,3.3c0.9-1.6,3-3.9,7.5-3.9c5.2,0,8.6,3.5,8.6,10
				v16.5h-7.2v-15.7c0-2.9-1-5-4.1-5c-3,0-4.8,1.7-4.8,6.3v14.4h-7.2V1146.1z"/>
			<path class="st2" d="M549,1154.1c0,3.2,1.6,6.4,5.2,6.4c3,0,3.8-1.2,4.5-2.8h7.2c-0.9,3.2-3.7,8.4-11.9,8.4
				c-8.5,0-12.2-6.4-12.2-13.2c0-8.1,4.2-13.9,12.5-13.9c8.9,0,11.9,6.4,11.9,12.9c0,0.9,0,1.4-0.1,2.2H549z M559,1149.7
				c-0.1-3-1.3-5.5-4.7-5.5c-3.4,0-4.8,2.4-5.1,5.5H559z"/>
			<path class="st2" d="M576.3,1157.7c0.5,2.1,2.2,3.2,4.9,3.2c2.6,0,3.6-0.9,3.6-2.5c0-1.7-1.1-2.3-4.8-3.2
				c-8.4-2.1-9.8-4.7-9.8-8.3c0-3.8,2.7-7.8,10.5-7.8c7.9,0,10.5,4.3,10.7,7.8h-6.8c-0.2-1-0.9-2.8-4.2-2.8c-2.4,0-3.1,1-3.1,2.2
				c0,1.3,0.8,1.9,5,2.9c8.6,2,9.9,5,9.9,8.8c0,4.3-3.3,8.2-11.2,8.2c-7.9,0-11.1-3.8-11.7-8.4H576.3z"/>
			<path class="st2" d="M188.2,1214.1c0,3.2,1.6,6.4,5.2,6.4c3,0,3.8-1.2,4.5-2.8h7.2c-0.9,3.2-3.7,8.4-11.9,8.4
				c-8.5,0-12.2-6.4-12.2-13.2c0-8.1,4.2-13.9,12.5-13.9c8.9,0,11.9,6.4,11.9,12.9c0,0.9,0,1.4-0.1,2.2H188.2z M198.2,1209.7
				c0-3-1.3-5.5-4.7-5.5c-3.4,0-4.8,2.4-5.1,5.5H198.2z"/>
			<path class="st2" d="M207.7,1199.6h4v-7h7.2v7h5.1v5.4h-5.1v12.8c0,2,0.6,2.7,2.7,2.7c0.4,0,1.1,0,1.6-0.1v4.9
				c-1.4,0.5-3.4,0.5-4.8,0.5c-5,0-6.7-2.7-6.7-7.2V1205h-4V1199.6z"/>
			<path class="st2" d="M246.2,1214.1c0,3.2,1.6,6.4,5.2,6.4c3,0,3.8-1.2,4.5-2.8h7.2c-0.9,3.2-3.7,8.4-11.9,8.4
				c-8.5,0-12.2-6.4-12.2-13.2c0-8.1,4.2-13.9,12.5-13.9c8.9,0,11.9,6.4,11.9,12.9c0,0.9,0,1.4-0.1,2.2H246.2z M256.2,1209.7
				c0-3-1.3-5.5-4.7-5.5c-3.4,0-4.8,2.4-5.1,5.5H256.2z M261.5,1188.5l-8,7.4h-6.3l5.8-7.4H261.5z"/>
			<path class="st2" d="M284.8,1222.7c-1.5,2.4-3.8,3.4-7.2,3.4c-5.8,0-10.9-4.3-10.9-13.3c0-8.3,5-13.8,11.5-13.8
				c4.1,0,6,1.7,6.6,3c0-0.7,0.1-1.8,0.2-2.4h6.8c0,2.2,0,4.7,0,7.1v28.7h-6.9V1222.7z M274.1,1212.6c0,4.6,1.7,7.8,5.5,7.8
				c4.4,0,5.4-3.2,5.4-7.9c0-5-1-7.7-5.3-7.7C275.8,1204.8,274.1,1207.9,274.1,1212.6z"/>
			<path class="st2" d="M321,1218c0,2.5,0,5.2,0.1,7.5h-7c-0.1-0.7-0.1-2.1-0.2-3c-1.5,2.6-3.8,3.6-7.1,3.6c-5.3,0-8.6-3.2-8.6-9.6
				v-16.9h7.2v15.4c0,2.9,0.9,5.2,4,5.2c3.3,0,4.6-1.7,4.6-6.9v-13.8h7.2V1218z"/>
			<path class="st2" d="M327.4,1189h7.2v6.4h-7.2V1189z M327.4,1199.6h7.2v25.9h-7.2V1199.6z"/>
			<path class="st2" d="M348.2,1223.2v12.2H341v-29.6c0-2.1,0-4.2,0-6.2h6.9c0.1,0.7,0.2,2.3,0.2,3.2c1.1-1.9,3.4-3.8,7.5-3.8
				c5.8,0,10.3,4.9,10.3,12.9c0,9.1-5,14.2-11.3,14.2C351.1,1226.1,349.1,1224.7,348.2,1223.2z M358.7,1212.2c0-4.7-1.9-7.4-5.3-7.4
				c-4.1,0-5.5,2.6-5.5,7.8c0,4.9,1.3,7.8,5.2,7.8C356.9,1220.4,358.7,1217.5,358.7,1212.2z"/>
			<path class="st2" d="M376.6,1214.1c0,3.2,1.6,6.4,5.2,6.4c3,0,3.8-1.2,4.5-2.8h7.2c-0.9,3.2-3.7,8.4-11.9,8.4
				c-8.5,0-12.2-6.4-12.2-13.2c0-8.1,4.2-13.9,12.5-13.9c8.9,0,11.9,6.4,11.9,12.9c0,0.9,0,1.4-0.1,2.2H376.6z M386.6,1209.7
				c0-3-1.3-5.5-4.7-5.5c-3.4,0-4.8,2.4-5.1,5.5H386.6z"/>
			<path class="st2" d="M398.7,1206.3c0-2.2,0-4.5,0-6.7h6.9c0.1,0.6,0.2,2.1,0.3,3.1c1.3-1.9,3.4-3.7,7.2-3.7
				c3.7,0,5.8,1.9,6.7,3.9c1.5-2.1,3.8-3.9,8-3.9c4.5,0,8.2,2.8,8.2,9.5v17h-7v-16.1c0-2.3-0.8-4.6-3.8-4.6c-3,0-4.2,2-4.2,5.9v14.8
				h-7v-15.8c0-2.7-0.7-4.8-3.7-4.8c-2.9,0-4.3,1.8-4.3,6.2v14.5h-7.1V1206.3z"/>
			<path class="st2" d="M447.9,1214.1c0,3.2,1.6,6.4,5.2,6.4c3,0,3.8-1.2,4.5-2.8h7.2c-0.9,3.2-3.7,8.4-11.9,8.4
				c-8.5,0-12.2-6.4-12.2-13.2c0-8.1,4.2-13.9,12.5-13.9c8.9,0,11.9,6.4,11.9,12.9c0,0.9,0,1.4-0.1,2.2H447.9z M457.9,1209.7
				c-0.1-3-1.3-5.5-4.7-5.5c-3.4,0-4.8,2.4-5.1,5.5H457.9z"/>
			<path class="st2" d="M470,1206.1c0-2.2,0-4.6,0-6.5h6.9c0.1,0.7,0.2,2.5,0.3,3.3c0.9-1.6,3-3.9,7.5-3.9c5.2,0,8.6,3.5,8.6,10
				v16.5h-7.2v-15.7c0-2.9-1-5-4.1-5c-3,0-4.8,1.7-4.8,6.3v14.4H470V1206.1z"/>
			<path class="st2" d="M497.1,1199.6h4v-7h7.2v7h5.1v5.4h-5.1v12.8c0,2,0.6,2.7,2.7,2.7c0.4,0,1.1,0,1.6-0.1v4.9
				c-1.4,0.5-3.4,0.5-4.8,0.5c-5,0-6.7-2.7-6.7-7.2V1205h-4V1199.6z"/>
			<path class="st2" d="M529.9,1206.3c0-2.2,0-4.5,0-6.7h6.9c0.1,0.6,0.2,2.1,0.3,3.1c1.3-1.9,3.4-3.7,7.2-3.7
				c3.7,0,5.8,1.9,6.7,3.9c1.5-2.1,3.8-3.9,8-3.9c4.5,0,8.2,2.8,8.2,9.5v17h-7v-16.1c0-2.3-0.8-4.6-3.8-4.6c-3,0-4.2,2-4.2,5.9v14.8
				h-7v-15.8c0-2.7-0.7-4.8-3.7-4.8c-2.9,0-4.3,1.8-4.3,6.2v14.5h-7.1V1206.3z"/>
			<path class="st2" d="M579.1,1214.1c0,3.2,1.6,6.4,5.2,6.4c3,0,3.8-1.2,4.5-2.8h7.2c-0.9,3.2-3.7,8.4-11.9,8.4
				c-8.5,0-12.2-6.4-12.2-13.2c0-8.1,4.2-13.9,12.5-13.9c8.9,0,11.9,6.4,11.9,12.9c0,0.9,0,1.4-0.1,2.2H579.1z M589.1,1209.7
				c-0.1-3-1.3-5.5-4.7-5.5c-3.4,0-4.8,2.4-5.1,5.5H589.1z M594.5,1188.5l-8,7.4h-6.3l5.8-7.4H594.5z"/>
			<path class="st2" d="M623.6,1217.1c-0.9,4.3-3.9,9-11.6,9c-8.1,0-12.2-5.6-12.2-13.4c0-7.6,4.7-13.7,12.5-13.7
				c8.7,0,11.2,6.3,11.3,9.2h-7c-0.4-2.1-1.6-3.6-4.4-3.6c-3.3,0-5.1,2.9-5.1,7.9c0,5.5,2,8,5.1,8c2.5,0,3.8-1.5,4.4-3.4H623.6z"/>
			<path class="st2" d="M649.6,1218.8c0,2.5,0.2,6.1,0.4,6.7h-6.8c-0.2-0.5-0.3-1.9-0.4-2.5c-0.9,1.5-2.7,3.1-7.3,3.1
				c-6.2,0-8.9-4.1-8.9-8.1c0-5.9,4.7-8.6,12.3-8.6c1.3,0,2.8,0,3.7,0v-1.6c0-1.8-0.7-3.6-4-3.6c-3,0-3.7,1.3-4,3.2h-6.8
				c0.4-4.6,3.2-8.3,11.1-8.3c6.9,0,10.7,2.8,10.7,8.9V1218.8z M642.6,1213.7c-0.6,0-2,0-2.9,0c-4.3,0-5.9,1.3-5.9,3.8
				c0,1.9,1.1,3.5,3.7,3.5c4.6,0,5.1-3.2,5.1-6.6V1213.7z"/>
			<path class="st2" d="M656.1,1206.1c0-2.2,0-4.6,0-6.5h6.9c0.1,0.7,0.2,2.5,0.3,3.3c0.9-1.6,3-3.9,7.5-3.9c5.2,0,8.6,3.5,8.6,10
				v16.5h-7.2v-15.7c0-2.9-1-5-4.1-5c-3,0-4.8,1.7-4.8,6.3v14.4h-7.2V1206.1z"/>
			<path class="st2" d="M685.7,1189h7.2v6.4h-7.2V1189z M685.7,1199.6h7.2v25.9h-7.2V1199.6z"/>
			<path class="st2" d="M715.9,1222.7c-1.5,2.4-3.8,3.4-7.2,3.4c-5.8,0-10.9-4.3-10.9-13.3c0-8.3,5-13.8,11.5-13.8
				c4.1,0,6,1.7,6.6,3c0-0.7,0.1-1.8,0.2-2.4h6.8c0,2.2,0,4.7,0,7.1v28.7h-6.9V1222.7z M705.2,1212.6c0,4.6,1.7,7.8,5.5,7.8
				c4.4,0,5.4-3.2,5.4-7.9c0-5-1-7.7-5.3-7.7C706.9,1204.8,705.2,1207.9,705.2,1212.6z"/>
			<path class="st2" d="M752.1,1218c0,2.5,0,5.2,0,7.5h-7c-0.1-0.7-0.2-2.1-0.2-3c-1.5,2.6-3.8,3.6-7.1,3.6c-5.3,0-8.6-3.2-8.6-9.6
				v-16.9h7.2v15.4c0,2.9,0.9,5.2,4,5.2c3.3,0,4.6-1.7,4.6-6.9v-13.8h7.2V1218z"/>
			<path class="st2" d="M764.2,1214.1c0,3.2,1.6,6.4,5.2,6.4c3,0,3.8-1.2,4.5-2.8h7.2c-0.9,3.2-3.7,8.4-11.9,8.4
				c-8.5,0-12.2-6.4-12.2-13.2c0-8.1,4.2-13.9,12.5-13.9c8.9,0,11.9,6.4,11.9,12.9c0,0.9,0,1.4-0.1,2.2H764.2z M774.2,1209.7
				c-0.1-3-1.3-5.5-4.7-5.5c-3.4,0-4.8,2.4-5.1,5.5H774.2z"/>
		</g>
	</g>
	<g>
		<g>
			<path class="st1" d="M351.2,1449.1c3.6,12.4,5.6,19.5,6,21.6h0c0.4-1.9,2.8-9.5,6.5-21.6h2.6c4.5,14.8,5.8,19.1,6.2,21h0
				c0.7-2.6,1.8-6.2,6.2-21h2.5l-7.6,24h-2.6c-2.6-8.5-5.7-18.9-6.2-21.1h0c-0.5,2.4-3.2,10.9-6.3,21.1h-2.9l-7.1-24H351.2z"/>
			<path class="st1" d="M386.8,1449.1c3.6,12.4,5.6,19.5,6,21.6h0c0.4-1.9,2.8-9.5,6.5-21.6h2.6c4.5,14.8,5.8,19.1,6.2,21h0
				c0.7-2.6,1.8-6.2,6.2-21h2.5l-7.6,24h-2.6c-2.6-8.5-5.7-18.9-6.2-21.1h0c-0.5,2.4-3.2,10.9-6.3,21.1h-2.9l-7.1-24H386.8z"/>
			<path class="st1" d="M422.4,1449.1c3.6,12.4,5.6,19.5,6,21.6h0c0.4-1.9,2.8-9.5,6.5-21.6h2.6c4.5,14.8,5.8,19.1,6.2,21h0
				c0.7-2.6,1.8-6.2,6.2-21h2.5l-7.6,24h-2.6c-2.6-8.5-5.7-18.9-6.2-21.1h0c-0.5,2.4-3.2,10.9-6.3,21.1h-2.9l-7.1-24H422.4z"/>
			<path class="st1" d="M456.9,1473.1v-6.2h2.4v6.2H456.9z"/>
			<path class="st1" d="M466,1448.7c0.5-3.9,3.3-7.7,9.3-7.7c6,0,8.8,3.9,8.8,7.9c0,3.9-2.4,6-4.4,6.6v0.1c3.4,1,5.9,3.6,5.9,8.2
				c0,5.3-3.4,9.9-10.4,9.9c-6.4,0-9.6-4.2-10.2-8.4h2.5c0.8,3.2,3.3,6.1,7.9,6.1c5.4,0,7.5-3.6,7.5-7.5c0-5-3.3-7.1-8-7.1H473v-2.2
				h1.5c4.8,0,7-2,7-5.8c0-3.3-2.3-5.6-6.3-5.6c-4.2,0-6,2.2-6.8,5.4H466z"/>
			<path class="st1" d="M510,1466.1c-1.2,4.2-3.9,7.6-9.3,7.6c-6,0-10.3-4.5-10.3-12.5c0-6.6,3.5-12.7,10.6-12.7
				c6.1,0,8.6,4.3,9,7.7h-2.4c-0.7-2.8-2.5-5.4-6.6-5.4c-5.1,0-8,4.3-8,10.3c0,5.7,2.7,10.3,7.7,10.3c3.5,0,5.6-1.8,6.9-5.4H510z"/>
			<path class="st1" d="M515.5,1466.5c0.8,3.1,3,5,6.8,5c4.3,0,6-2,6-4.7c0-2.7-1.2-4.1-6.5-5.4c-6.2-1.5-7.7-3.4-7.7-6.5
				c0-3.3,2.5-6.4,7.9-6.4s8,3.3,8.4,6.7H528c-0.4-2-2-4.5-6.1-4.5c-4.2,0-5.4,2.1-5.4,4c0,2.2,1.2,3.3,5.9,4.5
				c6.8,1.6,8.4,3.8,8.4,7.4c0,4.4-3.6,7.1-8.6,7.1c-5.5,0-8.5-2.9-9.2-7.2H515.5z"/>
			<path class="st1" d="M536.9,1437.8h2.4v4.7h-2.4V1437.8z M536.9,1449.1h2.4v24h-2.4V1449.1z"/>
			<path class="st1" d="M546.1,1473.1v-6.2h2.4v6.2H546.1z"/>
			<path class="st1" d="M572.9,1466.1c-1.2,4.2-3.9,7.6-9.3,7.6c-6,0-10.3-4.5-10.3-12.5c0-6.6,3.5-12.7,10.6-12.7
				c6.1,0,8.6,4.3,9,7.7h-2.4c-0.7-2.8-2.5-5.4-6.6-5.4c-5.1,0-8,4.3-8,10.3c0,5.7,2.7,10.3,7.7,10.3c3.5,0,5.6-1.8,6.9-5.4H572.9z"
				/>
			<path class="st1" d="M598,1461.1c0,6.7-3.7,12.6-10.8,12.6c-6.5,0-10.5-5.3-10.5-12.6c0-6.9,3.8-12.6,10.8-12.6
				C593.7,1448.6,598,1453.6,598,1461.1z M579.1,1461.1c0,5.7,3.1,10.3,8.2,10.3c5.2,0,8.1-4.3,8.1-10.3c0-5.7-2.9-10.3-8.2-10.3
				C581.7,1450.8,579.1,1455.4,579.1,1461.1z"/>
			<path class="st1" d="M603.9,1455.3c0-2.1,0-4.3,0-6.2h2.4c0,0.8,0.1,2.9,0.1,4.3c1-2.4,3.2-4.8,7.2-4.8c3.4,0,6,1.7,7,4.8
				c1.2-2.5,3.6-4.8,7.8-4.8c3.7,0,7.5,2.1,7.5,8.8v15.8h-2.4v-15.5c0-3.2-1.2-6.7-5.6-6.7c-4.7,0-6.8,3.7-6.8,8.4v13.8h-2.4v-15.5
				c0-3.5-1.1-6.8-5.5-6.8c-4.7,0-6.9,4.1-6.9,9v13.2h-2.4V1455.3z"/>
		</g>
	</g>
</g>
<g id="Calque_2">
</g>
<g id="Calque_5">
</g>
<g id="Calque_4">
	<g>
		
			<image style="overflow:visible;opacity:0.6;" width="8235" height="7318" xlink:href="5F3F41B4.png"  transform="matrix(0.24 0 0 0.24 515.7203 -118.5997)">
		</image>
		<g>
			<polygon class="st3" points="2455,1595 1230,1592 564,-76 2455,-76 			"/>
		</g>
	</g>
	
		<rect x="898.1" y="-118.9" transform="matrix(0.929 -0.3701 0.3701 0.929 -223.9464 399.3654)" class="st0" width="61.3" height="1804.3"/>
	<line class="st4" x1="1543" y1="629" x2="1543" y2="234"/>
	<line class="st4" x1="1540.5" y1="1280.5" x2="1540.5" y2="901"/>
	<line class="st4" x1="1540.5" y1="234.5" x2="1735.5" y2="234.5"/>
	<line class="st4" x1="1538" y1="1279.5" x2="1733" y2="1279.5"/>
</g>
<g id="Calque_12">
	<g class="st5">
		<g class="st6">
			<polygon class="st7" points="612.2,315.9 612.2,278.7 500.4,278.7 500.4,315.9 537.6,315.9 537.6,576.7 500.4,576.7 500.4,614 
				612.2,614 612.2,576.7 574.9,576.7 574.9,315.9 			"/>
			<polygon class="st7" points="388.6,278.7 370,297.3 370,446.3 388.6,465 444.5,465 444.5,576.7 407.2,576.7 407.2,502.2 
				370,502.2 370,595.4 388.6,614 463.1,614 481.8,595.4 481.8,446.3 463.1,427.7 407.2,427.7 407.2,315.9 444.5,315.9 444.5,390.4 
				481.8,390.4 481.8,297.3 463.1,278.7 			"/>
			<polygon class="st7" points="258.2,278.7 239.6,297.3 239.6,595.4 258.2,614 332.7,614 351.4,595.4 351.4,502.2 314.1,502.2 
				314.1,576.7 276.8,576.7 276.8,315.9 314.1,315.9 314.1,390.4 351.4,390.4 351.4,297.3 332.7,278.7 			"/>
			<polygon class="st7" points="127.8,278.7 109.2,297.3 109.2,390.4 146.4,390.4 146.4,315.9 183.7,315.9 183.7,427.7 146.4,427.7 
				146.4,465 183.7,465 183.7,576.7 146.4,576.7 146.4,502.2 109.2,502.2 109.2,595.4 127.8,614 202.3,614 220.9,595.4 220.9,465 
				202.3,446.3 220.9,427.7 220.9,297.3 202.3,278.7 			"/>
		</g>
		<g class="st6">
			<polygon class="st8" points="202.3,297.3 202.3,446.3 220.9,427.7 220.9,297.3 202.3,278.7 			"/>
			<polygon class="st8" points="258.2,614 332.7,614 351.4,595.4 351.4,502.2 332.7,520.9 332.7,595.4 258.2,595.4 239.6,595.4 			
				"/>
			<polygon class="st8" points="388.6,465 444.5,465 463.1,446.3 388.6,446.3 370,446.3 			"/>
			<polygon class="st8" points="332.7,297.3 332.7,371.8 314.1,390.4 351.4,390.4 351.4,297.3 332.7,278.7 			"/>
			<polygon class="st8" points="463.1,297.3 463.1,371.8 444.5,390.4 481.8,390.4 481.8,297.3 463.1,278.7 			"/>
			<polygon class="st8" points="500.4,614 612.2,614 612.2,576.7 593.5,595.4 556.3,595.4 519,595.4 			"/>
			<polygon class="st8" points="146.4,465 183.7,465 202.3,446.3 165.1,446.3 			"/>
			<polygon class="st8" points="146.4,502.2 127.8,520.9 127.8,595.4 146.4,576.7 			"/>
			<polygon class="st8" points="127.8,595.4 109.2,595.4 127.8,614 202.3,614 220.9,595.4 220.9,465 202.3,446.3 202.3,595.4 			"/>
			<polygon class="st8" points="258.2,595.4 276.8,576.7 276.8,315.9 314.1,315.9 332.7,297.3 258.2,297.3 			"/>
			<polygon class="st8" points="388.6,446.3 407.2,427.7 407.2,315.9 444.5,315.9 463.1,297.3 388.6,297.3 			"/>
			<polygon class="st8" points="407.2,502.2 388.6,520.9 388.6,595.4 407.2,576.7 			"/>
			<polygon class="st8" points="388.6,595.4 370,595.4 388.6,614 463.1,614 481.8,595.4 481.8,446.3 463.1,427.7 463.1,446.3 
				463.1,595.4 			"/>
			<polygon class="st8" points="500.4,315.9 537.6,315.9 556.3,297.3 519,297.3 			"/>
			<polygon class="st8" points="574.9,315.9 612.2,315.9 612.2,278.7 593.5,297.3 556.3,297.3 556.3,595.4 574.9,576.7 			"/>
			<polygon class="st8" points="127.8,371.8 109.2,390.4 146.4,390.4 146.4,315.9 183.7,315.9 202.3,297.3 127.8,297.3 			"/>
		</g>
	</g>
	<g>
		<g>
			<polygon class="st9" points="624.2,331.7 624.2,292.1 505.4,292.1 505.4,331.7 545,331.7 545,608.7 505.4,608.7 505.4,648.3 
				624.2,648.3 624.2,608.7 584.6,608.7 584.6,331.7 			"/>
			<polygon class="st9" points="386.7,292.1 366.9,311.9 366.9,470.2 386.7,490 446.1,490 446.1,608.7 406.5,608.7 406.5,529.6 
				366.9,529.6 366.9,628.5 386.7,648.3 465.9,648.3 485.7,628.5 485.7,470.2 465.9,450.4 406.5,450.4 406.5,331.7 446.1,331.7 
				446.1,410.8 485.7,410.8 485.7,311.9 465.9,292.1 			"/>
			<polygon class="st9" points="248.1,292.1 228.3,311.9 228.3,628.5 248.1,648.3 327.3,648.3 347.1,628.5 347.1,529.6 307.5,529.6 
				307.5,608.7 267.9,608.7 267.9,331.7 307.5,331.7 307.5,410.8 347.1,410.8 347.1,311.9 327.3,292.1 			"/>
			<polygon class="st9" points="109.6,292.1 89.8,311.9 89.8,410.8 129.4,410.8 129.4,331.7 169,331.7 169,450.4 129.4,450.4 
				129.4,490 169,490 169,608.7 129.4,608.7 129.4,529.6 89.8,529.6 89.8,628.5 109.6,648.3 188.8,648.3 208.6,628.5 208.6,490 
				188.8,470.2 208.6,450.4 208.6,311.9 188.8,292.1 			"/>
		</g>
		<g>
			<polygon class="st10" points="188.8,311.9 188.8,470.2 208.6,450.4 208.6,311.9 188.8,292.1 			"/>
			<polygon class="st10" points="248.1,648.3 327.3,648.3 347.1,628.5 347.1,529.6 327.3,549.4 327.3,628.5 248.1,628.5 
				228.3,628.5 			"/>
			<polygon class="st10" points="386.7,490 446.1,490 465.9,470.2 386.7,470.2 366.9,470.2 			"/>
			<polygon class="st10" points="327.3,311.9 327.3,391 307.5,410.8 347.1,410.8 347.1,311.9 327.3,292.1 			"/>
			<polygon class="st10" points="465.9,311.9 465.9,391 446.1,410.8 485.7,410.8 485.7,311.9 465.9,292.1 			"/>
			<polygon class="st10" points="505.4,648.3 624.2,648.3 624.2,608.7 604.4,628.5 564.8,628.5 525.2,628.5 			"/>
			<polygon class="st10" points="129.4,490 169,490 188.8,470.2 149.2,470.2 			"/>
			<polygon class="st10" points="129.4,529.6 109.6,549.4 109.6,628.5 129.4,608.7 			"/>
			<polygon class="st10" points="109.6,628.5 89.8,628.5 109.6,648.3 188.8,648.3 208.6,628.5 208.6,490 188.8,470.2 188.8,628.5 
							"/>
			<polygon class="st10" points="248.1,628.5 267.9,608.7 267.9,331.7 307.5,331.7 327.3,311.9 248.1,311.9 			"/>
			<polygon class="st10" points="386.7,470.2 406.5,450.4 406.5,331.7 446.1,331.7 465.9,311.9 386.7,311.9 			"/>
			<polygon class="st10" points="406.5,529.6 386.7,549.4 386.7,628.5 406.5,608.7 			"/>
			<polygon class="st10" points="386.7,628.5 366.9,628.5 386.7,648.3 465.9,648.3 485.7,628.5 485.7,470.2 465.9,450.4 
				465.9,470.2 465.9,628.5 			"/>
			<polygon class="st10" points="505.4,331.7 545,331.7 564.8,311.9 525.2,311.9 			"/>
			<polygon class="st10" points="584.6,331.7 624.2,331.7 624.2,292.1 604.4,311.9 564.8,311.9 564.8,628.5 584.6,608.7 			"/>
			<polygon class="st10" points="109.6,391 89.8,410.8 129.4,410.8 129.4,331.7 169,331.7 188.8,311.9 109.6,311.9 			"/>
		</g>
	</g>
	<rect x="89.8" y="269.2" class="st10" width="534.4" height="2.5"/>
	<rect x="89.8" y="668.6" class="st10" width="534.4" height="2.5"/>
</g>
<g id="Calque_6_-_copie_2">
	<g>
		<polygon class="st0" points="1074,1133.1 1074.3,1151 2078,1151 2078,1133 		"/>
	</g>
	<rect x="1557" y="1151" class="st1" width="81" height="340"/>
	<g>
		<g>
			<path class="st2" d="M1694.4,1418.4c0,6.3-1.6,14.5-9,14.5c-7.1,0-8.9-7.5-8.9-14.2c0-6.7,1.9-14.2,9.1-14.2
				C1692.7,1404.3,1694.4,1411.8,1694.4,1418.4z M1678.8,1418.6c0,5.3,1.1,12.2,6.6,12.2c5.6,0,6.7-6.6,6.7-12.5
				c0-5.3-1.1-12-6.5-12C1679.9,1406.3,1678.8,1412.5,1678.8,1418.6z"/>
			<path class="st2" d="M1713.8,1410.3c-0.7-2.4-2.3-4.1-5.4-4.1c-5.3,0-7.1,4.9-7.3,12.2c1.1-2.3,3.2-4.7,7.5-4.7
				c5.5,0,8.3,4,8.3,9.2c0,5.1-2.8,9.9-8.7,9.9c-7.3,0-9.2-6.1-9.2-13.9c0-7.9,2.4-14.6,9.5-14.6c5.3,0,7.1,3.6,7.5,6H1713.8z
				 M1714.6,1423.1c0-3.4-1.3-7.3-6.2-7.3c-3.9,0-6.9,2.6-6.9,7.4c0,2.3,1.2,7.7,6.6,7.7C1712.9,1430.9,1714.6,1427,1714.6,1423.1z"
				/>
			<path class="st2" d="M1731.8,1424.6c0-4.1,2.7-6.4,5.3-7.4c-2.6-1.1-4.1-3.2-4.1-5.9c0-4,2.7-7.1,8-7.1c4.8,0,7.6,3.1,7.6,7
				c0,2.8-1.6,5-4.1,5.8c3,0.9,5.2,3.7,5.2,7.4c0,5-3.8,8.3-9.1,8.3C1735.5,1432.8,1731.8,1429.5,1731.8,1424.6z M1747.5,1424.5
				c0-4-2.5-6.2-6.7-6.2c-4.7,0-6.8,2.8-6.8,6.2c0,3.5,2.4,6.3,6.7,6.3C1744.7,1430.9,1747.5,1428.6,1747.5,1424.5z M1735.2,1411.3
				c0,2.6,1.6,5.1,5.7,5.1c3.8,0,5.4-2,5.4-4.9c0-2.6-1.6-5.1-5.5-5.1C1736.7,1406.3,1735.2,1408.5,1735.2,1411.3z"/>
			<path class="st2" d="M1772,1418.4c0,6.3-1.6,14.5-9,14.5c-7.1,0-8.9-7.5-8.9-14.2c0-6.7,1.9-14.2,9.1-14.2
				C1770.3,1404.3,1772,1411.8,1772,1418.4z M1756.4,1418.6c0,5.3,1.1,12.2,6.6,12.2c5.6,0,6.7-6.6,6.7-12.5c0-5.3-1.1-12-6.5-12
				C1757.5,1406.3,1756.4,1412.5,1756.4,1418.6z"/>
			<path class="st2" d="M1803.4,1404.8v2c-5.1,6.6-9.7,17.3-11.3,25.4h-2.2c1.4-7.6,6.3-18.9,11.2-25.4h-15v-2H1803.4z"/>
			<path class="st2" d="M1806.6,1424.6c0-4.1,2.7-6.4,5.3-7.4c-2.6-1.1-4.1-3.2-4.1-5.9c0-4,2.7-7.1,8-7.1c4.8,0,7.6,3.1,7.6,7
				c0,2.8-1.6,5-4.1,5.8c3,0.9,5.2,3.7,5.2,7.4c0,5-3.8,8.3-9.1,8.3C1810.3,1432.8,1806.6,1429.5,1806.6,1424.6z M1822.3,1424.5
				c0-4-2.5-6.2-6.7-6.2c-4.7,0-6.8,2.8-6.8,6.2c0,3.5,2.4,6.3,6.7,6.3C1819.6,1430.9,1822.3,1428.6,1822.3,1424.5z M1810,1411.3
				c0,2.6,1.6,5.1,5.7,5.1c3.8,0,5.4-2,5.4-4.9c0-2.6-1.6-5.1-5.5-5.1C1811.5,1406.3,1810,1408.5,1810,1411.3z"/>
			<path class="st2" d="M1839.5,1424.6c0-4.1,2.7-6.4,5.3-7.4c-2.6-1.1-4.1-3.2-4.1-5.9c0-4,2.7-7.1,8-7.1c4.8,0,7.6,3.1,7.6,7
				c0,2.8-1.6,5-4.1,5.8c3,0.9,5.2,3.7,5.2,7.4c0,5-3.8,8.3-9.1,8.3C1843.3,1432.8,1839.5,1429.5,1839.5,1424.6z M1855.3,1424.5
				c0-4-2.5-6.2-6.7-6.2c-4.7,0-6.8,2.8-6.8,6.2c0,3.5,2.4,6.3,6.7,6.3C1852.5,1430.9,1855.3,1428.6,1855.3,1424.5z M1843,1411.3
				c0,2.6,1.6,5.1,5.7,5.1c3.8,0,5.4-2,5.4-4.9c0-2.6-1.6-5.1-5.5-5.1C1844.5,1406.3,1843,1408.5,1843,1411.3z"/>
			<path class="st2" d="M1864.3,1426.8c1,2.7,2.7,4,5.6,4c6.3,0,6.8-8.9,6.9-12.7c-1.4,2.8-3.9,3.9-7.1,3.9c-4.8,0-8.1-3.6-8.1-8.7
				c0-4.8,3.1-9,8.6-9c6.2,0,8.7,5,8.7,12.6c0,6.9-1.2,15.8-9.2,15.8c-4.9,0-7.1-2.8-7.9-5.9H1864.3z M1863.8,1413.3
				c0,4,2.3,6.7,6,6.7c4.6,0,6.5-2.4,6.5-6.5c0-1.6-0.5-7.1-6.3-7.1C1865.7,1406.3,1863.8,1409.4,1863.8,1413.3z"/>
			<path class="st2" d="M1896.8,1426.8c1,2.7,2.7,4,5.6,4c6.3,0,6.8-8.9,6.9-12.7c-1.4,2.8-3.9,3.9-7.1,3.9c-4.8,0-8.1-3.6-8.1-8.7
				c0-4.8,3.1-9,8.6-9c6.2,0,8.7,5,8.7,12.6c0,6.9-1.2,15.8-9.1,15.8c-4.9,0-7.1-2.8-7.9-5.9H1896.8z M1896.4,1413.3
				c0,4,2.3,6.7,6,6.7c4.6,0,6.5-2.4,6.5-6.5c0-1.6-0.5-7.1-6.3-7.1C1898.3,1406.3,1896.4,1409.4,1896.4,1413.3z"/>
			<path class="st2" d="M1915.9,1424.6c0-4.1,2.7-6.4,5.3-7.4c-2.6-1.1-4.1-3.2-4.1-5.9c0-4,2.7-7.1,8-7.1c4.8,0,7.6,3.1,7.6,7
				c0,2.8-1.6,5-4.1,5.8c3,0.9,5.2,3.7,5.2,7.4c0,5-3.8,8.3-9.1,8.3C1919.7,1432.8,1915.9,1429.5,1915.9,1424.6z M1931.7,1424.5
				c0-4-2.5-6.2-6.7-6.2c-4.7,0-6.8,2.8-6.8,6.2c0,3.5,2.4,6.3,6.7,6.3C1928.9,1430.9,1931.7,1428.6,1931.7,1424.5z M1919.4,1411.3
				c0,2.6,1.6,5.1,5.7,5.1c3.8,0,5.4-2,5.4-4.9c0-2.6-1.6-5.1-5.5-5.1C1920.9,1406.3,1919.4,1408.5,1919.4,1411.3z"/>
		</g>
	</g>
	<g>
		<g>
			<path class="st2" d="M1612.7,1446.6c-1-1.1-2.3-1.7-3.6-1.7c-1.3,0-2.6,0.6-3.7,1.7l-3.4,3.4c-0.3-0.2-0.6-0.3-0.8-0.4
				c-0.4-0.2-0.8-0.4-1.1-0.6c-3.2-2-6.1-4.7-8.9-8.1c-1.3-1.7-2.2-3.1-2.9-4.6c0.9-0.8,1.7-1.6,2.5-2.5c0.3-0.3,0.6-0.6,0.9-0.9
				c2.3-2.3,2.3-5.2,0-7.4l-2.9-2.9c-0.3-0.3-0.7-0.7-1-1c-0.6-0.7-1.3-1.4-2-2c-1-1-2.3-1.6-3.6-1.6c-1.3,0-2.6,0.5-3.7,1.6
				c0,0,0,0,0,0l-3.7,3.7c-1.4,1.4-2.2,3.1-2.3,5c-0.3,3.1,0.7,6.1,1.4,8c1.7,4.7,4.3,9.1,8.2,13.7c4.7,5.6,10.4,10.1,16.9,13.2
				c2.5,1.2,5.8,2.6,9.5,2.8c0.2,0,0.5,0,0.7,0c2.5,0,4.6-0.9,6.2-2.7c0,0,0,0,0-0.1c0.6-0.7,1.2-1.3,1.9-1.9
				c0.5-0.4,0.9-0.9,1.4-1.4c1.1-1.1,1.6-2.4,1.6-3.7c0-1.3-0.6-2.6-1.7-3.7L1612.7,1446.6z M1616.5,1457.9
				C1616.5,1457.9,1616.5,1457.9,1616.5,1457.9c-0.4,0.5-0.9,0.9-1.3,1.3c-0.7,0.7-1.4,1.4-2.1,2.2c-1.1,1.2-2.4,1.7-4,1.7
				c-0.2,0-0.3,0-0.5,0c-3.2-0.2-6.2-1.5-8.4-2.5c-6.1-2.9-11.4-7.1-15.9-12.4c-3.7-4.4-6.1-8.5-7.7-12.9c-1-2.7-1.4-4.8-1.2-6.7
				c0.1-1.3,0.6-2.3,1.5-3.2l3.7-3.7c0.5-0.5,1.1-0.8,1.6-0.8c0.7,0,1.2,0.4,1.6,0.8c0,0,0,0,0,0c0.7,0.6,1.3,1.2,1.9,1.9
				c0.3,0.3,0.7,0.7,1,1l2.9,2.9c1.1,1.1,1.1,2.2,0,3.3c-0.3,0.3-0.6,0.6-0.9,0.9c-0.9,0.9-1.8,1.8-2.7,2.6c0,0,0,0-0.1,0.1
				c-0.9,0.9-0.8,1.8-0.6,2.4c0,0,0,0.1,0,0.1c0.8,1.9,1.8,3.6,3.5,5.7l0,0c3,3.7,6.1,6.5,9.6,8.7c0.4,0.3,0.9,0.5,1.3,0.7
				c0.4,0.2,0.8,0.4,1.1,0.6c0,0,0.1,0.1,0.1,0.1c0.4,0.2,0.7,0.3,1.1,0.3c0.9,0,1.5-0.6,1.6-0.7l3.7-3.7c0.4-0.4,0.9-0.8,1.6-0.8
				c0.7,0,1.2,0.4,1.5,0.8c0,0,0,0,0,0l5.9,5.9C1617.6,1455.6,1617.6,1456.8,1616.5,1457.9z"/>
			<path class="st2" d="M1599.9,1427.1c2.8,0.5,5.4,1.8,7.4,3.9c2,2,3.4,4.6,3.9,7.4c0.1,0.7,0.7,1.2,1.4,1.2c0.1,0,0.2,0,0.2,0
				c0.8-0.1,1.3-0.9,1.2-1.7c-0.6-3.4-2.2-6.5-4.7-9c-2.5-2.5-5.6-4.1-9-4.7c-0.8-0.1-1.5,0.4-1.7,1.2S1599.1,1427,1599.9,1427.1z"
				/>
			<path class="st2" d="M1623.3,1437.5c-1-5.6-3.6-10.7-7.7-14.8c-4.1-4.1-9.2-6.7-14.8-7.7c-0.8-0.1-1.5,0.4-1.7,1.2
				c-0.1,0.8,0.4,1.5,1.2,1.7c5,0.9,9.6,3.2,13.2,6.9c3.6,3.6,6,8.2,6.9,13.2c0.1,0.7,0.7,1.2,1.4,1.2c0.1,0,0.2,0,0.2,0
				C1622.9,1439,1623.5,1438.3,1623.3,1437.5z"/>
		</g>
	</g>
	<g>
		<g>
			<path class="st2" d="M1617.2,1346.1h-36.1c-3.2,0-5.8,2.6-5.8,5.8v24.7c0,3.2,2.6,5.8,5.8,5.8h36.1c3.2,0,5.8-2.6,5.8-5.8V1352
				C1623,1348.8,1620.4,1346.1,1617.2,1346.1z M1620.3,1376.6c0,1.7-1.4,3.2-3.2,3.2h-36.1c-1.7,0-3.2-1.4-3.2-3.2V1352
				c0-1.7,1.4-3.2,3.2-3.2h36.1c1.7,0,3.2,1.4,3.2,3.2L1620.3,1376.6L1620.3,1376.6z"/>
			<path class="st2" d="M1605.4,1364l11.7-10.5c0.5-0.5,0.6-1.3,0.1-1.9c-0.5-0.5-1.3-0.6-1.9-0.1l-16.1,14.5l-3.4-2.9
				c0,0,0.2,0,0.2,0c-0.1-0.1-0.1-0.1-0.2-0.2l-12.8-11.4c-0.6-0.5-1.4-0.4-1.9,0.1c-0.5,0.6-0.4,1.4,0.1,1.9l11.8,10.6l-11.8,11
				c-0.5,0.5-0.6,1.3-0.1,1.9c0.3,0.3,0.6,0.4,1,0.4c0.3,0,0.7-0.1,0.9-0.4l11.9-11.2l3.2,2.9c0.3,0.2,0.6,0.3,0.9,0.3
				s0.6-0.1,0.9-0.3l3.3-3l11.9,11.3c0.3,0.2,0.6,0.4,0.9,0.4c0.4,0,0.7-0.1,1-0.4c0.5-0.5,0.5-1.4,0-1.9L1605.4,1364z"/>
		</g>
	</g>
	<g>
		<g>
			<path class="st2" d="M1687.3,1215.7l-13.1-37h8.6l5.5,17.1c1.7,5.2,2.9,9.6,3.8,13.3h0.1c0.8-3.5,2.2-8,4-13.2l5.8-17.2h8.2
				l-13.4,37H1687.3z"/>
			<path class="st2" d="M1713.6,1176.5h7.7v6.9h-7.7V1176.5z M1713.6,1187.9h7.7v27.8h-7.7V1187.9z"/>
			<path class="st2" d="M1728.2,1194.9c0-2.4,0-4.9-0.1-7h7.5c0.2,0.7,0.3,2.6,0.3,3.5c0.9-1.7,3.2-4.2,8.1-4.2
				c5.6,0,9.2,3.8,9.2,10.8v17.7h-7.7v-16.8c0-3.1-1-5.4-4.4-5.4c-3.3,0-5.1,1.8-5.1,6.7v15.5h-7.7V1194.9z"/>
			<path class="st2" d="M1784.1,1206.7c-1,4.6-4.2,9.6-12.5,9.6c-8.6,0-13.1-6-13.1-14.3c0-8.2,5-14.7,13.5-14.7
				c9.4,0,12,6.7,12.1,9.9h-7.5c-0.5-2.3-1.8-3.8-4.8-3.8c-3.5,0-5.5,3.1-5.5,8.5c0,5.9,2.1,8.6,5.5,8.6c2.6,0,4.1-1.6,4.7-3.6
				H1784.1z"/>
			<path class="st2" d="M1795.1,1203.4c0,3.5,1.7,6.9,5.6,6.9c3.2,0,4.1-1.3,4.8-3h7.7c-1,3.4-4,9-12.7,9c-9.2,0-13.1-6.8-13.1-14.1
				c0-8.7,4.5-14.9,13.4-14.9c9.5,0,12.8,6.9,12.8,13.8c0,0.9,0,1.5-0.1,2.3H1795.1z M1805.8,1198.7c-0.1-3.2-1.3-6-5.1-6
				c-3.7,0-5.2,2.5-5.5,6H1805.8z"/>
			<path class="st2" d="M1818.8,1194.9c0-2.4,0-4.9-0.1-7h7.5c0.2,0.7,0.3,2.6,0.3,3.5c0.9-1.7,3.2-4.2,8.1-4.2
				c5.6,0,9.2,3.8,9.2,10.8v17.7h-7.7v-16.8c0-3.1-1-5.4-4.4-5.4c-3.3,0-5.1,1.8-5.1,6.7v15.5h-7.7V1194.9z"/>
			<path class="st2" d="M1847.9,1187.9h4.3v-7.5h7.7v7.5h5.4v5.8h-5.4v13.7c0,2.1,0.6,2.9,2.9,2.9c0.4,0,1.2,0,1.8-0.1v5.3
				c-1.5,0.5-3.6,0.5-5.2,0.5c-5.4,0-7.2-2.9-7.2-7.8v-14.6h-4.3V1187.9z"/>
			<path class="st2" d="M1892.7,1215.7l-13.1-37h8.6l5.5,17.1c1.7,5.2,2.9,9.6,3.8,13.3h0.1c0.8-3.5,2.2-8,4-13.2l5.8-17.2h8.2
				l-13.4,37H1892.7z"/>
			<path class="st2" d="M1945.4,1199.7h-17.7v9.4h19.5l-0.9,6.6H1920v-37h26.2v6.6h-18.5v7.9h17.7V1199.7z"/>
			<path class="st2" d="M1953.2,1178.6h8v30.5h18.4l-0.9,6.6h-25.5V1178.6z"/>
			<path class="st2" d="M1992,1185.2h-11.2v-6.6h30.5v6.6H2000v30.5h-8V1185.2z"/>
			<path class="st2" d="M2041.6,1199.7h-17.7v9.4h19.5l-0.9,6.6h-26.3v-37h26.2v6.6h-18.5v7.9h17.7V1199.7z"/>
			<path class="st2" d="M2049.4,1215.7v-37h9.9c4.6,8.3,13.2,23.3,14.9,27.3h0.1c-0.4-3.9-0.4-10.3-0.4-16.4v-11h7.3v37h-9.4
				c-4-7.2-13.4-24.4-15.3-28.7h-0.1c0.3,3.2,0.4,10.8,0.4,17.5v11.3H2049.4z"/>
		</g>
	</g>
	<g>
		<g>
			<path class="st2" d="M1677.6,1340.6c0.5-3.4,2.9-6.7,8.1-6.7c5.3,0,7.7,3.4,7.7,6.9c0,3.4-2,5.2-3.8,5.8v0.1
				c2.9,0.9,5.1,3.1,5.1,7.1c0,4.6-2.9,8.6-9,8.6c-5.6,0-8.4-3.6-8.9-7.3h2.2c0.7,2.8,2.9,5.3,6.9,5.3c4.7,0,6.6-3.2,6.6-6.5
				c0-4.4-2.9-6.1-6.9-6.1h-1.6v-1.9h1.3c4.2,0,6.1-1.8,6.1-5c0-2.9-2-4.9-5.5-4.9c-3.6,0-5.2,1.9-5.9,4.7H1677.6z"/>
			<path class="st2" d="M1715.9,1355.8c-1,3.7-3.4,6.6-8.1,6.6c-5.2,0-8.9-3.9-8.9-10.9c0-5.7,3.1-11,9.2-11c5.3,0,7.5,3.8,7.9,6.7
				h-2.1c-0.6-2.4-2.2-4.7-5.8-4.7c-4.4,0-6.9,3.8-6.9,9c0,5,2.3,9,6.7,9c3,0,4.9-1.5,6-4.7H1715.9z"/>
			<path class="st2" d="M1720.7,1356.1c0.7,2.7,2.6,4.3,5.9,4.3c3.7,0,5.2-1.7,5.2-4.1c0-2.4-1-3.6-5.7-4.7
				c-5.4-1.3-6.7-2.9-6.7-5.7c0-2.9,2.2-5.6,6.9-5.6c4.7,0,7,2.9,7.3,5.8h-2.1c-0.4-1.8-1.8-3.9-5.3-3.9c-3.6,0-4.7,1.8-4.7,3.5
				c0,1.9,1,2.9,5.1,3.9c5.9,1.4,7.4,3.3,7.4,6.5c0,3.8-3.1,6.1-7.5,6.1c-4.8,0-7.4-2.5-8-6.3H1720.7z"/>
			<path class="st2" d="M1739.3,1331.1h2.1v4.1h-2.1V1331.1z M1739.3,1341h2.1v20.9h-2.1V1341z"/>
			<path class="st2" d="M1774,1366.3c-2.1,1.5-5.4,2.8-10.4,2.8c-9.4,0-15.8-6.4-15.8-16.6c0-10.2,6.7-18.4,17.8-18.4
				c8.4,0,15.2,5.3,15.2,14.5c0,7.6-4,12.2-8.8,12.2c-2.3,0-3.9-1-3.8-3.7c-1.4,2.3-3.2,3.7-6.2,3.7c-3.3,0-5.8-2.4-5.8-7.3
				c0-6.4,3.7-11.4,8.6-11.4c3.8,0,5,2.3,5.3,3.8l0.8-3.3h2l-2.6,12.2c-0.7,3.1,0.3,4.1,1.9,4.1c3.7,0,6.2-3.9,6.2-9.9
				c0-7.6-5.2-12.6-13-12.6c-9.4,0-15.2,7.1-15.3,16.4c0,8.4,5.3,14.5,13.6,14.5c3.4,0,6.8-0.7,9.6-2.5L1774,1366.3z M1758.3,1353.2
				c0,3.6,1.5,5.5,4,5.5c3,0,5.3-1.9,6.4-7.2c1.1-4.8-0.3-7.5-4.1-7.5C1760.6,1344,1758.3,1348.2,1758.3,1353.2z"/>
			<path class="st2" d="M1804,1351.4c0,5.8-3.2,11-9.4,11c-5.6,0-9.1-4.6-9.1-10.9c0-6,3.3-10.9,9.4-10.9
				C1800.3,1340.5,1804,1344.9,1804,1351.4z M1787.6,1351.5c0,5,2.7,9,7.1,9c4.5,0,7.1-3.7,7.1-9c0-4.9-2.5-9-7.1-9
				C1789.9,1342.5,1787.6,1346.4,1787.6,1351.5z"/>
			<path class="st2" d="M1809.2,1346.7c0-3.5,0-5,0-5.7h2c0,0.7,0.1,2,0.1,4.7c1.2-3.1,3.9-5,7.3-5.2v2.3c-4.3,0.3-7.3,3.3-7.3,8.3
				v10.9h-2.1V1346.7z"/>
			<path class="st2" d="M1837,1357.9c0,1.8,0.2,3.3,0.3,4h-2c-0.2-0.5-0.3-1.4-0.4-3.2c-0.7,1.5-2.5,3.7-6.9,3.7
				c-4.8,0-6.9-3.1-6.9-6.3c0-4.6,3.6-6.7,9.8-6.7c1.8,0,3.1,0,4,0v-2.1c0-2.1-0.6-4.9-5.4-4.9c-4.2,0-4.8,2.2-5.3,3.9h-2.1
				c0.3-2.3,1.7-5.8,7.4-5.8c4.8,0,7.4,2,7.4,6.6V1357.9z M1835,1351.3c-0.8,0-2.7,0-4.1,0c-4.6,0-7.5,1.2-7.5,4.8
				c0,2.6,1.9,4.4,4.8,4.4c6,0,6.8-4,6.8-8.5V1351.3z"/>
			<path class="st2" d="M1843.9,1346.3c0-1.8,0-3.6,0-5.3h2c0.1,0.7,0.1,3.4,0.1,4c0.9-2.1,2.6-4.5,6.9-4.5c3.7,0,7,2.1,7,7.9v13.5
				h-2.1v-13.2c0-3.7-1.5-6.1-5.2-6.1c-5,0-6.7,4.1-6.7,8.7v10.7h-2.1V1346.3z"/>
			<path class="st2" d="M1882.8,1360.5c0,6.7-3,10.2-9,10.2c-5.4,0-7.7-3-8.2-6.2h2.1c0.8,2.9,3.1,4.3,6.1,4.3
				c5.4,0,6.9-3.5,6.9-8.8v-2.2c-1.1,2.7-3.2,4.2-7,4.2c-4.9,0-8.6-4-8.6-10.4c0-7,4-10.9,8.9-10.9c4.3,0,6.1,2,6.7,3.7
				c0-1.2,0.1-2.7,0.1-3.2h2c0,0.8-0.1,4.1-0.1,6.1V1360.5z M1867.4,1351.4c0,5,2.6,8.6,6.6,8.6c5.2,0,6.8-3.5,6.8-8.9
				c0-5.5-1.7-8.6-6.7-8.6C1869.3,1342.5,1867.4,1346.6,1867.4,1351.4z"/>
			<path class="st2" d="M1890.1,1351.7c0,5.4,2.8,8.7,6.8,8.7c3.9,0,5.3-2.2,6-3.9h2.1c-0.9,2.8-3.1,5.9-8.2,5.9
				c-6.4,0-8.8-5.5-8.8-10.8c0-6,3-11.1,9.1-11.1c6.4,0,8.5,5.6,8.5,9.5c0,0.6,0,1.2,0,1.7H1890.1z M1903.3,1349.9
				c0-4.1-2.3-7.4-6.4-7.4c-4.3,0-6.3,3-6.7,7.4H1903.3z"/>
			<path class="st2" d="M1909.7,1361.9v-5.4h2.1v5.4H1909.7z"/>
			<path class="st2" d="M1933.1,1355.8c-1,3.7-3.4,6.6-8.1,6.6c-5.2,0-8.9-3.9-8.9-10.9c0-5.7,3-11,9.2-11c5.3,0,7.5,3.8,7.9,6.7
				h-2.1c-0.6-2.4-2.2-4.7-5.8-4.7c-4.4,0-6.9,3.8-6.9,9c0,5,2.3,9,6.7,9c3,0,4.9-1.5,6-4.7H1933.1z"/>
			<path class="st2" d="M1954.8,1351.4c0,5.8-3.2,11-9.4,11c-5.6,0-9.1-4.6-9.1-10.9c0-6,3.3-10.9,9.4-10.9
				C1951.2,1340.5,1954.8,1344.9,1954.8,1351.4z M1938.4,1351.5c0,5,2.7,9,7.1,9c4.5,0,7.1-3.7,7.1-9c0-4.9-2.5-9-7.1-9
				C1940.7,1342.5,1938.4,1346.4,1938.4,1351.5z"/>
			<path class="st2" d="M1960,1346.4c0-1.8,0-3.8,0-5.4h2c0,0.7,0.1,2.5,0.1,3.7c0.9-2.1,2.8-4.2,6.3-4.2c2.9,0,5.2,1.5,6.1,4.1
				c1-2.2,3.1-4.1,6.8-4.1c3.2,0,6.6,1.8,6.6,7.6v13.7h-2.1v-13.5c0-2.8-1-5.8-4.9-5.8c-4.1,0-5.9,3.3-5.9,7.3v12h-2v-13.5
				c0-3-0.9-5.9-4.8-5.9c-4.1,0-6,3.6-6,7.9v11.5h-2.1V1346.4z"/>
		</g>
	</g>
	<g>
		<g>
			<path class="st2" d="M1782.6,1250.6v14.6h-2.5V1234h11.2c6.2,0,9.4,3.3,9.4,8.2c0,4-2.4,6.6-5.9,7.3c3.2,0.8,5.4,2.9,5.4,8.2v1.2
				c0,2.2-0.2,5.1,0.4,6.4h-2.5c-0.6-1.3-0.4-3.8-0.4-6.5v-0.8c0-5.1-1.5-7.3-7.5-7.3H1782.6z M1782.6,1248.4h7.6
				c5.5,0,8.1-2.1,8.1-6.2c0-3.8-2.5-6-7.4-6h-8.2V1248.4z"/>
			<path class="st2" d="M1808,1254.4c0,5.8,3,9.4,7.2,9.4c4.2,0,5.6-2.4,6.4-4.2h2.3c-0.9,3-3.3,6.3-8.8,6.3
				c-6.8,0-9.4-5.9-9.4-11.5c0-6.4,3.2-11.9,9.7-11.9c6.9,0,9.1,5.9,9.1,10.2c0,0.6,0,1.3,0,1.8H1808z M1822.2,1252.4
				c0-4.4-2.5-7.9-6.8-7.9c-4.6,0-6.7,3.2-7.2,7.9H1822.2z"/>
			<path class="st2" d="M1830,1259.1c0.8,2.9,2.8,4.7,6.4,4.7c4,0,5.6-1.8,5.6-4.3c0-2.5-1.1-3.8-6.1-5c-5.8-1.4-7.2-3.1-7.2-6.1
				c0-3.1,2.3-5.9,7.4-5.9c5.1,0,7.5,3.1,7.8,6.3h-2.2c-0.4-1.9-1.9-4.2-5.7-4.2c-3.9,0-5,1.9-5,3.7c0,2.1,1.1,3.1,5.5,4.2
				c6.3,1.5,7.9,3.6,7.9,6.9c0,4.1-3.3,6.6-8,6.6c-5.1,0-8-2.7-8.6-6.7H1830z"/>
			<path class="st2" d="M1852.1,1262v12.3h-2.2v-25.8c0-1.8,0-3.8,0-5.5h2.2c0.1,0.9,0.1,2.2,0.1,4c1.4-2.7,3.8-4.6,7.9-4.6
				c5.3,0,8.9,4.4,8.9,11.1c0,8.1-4.3,12.3-9.7,12.3C1855.3,1265.8,1853.2,1264.1,1852.1,1262z M1866.5,1253.6
				c0-5.2-2.5-9.1-6.9-9.1c-5.4,0-7.7,3.4-7.7,9.5c0,6,1.7,9.7,7.3,9.7C1863.9,1263.7,1866.5,1259.8,1866.5,1253.6z"/>
			<path class="st2" d="M1892.6,1254c0,6.2-3.4,11.8-10.1,11.8c-6,0-9.8-5-9.8-11.7c0-6.4,3.5-11.7,10-11.7
				C1888.7,1242.4,1892.6,1247,1892.6,1254z M1875.1,1254.1c0,5.3,2.9,9.6,7.6,9.6c4.8,0,7.6-4,7.6-9.6c0-5.3-2.7-9.6-7.7-9.6
				C1877.5,1244.5,1875.1,1248.7,1875.1,1254.1z"/>
			<path class="st2" d="M1898.2,1248.5c0-2,0-3.8,0-5.6h2.2c0.1,0.7,0.1,3.6,0.1,4.3c1-2.3,2.8-4.8,7.4-4.8c4,0,7.5,2.2,7.5,8.4
				v14.5h-2.2v-14.1c0-4-1.7-6.6-5.5-6.6c-5.3,0-7.2,4.4-7.2,9.3v11.4h-2.2V1248.5z"/>
			<path class="st2" d="M1922.7,1259.1c0.8,2.9,2.8,4.7,6.4,4.7c4,0,5.6-1.8,5.6-4.3c0-2.5-1.1-3.8-6.1-5c-5.8-1.4-7.2-3.1-7.2-6.1
				c0-3.1,2.3-5.9,7.4-5.9c5.1,0,7.5,3.1,7.8,6.3h-2.2c-0.4-1.9-1.9-4.2-5.7-4.2c-3.9,0-5,1.9-5,3.7c0,2.1,1.1,3.1,5.5,4.2
				c6.3,1.5,7.9,3.6,7.9,6.9c0,4.1-3.3,6.6-8,6.6c-5.1,0-8-2.7-8.6-6.7H1922.7z"/>
			<path class="st2" d="M1957.9,1261c0,2,0.2,3.5,0.3,4.3h-2.1c-0.2-0.5-0.3-1.5-0.4-3.4c-0.8,1.7-2.7,4-7.3,4
				c-5.2,0-7.4-3.4-7.4-6.7c0-4.9,3.8-7.2,10.5-7.2c1.9,0,3.4,0,4.3,0v-2.3c0-2.2-0.7-5.2-5.8-5.2c-4.5,0-5.2,2.4-5.7,4.2h-2.2
				c0.3-2.5,1.8-6.3,8-6.3c5.1,0,8,2.1,8,7.1V1261z M1955.7,1253.9c-0.9,0-2.9,0-4.4,0c-5,0-8.1,1.3-8.1,5.1c0,2.8,2,4.7,5.1,4.7
				c6.4,0,7.3-4.3,7.3-9.1V1253.9z"/>
			<path class="st2" d="M1965.3,1232.3h2.2v14.4c1.1-2.2,3.3-4.3,7.7-4.3c5.3,0,9.2,4.3,9.2,11.2c0,7.1-3.5,12.2-9.8,12.2
				c-3.8,0-5.9-1.5-7.1-4.1c0,1.4,0,2.9-0.1,3.5h-2.2c0-2.6,0-5.1,0-7.7V1232.3z M1982,1253.6c0-5.6-2.8-9.2-7-9.2
				c-5.6,0-7.6,3.8-7.6,9.7c0,5.3,1.7,9.6,7.3,9.6C1979.2,1263.7,1982,1260,1982,1253.6z"/>
			<path class="st2" d="M1989.9,1265.3v-33h2.2v33H1989.9z"/>
			<path class="st2" d="M1999.9,1254.4c0,5.8,3,9.4,7.2,9.4c4.2,0,5.6-2.4,6.4-4.2h2.3c-0.9,3-3.3,6.3-8.8,6.3
				c-6.8,0-9.4-5.9-9.4-11.5c0-6.4,3.2-11.9,9.7-11.9c6.9,0,9.1,5.9,9.1,10.2c0,0.6,0,1.3,0,1.8H1999.9z M2014.1,1252.4
				c0-4.4-2.5-7.9-6.8-7.9c-4.6,0-6.7,3.2-7.2,7.9H2014.1z"/>
			<path class="st2" d="M2057.9,1256.9c-1.5,5-5.1,8.7-11.8,8.7c-9,0-13.7-7.2-13.7-16c0-8.5,4.7-16.2,13.8-16.2
				c6.8,0,10.7,3.8,11.8,9h-2.4c-1.4-4.1-4.1-6.8-9.5-6.8c-7.8,0-11.1,7.1-11.1,13.9c0,6.7,3.2,13.8,11.2,13.8
				c5.1,0,7.7-2.6,9.3-6.5H2057.9z"/>
			<path class="st2" d="M2065.7,1232.3v14.4c1.3-2.3,3.4-4.3,7.4-4.3c3.2,0,7.6,1.6,7.6,8.7v14.2h-2.2v-13.8c0-4.4-2-6.9-5.7-6.9
				c-4.4,0-7,2.7-7,8.2v12.5h-2.2v-33H2065.7z"/>
			<path class="st2" d="M2103.3,1261c0,2,0.2,3.5,0.3,4.3h-2.1c-0.2-0.5-0.3-1.5-0.4-3.4c-0.8,1.7-2.7,4-7.3,4
				c-5.2,0-7.4-3.4-7.4-6.7c0-4.9,3.8-7.2,10.5-7.2c1.9,0,3.4,0,4.3,0v-2.3c0-2.2-0.7-5.2-5.8-5.2c-4.5,0-5.2,2.4-5.7,4.2h-2.2
				c0.3-2.5,1.8-6.3,8-6.3c5.1,0,8,2.1,8,7.1V1261z M2101.1,1253.9c-0.9,0-2.9,0-4.4,0c-5,0-8.1,1.3-8.1,5.1c0,2.8,2,4.7,5.1,4.7
				c6.4,0,7.3-4.3,7.3-9.1V1253.9z"/>
			<path class="st2" d="M2110.7,1248.5c0-2,0-3.8,0-5.6h2.2c0.1,0.7,0.1,3.6,0.1,4.3c1-2.3,2.8-4.8,7.4-4.8c4,0,7.5,2.2,7.5,8.4
				v14.5h-2.2v-14.1c0-4-1.7-6.6-5.5-6.6c-5.3,0-7.2,4.4-7.2,9.3v11.4h-2.2V1248.5z"/>
			<path class="st2" d="M2131.9,1242.9h4.2v-7h2.2v7h5.3v2.1h-5.3v14.5c0,2.5,0.5,3.9,2.7,3.9c0.7,0,1.6,0,2.3-0.3v2
				c-0.8,0.3-1.8,0.4-2.8,0.4c-2.9,0-4.5-1.4-4.5-5V1245h-4.2V1242.9z"/>
			<path class="st2" d="M2148.1,1232.3h2.2v4.3h-2.2V1232.3z M2148.1,1242.9h2.2v22.4h-2.2V1242.9z"/>
			<path class="st2" d="M2158.2,1254.4c0,5.8,3,9.4,7.2,9.4c4.2,0,5.6-2.4,6.4-4.2h2.3c-0.9,3-3.3,6.3-8.8,6.3
				c-6.8,0-9.4-5.9-9.4-11.5c0-6.4,3.2-11.9,9.7-11.9c6.9,0,9.1,5.9,9.1,10.2c0,0.6,0,1.3,0,1.8H2158.2z M2172.4,1252.4
				c0-4.4-2.5-7.9-6.8-7.9c-4.6,0-6.7,3.2-7.2,7.9H2172.4z"/>
			<path class="st2" d="M2180.2,1249c0-3.8,0-5.4,0-6.1h2.2c0,0.7,0.1,2.1,0.1,5c1.3-3.4,4.2-5.4,7.8-5.5v2.4
				c-4.7,0.3-7.8,3.5-7.8,8.9v11.6h-2.2V1249z"/>
		</g>
	</g>
	<g>
		<g id="XMLID_1_">
			<path id="XMLID_3_" class="st2" d="M1622,1244.2c-1.4-9.4-4.7-18.6-12.1-23.1c-3,2.4-6.7,3.7-10.7,3.7c-3.9,0-7.6-1.3-10.7-3.7
				c-7.3,4.5-10.7,13.7-12.1,23.1c-0.3,2,1.3,3.8,3.3,3.8h38.9C1620.7,1248,1622.3,1246.2,1622,1244.2z"/>
			<g id="XMLID_2_">
				<path class="st2" d="M1599.2,1194c-7.4,0-13.5,6-13.5,13.5s6,13.5,13.5,13.5c7.5,0,13.5-6,13.5-13.5S1606.7,1194,1599.2,1194z
					 M1599.2,1203.1c-2.4,0-4.4,2-4.4,4.4c0,1.1-0.9,2-2,2s-2-0.9-2-2c0-4.6,3.8-8.4,8.4-8.4c1.1,0,2,0.9,2,2
					C1601.2,1202.2,1600.3,1203.1,1599.2,1203.1z"/>
			</g>
		</g>
	</g>
</g>
<g id="Calque_6_-_copie">
	<g>
		<polygon class="st0" points="656,59 656.3,73 1699,73 1699,59 		"/>
	</g>
	<rect x="969" y="73" class="st1" width="81" height="336"/>
	<g>
		<g>
			<path class="st2" d="M1107.4,343.4c0,6.3-1.6,14.5-9,14.5c-7.1,0-8.9-7.5-8.9-14.2c0-6.7,1.9-14.2,9.1-14.2
				C1105.7,329.3,1107.4,336.8,1107.4,343.4z M1091.8,343.6c0,5.3,1.1,12.2,6.6,12.2c5.6,0,6.7-6.6,6.7-12.5c0-5.3-1.1-12-6.5-12
				C1092.9,331.3,1091.8,337.5,1091.8,343.6z"/>
			<path class="st2" d="M1126.8,335.3c-0.7-2.4-2.3-4.1-5.4-4.1c-5.3,0-7.1,4.9-7.3,12.2c1.1-2.3,3.2-4.7,7.5-4.7
				c5.5,0,8.3,4,8.3,9.2c0,5.1-2.8,9.9-8.7,9.9c-7.3,0-9.2-6.1-9.2-13.9c0-7.9,2.4-14.6,9.5-14.6c5.3,0,7.1,3.6,7.5,6H1126.8z
				 M1127.6,348.1c0-3.4-1.3-7.3-6.2-7.3c-3.9,0-6.9,2.6-6.9,7.4c0,2.3,1.2,7.7,6.6,7.7C1125.9,355.9,1127.6,352,1127.6,348.1z"/>
			<path class="st2" d="M1144.8,349.6c0-4.1,2.7-6.4,5.3-7.4c-2.6-1.1-4.1-3.2-4.1-5.9c0-4,2.7-7.1,8-7.1c4.8,0,7.6,3.1,7.6,7
				c0,2.8-1.6,5-4.1,5.8c3,0.9,5.2,3.7,5.2,7.4c0,5-3.8,8.3-9.1,8.3C1148.5,357.8,1144.8,354.5,1144.8,349.6z M1160.5,349.5
				c0-4-2.5-6.2-6.7-6.2c-4.7,0-6.8,2.8-6.8,6.2c0,3.5,2.4,6.3,6.7,6.3C1157.7,355.9,1160.5,353.6,1160.5,349.5z M1148.2,336.3
				c0,2.6,1.6,5.1,5.7,5.1c3.8,0,5.4-2,5.4-4.9c0-2.6-1.6-5.1-5.5-5.1C1149.7,331.3,1148.2,333.5,1148.2,336.3z"/>
			<path class="st2" d="M1185,343.4c0,6.3-1.6,14.5-9,14.5c-7.1,0-8.9-7.5-8.9-14.2c0-6.7,1.9-14.2,9.1-14.2
				C1183.3,329.3,1185,336.8,1185,343.4z M1169.4,343.6c0,5.3,1.1,12.2,6.6,12.2c5.6,0,6.7-6.6,6.7-12.5c0-5.3-1.1-12-6.5-12
				C1170.5,331.3,1169.4,337.5,1169.4,343.6z"/>
			<path class="st2" d="M1216.4,329.8v2c-5.1,6.6-9.7,17.3-11.3,25.4h-2.2c1.4-7.6,6.3-18.9,11.2-25.4h-15v-2H1216.4z"/>
			<path class="st2" d="M1219.6,349.6c0-4.1,2.7-6.4,5.3-7.4c-2.6-1.1-4.1-3.2-4.1-5.9c0-4,2.7-7.1,8-7.1c4.8,0,7.6,3.1,7.6,7
				c0,2.8-1.6,5-4.1,5.8c3,0.9,5.2,3.7,5.2,7.4c0,5-3.8,8.3-9.1,8.3C1223.3,357.8,1219.6,354.5,1219.6,349.6z M1235.3,349.5
				c0-4-2.5-6.2-6.7-6.2c-4.7,0-6.8,2.8-6.8,6.2c0,3.5,2.4,6.3,6.7,6.3C1232.6,355.9,1235.3,353.6,1235.3,349.5z M1223,336.3
				c0,2.6,1.6,5.1,5.7,5.1c3.8,0,5.4-2,5.4-4.9c0-2.6-1.6-5.1-5.5-5.1C1224.5,331.3,1223,333.5,1223,336.3z"/>
			<path class="st2" d="M1252.5,349.6c0-4.1,2.7-6.4,5.3-7.4c-2.6-1.1-4.1-3.2-4.1-5.9c0-4,2.7-7.1,8-7.1c4.8,0,7.6,3.1,7.6,7
				c0,2.8-1.6,5-4.1,5.8c3,0.9,5.2,3.7,5.2,7.4c0,5-3.8,8.3-9.1,8.3C1256.3,357.8,1252.5,354.5,1252.5,349.6z M1268.3,349.5
				c0-4-2.5-6.2-6.7-6.2c-4.7,0-6.8,2.8-6.8,6.2c0,3.5,2.4,6.3,6.7,6.3C1265.5,355.9,1268.3,353.6,1268.3,349.5z M1256,336.3
				c0,2.6,1.6,5.1,5.7,5.1c3.8,0,5.4-2,5.4-4.9c0-2.6-1.6-5.1-5.5-5.1C1257.5,331.3,1256,333.5,1256,336.3z"/>
			<path class="st2" d="M1277.3,351.8c1,2.7,2.7,4,5.6,4c6.3,0,6.8-8.9,6.9-12.7c-1.4,2.8-3.9,3.9-7.1,3.9c-4.8,0-8.1-3.6-8.1-8.7
				c0-4.8,3.1-9,8.6-9c6.2,0,8.7,5,8.7,12.6c0,6.9-1.2,15.8-9.2,15.8c-4.9,0-7.1-2.8-7.9-5.9H1277.3z M1276.8,338.3
				c0,4,2.3,6.7,6,6.7c4.6,0,6.5-2.4,6.5-6.5c0-1.6-0.5-7.1-6.3-7.1C1278.7,331.3,1276.8,334.4,1276.8,338.3z"/>
			<path class="st2" d="M1309.8,351.8c1,2.7,2.7,4,5.6,4c6.3,0,6.8-8.9,6.9-12.7c-1.4,2.8-3.9,3.9-7.1,3.9c-4.8,0-8.1-3.6-8.1-8.7
				c0-4.8,3.1-9,8.6-9c6.2,0,8.7,5,8.7,12.6c0,6.9-1.2,15.8-9.1,15.8c-4.9,0-7.1-2.8-7.9-5.9H1309.8z M1309.4,338.3
				c0,4,2.3,6.7,6,6.7c4.6,0,6.5-2.4,6.5-6.5c0-1.6-0.5-7.1-6.3-7.1C1311.3,331.3,1309.4,334.4,1309.4,338.3z"/>
			<path class="st2" d="M1328.9,349.6c0-4.1,2.7-6.4,5.3-7.4c-2.6-1.1-4.1-3.2-4.1-5.9c0-4,2.7-7.1,8-7.1c4.8,0,7.6,3.1,7.6,7
				c0,2.8-1.6,5-4.1,5.8c3,0.9,5.2,3.7,5.2,7.4c0,5-3.8,8.3-9.1,8.3C1332.7,357.8,1328.9,354.5,1328.9,349.6z M1344.7,349.5
				c0-4-2.5-6.2-6.7-6.2c-4.7,0-6.8,2.8-6.8,6.2c0,3.5,2.4,6.3,6.7,6.3C1341.9,355.9,1344.7,353.6,1344.7,349.5z M1332.4,336.3
				c0,2.6,1.6,5.1,5.7,5.1c3.8,0,5.4-2,5.4-4.9c0-2.6-1.6-5.1-5.5-5.1C1333.9,331.3,1332.4,333.5,1332.4,336.3z"/>
		</g>
	</g>
	<g>
		<g>
			<path class="st2" d="M1024.7,364.6c-1-1.1-2.3-1.7-3.6-1.7c-1.3,0-2.6,0.6-3.7,1.7l-3.4,3.4c-0.3-0.2-0.6-0.3-0.8-0.4
				c-0.4-0.2-0.8-0.4-1.1-0.6c-3.2-2-6.1-4.7-8.9-8.1c-1.3-1.7-2.2-3.1-2.9-4.6c0.9-0.8,1.7-1.6,2.5-2.5c0.3-0.3,0.6-0.6,0.9-0.9
				c2.3-2.3,2.3-5.2,0-7.4l-2.9-2.9c-0.3-0.3-0.7-0.7-1-1c-0.6-0.7-1.3-1.4-2-2c-1-1-2.3-1.6-3.6-1.6s-2.6,0.5-3.7,1.6c0,0,0,0,0,0
				l-3.7,3.7c-1.4,1.4-2.2,3.1-2.3,5c-0.3,3.1,0.7,6.1,1.4,8c1.7,4.7,4.3,9.1,8.2,13.7c4.7,5.6,10.4,10.1,16.9,13.2
				c2.5,1.2,5.8,2.6,9.5,2.8c0.2,0,0.5,0,0.7,0c2.5,0,4.6-0.9,6.2-2.7c0,0,0,0,0-0.1c0.6-0.7,1.2-1.3,1.9-1.9
				c0.5-0.4,0.9-0.9,1.4-1.4c1.1-1.1,1.6-2.4,1.6-3.7c0-1.3-0.6-2.6-1.7-3.7L1024.7,364.6z M1028.5,375.9
				C1028.5,375.9,1028.5,375.9,1028.5,375.9c-0.4,0.5-0.9,0.9-1.3,1.3c-0.7,0.7-1.4,1.4-2.1,2.2c-1.1,1.2-2.4,1.7-4,1.7
				c-0.2,0-0.3,0-0.5,0c-3.2-0.2-6.2-1.5-8.4-2.5c-6.1-2.9-11.4-7.1-15.9-12.4c-3.7-4.4-6.1-8.5-7.7-12.9c-1-2.7-1.4-4.8-1.2-6.7
				c0.1-1.3,0.6-2.3,1.5-3.2l3.7-3.7c0.5-0.5,1.1-0.8,1.6-0.8c0.7,0,1.2,0.4,1.6,0.8c0,0,0,0,0,0c0.7,0.6,1.3,1.2,1.9,1.9
				c0.3,0.3,0.7,0.7,1,1l2.9,2.9c1.1,1.1,1.1,2.2,0,3.3c-0.3,0.3-0.6,0.6-0.9,0.9c-0.9,0.9-1.8,1.8-2.7,2.6c0,0,0,0-0.1,0.1
				c-0.9,0.9-0.8,1.8-0.6,2.4c0,0,0,0.1,0,0.1c0.8,1.9,1.8,3.6,3.5,5.7l0,0c3,3.7,6.1,6.5,9.6,8.7c0.4,0.3,0.9,0.5,1.3,0.7
				c0.4,0.2,0.8,0.4,1.1,0.6c0,0,0.1,0.1,0.1,0.1c0.4,0.2,0.7,0.3,1.1,0.3c0.9,0,1.5-0.6,1.6-0.7l3.7-3.7c0.4-0.4,0.9-0.8,1.6-0.8
				c0.7,0,1.2,0.4,1.5,0.8c0,0,0,0,0,0l5.9,5.9C1029.6,373.6,1029.6,374.8,1028.5,375.9z"/>
			<path class="st2" d="M1011.9,345.1c2.8,0.5,5.4,1.8,7.4,3.9s3.4,4.6,3.9,7.4c0.1,0.7,0.7,1.2,1.4,1.2c0.1,0,0.2,0,0.2,0
				c0.8-0.1,1.3-0.9,1.2-1.7c-0.6-3.4-2.2-6.5-4.7-9s-5.6-4.1-9-4.7c-0.8-0.1-1.5,0.4-1.7,1.2S1011.1,345,1011.9,345.1z"/>
			<path class="st2" d="M1035.3,355.5c-1-5.6-3.6-10.7-7.7-14.8c-4.1-4.1-9.2-6.7-14.8-7.7c-0.8-0.1-1.5,0.4-1.7,1.2
				c-0.1,0.8,0.4,1.5,1.2,1.7c5,0.9,9.6,3.2,13.2,6.9c3.6,3.6,6,8.2,6.9,13.2c0.1,0.7,0.7,1.2,1.4,1.2c0.1,0,0.2,0,0.2,0
				C1034.9,357,1035.5,356.3,1035.3,355.5z"/>
		</g>
	</g>
	<g>
		<g>
			<path class="st2" d="M1029.2,264.1h-36.1c-3.2,0-5.8,2.6-5.8,5.8v24.7c0,3.2,2.6,5.8,5.8,5.8h36.1c3.2,0,5.8-2.6,5.8-5.8V270
				C1035,266.8,1032.4,264.1,1029.2,264.1z M1032.3,294.6c0,1.7-1.4,3.2-3.2,3.2h-36.1c-1.7,0-3.2-1.4-3.2-3.2V270
				c0-1.7,1.4-3.2,3.2-3.2h36.1c1.7,0,3.2,1.4,3.2,3.2L1032.3,294.6L1032.3,294.6z"/>
			<path class="st2" d="M1017.4,282l11.7-10.5c0.5-0.5,0.6-1.3,0.1-1.9c-0.5-0.5-1.3-0.6-1.9-0.1l-16.1,14.5l-3.4-2.9
				c0,0,0.2,0,0.2,0c-0.1-0.1-0.1-0.1-0.2-0.2L995,269.5c-0.6-0.5-1.4-0.4-1.9,0.1s-0.4,1.4,0.1,1.9l11.8,10.6l-11.8,11
				c-0.5,0.5-0.6,1.3-0.1,1.9c0.3,0.3,0.6,0.4,1,0.4c0.3,0,0.7-0.1,0.9-0.4l11.9-11.2l3.2,2.9c0.3,0.2,0.6,0.3,0.9,0.3
				c0.3,0,0.6-0.1,0.9-0.3l3.3-3l11.9,11.3c0.3,0.2,0.6,0.4,0.9,0.4c0.4,0,0.7-0.1,1-0.4c0.5-0.5,0.5-1.4,0-1.9L1017.4,282z"/>
		</g>
	</g>
	<g>
		<g>
			<path class="st2" d="M1123,113.2c-1.5,6.9-6.7,11.9-16,11.9c-11.7,0-17.3-8.3-17.3-18.8c0-10.1,5.7-19.2,17.7-19.2
				c9.9,0,14.6,5.8,15.5,12h-8c-0.8-2.9-2.8-5.7-7.8-5.7c-6.6,0-9.1,5.9-9.1,12.7c0,6.3,2.2,12.8,9.4,12.8c5.2,0,6.9-3.5,7.6-5.7
				H1123z"/>
			<path class="st2" d="M1136.5,85.5v14.7c1.2-1.8,3.5-3.9,8-3.9c5.2,0,9.3,3.1,9.3,10.6v17.8h-7.6V108c0-3.6-1.3-5.5-4.5-5.5
				c-4.3,0-5.1,3.2-5.1,7.5v14.7h-7.7V85.5H1136.5z"/>
			<path class="st2" d="M1160.7,104.4c0-2.8,0-5.2-0.1-7.5h7.5c0.1,0.6,0.2,3.4,0.2,4.9c1.2-3.2,4.2-5.5,8.9-5.5v7.3
				c-5.6-0.1-8.9,1.4-8.9,9v12.1h-7.7V104.4z"/>
			<path class="st2" d="M1181.9,85.5h7.7v6.9h-7.7V85.5z M1181.9,96.9h7.7v27.8h-7.7V96.9z"/>
			<path class="st2" d="M1202.1,116.3c0.6,2.2,2.4,3.5,5.3,3.5c2.8,0,3.9-1,3.9-2.7c0-1.8-1.2-2.5-5.2-3.5c-9.1-2.2-10.5-5-10.5-9
				c0-4.1,2.9-8.4,11.3-8.4c8.4,0,11.3,4.6,11.5,8.4h-7.3c-0.2-1-0.9-3-4.5-3c-2.5,0-3.4,1.1-3.4,2.4c0,1.4,0.9,2.1,5.4,3.1
				c9.3,2.2,10.6,5.3,10.6,9.4c0,4.6-3.5,8.8-12,8.8c-8.4,0-11.9-4.1-12.5-9H1202.1z"/>
			<path class="st2" d="M1221.5,96.9h4.3v-7.5h7.7v7.5h5.4v5.8h-5.4v13.7c0,2.1,0.6,2.9,2.9,2.9c0.4,0,1.2,0,1.8-0.1v5.3
				c-1.5,0.5-3.6,0.5-5.2,0.5c-5.4,0-7.2-2.9-7.2-7.8v-14.6h-4.3V96.9z"/>
			<path class="st2" d="M1269.5,110.7c0,8.4-5,14.6-13.8,14.6c-8.6,0-13.6-6.1-13.6-14.4c0-8.6,5.2-14.6,14-14.6
				C1264.2,96.2,1269.5,102,1269.5,110.7z M1249.8,110.8c0,5.3,2.3,8.5,6,8.5c3.8,0,5.9-3.2,5.9-8.5c0-5.8-2.1-8.6-6-8.6
				C1252.2,102.2,1249.8,104.9,1249.8,110.8z"/>
			<path class="st2" d="M1282.4,122.2v13.1h-7.6v-31.7c0-2.2,0-4.5-0.1-6.7h7.5c0.1,0.7,0.2,2.4,0.2,3.5c1.2-2,3.7-4.1,8.1-4.1
				c6.2,0,11.1,5.2,11.1,13.8c0,9.8-5.4,15.2-12.1,15.2C1285.5,125.3,1283.5,123.8,1282.4,122.2z M1293.8,110.4c0-5.1-2.1-8-5.7-8
				c-4.4,0-5.9,2.8-5.9,8.4c0,5.3,1.4,8.4,5.6,8.4C1291.8,119.2,1293.8,116,1293.8,110.4z"/>
			<path class="st2" d="M1314.6,85.5v14.7c1.2-1.8,3.5-3.9,8-3.9c5.2,0,9.3,3.1,9.3,10.6v17.8h-7.6V108c0-3.6-1.3-5.5-4.5-5.5
				c-4.3,0-5.1,3.2-5.1,7.5v14.7h-7.7V85.5H1314.6z"/>
			<path class="st2" d="M1344.9,112.4c0,3.5,1.7,6.9,5.6,6.9c3.2,0,4.1-1.3,4.8-3h7.7c-1,3.4-4,9-12.7,9c-9.2,0-13.1-6.8-13.1-14.1
				c0-8.7,4.5-14.9,13.4-14.9c9.5,0,12.8,6.9,12.8,13.8c0,0.9,0,1.6-0.1,2.3H1344.9z M1355.6,107.7c-0.1-3.2-1.3-6-5.1-6
				c-3.7,0-5.2,2.5-5.5,6H1355.6z"/>
			<path class="st2" d="M1414.7,124.7h-5.9c-0.3-1.1-0.5-2.4-0.6-3.6c-2.1,2.8-5.7,4.3-10.8,4.3c-10.7,0-16.7-8.1-16.7-18.7
				c0-11.1,6.5-19.5,18.1-19.5c9.5,0,15.1,5.4,16,11.7h-8c-0.8-2.5-2.7-5.4-8.1-5.4c-7.6,0-9.8,6.4-9.8,12.9
				c0,6.4,2.5,12.6,9.8,12.6c6.8,0,8.1-4.7,8.1-8.1v-0.3h-8.1v-6.6h16V124.7z"/>
			<path class="st2" d="M1456.9,106c0,10.3-6.2,19.2-18.2,19.2c-11.6,0-17.7-8.4-17.7-19c0-10.8,6.7-19,18.2-19
				C1450.1,87.1,1456.9,94.7,1456.9,106z M1429.3,106c0,7.2,3.2,12.7,9.7,12.7c7.1,0,9.6-6,9.6-12.6c0-7-2.9-12.5-9.8-12.5
				C1432.2,93.6,1429.3,98.8,1429.3,106z"/>
			<path class="st2" d="M1463.9,124.7v-37h9.9c4.6,8.3,13.2,23.3,14.9,27.3h0.1c-0.4-3.9-0.4-10.3-0.4-16.4v-11h7.3v37h-9.4
				c-4-7.2-13.4-24.4-15.3-28.7h-0.1c0.3,3.2,0.4,10.8,0.4,17.5v11.3H1463.9z"/>
			<path class="st2" d="M1535.9,113.2c-1.5,6.9-6.7,11.9-16,11.9c-11.7,0-17.3-8.3-17.3-18.8c0-10.1,5.7-19.2,17.7-19.2
				c9.9,0,14.6,5.8,15.5,12h-8c-0.8-2.9-2.8-5.7-7.8-5.7c-6.6,0-9.1,5.9-9.1,12.7c0,6.3,2.2,12.8,9.4,12.8c5.2,0,6.9-3.5,7.6-5.7
				H1535.9z"/>
			<path class="st2" d="M1549.6,116.1l-2.9,8.5h-7.9l12.6-37h10.1l13.1,37h-8.4l-3-8.5H1549.6z M1561.4,109.5
				c-2.6-7.8-4.3-12.8-5.2-16.1h-0.1c-0.9,3.6-2.8,9.5-4.9,16.1H1561.4z"/>
			<path class="st2" d="M1579.6,87.6h8v30.5h18.4l-0.9,6.6h-25.5V87.6z"/>
			<path class="st2" d="M1619.8,124.7l-13.1-37h8.6l5.5,17.1c1.7,5.2,2.9,9.6,3.8,13.3h0.1c0.8-3.5,2.2-8,4-13.2l5.8-17.2h8.2
				l-13.4,37H1619.8z"/>
			<path class="st2" d="M1672.5,108.7h-17.7v9.4h19.5l-0.9,6.6H1647v-37h26.2v6.6h-18.5v7.9h17.7V108.7z"/>
			<path class="st2" d="M1685.6,113.8c0.8,3.7,3.5,5.3,7.8,5.3c4.3,0,6.1-1.7,6.1-4.4c0-3-1.8-4.3-8.1-5.8c-10.1-2.4-12.6-6-12.6-11
				c0-6.5,4.8-10.8,13.6-10.8c9.8,0,13.7,5.3,14.3,10.7h-8.1c-0.4-2.3-1.6-4.8-6.4-4.8c-3.2,0-5.2,1.3-5.2,4c0,2.6,1.6,3.6,7.6,5
				c10.8,2.5,13.1,6.5,13.1,11.8c0,6.8-5.1,11.4-14.9,11.4c-9.4,0-14.3-4.6-15.2-11.4H1685.6z"/>
		</g>
	</g>
	<g>
		<g>
			<path class="st2" d="M1090.6,265.6c0.5-3.4,2.9-6.7,8.1-6.7c5.3,0,7.7,3.4,7.7,6.9c0,3.4-2,5.2-3.8,5.8v0.1
				c2.9,0.9,5.1,3.1,5.1,7.1c0,4.6-2.9,8.6-9,8.6c-5.6,0-8.4-3.6-8.9-7.3h2.2c0.7,2.8,2.9,5.3,6.9,5.3c4.7,0,6.6-3.2,6.6-6.5
				c0-4.4-2.9-6.1-6.9-6.1h-1.6v-1.9h1.3c4.2,0,6.1-1.8,6.1-5c0-2.9-2-4.9-5.5-4.9c-3.6,0-5.2,1.9-5.9,4.7H1090.6z"/>
			<path class="st2" d="M1128.9,280.8c-1,3.7-3.4,6.6-8.1,6.6c-5.2,0-8.9-3.9-8.9-10.9c0-5.7,3-11,9.2-11c5.3,0,7.5,3.8,7.9,6.7
				h-2.1c-0.6-2.4-2.2-4.7-5.8-4.7c-4.4,0-6.9,3.8-6.9,9c0,5,2.3,9,6.7,9c3,0,4.9-1.5,6-4.7H1128.9z"/>
			<path class="st2" d="M1133.7,281.1c0.7,2.7,2.6,4.3,5.9,4.3c3.7,0,5.2-1.7,5.2-4.1c0-2.4-1-3.6-5.7-4.7c-5.4-1.3-6.7-2.9-6.7-5.7
				c0-2.9,2.2-5.6,6.9-5.6s7,2.9,7.3,5.8h-2.1c-0.4-1.8-1.8-3.9-5.3-3.9c-3.6,0-4.7,1.8-4.7,3.5c0,1.9,1,2.9,5.1,3.9
				c5.9,1.4,7.4,3.3,7.4,6.5c0,3.8-3.1,6.1-7.5,6.1c-4.8,0-7.4-2.5-8-6.3H1133.7z"/>
			<path class="st2" d="M1152.3,256.1h2.1v4.1h-2.1V256.1z M1152.3,266h2.1v20.9h-2.1V266z"/>
			<path class="st2" d="M1187,291.3c-2.1,1.5-5.4,2.8-10.4,2.8c-9.4,0-15.8-6.4-15.8-16.6c0-10.2,6.7-18.4,17.8-18.4
				c8.4,0,15.2,5.3,15.2,14.5c0,7.6-4,12.2-8.8,12.2c-2.3,0-3.9-1-3.8-3.7c-1.4,2.3-3.2,3.7-6.2,3.7c-3.3,0-5.8-2.4-5.8-7.3
				c0-6.4,3.7-11.4,8.6-11.4c3.8,0,5,2.3,5.3,3.8l0.8-3.3h2l-2.6,12.2c-0.7,3.1,0.3,4.1,1.9,4.1c3.7,0,6.2-3.9,6.2-9.9
				c0-7.6-5.2-12.6-13-12.6c-9.4,0-15.2,7.1-15.3,16.4c0,8.4,5.3,14.5,13.6,14.5c3.4,0,6.8-0.7,9.6-2.5L1187,291.3z M1171.3,278.2
				c0,3.6,1.5,5.5,4,5.5c3,0,5.3-1.9,6.4-7.2c1.1-4.8-0.3-7.5-4.1-7.5C1173.6,269,1171.3,273.2,1171.3,278.2z"/>
			<path class="st2" d="M1217,276.4c0,5.8-3.2,11-9.4,11c-5.6,0-9.1-4.6-9.1-10.9c0-6,3.3-10.9,9.4-10.9
				C1213.3,265.5,1217,269.9,1217,276.4z M1200.6,276.5c0,5,2.7,9,7.1,9c4.5,0,7.1-3.7,7.1-9c0-4.9-2.5-9-7.1-9
				C1202.9,267.5,1200.6,271.4,1200.6,276.5z"/>
			<path class="st2" d="M1222.2,271.7c0-3.5,0-5,0-5.7h2c0,0.7,0.1,2,0.1,4.7c1.2-3.1,3.9-5,7.3-5.2v2.3c-4.3,0.3-7.3,3.3-7.3,8.3
				v10.9h-2.1V271.7z"/>
			<path class="st2" d="M1250,282.9c0,1.8,0.2,3.3,0.3,4h-2c-0.2-0.5-0.3-1.4-0.4-3.2c-0.7,1.5-2.5,3.7-6.9,3.7
				c-4.8,0-6.9-3.1-6.9-6.3c0-4.6,3.6-6.7,9.8-6.7c1.8,0,3.1,0,4,0v-2.1c0-2.1-0.6-4.9-5.4-4.9c-4.2,0-4.8,2.2-5.3,3.9h-2.1
				c0.3-2.3,1.7-5.8,7.4-5.8c4.8,0,7.4,2,7.4,6.6V282.9z M1248,276.3c-0.8,0-2.7,0-4.1,0c-4.6,0-7.5,1.2-7.5,4.8
				c0,2.6,1.9,4.4,4.8,4.4c6,0,6.8-4,6.8-8.5V276.3z"/>
			<path class="st2" d="M1256.9,271.3c0-1.8,0-3.6,0-5.3h2c0.1,0.7,0.1,3.4,0.1,4c0.9-2.1,2.6-4.5,6.9-4.5c3.7,0,7,2.1,7,7.9v13.5
				h-2.1v-13.2c0-3.7-1.5-6.1-5.2-6.1c-5,0-6.7,4.1-6.7,8.7v10.7h-2.1V271.3z"/>
			<path class="st2" d="M1295.8,285.5c0,6.7-3,10.2-9,10.2c-5.4,0-7.7-3-8.2-6.2h2.1c0.8,2.9,3.1,4.3,6.1,4.3c5.4,0,6.9-3.5,6.9-8.8
				v-2.2c-1.1,2.7-3.2,4.2-7,4.2c-4.9,0-8.6-4-8.6-10.4c0-7,4-10.9,8.9-10.9c4.3,0,6.1,2,6.7,3.7c0-1.2,0.1-2.7,0.1-3.2h2
				c0,0.8-0.1,4.1-0.1,6.1V285.5z M1280.4,276.4c0,5,2.6,8.6,6.6,8.6c5.2,0,6.8-3.5,6.8-8.9c0-5.5-1.7-8.6-6.7-8.6
				C1282.3,267.5,1280.4,271.6,1280.4,276.4z"/>
			<path class="st2" d="M1303.1,276.7c0,5.4,2.8,8.7,6.8,8.7c3.9,0,5.3-2.2,6-3.9h2.1c-0.9,2.8-3.1,5.9-8.2,5.9
				c-6.4,0-8.8-5.5-8.8-10.8c0-6,3-11.1,9.1-11.1c6.4,0,8.5,5.6,8.5,9.5c0,0.6,0,1.2,0,1.7H1303.1z M1316.3,274.9
				c0-4.1-2.3-7.4-6.4-7.4c-4.3,0-6.3,3-6.7,7.4H1316.3z"/>
			<path class="st2" d="M1322.7,286.9v-5.4h2.1v5.4H1322.7z"/>
			<path class="st2" d="M1346.1,280.8c-1,3.7-3.4,6.6-8.1,6.6c-5.2,0-8.9-3.9-8.9-10.9c0-5.7,3-11,9.2-11c5.3,0,7.5,3.8,7.9,6.7
				h-2.1c-0.6-2.4-2.2-4.7-5.8-4.7c-4.4,0-6.9,3.8-6.9,9c0,5,2.3,9,6.7,9c3,0,4.9-1.5,6-4.7H1346.1z"/>
			<path class="st2" d="M1367.8,276.4c0,5.8-3.2,11-9.4,11c-5.6,0-9.1-4.6-9.1-10.9c0-6,3.3-10.9,9.4-10.9
				C1364.2,265.5,1367.8,269.9,1367.8,276.4z M1351.4,276.5c0,5,2.7,9,7.1,9c4.5,0,7.1-3.7,7.1-9c0-4.9-2.5-9-7.1-9
				C1353.7,267.5,1351.4,271.4,1351.4,276.5z"/>
			<path class="st2" d="M1373,271.4c0-1.8,0-3.8,0-5.4h2c0,0.7,0.1,2.5,0.1,3.7c0.9-2.1,2.8-4.2,6.3-4.2c2.9,0,5.2,1.5,6.1,4.1
				c1-2.2,3.1-4.1,6.8-4.1c3.2,0,6.6,1.8,6.6,7.6v13.7h-2.1v-13.5c0-2.8-1-5.8-4.9-5.8c-4.1,0-5.9,3.3-5.9,7.3v12h-2v-13.5
				c0-3-0.9-5.9-4.8-5.9c-4.1,0-6,3.6-6,7.9v11.5h-2.1V271.4z"/>
		</g>
	</g>
	<g>
		<g>
			<path class="st2" d="M1195.6,172.6v14.6h-2.5V156h11.2c6.2,0,9.4,3.3,9.4,8.2c0,4-2.4,6.6-5.9,7.3c3.2,0.8,5.4,2.9,5.4,8.2v1.2
				c0,2.2-0.2,5.1,0.4,6.4h-2.5c-0.6-1.3-0.4-3.8-0.4-6.5v-0.8c0-5.1-1.5-7.3-7.5-7.3H1195.6z M1195.6,170.4h7.6
				c5.5,0,8.1-2.1,8.1-6.2c0-3.8-2.5-6-7.4-6h-8.2V170.4z"/>
			<path class="st2" d="M1221,176.4c0,5.8,3,9.4,7.2,9.4c4.2,0,5.6-2.4,6.4-4.2h2.3c-0.9,3-3.3,6.3-8.8,6.3c-6.8,0-9.4-5.9-9.4-11.5
				c0-6.4,3.2-11.9,9.7-11.9c6.9,0,9.1,6,9.1,10.2c0,0.6,0,1.3,0,1.8H1221z M1235.2,174.4c0-4.4-2.5-7.9-6.8-7.9
				c-4.6,0-6.7,3.2-7.2,7.9H1235.2z"/>
			<path class="st2" d="M1243,181.1c0.8,2.9,2.8,4.7,6.4,4.7c4,0,5.6-1.8,5.6-4.3c0-2.5-1.1-3.8-6.1-5c-5.8-1.4-7.2-3.1-7.2-6.1
				c0-3.1,2.3-6,7.4-6c5.1,0,7.5,3.1,7.8,6.3h-2.2c-0.4-1.9-1.9-4.2-5.7-4.2c-3.9,0-5,1.9-5,3.7c0,2.1,1.1,3.1,5.5,4.2
				c6.3,1.5,7.9,3.6,7.9,6.9c0,4.1-3.3,6.6-8,6.6c-5.1,0-8-2.7-8.6-6.7H1243z"/>
			<path class="st2" d="M1265.1,184v12.3h-2.2v-25.8c0-1.8,0-3.8,0-5.5h2.2c0.1,0.9,0.1,2.2,0.1,4c1.4-2.7,3.8-4.6,7.9-4.6
				c5.3,0,8.9,4.4,8.9,11.1c0,8.1-4.3,12.3-9.7,12.3C1268.3,187.8,1266.2,186.1,1265.1,184z M1279.5,175.6c0-5.2-2.5-9.1-6.9-9.1
				c-5.4,0-7.7,3.4-7.7,9.5c0,6,1.7,9.7,7.3,9.7C1276.9,185.7,1279.5,181.8,1279.5,175.6z"/>
			<path class="st2" d="M1305.6,176c0,6.2-3.4,11.8-10.1,11.8c-6,0-9.8-5-9.8-11.7c0-6.4,3.5-11.7,10-11.7
				C1301.7,164.4,1305.6,169,1305.6,176z M1288.1,176.1c0,5.3,2.9,9.6,7.6,9.6c4.8,0,7.6-4,7.6-9.6c0-5.3-2.7-9.6-7.7-9.6
				C1290.5,166.5,1288.1,170.7,1288.1,176.1z"/>
			<path class="st2" d="M1311.2,170.5c0-2,0-3.8,0-5.6h2.2c0.1,0.7,0.1,3.6,0.1,4.3c1-2.3,2.8-4.8,7.4-4.8c4,0,7.5,2.2,7.5,8.4v14.5
				h-2.2v-14.1c0-4-1.7-6.6-5.5-6.6c-5.3,0-7.2,4.4-7.2,9.3v11.4h-2.2V170.5z"/>
			<path class="st2" d="M1335.7,181.1c0.8,2.9,2.8,4.7,6.4,4.7c4,0,5.6-1.8,5.6-4.3c0-2.5-1.1-3.8-6.1-5c-5.8-1.4-7.2-3.1-7.2-6.1
				c0-3.1,2.3-6,7.4-6c5.1,0,7.5,3.1,7.8,6.3h-2.2c-0.4-1.9-1.9-4.2-5.7-4.2c-3.9,0-5,1.9-5,3.7c0,2.1,1.1,3.1,5.5,4.2
				c6.3,1.5,7.9,3.6,7.9,6.9c0,4.1-3.3,6.6-8,6.6c-5.1,0-8-2.7-8.6-6.7H1335.7z"/>
			<path class="st2" d="M1370.9,183c0,2,0.2,3.5,0.3,4.3h-2.1c-0.2-0.5-0.3-1.5-0.4-3.4c-0.8,1.7-2.7,4-7.3,4
				c-5.2,0-7.4-3.4-7.4-6.7c0-4.9,3.8-7.2,10.5-7.2c1.9,0,3.4,0,4.3,0v-2.3c0-2.2-0.7-5.2-5.8-5.2c-4.5,0-5.2,2.4-5.7,4.2h-2.2
				c0.3-2.5,1.8-6.3,8-6.3c5.1,0,8,2.1,8,7.1V183z M1368.7,175.9c-0.9,0-2.9,0-4.4,0c-5,0-8.1,1.3-8.1,5.1c0,2.8,2,4.7,5.1,4.7
				c6.4,0,7.3-4.3,7.3-9.1V175.9z"/>
			<path class="st2" d="M1378.3,154.3h2.2v14.4c1.1-2.2,3.3-4.3,7.7-4.3c5.3,0,9.2,4.3,9.2,11.2c0,7.1-3.5,12.2-9.8,12.2
				c-3.8,0-5.9-1.5-7.1-4.1c0,1.4,0,2.9-0.1,3.5h-2.2c0-2.6,0-5.1,0-7.7V154.3z M1395,175.6c0-5.6-2.8-9.2-7-9.2
				c-5.6,0-7.6,3.8-7.6,9.7c0,5.3,1.7,9.6,7.3,9.6C1392.2,185.7,1395,182,1395,175.6z"/>
			<path class="st2" d="M1402.9,187.3v-33h2.2v33H1402.9z"/>
			<path class="st2" d="M1412.9,176.4c0,5.8,3,9.4,7.2,9.4c4.2,0,5.6-2.4,6.4-4.2h2.3c-0.9,3-3.3,6.3-8.8,6.3
				c-6.8,0-9.4-5.9-9.4-11.5c0-6.4,3.2-11.9,9.7-11.9c6.9,0,9.1,6,9.1,10.2c0,0.6,0,1.3,0,1.8H1412.9z M1427.1,174.4
				c0-4.4-2.5-7.9-6.8-7.9c-4.6,0-6.7,3.2-7.2,7.9H1427.1z"/>
			<path class="st2" d="M1470.9,178.9c-1.5,5-5.1,8.7-11.8,8.7c-9,0-13.7-7.2-13.7-16c0-8.5,4.7-16.2,13.8-16.2
				c6.8,0,10.7,3.8,11.8,9h-2.4c-1.4-4.1-4.1-6.8-9.5-6.8c-7.8,0-11.1,7.1-11.1,13.9c0,6.7,3.2,13.8,11.2,13.8
				c5.1,0,7.7-2.6,9.3-6.5H1470.9z"/>
			<path class="st2" d="M1494.6,176c0,6.2-3.4,11.8-10.1,11.8c-6,0-9.8-5-9.8-11.7c0-6.4,3.5-11.7,10-11.7
				C1490.6,164.4,1494.6,169,1494.6,176z M1477,176.1c0,5.3,2.9,9.6,7.6,9.6c4.8,0,7.6-4,7.6-9.6c0-5.3-2.7-9.6-7.7-9.6
				C1479.5,166.5,1477,170.7,1477,176.1z"/>
			<path class="st2" d="M1500.1,170.7c0-1.9,0-4,0-5.8h2.2c0,0.8,0.1,2.7,0.1,4c0.9-2.2,3-4.5,6.7-4.5c3.1,0,5.6,1.6,6.5,4.4
				c1.1-2.3,3.4-4.4,7.3-4.4c3.4,0,7,2,7,8.2v14.7h-2.2v-14.5c0-3-1.1-6.3-5.2-6.3c-4.3,0-6.3,3.5-6.3,7.8v12.9h-2.2v-14.4
				c0-3.3-1-6.3-5.1-6.3c-4.3,0-6.4,3.8-6.4,8.4v12.3h-2.2V170.7z"/>
			<path class="st2" d="M1537.2,170.7c0-1.9,0-4,0-5.8h2.2c0,0.8,0.1,2.7,0.1,4c0.9-2.2,3-4.5,6.7-4.5c3.1,0,5.6,1.6,6.5,4.4
				c1.1-2.3,3.4-4.4,7.3-4.4c3.4,0,7,2,7,8.2v14.7h-2.2v-14.5c0-3-1.1-6.3-5.2-6.3c-4.3,0-6.3,3.5-6.3,7.8v12.9h-2.2v-14.4
				c0-3.3-1-6.3-5.1-6.3c-4.3,0-6.4,3.8-6.4,8.4v12.3h-2.2V170.7z"/>
			<path class="st2" d="M1574.8,176.4c0,5.8,3,9.4,7.2,9.4c4.2,0,5.6-2.4,6.4-4.2h2.3c-0.9,3-3.3,6.3-8.8,6.3
				c-6.8,0-9.4-5.9-9.4-11.5c0-6.4,3.2-11.9,9.7-11.9c6.9,0,9.1,6,9.1,10.2c0,0.6,0,1.3,0,1.8H1574.8z M1589,174.4
				c0-4.4-2.5-7.9-6.8-7.9c-4.6,0-6.7,3.2-7.2,7.9H1589z"/>
			<path class="st2" d="M1596.8,171c0-3.8,0-5.4,0-6.1h2.2c0,0.7,0.1,2.1,0.1,5c1.3-3.4,4.2-5.4,7.8-5.5v2.4
				c-4.7,0.3-7.8,3.5-7.8,8.9v11.6h-2.2V171z"/>
			<path class="st2" d="M1627.7,180.7c-1.1,3.9-3.7,7.1-8.7,7.1c-5.6,0-9.6-4.2-9.6-11.6c0-6.1,3.3-11.8,9.8-11.8c5.7,0,8,4,8.4,7.2
				h-2.3c-0.7-2.6-2.4-5.1-6.2-5.1c-4.7,0-7.4,4-7.4,9.6c0,5.3,2.5,9.6,7.2,9.6c3.3,0,5.2-1.7,6.4-5H1627.7z"/>
			<path class="st2" d="M1632.9,154.3h2.2v4.3h-2.2V154.3z M1632.9,164.9h2.2v22.4h-2.2V164.9z"/>
			<path class="st2" d="M1657.8,183c0,2,0.2,3.5,0.3,4.3h-2.1c-0.2-0.5-0.3-1.5-0.4-3.4c-0.8,1.7-2.7,4-7.3,4
				c-5.2,0-7.4-3.4-7.4-6.7c0-4.9,3.8-7.2,10.5-7.2c1.9,0,3.4,0,4.3,0v-2.3c0-2.2-0.7-5.2-5.8-5.2c-4.5,0-5.2,2.4-5.7,4.2h-2.2
				c0.3-2.5,1.8-6.3,8-6.3c5.1,0,8,2.1,8,7.1V183z M1655.6,175.9c-0.9,0-2.9,0-4.4,0c-5,0-8.1,1.3-8.1,5.1c0,2.8,2,4.7,5.1,4.7
				c6.4,0,7.3-4.3,7.3-9.1V175.9z"/>
			<path class="st2" d="M1665.2,187.3v-33h2.2v33H1665.2z"/>
		</g>
	</g>
	<g>
		<g id="XMLID_16_">
			<path id="XMLID_18_" class="st2" d="M1034,162.2c-1.4-9.4-4.7-18.6-12.1-23.1c-3,2.4-6.7,3.7-10.7,3.7c-3.9,0-7.6-1.3-10.7-3.7
				c-7.3,4.5-10.7,13.7-12.1,23.1c-0.3,2,1.3,3.8,3.3,3.8h38.9C1032.7,166,1034.3,164.2,1034,162.2z"/>
			<g id="XMLID_17_">
				<path class="st2" d="M1011.2,112c-7.4,0-13.5,6-13.5,13.5c0,7.5,6,13.5,13.5,13.5s13.5-6,13.5-13.5
					C1024.7,118,1018.7,112,1011.2,112z M1011.2,121.1c-2.4,0-4.4,2-4.4,4.4c0,1.1-0.9,2-2,2s-2-0.9-2-2c0-4.6,3.8-8.4,8.4-8.4
					c1.1,0,2,0.9,2,2S1012.3,121.1,1011.2,121.1z"/>
			</g>
		</g>
	</g>
</g>
<g id="Calque_7">
	<g>
		<polygon class="st0" points="890,616.1 890.3,634 1847,634 1847,616 		"/>
	</g>
	<rect x="1245" y="634" class="st1" width="81" height="323"/>
	<g>
		<g>
			<path class="st2" d="M1398.4,891.4c0,6.3-1.6,14.5-9,14.5c-7.1,0-8.9-7.5-8.9-14.2c0-6.7,1.9-14.2,9.1-14.2
				C1396.7,877.3,1398.4,884.8,1398.4,891.4z M1382.8,891.6c0,5.3,1.1,12.2,6.6,12.2c5.6,0,6.7-6.6,6.7-12.5c0-5.3-1.1-12-6.5-12
				C1383.9,879.3,1382.8,885.5,1382.8,891.6z"/>
			<path class="st2" d="M1417.8,883.3c-0.7-2.4-2.3-4.1-5.4-4.1c-5.3,0-7.1,4.9-7.3,12.2c1.1-2.3,3.2-4.7,7.5-4.7
				c5.5,0,8.3,4,8.3,9.2c0,5.1-2.8,9.9-8.7,9.9c-7.3,0-9.2-6.1-9.2-13.9c0-7.9,2.4-14.6,9.5-14.6c5.3,0,7.1,3.6,7.5,6H1417.8z
				 M1418.6,896.1c0-3.4-1.3-7.3-6.2-7.3c-3.9,0-6.9,2.6-6.9,7.4c0,2.3,1.2,7.7,6.6,7.7C1416.9,903.9,1418.6,900,1418.6,896.1z"/>
			<path class="st2" d="M1435.8,897.6c0-4.1,2.7-6.4,5.3-7.4c-2.6-1.1-4.1-3.2-4.1-5.9c0-4,2.7-7.1,8-7.1c4.8,0,7.6,3.1,7.6,7
				c0,2.8-1.6,5-4.1,5.8c3,0.9,5.2,3.7,5.2,7.4c0,5-3.8,8.3-9.1,8.3C1439.5,905.8,1435.8,902.5,1435.8,897.6z M1451.5,897.5
				c0-4-2.5-6.2-6.7-6.2c-4.7,0-6.8,2.8-6.8,6.2c0,3.5,2.4,6.3,6.7,6.3C1448.7,903.9,1451.5,901.6,1451.5,897.5z M1439.2,884.3
				c0,2.6,1.6,5.1,5.7,5.1c3.8,0,5.4-2,5.4-4.9c0-2.6-1.6-5.1-5.5-5.1C1440.7,879.3,1439.2,881.5,1439.2,884.3z"/>
			<path class="st2" d="M1476,891.4c0,6.3-1.6,14.5-9,14.5c-7.1,0-8.9-7.5-8.9-14.2c0-6.7,1.9-14.2,9.1-14.2
				C1474.3,877.3,1476,884.8,1476,891.4z M1460.4,891.6c0,5.3,1.1,12.2,6.6,12.2c5.6,0,6.7-6.6,6.7-12.5c0-5.3-1.1-12-6.5-12
				C1461.5,879.3,1460.4,885.5,1460.4,891.6z"/>
			<path class="st2" d="M1507.4,877.8v2c-5.1,6.6-9.7,17.3-11.3,25.4h-2.2c1.4-7.6,6.3-18.9,11.2-25.4h-15v-2H1507.4z"/>
			<path class="st2" d="M1510.6,897.6c0-4.1,2.7-6.4,5.3-7.4c-2.6-1.1-4.1-3.2-4.1-5.9c0-4,2.7-7.1,8-7.1c4.8,0,7.6,3.1,7.6,7
				c0,2.8-1.6,5-4.1,5.8c3,0.9,5.2,3.7,5.2,7.4c0,5-3.8,8.3-9.1,8.3C1514.3,905.8,1510.6,902.5,1510.6,897.6z M1526.3,897.5
				c0-4-2.5-6.2-6.7-6.2c-4.7,0-6.8,2.8-6.8,6.2c0,3.5,2.4,6.3,6.7,6.3C1523.6,903.9,1526.3,901.6,1526.3,897.5z M1514,884.3
				c0,2.6,1.6,5.1,5.7,5.1c3.8,0,5.4-2,5.4-4.9c0-2.6-1.6-5.1-5.5-5.1C1515.5,879.3,1514,881.5,1514,884.3z"/>
			<path class="st2" d="M1543.5,897.6c0-4.1,2.7-6.4,5.3-7.4c-2.6-1.1-4.1-3.2-4.1-5.9c0-4,2.7-7.1,8-7.1c4.8,0,7.6,3.1,7.6,7
				c0,2.8-1.6,5-4.1,5.8c3,0.9,5.2,3.7,5.2,7.4c0,5-3.8,8.3-9.1,8.3C1547.3,905.8,1543.5,902.5,1543.5,897.6z M1559.3,897.5
				c0-4-2.5-6.2-6.7-6.2c-4.7,0-6.8,2.8-6.8,6.2c0,3.5,2.4,6.3,6.7,6.3C1556.5,903.9,1559.3,901.6,1559.3,897.5z M1547,884.3
				c0,2.6,1.6,5.1,5.7,5.1c3.8,0,5.4-2,5.4-4.9c0-2.6-1.6-5.1-5.5-5.1C1548.5,879.3,1547,881.5,1547,884.3z"/>
			<path class="st2" d="M1568.3,899.8c1,2.7,2.7,4,5.6,4c6.3,0,6.8-8.9,6.9-12.7c-1.4,2.8-3.9,3.9-7.1,3.9c-4.8,0-8.1-3.6-8.1-8.7
				c0-4.8,3.1-9,8.6-9c6.2,0,8.7,5,8.7,12.6c0,6.9-1.2,15.8-9.2,15.8c-4.9,0-7.1-2.8-7.9-5.9H1568.3z M1567.8,886.3
				c0,4,2.3,6.7,6,6.7c4.6,0,6.5-2.4,6.5-6.5c0-1.6-0.5-7.1-6.3-7.1C1569.7,879.3,1567.8,882.4,1567.8,886.3z"/>
			<path class="st2" d="M1600.8,899.8c1,2.7,2.7,4,5.6,4c6.3,0,6.8-8.9,6.9-12.7c-1.4,2.8-3.9,3.9-7.1,3.9c-4.8,0-8.1-3.6-8.1-8.7
				c0-4.8,3.1-9,8.6-9c6.2,0,8.7,5,8.7,12.6c0,6.9-1.2,15.8-9.1,15.8c-4.9,0-7.1-2.8-7.9-5.9H1600.8z M1600.4,886.3
				c0,4,2.3,6.7,6,6.7c4.6,0,6.5-2.4,6.5-6.5c0-1.6-0.5-7.1-6.3-7.1C1602.3,879.3,1600.4,882.4,1600.4,886.3z"/>
			<path class="st2" d="M1619.9,897.6c0-4.1,2.7-6.4,5.3-7.4c-2.6-1.1-4.1-3.2-4.1-5.9c0-4,2.7-7.1,8-7.1c4.8,0,7.6,3.1,7.6,7
				c0,2.8-1.6,5-4.1,5.8c3,0.9,5.2,3.7,5.2,7.4c0,5-3.8,8.3-9.1,8.3C1623.7,905.8,1619.9,902.5,1619.9,897.6z M1635.7,897.5
				c0-4-2.5-6.2-6.7-6.2c-4.7,0-6.8,2.8-6.8,6.2c0,3.5,2.4,6.3,6.7,6.3C1632.9,903.9,1635.7,901.6,1635.7,897.5z M1623.4,884.3
				c0,2.6,1.6,5.1,5.7,5.1c3.8,0,5.4-2,5.4-4.9c0-2.6-1.6-5.1-5.5-5.1C1624.9,879.3,1623.4,881.5,1623.4,884.3z"/>
		</g>
	</g>
	<g>
		<g>
			<path class="st2" d="M1382.6,649.6h25.8v6.6h-18v9.1h16.9v6.6h-16.9v14.8h-7.8V649.6z"/>
			<path class="st2" d="M1436.2,679.5c0,2.6,0.2,6.5,0.4,7.2h-7.3c-0.2-0.5-0.4-2-0.4-2.7c-1,1.6-2.9,3.4-7.8,3.4
				c-6.7,0-9.5-4.4-9.5-8.7c0-6.3,5.1-9.3,13.2-9.3c1.4,0,3,0,4,0v-1.7c0-2-0.7-3.9-4.3-3.9c-3.2,0-4,1.4-4.3,3.4h-7.3
				c0.4-4.9,3.5-8.9,11.9-8.9c7.4,0,11.5,3,11.5,9.6V679.5z M1428.7,674c-0.6,0-2.1,0-3.1,0c-4.6,0-6.4,1.4-6.4,4.1
				c0,2,1.2,3.7,4,3.7c4.9,0,5.5-3.4,5.5-7.1V674z"/>
			<path class="st2" d="M1443.2,647.5h7.7v14.3c1.1-1.8,3.4-3.6,8-3.6c7.6,0,11.3,6.2,11.3,14c0,8-4.1,15-12.1,15
				c-4.1,0-6-1.3-7.3-3.3c0,0.9-0.1,1.9-0.3,2.6h-7.4c0.1-3,0.1-6.1,0.1-9.1V647.5z M1462.4,672.4c0-4.6-1.7-8-5.9-8
				c-4.4,0-6,2.9-6,8.5c0,4.7,1.4,8.3,5.9,8.3C1460.3,681.2,1462.4,677.7,1462.4,672.4z"/>
			<path class="st2" d="M1475.5,647.5h7.7v6.9h-7.7V647.5z M1475.5,658.9h7.7v27.8h-7.7V658.9z"/>
			<path class="st2" d="M1496.2,674.4c0,3.5,1.7,6.9,5.6,6.9c3.2,0,4.1-1.3,4.8-3h7.7c-1,3.4-4,9-12.7,9c-9.2,0-13.1-6.8-13.1-14.1
				c0-8.7,4.5-14.9,13.4-14.9c9.5,0,12.8,6.9,12.8,13.8c0,0.9,0,1.6-0.1,2.3H1496.2z M1506.9,669.7c-0.1-3.2-1.3-6-5.1-6
				c-3.7,0-5.2,2.5-5.5,6H1506.9z"/>
			<path class="st2" d="M1519.9,665.9c0-2.4,0-4.9-0.1-7h7.5c0.2,0.7,0.3,2.6,0.3,3.5c0.9-1.7,3.2-4.2,8.1-4.2
				c5.6,0,9.2,3.8,9.2,10.8v17.7h-7.7v-16.8c0-3.1-1-5.4-4.4-5.4c-3.3,0-5.1,1.8-5.1,6.7v15.5h-7.7V665.9z"/>
			<path class="st2" d="M1571,675.8c0.8,3.7,3.5,5.3,7.8,5.3c4.3,0,6.1-1.7,6.1-4.4c0-3-1.8-4.3-8.1-5.8c-10.1-2.4-12.6-6-12.6-11
				c0-6.5,4.8-10.8,13.6-10.8c9.8,0,13.7,5.3,14.3,10.7h-8.1c-0.4-2.3-1.6-4.8-6.4-4.8c-3.2,0-5.2,1.3-5.2,4c0,2.6,1.6,3.6,7.6,5
				c10.8,2.5,13.1,6.5,13.1,11.8c0,6.8-5.1,11.4-14.9,11.4c-9.4,0-14.3-4.6-15.2-11.4H1571z"/>
			<path class="st2" d="M1607.1,656.2h-11.2v-6.6h30.5v6.6h-11.2v30.5h-8V656.2z"/>
			<path class="st2" d="M1638.2,678.1l-2.9,8.5h-7.9l12.6-37h10.1l13.1,37h-8.4l-3-8.5H1638.2z M1650,671.5
				c-2.6-7.8-4.3-12.8-5.2-16.1h-0.1c-0.9,3.6-2.8,9.5-4.9,16.1H1650z"/>
			<path class="st2" d="M1699.6,675.2c-1.5,6.9-6.7,11.9-16,11.9c-11.7,0-17.3-8.3-17.3-18.8c0-10.1,5.7-19.2,17.7-19.2
				c9.9,0,14.6,5.8,15.5,12h-8c-0.8-2.9-2.8-5.7-7.8-5.7c-6.6,0-9.1,5.9-9.1,12.7c0,6.3,2.2,12.8,9.4,12.8c5.2,0,6.9-3.5,7.6-5.7
				H1699.6z"/>
			<path class="st2" d="M1706.4,649.6h8v14.4h14.9v-14.4h8v37h-8v-16h-14.9v16h-8V649.6z"/>
			<path class="st2" d="M1753.7,649.6v22.1c0,7.1,3.7,9.2,7.6,9.2c4.6,0,7.5-2.5,7.5-9.2v-22.1h8v21.7c0,12.7-7.4,15.9-15.6,15.9
				c-8.4,0-15.6-3.4-15.6-15.7v-21.8H1753.7z"/>
			<path class="st2" d="M1785.1,649.6h8v30.5h18.4l-0.9,6.6h-25.5V649.6z"/>
			<path class="st2" d="M1823.5,678.1l-2.9,8.5h-7.9l12.6-37h10.1l13.1,37h-8.4l-3-8.5H1823.5z M1835.3,671.5
				c-2.6-7.8-4.3-12.8-5.2-16.1h-0.1c-0.9,3.6-2.8,9.5-4.9,16.1H1835.3z"/>
		</g>
	</g>
	<g>
		<g>
			<path class="st2" d="M1381.6,808.6c0.5-3.4,2.9-6.7,8.1-6.7c5.3,0,7.7,3.4,7.7,6.9c0,3.4-2,5.2-3.8,5.8v0.1
				c2.9,0.9,5.1,3.1,5.1,7.1c0,4.6-2.9,8.6-9,8.6c-5.6,0-8.4-3.6-8.9-7.3h2.2c0.7,2.8,2.9,5.3,6.9,5.3c4.7,0,6.6-3.2,6.6-6.5
				c0-4.4-2.9-6.1-6.9-6.1h-1.6v-1.9h1.3c4.2,0,6.1-1.8,6.1-5c0-2.9-2-4.9-5.5-4.9c-3.6,0-5.2,1.9-5.9,4.7H1381.6z"/>
			<path class="st2" d="M1419.9,823.8c-1,3.7-3.4,6.6-8.1,6.6c-5.2,0-8.9-3.9-8.9-10.9c0-5.7,3.1-11,9.2-11c5.3,0,7.5,3.8,7.9,6.7
				h-2.1c-0.6-2.4-2.2-4.7-5.8-4.7c-4.4,0-6.9,3.8-6.9,9c0,5,2.3,9,6.7,9c3,0,4.9-1.5,6-4.7H1419.9z"/>
			<path class="st2" d="M1424.7,824.1c0.7,2.7,2.6,4.3,5.9,4.3c3.7,0,5.2-1.7,5.2-4.1c0-2.4-1-3.6-5.7-4.7c-5.4-1.3-6.7-2.9-6.7-5.7
				c0-2.9,2.2-5.6,6.9-5.6c4.7,0,7,2.9,7.3,5.8h-2.1c-0.4-1.8-1.8-3.9-5.3-3.9c-3.6,0-4.7,1.8-4.7,3.5c0,1.9,1,2.9,5.1,3.9
				c5.9,1.4,7.4,3.3,7.4,6.5c0,3.8-3.1,6.1-7.5,6.1c-4.8,0-7.4-2.5-8-6.3H1424.7z"/>
			<path class="st2" d="M1443.3,799.1h2.1v4.1h-2.1V799.1z M1443.3,809h2.1v20.9h-2.1V809z"/>
			<path class="st2" d="M1478,834.3c-2.1,1.5-5.4,2.8-10.4,2.8c-9.4,0-15.8-6.4-15.8-16.6c0-10.2,6.7-18.4,17.8-18.4
				c8.4,0,15.2,5.3,15.2,14.5c0,7.6-4,12.2-8.8,12.2c-2.3,0-3.9-1-3.8-3.7c-1.4,2.3-3.2,3.7-6.2,3.7c-3.3,0-5.8-2.4-5.8-7.3
				c0-6.4,3.7-11.4,8.6-11.4c3.8,0,5,2.3,5.3,3.8l0.8-3.3h2l-2.6,12.2c-0.7,3.1,0.3,4.1,1.9,4.1c3.7,0,6.2-3.9,6.2-9.9
				c0-7.6-5.2-12.6-13-12.6c-9.4,0-15.2,7.1-15.3,16.4c0,8.4,5.3,14.5,13.6,14.5c3.4,0,6.8-0.7,9.6-2.5L1478,834.3z M1462.3,821.2
				c0,3.6,1.5,5.5,4,5.5c3,0,5.3-1.9,6.4-7.2c1.1-4.8-0.3-7.5-4.1-7.5C1464.6,812,1462.3,816.2,1462.3,821.2z"/>
			<path class="st2" d="M1508,819.4c0,5.8-3.2,11-9.4,11c-5.6,0-9.1-4.6-9.1-10.9c0-6,3.3-10.9,9.4-10.9
				C1504.3,808.5,1508,812.9,1508,819.4z M1491.6,819.5c0,5,2.7,9,7.1,9c4.5,0,7.1-3.7,7.1-9c0-4.9-2.5-9-7.1-9
				C1493.9,810.5,1491.6,814.4,1491.6,819.5z"/>
			<path class="st2" d="M1513.2,814.7c0-3.5,0-5,0-5.7h2c0,0.7,0.1,2,0.1,4.7c1.2-3.1,3.9-5,7.3-5.2v2.3c-4.3,0.3-7.3,3.3-7.3,8.3
				v10.9h-2.1V814.7z"/>
			<path class="st2" d="M1541,825.9c0,1.8,0.2,3.3,0.3,4h-2c-0.2-0.5-0.3-1.4-0.4-3.2c-0.7,1.5-2.5,3.7-6.9,3.7
				c-4.8,0-6.9-3.1-6.9-6.3c0-4.6,3.6-6.7,9.8-6.7c1.8,0,3.1,0,4,0v-2.1c0-2.1-0.6-4.9-5.4-4.9c-4.2,0-4.8,2.2-5.3,3.9h-2.1
				c0.3-2.3,1.7-5.8,7.4-5.8c4.8,0,7.4,2,7.4,6.6V825.9z M1539,819.3c-0.8,0-2.7,0-4.1,0c-4.6,0-7.5,1.2-7.5,4.8
				c0,2.6,1.9,4.4,4.8,4.4c6,0,6.8-4,6.8-8.5V819.3z"/>
			<path class="st2" d="M1547.9,814.3c0-1.8,0-3.6,0-5.3h2c0.1,0.7,0.1,3.4,0.1,4c0.9-2.1,2.6-4.5,6.9-4.5c3.7,0,7,2.1,7,7.9v13.5
				h-2.1v-13.2c0-3.7-1.5-6.1-5.2-6.1c-5,0-6.7,4.1-6.7,8.7v10.7h-2.1V814.3z"/>
			<path class="st2" d="M1586.8,828.5c0,6.7-3,10.2-9,10.2c-5.4,0-7.7-3-8.2-6.2h2.1c0.8,2.9,3.1,4.3,6.1,4.3c5.4,0,6.9-3.5,6.9-8.8
				v-2.2c-1.1,2.7-3.2,4.2-7,4.2c-4.9,0-8.6-4-8.6-10.4c0-7,4-10.9,8.9-10.9c4.3,0,6.1,2,6.7,3.7c0-1.2,0.1-2.7,0.1-3.2h2
				c0,0.8-0.1,4.1-0.1,6.1V828.5z M1571.4,819.4c0,5,2.6,8.6,6.6,8.6c5.2,0,6.8-3.5,6.8-8.9c0-5.5-1.7-8.6-6.7-8.6
				C1573.3,810.5,1571.4,814.6,1571.4,819.4z"/>
			<path class="st2" d="M1594.1,819.7c0,5.4,2.8,8.7,6.8,8.7c3.9,0,5.3-2.2,6-3.9h2.1c-0.9,2.8-3.1,5.9-8.2,5.9
				c-6.4,0-8.8-5.5-8.8-10.8c0-6,3-11.1,9.1-11.1c6.4,0,8.5,5.6,8.5,9.5c0,0.6,0,1.2,0,1.7H1594.1z M1607.3,817.9
				c0-4.1-2.3-7.4-6.4-7.4c-4.3,0-6.3,3-6.7,7.4H1607.3z"/>
			<path class="st2" d="M1613.7,829.9v-5.4h2.1v5.4H1613.7z"/>
			<path class="st2" d="M1637.1,823.8c-1,3.7-3.4,6.6-8.1,6.6c-5.2,0-8.9-3.9-8.9-10.9c0-5.7,3-11,9.2-11c5.3,0,7.5,3.8,7.9,6.7
				h-2.1c-0.6-2.4-2.2-4.7-5.8-4.7c-4.4,0-6.9,3.8-6.9,9c0,5,2.3,9,6.7,9c3,0,4.9-1.5,6-4.7H1637.1z"/>
			<path class="st2" d="M1658.8,819.4c0,5.8-3.2,11-9.4,11c-5.6,0-9.1-4.6-9.1-10.9c0-6,3.3-10.9,9.4-10.9
				C1655.2,808.5,1658.8,812.9,1658.8,819.4z M1642.4,819.5c0,5,2.7,9,7.1,9c4.5,0,7.1-3.7,7.1-9c0-4.9-2.5-9-7.1-9
				C1644.7,810.5,1642.4,814.4,1642.4,819.5z"/>
			<path class="st2" d="M1664,814.4c0-1.8,0-3.8,0-5.4h2c0,0.7,0.1,2.5,0.1,3.7c0.9-2.1,2.8-4.2,6.3-4.2c2.9,0,5.2,1.5,6.1,4.1
				c1-2.2,3.1-4.1,6.8-4.1c3.2,0,6.6,1.8,6.6,7.6v13.7h-2.1v-13.5c0-2.8-1-5.8-4.9-5.8c-4.1,0-5.9,3.3-5.9,7.3v12h-2v-13.5
				c0-3-0.9-5.9-4.8-5.9c-4.1,0-6,3.6-6,7.9v11.5h-2.1V814.4z"/>
		</g>
	</g>
	<g>
		<g>
			<path class="st2" d="M1475.6,719.6v14.6h-2.5V703h11.2c6.2,0,9.4,3.3,9.4,8.2c0,4-2.4,6.6-5.9,7.3c3.2,0.8,5.4,2.9,5.4,8.2v1.2
				c0,2.2-0.2,5.1,0.4,6.4h-2.5c-0.6-1.3-0.4-3.8-0.4-6.5v-0.8c0-5.1-1.5-7.3-7.5-7.3H1475.6z M1475.6,717.4h7.6
				c5.5,0,8.1-2.1,8.1-6.2c0-3.8-2.5-6-7.4-6h-8.2V717.4z"/>
			<path class="st2" d="M1501,723.4c0,5.8,3,9.4,7.2,9.4c4.2,0,5.6-2.4,6.4-4.2h2.3c-0.9,3-3.3,6.3-8.8,6.3c-6.8,0-9.4-5.9-9.4-11.5
				c0-6.4,3.2-11.9,9.7-11.9c6.9,0,9.1,6,9.1,10.2c0,0.6,0,1.3,0,1.8H1501z M1515.2,721.4c0-4.4-2.5-7.9-6.8-7.9
				c-4.6,0-6.7,3.2-7.2,7.9H1515.2z"/>
			<path class="st2" d="M1523,728.1c0.8,2.9,2.8,4.7,6.4,4.7c4,0,5.6-1.8,5.6-4.3c0-2.5-1.1-3.8-6.1-5c-5.8-1.4-7.2-3.1-7.2-6.1
				c0-3.1,2.3-6,7.4-6c5.1,0,7.5,3.1,7.8,6.3h-2.2c-0.4-1.9-1.9-4.2-5.7-4.2c-3.9,0-5,1.9-5,3.7c0,2.1,1.1,3.1,5.5,4.2
				c6.3,1.5,7.9,3.6,7.9,6.9c0,4.1-3.3,6.6-8,6.6c-5.1,0-8-2.7-8.6-6.7H1523z"/>
			<path class="st2" d="M1545.1,731v12.3h-2.2v-25.8c0-1.8,0-3.8,0-5.5h2.2c0.1,0.9,0.1,2.2,0.1,4c1.4-2.7,3.8-4.6,7.9-4.6
				c5.3,0,8.9,4.4,8.9,11.1c0,8.1-4.3,12.3-9.7,12.3C1548.3,734.8,1546.2,733.1,1545.1,731z M1559.5,722.6c0-5.2-2.5-9.1-6.9-9.1
				c-5.4,0-7.7,3.4-7.7,9.5c0,6,1.7,9.7,7.3,9.7C1556.9,732.7,1559.5,728.8,1559.5,722.6z"/>
			<path class="st2" d="M1585.6,723c0,6.2-3.4,11.8-10.1,11.8c-6,0-9.8-5-9.8-11.7c0-6.4,3.5-11.7,10-11.7
				C1581.7,711.4,1585.6,716,1585.6,723z M1568.1,723.1c0,5.3,2.9,9.6,7.6,9.6c4.8,0,7.6-4,7.6-9.6c0-5.3-2.7-9.6-7.7-9.6
				C1570.5,713.5,1568.1,717.7,1568.1,723.1z"/>
			<path class="st2" d="M1591.2,717.5c0-2,0-3.8,0-5.6h2.2c0.1,0.7,0.1,3.6,0.1,4.3c1-2.3,2.8-4.8,7.4-4.8c4,0,7.5,2.2,7.5,8.4v14.5
				h-2.2v-14.1c0-4-1.7-6.6-5.5-6.6c-5.3,0-7.2,4.4-7.2,9.3v11.4h-2.2V717.5z"/>
			<path class="st2" d="M1615.7,728.1c0.8,2.9,2.8,4.7,6.4,4.7c4,0,5.6-1.8,5.6-4.3c0-2.5-1.1-3.8-6.1-5c-5.8-1.4-7.2-3.1-7.2-6.1
				c0-3.1,2.3-6,7.4-6c5.1,0,7.5,3.1,7.8,6.3h-2.2c-0.4-1.9-1.9-4.2-5.7-4.2c-3.9,0-5,1.9-5,3.7c0,2.1,1.1,3.1,5.5,4.2
				c6.3,1.5,7.9,3.6,7.9,6.9c0,4.1-3.3,6.6-8,6.6c-5.1,0-8-2.7-8.6-6.7H1615.7z"/>
			<path class="st2" d="M1650.9,730c0,2,0.2,3.5,0.3,4.3h-2.1c-0.2-0.5-0.3-1.5-0.4-3.4c-0.8,1.7-2.7,4-7.3,4
				c-5.2,0-7.4-3.4-7.4-6.7c0-4.9,3.8-7.2,10.5-7.2c1.9,0,3.4,0,4.3,0v-2.3c0-2.2-0.7-5.2-5.8-5.2c-4.5,0-5.2,2.4-5.7,4.2h-2.2
				c0.3-2.5,1.8-6.3,8-6.3c5.1,0,8,2.1,8,7.1V730z M1648.7,722.9c-0.9,0-2.9,0-4.4,0c-5,0-8.1,1.3-8.1,5.1c0,2.8,2,4.7,5.1,4.7
				c6.4,0,7.3-4.3,7.3-9.1V722.9z"/>
			<path class="st2" d="M1658.3,701.3h2.2v14.4c1.1-2.2,3.3-4.3,7.7-4.3c5.3,0,9.2,4.3,9.2,11.2c0,7.1-3.5,12.2-9.8,12.2
				c-3.8,0-5.9-1.5-7.1-4.1c0,1.4,0,2.9-0.1,3.5h-2.2c0-2.6,0-5.1,0-7.7V701.3z M1675,722.6c0-5.6-2.8-9.2-7-9.2
				c-5.6,0-7.6,3.8-7.6,9.7c0,5.3,1.7,9.6,7.3,9.6C1672.2,732.7,1675,729,1675,722.6z"/>
			<path class="st2" d="M1682.9,734.3v-33h2.2v33H1682.9z"/>
			<path class="st2" d="M1692.9,723.4c0,5.8,3,9.4,7.2,9.4c4.2,0,5.6-2.4,6.4-4.2h2.3c-0.9,3-3.3,6.3-8.8,6.3
				c-6.8,0-9.4-5.9-9.4-11.5c0-6.4,3.2-11.9,9.7-11.9c6.9,0,9.1,6,9.1,10.2c0,0.6,0,1.3,0,1.8H1692.9z M1707.1,721.4
				c0-4.4-2.5-7.9-6.8-7.9c-4.6,0-6.7,3.2-7.2,7.9H1707.1z"/>
			<path class="st2" d="M1730.5,723.5l-4,10.8h-2.5l11.5-31.3h2.9l12,31.3h-2.6l-4.1-10.8H1730.5z M1742.9,721.2
				c-3.5-9.3-5.3-13.8-5.9-15.9h0c-0.8,2.4-2.8,7.9-5.6,15.9H1742.9z"/>
			<path class="st2" d="M1751.8,711.9h4.2v-7h2.2v7h5.3v2.1h-5.3v14.5c0,2.5,0.5,3.9,2.7,3.9c0.7,0,1.6,0,2.3-0.3v2
				c-0.8,0.3-1.8,0.4-2.8,0.4c-2.9,0-4.5-1.4-4.5-5V714h-4.2V711.9z"/>
			<path class="st2" d="M1768.6,723.4c0,5.8,3,9.4,7.2,9.4c4.2,0,5.6-2.4,6.4-4.2h2.3c-0.9,3-3.3,6.3-8.8,6.3
				c-6.8,0-9.4-5.9-9.4-11.5c0-6.4,3.2-11.9,9.7-11.9c6.9,0,9.1,6,9.1,10.2c0,0.6,0,1.3,0,1.8H1768.6z M1782.8,721.4
				c0-4.4-2.5-7.9-6.8-7.9c-4.6,0-6.7,3.2-7.2,7.9H1782.8z"/>
			<path class="st2" d="M1790.6,734.3v-33h2.2v33H1790.6z"/>
			<path class="st2" d="M1800.2,701.3h2.2v4.3h-2.2V701.3z M1800.2,711.9h2.2v22.4h-2.2V711.9z"/>
			<path class="st2" d="M1810.2,723.4c0,5.8,3,9.4,7.2,9.4c4.2,0,5.6-2.4,6.4-4.2h2.3c-0.9,3-3.3,6.3-8.8,6.3
				c-6.8,0-9.4-5.9-9.4-11.5c0-6.4,3.2-11.9,9.7-11.9c6.9,0,9.1,6,9.1,10.2c0,0.6,0,1.3,0,1.8H1810.2z M1824.4,721.4
				c0-4.4-2.5-7.9-6.8-7.9c-4.6,0-6.7,3.2-7.2,7.9H1824.4z"/>
			<path class="st2" d="M1832.2,718c0-3.8,0-5.4,0-6.1h2.2c0,0.7,0.1,2.1,0.1,5c1.3-3.4,4.2-5.4,7.8-5.5v2.4
				c-4.7,0.3-7.8,3.5-7.8,8.9v11.6h-2.2V718z"/>
		</g>
	</g>
	<g>
		<g>
			<path class="st2" d="M1302.7,819.7h-31.8c-2.8,0-5.1,2.3-5.1,5.1v21.7c0,2.8,2.3,5.1,5.1,5.1h31.8c2.8,0,5.1-2.3,5.1-5.1v-21.7
				C1307.8,822,1305.5,819.7,1302.7,819.7z M1305.5,846.6c0,1.5-1.3,2.8-2.8,2.8h-31.8c-1.5,0-2.8-1.3-2.8-2.8v-21.7
				c0-1.5,1.3-2.8,2.8-2.8h31.8c1.5,0,2.8,1.3,2.8,2.8L1305.5,846.6L1305.5,846.6z"/>
			<path class="st2" d="M1292.3,835.5l10.3-9.2c0.5-0.4,0.5-1.2,0.1-1.7c-0.4-0.5-1.2-0.5-1.7-0.1l-14.2,12.7l-2.8-2.5c0,0,0,0,0,0
				c-0.1-0.1-0.1-0.1-0.2-0.2l-11.3-10.1c-0.5-0.4-1.2-0.4-1.7,0.1c-0.4,0.5-0.4,1.2,0.1,1.7l10.4,9.3l-10.4,9.7
				c-0.5,0.4-0.5,1.2-0.1,1.7c0.2,0.2,0.5,0.4,0.9,0.4c0.3,0,0.6-0.1,0.8-0.3l10.5-9.8l2.9,2.5c0.2,0.2,0.5,0.3,0.8,0.3
				s0.6-0.1,0.8-0.3l2.9-2.6l10.5,9.9c0.2,0.2,0.5,0.3,0.8,0.3c0.3,0,0.6-0.1,0.9-0.4c0.4-0.5,0.4-1.2,0-1.7L1292.3,835.5z"/>
		</g>
	</g>
	<g>
		<g>
			<path class="st2" d="M1298.1,911.5c-0.9-0.9-1.9-1.4-3-1.4c-1.1,0-2.1,0.5-3,1.4l-2.8,2.8c-0.2-0.1-0.5-0.2-0.7-0.4
				c-0.3-0.2-0.6-0.3-0.9-0.5c-2.6-1.7-5-3.8-7.3-6.6c-1.1-1.4-1.9-2.6-2.4-3.8c0.7-0.7,1.4-1.4,2.1-2c0.2-0.2,0.5-0.5,0.7-0.8
				c1.9-1.9,1.9-4.3,0-6.1l-2.4-2.4c-0.3-0.3-0.6-0.6-0.8-0.8c-0.5-0.5-1.1-1.1-1.7-1.6c-0.9-0.9-1.9-1.3-3-1.3
				c-1.1,0-2.1,0.5-3,1.3c0,0,0,0,0,0l-3,3c-1.1,1.1-1.8,2.5-1.9,4.1c-0.2,2.6,0.5,5,1.1,6.6c1.4,3.9,3.6,7.5,6.8,11.3
				c3.9,4.6,8.6,8.3,13.9,10.9c2,1,4.8,2.1,7.8,2.3c0.2,0,0.4,0,0.6,0c2,0,3.8-0.7,5.1-2.2c0,0,0,0,0,0c0.5-0.6,1-1.1,1.6-1.6
				c0.4-0.4,0.8-0.7,1.2-1.1c0.9-0.9,1.3-2,1.3-3.1c0-1.1-0.5-2.2-1.4-3L1298.1,911.5z M1301.2,920.8
				C1301.2,920.8,1301.2,920.8,1301.2,920.8c-0.3,0.4-0.7,0.7-1.1,1.1c-0.6,0.5-1.2,1.1-1.7,1.8c-0.9,1-1.9,1.4-3.3,1.4
				c-0.1,0-0.3,0-0.4,0c-2.6-0.2-5.1-1.2-6.9-2.1c-5-2.4-9.4-5.9-13.1-10.2c-3-3.6-5-7-6.4-10.6c-0.8-2.2-1.1-3.9-1-5.5
				c0.1-1,0.5-1.9,1.2-2.6l3-3c0.4-0.4,0.9-0.6,1.3-0.6c0.6,0,1,0.3,1.3,0.6c0,0,0,0,0,0c0.5,0.5,1.1,1,1.6,1.6
				c0.3,0.3,0.6,0.6,0.8,0.9l2.4,2.4c0.9,0.9,0.9,1.8,0,2.7c-0.3,0.3-0.5,0.5-0.8,0.8c-0.7,0.8-1.5,1.5-2.2,2.2c0,0,0,0,0,0
				c-0.8,0.8-0.6,1.5-0.5,2c0,0,0,0.1,0,0.1c0.6,1.5,1.5,3,2.9,4.7l0,0c2.4,3,5,5.4,7.9,7.2c0.4,0.2,0.7,0.4,1.1,0.6
				c0.3,0.2,0.6,0.3,0.9,0.5c0,0,0.1,0,0.1,0.1c0.3,0.2,0.6,0.2,0.9,0.2c0.7,0,1.2-0.5,1.3-0.6l3-3c0.3-0.3,0.8-0.7,1.3-0.7
				c0.5,0,1,0.3,1.3,0.6c0,0,0,0,0,0l4.9,4.9C1302.1,919,1302.1,919.9,1301.2,920.8z"/>
			<path class="st2" d="M1287.6,895.5c2.3,0.4,4.4,1.5,6.1,3.2c1.7,1.7,2.8,3.8,3.2,6.1c0.1,0.6,0.6,1,1.2,1c0.1,0,0.1,0,0.2,0
				c0.7-0.1,1.1-0.7,1-1.4c-0.5-2.8-1.8-5.4-3.8-7.4c-2-2-4.6-3.4-7.4-3.8c-0.7-0.1-1.3,0.3-1.4,1
				C1286.5,894.8,1286.9,895.4,1287.6,895.5z"/>
			<path class="st2" d="M1306.8,904c-0.8-4.6-3-8.8-6.3-12.2s-7.6-5.5-12.2-6.3c-0.6-0.1-1.3,0.3-1.4,1c-0.1,0.7,0.3,1.3,1,1.4
				c4.1,0.7,7.9,2.7,10.9,5.6c3,3,4.9,6.8,5.6,10.9c0.1,0.6,0.6,1,1.2,1c0.1,0,0.1,0,0.2,0C1306.5,905.3,1306.9,904.7,1306.8,904z"
				/>
		</g>
	</g>
	<g>
		<g id="XMLID_4_">
			<path id="XMLID_6_" class="st2" d="M1307,707.2c-1.4-9.4-4.7-18.6-12.1-23.1c-3,2.4-6.7,3.7-10.7,3.7c-3.9,0-7.6-1.3-10.7-3.7
				c-7.3,4.5-10.7,13.7-12.1,23.1c-0.3,2,1.3,3.8,3.3,3.8h38.9C1305.7,711,1307.3,709.2,1307,707.2z"/>
			<g id="XMLID_5_">
				<path class="st2" d="M1284.2,657c-7.4,0-13.5,6-13.5,13.5s6,13.5,13.5,13.5c7.5,0,13.5-6,13.5-13.5S1291.7,657,1284.2,657z
					 M1284.2,666.1c-2.4,0-4.4,2-4.4,4.4c0,1.1-0.9,2-2,2s-2-0.9-2-2c0-4.6,3.8-8.4,8.4-8.4c1.1,0,2,0.9,2,2
					S1285.3,666.1,1284.2,666.1z"/>
			</g>
		</g>
	</g>
</g>
<g id="Calque_13">
	<rect x="327.7" y="809.8" class="st11" width="534.2" height="68.7"/>
	<text transform="matrix(1 0 0 1 327.7061 857.2742)" class="st12 st13 st14">GROUPE ELECTROGENE</text>
	<rect x="107" y="1363.1" class="st11" width="325" height="68.7"/>
	<text transform="matrix(1 0 0 1 107 1410.6077)" class="st12 st13 st14">INDUSTRIEL</text>
	<rect x="1931.7" y="132.5" class="st11" width="316.2" height="68.7"/>
	<text transform="matrix(1 0 0 1 1931.7109 179.9409)" class="st15 st13 st14">ASSEMBLAGE</text>
	<rect x="2017.9" y="938.8" class="st11" width="310.2" height="68.7"/>
	<text transform="matrix(1 0 0 1 2017.9229 986.2743)" class="st15 st13 st14">TUYAUTERIE</text>
	<rect x="1292" y="1337.8" class="st11" width="244.2" height="68.7"/>
	<text transform="matrix(1 0 0 1 1292 1385.2743)" class="st15 st13 st14">SECOURS</text>
	<rect x="1009.5" y="490.1" class="st11" width="247.2" height="68.7"/>
	<text transform="matrix(1 0 0 1 1009.469 537.6076)" class="st15 st13 st14">SOUDURE</text>
</g>
<g id="Calque_14">
</g>
</svg>
