<?xml version="1.0" encoding="utf-8"?>
<!-- Generator: Adobe Illustrator 25.3.0, SVG Export Plug-In . SVG Version: 6.00 Build 0)  -->
<svg version="1.1" xmlns="http://www.w3.org/2000/svg" xmlns:xlink="http://www.w3.org/1999/xlink" x="0px" y="0px"
	 viewBox="0 0 382 382" style="enable-background:new 0 0 382 382;" xml:space="preserve">
<style type="text/css">
	.st0{fill:#0077B7;}
	.st1{fill:#F5F5F5;}
</style>
<g id="Calque_2">
	<rect x="-9" y="-10.7" class="st0" width="403.1" height="403.1"/>
</g>
<g id="Calque_3">
	<rect x="46.1" y="44.4" class="st1" width="292.9" height="292.9"/>
</g>
<g id="Layer_1">
	<path class="st0" d="M327.1,24.9H54.9c-16.6,0-30.1,13.5-30.1,30.1v272.1c0,16.6,13.5,30.1,30.1,30.1h272.1
		c16.6,0,30.1-13.5,30.1-30.1V54.9C357.1,38.3,343.7,24.9,327.1,24.9z M127.7,311.8c0,4.8-3.9,8.7-8.7,8.7H81.7
		c-4.8,0-8.7-3.9-8.7-8.7V155.7c0-4.8,3.9-8.7,8.7-8.7h37.2c4.8,0,8.7,3.9,8.7,8.7V311.8z M100.3,132.2c-19.5,0-35.4-15.8-35.4-35.4
		s15.8-35.4,35.4-35.4s35.4,15.8,35.4,35.4S119.9,132.2,100.3,132.2z M322.2,312.5c0,4.4-3.6,8-8,8h-39.9c-4.4,0-8-3.6-8-8v-73.2
		c0-10.9,3.2-47.9-28.5-47.9c-24.6,0-29.6,25.3-30.6,36.6v84.4c0,4.4-3.6,8-8,8h-38.6c-4.4,0-8-3.6-8-8V155c0-4.4,3.6-8,8-8H199
		c4.4,0,8,3.6,8,8v13.6c9.1-13.7,22.7-24.3,51.6-24.3c64,0,63.6,59.8,63.6,92.6L322.2,312.5z"/>
</g>
</svg>
