<?xml version="1.0" encoding="utf-8"?>
<!-- Generator: Adobe Illustrator 24.0.0, SVG Export Plug-In . SVG Version: 6.00 Build 0)  -->
<svg version="1.1" id="Calque_1" xmlns="http://www.w3.org/2000/svg" xmlns:xlink="http://www.w3.org/1999/xlink" x="0px" y="0px"
	 viewBox="0 0 512 512" style="enable-background:new 0 0 512 512;" xml:space="preserve">
<style type="text/css">
	.st0{fill:#F5F5F5;stroke:#222222;stroke-width:10;stroke-miterlimit:10;}
</style>
<path class="st0" d="M447.1,485.3c-9.8,0-19.6-3.7-27-11.2L37.9,91.9c-14.9-14.9-14.9-39.1,0-54c14.9-14.9,39.1-14.9,54,0
	l382.2,382.2c14.9,14.9,14.9,39.1,0,54C466.7,481.6,456.9,485.3,447.1,485.3z"/>
<path class="st0" d="M64.9,485.3c-9.8,0-19.6-3.7-27-11.2c-14.9-14.9-14.9-39.1,0-54L420.1,37.9c14.9-14.9,39.1-14.9,54,0
	c14.9,14.9,14.9,39.1,0,54L91.9,474.1C84.4,481.6,74.7,485.3,64.9,485.3z"/>
</svg>
