<?xml version="1.0" encoding="utf-8"?>
<!-- Generator: Adobe Illustrator 25.3.0, SVG Export Plug-In . SVG Version: 6.00 Build 0)  -->
<svg version="1.1" id="Capa_1" xmlns="http://www.w3.org/2000/svg" xmlns:xlink="http://www.w3.org/1999/xlink" x="0px" y="0px"
	 viewBox="0 0 512 512" style="enable-background:new 0 0 512 512;" xml:space="preserve">
<style type="text/css">
	.st0{fill:#333333;}
</style>
<g transform="translate(1 1)">
	<g>
		<g>
			<path class="st0" d="M255-1C113.6-1-1,113.6-1,255s114.6,256,256,256s256-114.6,256-256S396.4-1,255-1z M255,491.4
				C124.4,491.4,18.6,385.6,18.6,255S124.4,18.6,255,18.6S491.4,124.4,491.4,255S385.6,491.4,255,491.4z"/>
			<path class="st0" d="M361.7,148.3H148.3c-11.8,0-21.3,9.6-21.3,21.3s9.6,21.3,21.3,21.3h213.3c11.8,0,21.3-9.6,21.3-21.3
				C383,157.9,373.4,148.3,361.7,148.3z"/>
			<path class="st0" d="M361.7,233.7H148.3c-11.8,0-21.3,9.6-21.3,21.3c0,11.8,9.6,21.3,21.3,21.3h213.3c11.8,0,21.3-9.6,21.3-21.3
				S373.4,233.7,361.7,233.7z"/>
			<path class="st0" d="M361.7,319H148.3c-11.8,0-21.3,9.6-21.3,21.3s9.6,21.3,21.3,21.3h213.3c11.8,0,21.3-9.6,21.3-21.3
				C383,328.6,373.4,319,361.7,319z"/>
		</g>
	</g>
</g>
</svg>
