<?xml version="1.0" encoding="utf-8"?>
<!-- Generator: Adobe Illustrator 26.0.0, SVG Export Plug-In . SVG Version: 6.00 Build 0)  -->
<svg version="1.1" id="Layer_1" xmlns="http://www.w3.org/2000/svg" xmlns:xlink="http://www.w3.org/1999/xlink" x="0px" y="0px"
	 width="400px" height="150px" viewBox="0 0 400 150" style="enable-background:new 0 0 400 150;" xml:space="preserve">
<style type="text/css">
	.st0{opacity:0.61;fill:none;stroke:#FFFFFF;stroke-width:2;stroke-miterlimit:10;}
	.st1{opacity:0.61;}
	.st2{fill:#FFFFFF;}
</style>
<path class="st0" d="M4.4,29.6V6.7c0-2.2,2.7-4,6-4h59.4"/>
<path class="st0" d="M4.4,29.6"/>
<path class="st0" d="M325.7,147.3"/>
<path class="st0" d="M395.6,120.6v22.7c0,2.2-2.7,4-6,4h-63.9"/>
<path class="st0" d="M395.6,120.6"/>
<g class="st1">
	<g>
		<path class="st2" d="M365,46.4l-1,0c-0.5,0-1-0.5-1-1c0-0.5,0.4-1,1-1l1,0c0.6,0,1,0.4,1,1S365.6,46.4,365,46.4
			C365,46.4,365,46.4,365,46.4z"/>
		<path class="st2" d="M354,46.3l-1,0c-0.5,0-0.9-0.4-0.9-0.9c0-0.5,0.4-0.9,0.9-0.9l1,0c0.5,0,0.9,0.4,0.9,0.9
			C354.9,45.9,354.5,46.3,354,46.3C354,46.3,354,46.3,354,46.3z"/>
		<path class="st2" d="M343,46.2l-1,0c-0.5,0-0.8-0.4-0.8-0.8c0-0.5,0.4-0.8,0.8-0.8l1,0c0.5,0,0.8,0.4,0.8,0.8
			C343.8,45.8,343.5,46.2,343,46.2C343,46.2,343,46.2,343,46.2z"/>
		<path class="st2" d="M332,46.1l-1,0c-0.4,0-0.7-0.3-0.7-0.8c0-0.4,0.3-0.7,0.7-0.7l1,0c0.4,0,0.8,0.3,0.8,0.7
			C332.8,45.8,332.4,46.1,332,46.1C332,46.1,332,46.1,332,46.1z"/>
		<path class="st2" d="M321,46.1l-1,0c-0.4,0-0.7-0.3-0.7-0.7c0-0.4,0.3-0.7,0.7-0.7l1,0c0.4,0,0.7,0.3,0.7,0.7S321.4,46.1,321,46.1
			C321,46.1,321,46.1,321,46.1z"/>
		<path class="st2" d="M310,46l-1,0c-0.3,0-0.6-0.3-0.6-0.6c0-0.3,0.3-0.6,0.6-0.6l1,0c0.3,0,0.6,0.3,0.6,0.6
			C310.6,45.7,310.3,46,310,46C310,46,310,46,310,46z"/>
		<path class="st2" d="M299,45.9l-1,0c-0.3,0-0.5-0.2-0.5-0.5c0-0.3,0.2-0.5,0.5-0.5l1,0c0.3,0,0.5,0.2,0.5,0.5
			C299.5,45.7,299.3,45.9,299,45.9C299,45.9,299,45.9,299,45.9z"/>
		<path class="st2" d="M288,45.8l-1,0c-0.2,0-0.4-0.2-0.4-0.4c0-0.2,0.2-0.4,0.4-0.4l1,0c0.2,0,0.4,0.2,0.4,0.4
			C288.4,45.6,288.2,45.8,288,45.8C288,45.8,288,45.8,288,45.8z"/>
		<path class="st2" d="M277,45.7l-1,0c-0.2,0-0.3-0.2-0.3-0.3c0-0.2,0.1-0.3,0.3-0.3l1,0c0.2,0,0.3,0.2,0.3,0.3
			C277.3,45.6,277.2,45.7,277,45.7C277,45.7,277,45.7,277,45.7z"/>
		<path class="st2" d="M266,45.6l-1,0c-0.1,0-0.3-0.1-0.3-0.3c0-0.1,0.1-0.2,0.3-0.3l1,0c0.1,0,0.3,0.1,0.3,0.3S266.1,45.6,266,45.6
			C266,45.6,266,45.6,266,45.6z"/>
		<path class="st2" d="M255,45.6l-1,0c-0.1,0-0.2-0.1-0.2-0.2c0-0.1,0.1-0.2,0.2-0.2l1,0c0.1,0,0.2,0.1,0.2,0.2
			C255.2,45.5,255.1,45.6,255,45.6C255,45.6,255,45.6,255,45.6z"/>
		<path class="st2" d="M244,45.5l-1,0c0,0-0.1,0-0.1-0.1c0,0,0-0.1,0.1-0.1l1,0C244.1,45.3,244.1,45.3,244,45.5
			C244.1,45.4,244.1,45.5,244,45.5C244,45.5,244,45.5,244,45.5z"/>
		<path class="st2" d="M233,45.4l-1,0c0,0,0,0,0,0c0,0,0,0,0,0L233,45.4C233,45.4,233,45.4,233,45.4C233,45.4,233,45.4,233,45.4
			C233,45.4,233,45.4,233,45.4z"/>
	</g>
</g>
<g class="st1">
	<g>
		<path class="st2" d="M365,31.6l-1,0c-0.5,0-1-0.5-1-1c0-0.5,0.4-1,1-1l1,0c0.6,0,1,0.4,1,1S365.6,31.6,365,31.6
			C365,31.6,365,31.6,365,31.6z"/>
		<path class="st2" d="M354,31.5l-1,0c-0.5,0-0.9-0.4-0.9-0.9c0-0.5,0.4-0.9,0.9-0.9l1,0c0.5,0,0.9,0.4,0.9,0.9
			C354.9,31.1,354.5,31.5,354,31.5C354,31.5,354,31.5,354,31.5z"/>
		<path class="st2" d="M343,31.4l-1,0c-0.5,0-0.8-0.4-0.8-0.8c0-0.5,0.4-0.8,0.8-0.8l1,0c0.5,0,0.8,0.4,0.8,0.8
			C343.8,31,343.5,31.4,343,31.4C343,31.4,343,31.4,343,31.4z"/>
		<path class="st2" d="M332,31.3l-1,0c-0.4,0-0.7-0.3-0.7-0.8c0-0.4,0.3-0.7,0.7-0.7l1,0c0.4,0,0.8,0.3,0.8,0.7S332.4,31.3,332,31.3
			C332,31.3,332,31.3,332,31.3z"/>
		<path class="st2" d="M321,31.2l-1,0c-0.4,0-0.7-0.3-0.7-0.7c0-0.4,0.3-0.7,0.7-0.7l1,0c0.4,0,0.7,0.3,0.7,0.7
			C321.7,30.9,321.4,31.2,321,31.2C321,31.2,321,31.2,321,31.2z"/>
		<path class="st2" d="M310,31.2l-1,0c-0.3,0-0.6-0.3-0.6-0.6c0-0.3,0.3-0.6,0.6-0.6l1,0c0.3,0,0.6,0.3,0.6,0.6
			C310.6,30.9,310.3,31.2,310,31.2C310,31.2,310,31.2,310,31.2z"/>
		<path class="st2" d="M299,31.1l-1,0c-0.3,0-0.5-0.2-0.5-0.5c0-0.3,0.2-0.5,0.5-0.5l1,0c0.3,0,0.5,0.2,0.5,0.5
			C299.5,30.8,299.3,31.1,299,31.1C299,31.1,299,31.1,299,31.1z"/>
		<path class="st2" d="M288,31l-1,0c-0.2,0-0.4-0.2-0.4-0.4c0-0.2,0.2-0.4,0.4-0.4l1,0c0.2,0,0.4,0.2,0.4,0.4
			C288.4,30.8,288.2,31,288,31C288,31,288,31,288,31z"/>
		<path class="st2" d="M277,30.9l-1,0c-0.2,0-0.3-0.2-0.3-0.3c0-0.2,0.1-0.3,0.3-0.3l1,0c0.2,0,0.3,0.2,0.3,0.3
			C277.3,30.8,277.2,30.9,277,30.9C277,30.9,277,30.9,277,30.9z"/>
		<path class="st2" d="M266,30.8l-1,0c-0.1,0-0.3-0.1-0.3-0.3c0-0.1,0.1-0.2,0.3-0.3l1,0c0.1,0,0.3,0.1,0.3,0.3
			C266.3,30.7,266.1,30.8,266,30.8C266,30.8,266,30.8,266,30.8z"/>
		<path class="st2" d="M255,30.8l-1,0c-0.1,0-0.2-0.1-0.2-0.2c0-0.1,0.1-0.2,0.2-0.2l1,0c0.1,0,0.2,0.1,0.2,0.2
			C255.2,30.7,255.1,30.7,255,30.8C255,30.8,255,30.8,255,30.8z"/>
		<path class="st2" d="M244,30.7l-1,0c0,0-0.1,0-0.1-0.1c0,0,0-0.1,0.1-0.1l1,0C244.1,30.5,244.1,30.5,244,30.7
			C244.1,30.6,244.1,30.7,244,30.7C244,30.7,244,30.7,244,30.7z"/>
		<path class="st2" d="M233,30.6l-1,0c0,0,0,0,0,0c0,0,0,0,0,0L233,30.6C233,30.6,233,30.6,233,30.6C233,30.6,233,30.6,233,30.6
			C233,30.6,233,30.6,233,30.6z"/>
	</g>
</g>
<g class="st1">
	<g>
		<path class="st2" d="M365,16.8l-1,0c-0.5,0-1-0.5-1-1c0-0.5,0.4-1,1-1l1,0c0.6,0,1,0.4,1,1C366,16.3,365.6,16.8,365,16.8
			C365,16.8,365,16.8,365,16.8z"/>
		<path class="st2" d="M354,16.7l-1,0c-0.5,0-0.9-0.4-0.9-0.9c0-0.5,0.4-0.9,0.9-0.9l1,0c0.5,0,0.9,0.4,0.9,0.9
			C354.9,16.3,354.5,16.7,354,16.7C354,16.7,354,16.7,354,16.7z"/>
		<path class="st2" d="M343,16.6l-1,0c-0.5,0-0.8-0.4-0.8-0.8c0-0.5,0.4-0.8,0.8-0.8l1,0c0.5,0,0.8,0.4,0.8,0.8
			C343.8,16.2,343.5,16.6,343,16.6C343,16.6,343,16.6,343,16.6z"/>
		<path class="st2" d="M332,16.5l-1,0c-0.4,0-0.7-0.3-0.7-0.8c0-0.4,0.3-0.7,0.7-0.7l1,0c0.4,0,0.8,0.3,0.8,0.7
			C332.8,16.2,332.4,16.5,332,16.5C332,16.5,332,16.5,332,16.5z"/>
		<path class="st2" d="M321,16.4l-1,0c-0.4,0-0.7-0.3-0.7-0.7c0-0.4,0.3-0.7,0.7-0.7l1,0c0.4,0,0.7,0.3,0.7,0.7
			C321.7,16.1,321.4,16.4,321,16.4C321,16.4,321,16.4,321,16.4z"/>
		<path class="st2" d="M310,16.4l-1,0c-0.3,0-0.6-0.3-0.6-0.6c0-0.3,0.3-0.6,0.6-0.6l1,0c0.3,0,0.6,0.3,0.6,0.6
			C310.6,16.1,310.3,16.3,310,16.4C310,16.4,310,16.4,310,16.4z"/>
		<path class="st2" d="M299,16.3l-1,0c-0.3,0-0.5-0.2-0.5-0.5c0-0.3,0.2-0.5,0.5-0.5l1,0c0.3,0,0.5,0.2,0.5,0.5
			C299.5,16,299.3,16.3,299,16.3C299,16.3,299,16.3,299,16.3z"/>
		<path class="st2" d="M288,16.2l-1,0c-0.2,0-0.4-0.2-0.4-0.4c0-0.2,0.2-0.4,0.4-0.4l1,0c0.2,0,0.4,0.2,0.4,0.4
			C288.4,16,288.2,16.2,288,16.2C288,16.2,288,16.2,288,16.2z"/>
		<path class="st2" d="M277,16.1l-1,0c-0.2,0-0.3-0.2-0.3-0.3c0-0.2,0.1-0.3,0.3-0.3l1,0c0.2,0,0.3,0.2,0.3,0.3
			C277.3,15.9,277.2,16.1,277,16.1C277,16.1,277,16.1,277,16.1z"/>
		<path class="st2" d="M266,16l-1,0c-0.1,0-0.3-0.1-0.3-0.3c0-0.1,0.1-0.2,0.3-0.3l1,0c0.1,0,0.3,0.1,0.3,0.3
			C266.3,15.9,266.1,16,266,16C266,16,266,16,266,16z"/>
		<path class="st2" d="M255,15.9l-1,0c-0.1,0-0.2-0.1-0.2-0.2c0-0.1,0.1-0.2,0.2-0.2l1,0c0.1,0,0.2,0.1,0.2,0.2
			C255.2,15.9,255.1,15.9,255,15.9C255,15.9,255,15.9,255,15.9z"/>
		<path class="st2" d="M244,15.9l-1,0c0,0-0.1,0-0.1-0.1c0,0,0-0.1,0.1-0.1l1,0C244.1,15.7,244.1,15.7,244,15.9
			C244.1,15.8,244.1,15.9,244,15.9C244,15.9,244,15.9,244,15.9z"/>
		<path class="st2" d="M233,15.8l-1,0c0,0,0,0,0,0c0,0,0,0,0,0L233,15.8C233,15.8,233,15.8,233,15.8C233,15.8,233,15.8,233,15.8
			C233,15.8,233,15.8,233,15.8z"/>
	</g>
</g>
</svg>
