<?xml version="1.0" encoding="utf-8"?>
<!-- Generator: Adobe Illustrator 26.0.0, SVG Export Plug-In . SVG Version: 6.00 Build 0)  -->
<svg version="1.1" id="Calque_3" xmlns="http://www.w3.org/2000/svg" xmlns:xlink="http://www.w3.org/1999/xlink" x="0px" y="0px"
	 width="86.5px" height="86.6px" viewBox="0 0 86.5 86.6" style="enable-background:new 0 0 86.5 86.6;" xml:space="preserve">
<style type="text/css">
	.st0{fill:#F2A20C;}
</style>
<path class="st0" d="M51.2,64c2.2-0.3,4.4-0.8,6.5-1.4c7.5-2.3,11.5-7.4,12.7-15c0.5-3,0.6-6.1,0.1-9.2c-0.5-2.7-1.7-5.3-3.4-7.5
	c-0.4-0.5-0.6-1.1-0.4-1.7c0.9-3.3,0.8-6.8-0.4-10c-0.2-0.7-0.8-1.1-1.5-1c-2.3,0.2-4.5,1-6.5,2.1c-1.4,0.8-2.7,2.1-4.3,2.4
	s-3.2-0.6-4.8-0.8c-5.2-0.8-10.6-0.5-15.7,0.7c-0.8,0.2-1.6,0.1-2.3-0.4c-2.6-1.9-5.5-3.2-8.6-3.9c-2.1-0.4-2.3-0.3-2.9,1.7
	c-0.9,3-0.9,6.2-0.1,9.2c0.2,0.5,0.2,1-0.2,1.4c-3.9,4.6-4.4,10.1-3.7,15.8c0.2,1.7,0.5,3.3,1.1,4.9c2.3,6.9,7.5,10.4,14.4,11.9
	c1.2,0.3,2.5,0.4,3.9,0.7c-1.3,1.5-2.2,3.4-2.5,5.4c-0.1,0.5-0.4,0.6-0.8,0.8c-4.7,2-9,0.6-11.6-3.7c-1.4-2.3-3.1-4.1-5.8-4.7
	c-1-0.2-2.4-0.6-2.9,0.5s0.8,1.6,1.6,2.1c2.1,1.4,3.7,3.5,4.5,5.9c1.8,5.2,6.7,7.5,12,6.9c0.9-0.1,1.8-0.3,2.8-0.4
	c0,2.6,0.1,5.2,0,7.7c-0.1,1.7-1.5,2.4-3.4,1.8c-2.7-0.9-5.3-2.1-7.7-3.6C6.4,73-0.7,59.3,0.1,41.3C1.1,22.6,13.9,6.7,32,1.5
	c19.1-5.3,39.2,3.4,49,21.2c12.6,22.7,2.9,51.9-20.7,62.4c-1,0.4-1.9,0.8-2.9,1.2c-2.2,0.8-3.5-0.2-3.5-2.5V73.1
	C54.1,69.8,53.6,66.6,51.2,64z"/>
</svg>
