<?xml version="1.0" encoding="utf-8"?>
<!-- Generator: Adobe Illustrator 26.0.0, SVG Export Plug-In . SVG Version: 6.00 Build 0)  -->
<svg version="1.1" id="Layer_1" xmlns="http://www.w3.org/2000/svg" xmlns:xlink="http://www.w3.org/1999/xlink" x="0px" y="0px"
	 width="85.6px" height="85.6px" viewBox="0 0 85.6 85.6" style="enable-background:new 0 0 85.6 85.6;" xml:space="preserve">
<style type="text/css">
	.st0{fill:#F2A20C;}
</style>
<g id="Calque_1">
	<path class="st0" d="M42.8,0C19.2,0,0,19.2,0,42.8s19.2,42.8,42.8,42.8s42.7-19.1,42.8-42.7C85.5,19.3,66.4,0.1,42.8,0z M28.6,66
		v0.6c0,0.3-0.2,0.5-0.4,0.5c0,0,0,0-0.1,0h-9.6c-0.8,0-0.9-0.1-0.9-0.9V35.1c0-0.7,0.1-0.8,0.8-0.8H28c0.3,0,0.4,0.2,0.5,0.5v16
		l0,0C28.6,55.8,28.6,60.9,28.6,66z M29.3,24.9c-0.3,2.6-2.4,4.6-5,4.9c-1.5,0.3-3,0.1-4.3-0.6c-2.7-1.4-3.8-4.8-2.4-7.6
		c0.3-0.5,0.6-1,1.1-1.4c0.9-0.8,2-1.3,3.2-1.5c0.4-0.1,0.9-0.1,1.3-0.1c1.4,0,2.9,0.4,4,1.3C28.8,21,29.6,23,29.3,24.9z M68,66.6
		c0,0.3-0.2,0.5-0.4,0.5c0,0,0,0-0.1,0H58c-0.8,0-0.9-0.1-0.9-1V49.5c0-1.1-0.1-2.3-0.4-3.4c-0.4-1.9-2-3.5-3.9-3.9
		c-1.6-0.4-3.4,0-4.7,1c-1.4,1.1-2.3,2.7-2.5,4.4c-0.1,0.5-0.1,0.9-0.1,1.4v17.6c0,0.4-0.1,0.5-0.5,0.6h-9.5c-0.9,0-1-0.1-0.9-0.9
		c0.1-7.4,0.1-14.8,0.1-22.2c0-2.9,0-5.9-0.1-8.8c0-0.8,0.1-0.9,0.9-0.9h9.4c0.5,0,0.6,0.2,0.7,0.7v3.8c0.2-0.1,0.4-0.4,0.5-0.6
		c0.9-1.2,1.9-2.3,3.2-3.1s2.8-1.3,4.3-1.5c2.2-0.2,4.4,0,6.5,0.7c3,1,5.3,3.3,6.5,6.2c0.6,1.4,1,2.9,1.2,4.4s0.2,2.9,0.2,4.4
		L68,66.6L68,66.6z"/>
</g>
</svg>
